<?xml version="1.0" standalone="no"?>
<!DOCTYPE svg PUBLIC "-//W3C//DTD SVG 1.1//EN" "http://www.w3.org/Graphics/SVG/1.1/DTD/svg11.dtd" >
<svg xmlns="http://www.w3.org/2000/svg">
<metadata>
This is a custom SVG webfont generated by Font Squirrel.
Copyright   : Created by gluk with FontForge 20 httpfontforgesfnet
</metadata>
<defs>
<font id="webfontlH9f7zv8" horiz-adv-x="1169" >
<font-face units-per-em="2048" ascent="1610" descent="-438" />
<missing-glyph horiz-adv-x="731" />
<glyph unicode=" "  horiz-adv-x="731" />
<glyph unicode="&#x09;" horiz-adv-x="731" />
<glyph unicode="&#xa0;" horiz-adv-x="731" />
<glyph unicode="!" horiz-adv-x="364" d="M119 45q0 27 18.5 46.5t45 19.5t46 -19.5t19.5 -46.5t-19.5 -45t-46 -18t-45 18t-18.5 45zM145 1391h111v-74h-37v-950h-74v1024z" />
<glyph unicode="&#x22;" horiz-adv-x="512" d="M309 1159q20 76 21 162q0 43 -6 68l71 12q6 -25 6 -80q0 -104 -20 -180l-16 -58l-72 21zM109 1159q18 68 18 162q0 51 -4 68l72 12q6 -25 6 -80q0 -104 -21 -180l-18 -58l-70 21z" />
<glyph unicode="#" horiz-adv-x="802" d="M500 512l24 293h-219l-24 -293h219zM494 438h-220l-20 -219h-74l21 219h-146l6 74h146l24 293h-145l8 74h144l20 219h74l-21 -219h219l21 219h72l-19 -219h146l-9 -74h-143l-27 -293h148l-8 -74h-144l-20 -219h-74z" />
<glyph unicode="$" horiz-adv-x="1243" d="M657 657v-583q203 6 322 79.5t119 190.5q0 57 -27 103.5t-61.5 76t-102 57t-115 40.5zM586 754v487q-156 -8 -261.5 -77.5t-105.5 -147.5q0 -106 93.5 -161.5t273.5 -100.5zM586 1425h71v-110q270 -16 428 -174l13 -11v-69h-74v39q-135 127 -367 141v-506l150.5 -40 t134.5 -49t122 -70.5t73.5 -96t31.5 -135.5q0 -147 -136 -242.5t-376 -101.5v-111h-71v113q-145 10 -289.5 82t-212.5 141l-10 11v57h71v-29q68 -63 193 -121.5t248 -66.5v600q-80 20 -133.5 36.5t-117 46t-101 62.5t-63.5 83t-26 112q0 119 131.5 204t309.5 95v110z" />
<glyph unicode="%" horiz-adv-x="1314" d="M1143 1268l55 -47l-1024 -1172l-55 47zM586 1061q0 -104 -68.5 -180t-187.5 -76t-187.5 75.5t-68.5 180.5q0 102 67.5 179t188.5 77t188.5 -77t67.5 -179zM330 1243q-88 0 -136.5 -54t-48.5 -128q0 -76 47.5 -129t137.5 -53t136 53t46 129q0 74 -46 128t-136 54z M1243 256q0 -104 -68.5 -180t-187.5 -76t-187.5 76t-68.5 180q0 102 67.5 179t188.5 77t188.5 -77t67.5 -179zM987 438q-88 0 -135 -54t-47 -128q0 -76 46 -129t136 -53t136 53t46 129q0 74 -46 128t-136 54z" />
<glyph unicode="&#x26;" horiz-adv-x="1388" d="M145 367q0 -125 120 -218.5t362 -93.5q152 0 284 64l-331 354q-145 160 -189 219q-113 -55 -179.5 -143t-66.5 -182zM350 754q-57 94 -57 192v4q0 152 107.5 259.5t256.5 107.5q145 0 256 -100.5t111 -229.5v-37h-111v74h33q-18 88 -99 153.5t-190 65.5 q-121 0 -205.5 -86t-84.5 -207v-4q0 -86 51 -167t215 -255l344 -366q193 131 192 362q0 18 -5 43t-18 62t-45 65.5t-77 36.5v-33h-74v111h37q63 0 111.5 -24.5t75 -58.5t43 -77t21.5 -72.5t5 -52.5q0 -266 -215 -418q37 -29 78 -28h211v-74h-211q-80 0 -143 63 q-152 -82 -336 -81q-270 0 -411.5 112.5t-141.5 272.5q0 113 73.5 217t202.5 170z" />
<glyph unicode="'" horiz-adv-x="290" d="M109 1159q18 68 18 162q0 51 -4 68l72 12q6 -25 6 -80q0 -104 -21 -180l-18 -58l-70 21z" />
<glyph unicode="(" horiz-adv-x="512" d="M74 528v2q0 319 88 611.5t256 394.5l39 -61q-139 -84 -225.5 -353.5t-86.5 -591.5v-2q0 -315 85 -568t227 -337l-39 -61q-170 102 -257 375.5t-87 590.5z" />
<glyph unicode=")" horiz-adv-x="512" d="M438 530.5q0 -319.5 -87 -593t-257 -375.5l-39 61q141 84 226.5 338t85.5 569q0 322 -86 591.5t-226 353.5l39 61q168 -102 256 -394t88 -611.5z" />
<glyph unicode="*" horiz-adv-x="657" d="M559 1182l27 -68l-199 -72l123 -168l-57 -45l-123 170l-123 -170l-60 45l123 168l-196 72l24 68l195 -70v205h74v-205z" />
<glyph unicode="+" horiz-adv-x="950" d="M512 731h367v-74h-367v-364h-74v364h-364v74h364v367h74v-367z" />
<glyph unicode="," horiz-adv-x="364" d="M111 45q0 27 18 46.5t45 19.5t45.5 -19.5t18.5 -46.5q0 -133 -123 -256l-33 33q74 74 74 164q-45 14 -45 59z" />
<glyph unicode="-" horiz-adv-x="657" d="M586 512h-512v74h512v-74z" />
<glyph unicode="." horiz-adv-x="364" d="M111 45q0 27 18 46.5t45 19.5t45.5 -19.5t18.5 -46.5t-18.5 -45t-45.5 -18t-45 18t-18 45z" />
<glyph unicode="/" horiz-adv-x="1095" d="M999 1425l62 -39l-963 -1503l-61 39z" />
<glyph unicode="0" d="M586 1335q215 0 363.5 -195.5t148.5 -463.5q0 -285 -147.5 -489.5t-364.5 -204.5t-364.5 204.5t-147.5 489.5q0 268 148.5 463.5t363.5 195.5zM145 676q0 -254 128 -437.5t313 -183.5q176 0 307 179.5t131 441.5q0 246 -130 416t-308 170t-309.5 -170t-131.5 -416z" />
<glyph unicode="1" horiz-adv-x="438" d="M119 1092l-56 47l158 178h72v-1317h-74v1204h-2z" />
<glyph unicode="2" horiz-adv-x="950" d="M475 1335q166 0 285 -118.5t119 -284.5v-2q0 -109 -68 -221.5t-221 -255.5l-404 -379h619v37h74v-111h-805v68l465 440q147 139 206.5 236.5t59.5 185.5v2q0 135 -97.5 232.5t-232.5 97.5t-232.5 -97.5t-97.5 -232.5h-71q0 166 117.5 284.5t283.5 118.5z" />
<glyph unicode="3" horiz-adv-x="950" d="M475 694v74q106 0 181 72.5t75 175t-74.5 174.5t-181 72t-181.5 -72t-75 -174h-74q0 133 97.5 226t232.5 93q133 0 231.5 -95t98.5 -224q0 -94 -53.5 -169t-139.5 -112v-2q119 -39 193 -136t74 -222q0 -162 -119 -277.5t-285 -115.5t-283.5 115.5t-117.5 277.5h71 q0 -133 96.5 -226.5t233.5 -93.5t233.5 93.5t96.5 226.5t-96.5 226t-233.5 93z" />
<glyph unicode="4" horiz-adv-x="950" d="M731 879h74v-586h74v-74h-74v-219h-74v219h-657v68l4 10q242 365 336 587t94 433h74q0 -219 -93.5 -446.5t-324.5 -577.5h567v586z" />
<glyph unicode="5" horiz-adv-x="950" d="M184 1243l-28 -440q63 68 152 107.5t167 39.5q158 0 281 -121.5t123 -353.5q0 -240 -127 -366.5t-291 -126.5q-109 0 -218.5 57t-164.5 158l-4 10v8v41h71v-31q45 -76 135.5 -123t180.5 -47q133 0 238.5 106.5t105.5 313.5q0 201 -101.5 302.5t-228.5 101.5 q-90 0 -194.5 -68t-135.5 -164l-71 12l19 312l20 311l2 35h690v-111h-74v37h-547z" />
<glyph unicode="6" horiz-adv-x="950" d="M145 457q0 -168 102.5 -285t246.5 -117q127 0 219 116t92 286t-92 286.5t-219 116.5q-143 0 -246 -117.5t-103 -285.5zM494 932q158 0 271.5 -138.5t113.5 -337t-114 -336.5t-271 -138q-176 0 -298 139t-122 336q0 78 1 132t9 154.5t22.5 171t44 155.5t70.5 138.5 t106.5 90t147.5 36.5q199 0 322 -159l8 -11v-59h-74v35q-94 121 -256 121q-283 0 -330 -539h2q57 96 149 152.5t198 56.5z" />
<glyph unicode="7" horiz-adv-x="876" d="M37 1317h768v-68l-170 -233q-268 -365 -268 -1016h-74q0 678 280 1061l136 182h-598v-37h-74v111z" />
<glyph unicode="8" horiz-adv-x="950" d="M805 1016q0 -94 -53.5 -169t-139.5 -112v-2q119 -39 193 -136t74 -222q0 -162 -119 -277.5t-285 -115.5t-283.5 115.5t-117.5 277.5q0 125 73.5 222t190.5 136v2q-86 37 -139.5 112t-53.5 169q0 133 97.5 226t232.5 93t232.5 -93t97.5 -226zM805 375q0 133 -96.5 226 t-233.5 93t-233.5 -93t-96.5 -226t96.5 -226.5t233.5 -93.5t233.5 93.5t96.5 226.5zM219 1015.5q0 -102.5 75 -175t181.5 -72.5t181 72.5t74.5 175t-74.5 174.5t-181 72t-181.5 -72t-75 -174.5z" />
<glyph unicode="9" horiz-adv-x="950" d="M805 860q0 168 -102.5 285t-245.5 117q-127 0 -219.5 -116t-92.5 -286t92.5 -286.5t219.5 -116.5q143 0 245.5 117.5t102.5 285.5zM457 385q-158 0 -270.5 138.5t-112.5 337t112.5 336.5t270.5 138q176 0 299 -139t123 -336q0 -78 -1 -132t-9.5 -153.5t-23 -171 t-45 -156.5t-71.5 -138.5t-106.5 -90t-147.5 -36.5q-199 0 -321 159l-9 11v59h74v-35q94 -121 256 -121q285 0 332 539h-2q-57 -96 -149.5 -152.5t-198.5 -56.5z" />
<glyph unicode=":" horiz-adv-x="364" d="M111 831.5q0 26.5 18 46t45 19.5t45.5 -19.5t18.5 -46t-18.5 -45t-45.5 -18.5t-45 18.5t-18 45zM111 45q0 27 18 46.5t45 19.5t45.5 -19.5t18.5 -46.5t-18.5 -45t-45.5 -18t-45 18t-18 45z" />
<glyph unicode=";" horiz-adv-x="364" d="M111 45q0 27 18 46.5t45 19.5t45.5 -19.5t18.5 -46.5q0 -133 -123 -256l-33 33q74 74 74 164q-45 14 -45 59zM111 831.5q0 26.5 18 46t45 19.5t45.5 -19.5t18.5 -46t-18.5 -45t-45.5 -18.5t-45 18.5t-18 45z" />
<glyph unicode="&#x3c;" horiz-adv-x="657" d="M623 317l-43 -59l-506 360v82l508 347l41 -64l-478 -321v-7z" />
<glyph unicode="=" horiz-adv-x="950" d="M879 438h-805v74h805v-74zM879 805h-805v74h805v-74z" />
<glyph unicode="&#x3e;" horiz-adv-x="657" d="M37 317l475 338v7l-475 321l41 64l508 -347v-82l-508 -360z" />
<glyph unicode="?" horiz-adv-x="876" d="M338 45q0 27 18.5 46.5t45 19.5t46 -19.5t19.5 -46.5t-19.5 -45t-46 -18t-45 18t-18.5 45zM367 508q0 70 37.5 122t91.5 86l106 69q53 36 91 96.5t38 142.5q0 121 -86 207t-207 86t-207 -86t-86 -207h-71q0 152 107.5 259.5t256.5 107.5q152 0 259.5 -107.5t107.5 -259.5 q0 -94 -38 -163.5t-91 -109.5t-107.5 -74t-92.5 -75t-38 -94v-141h-71v141z" />
<glyph unicode="@" horiz-adv-x="1644" d="M967 276l114 576h-194q-129 0 -257 -139.5t-128 -350.5q0 -129 68.5 -198.5t150.5 -69.5q61 0 132 44t108 122zM729 -274q-326 0 -509 196.5t-183 478.5q0 344 255 600t632 256q219 0 378.5 -96t233.5 -238.5t74 -306.5q0 -139 -46 -254.5t-117 -185.5t-149.5 -106.5 t-152.5 -36.5q-145 0 -178 108h-2q-106 -119 -244 -118q-113 0 -203 89t-90 250q0 244 149.5 404t309.5 160h282l-131 -668q-6 -37 -6 -61q0 -45 23.5 -68t89.5 -23q133 0 262 135.5t129 374.5q0 106 -38 206t-110.5 181.5t-193.5 132t-270 50.5q-344 0 -578.5 -235.5 t-234.5 -549.5q0 -252 160.5 -427t457.5 -175q217 0 399 92l31 -63q-205 -102 -430 -102z" />
<glyph unicode="A" horiz-adv-x="1243" d="M639 1274l-330 -836h666zM1004 367h-723l-146 -367h-80v74h29l528 1333h56l555 -1395l-68 -24z" />
<glyph unicode="B" horiz-adv-x="1243" d="M805 784q168 -33 266 -146.5t98 -252.5q0 -162 -122.5 -273.5t-341.5 -111.5h-560v1317h-34v74h446q217 0 342 -89.5t125 -224.5q0 -90 -57.5 -169t-161.5 -122h-2v-2h2zM219 731v-657h486q188 0 290.5 90t102.5 221q0 133 -112 239.5t-300 106.5h-467zM219 805h338 q188 0 290.5 84t102.5 188q0 98 -100 169t-293 71h-338v-512z" />
<glyph unicode="C" horiz-adv-x="1280" d="M1135 1233q-162 102 -349 102q-264 0 -452.5 -188.5t-188.5 -452.5t188.5 -451.5t452.5 -187.5q207 0 369 117l45 -59q-184 -131 -414 -131q-295 0 -503.5 208.5t-208.5 503.5t209 505t503 210q219 0 404 -125l16 -12v-66h-71v27z" />
<glyph unicode="D" horiz-adv-x="1388" d="M111 1391h512q289 0 491.5 -204t202.5 -492.5t-203 -491.5t-491 -203h-478v1317h-34v74zM219 74h404q258 0 439 181t181 439t-181 440.5t-439 182.5h-404v-1243z" />
<glyph unicode="E" d="M950 1317h-731v-586h438v-74h-438v-583h805v37h74v-111h-953v1317h-34v74h913v-111h-74v37z" />
<glyph unicode="F" d="M145 1317h-34v74h987v-111h-74v37h-805v-586h512v-74h-512v-657h-74v1317z" />
<glyph unicode="G" horiz-adv-x="1388" d="M950 586v71h367v-657h-74v170q-90 -82 -213 -135t-244 -53q-295 0 -503.5 208.5t-208.5 503.5t209 505t503 210q256 0 457 -168v-72h-74v37q-176 129 -383 129q-264 0 -452.5 -188.5t-188.5 -452.5t188.5 -451.5t452.5 -187.5q268 0 457 193v338h-293z" />
<glyph unicode="H" horiz-adv-x="1314" d="M145 1391h74v-660h879v660h71v-1391h-71v657h-879v-657h-74v1391z" />
<glyph unicode="I" horiz-adv-x="364" d="M219 0h-74v1391h74v-1391z" />
<glyph unicode="J" horiz-adv-x="802" d="M145 1391h512v-1098q0 -152 -99 -241t-236 -89q-84 0 -162 35t-117 98l-6 10v39h74v-18q31 -43 88 -66.5t123 -23.5q109 0 186.5 68.5t77.5 187.5v1024h-441v74z" />
<glyph unicode="K" horiz-adv-x="1243" d="M223 494l760 897h115v-74h-80l-504 -592l498 -586q33 -39 62.5 -52t94.5 -13v-74q-82 0 -127 21.5t-88 70.5l-489 576l-246 -287v-381h-74v1391h74v-897h4z" />
<glyph unicode="L" d="M219 74h805v37h74v-111h-953v1391h74v-1317z" />
<glyph unicode="M" horiz-adv-x="1974" d="M111 74h20l164 1331h59l633 -1327l633 1327h61l185 -1401l-72 -10l-166 1253l-604 -1265h-72l-602 1263l-153 -1245h-86v74z" />
<glyph unicode="N" horiz-adv-x="1314" d="M1169 1391v-1391h-71l-879 1264v-1264h-74v1317h-34v74h108l879 -1264v1264h71z" />
<glyph unicode="O" horiz-adv-x="1570" d="M145 694q0 -264 188.5 -451.5t453 -187.5t451.5 187.5t187 451.5t-187 452.5t-451.5 188.5t-453 -188.5t-188.5 -452.5zM786.5 1409q294.5 0 503.5 -210t209 -505t-209 -503.5t-503.5 -208.5t-503.5 208.5t-209 503.5t209 505t503.5 210z" />
<glyph unicode="P" horiz-adv-x="1243" d="M145 1317h-34v74h583q199 0 337 -139.5t138 -338t-138 -337t-337 -138.5h-475v-438h-74v1317zM219 1317v-805h475q166 0 285 118t119 283.5t-119 284.5t-285 119h-475z" />
<glyph unicode="Q" horiz-adv-x="1570" d="M786.5 1409q294.5 0 503.5 -210t209 -505t-209 -503.5t-504 -208.5h-2q-295 0 -438 -191l27 -29q76 70 196 70q96 0 284.5 -61.5t246.5 -61.5q43 0 69.5 31t26.5 59h74q0 -61 -49.5 -112.5t-120.5 -51.5q-70 0 -256.5 61.5t-274.5 61.5q-111 0 -168 -73l-28 -35l-121 137 l14 23q100 154 307 204q-221 68 -360 255.5t-139 424.5q0 295 209 505t503.5 210zM145 694q0 -264 188.5 -451.5t453 -187.5t451.5 187.5t187 451.5t-187 452.5t-451.5 188.5t-453 -188.5t-188.5 -452.5z" />
<glyph unicode="R" horiz-adv-x="1243" d="M637 602q61 -31 123 -125l213 -332q29 -43 51.5 -57t60.5 -14h84v-74h-84q-57 0 -96 22.5t-78 83.5l-213 330q-68 104 -111.5 127t-185.5 23h-182v-586h-74v1317h-34v74h520q219 0 343 -120t124 -284q0 -160 -122 -270.5t-339 -112.5h-2v-2h2zM631 657q188 0 290.5 98.5 t102.5 231.5t-102.5 231.5t-290.5 98.5h-412v-660h412z" />
<glyph unicode="S" horiz-adv-x="1243" d="M145 229q74 -63 208 -118.5t270 -55.5q227 0 351 79t124 188q0 70 -33 124t-104.5 99t-138 74.5t-183.5 72.5q-248 90 -336 146q-158 102 -158 247q0 141 137.5 232.5t340.5 91.5q117 0 244.5 -42t217.5 -130l13 -12v-68h-74v37q-76 68 -185.5 104.5t-215.5 36.5 q-170 0 -287 -70.5t-117 -179.5q0 -57 30 -102t97.5 -85t134 -68.5t183.5 -69.5q92 -33 141 -52.5t130 -61.5t124 -83t76.5 -104.5t33.5 -136.5q0 -150 -149.5 -245t-396.5 -95q-158 0 -311.5 66.5t-227.5 139.5l-10 11v67h71v-37z" />
<glyph unicode="T" horiz-adv-x="1243" d="M74 1391h1095v-111h-71v37h-441v-1317h-71v1317h-441v-37h-71v111z" />
<glyph unicode="U" horiz-adv-x="1314" d="M219 1391v-897q0 -182 128 -310.5t310.5 -128.5t311.5 129t129 310v897h71v-897q0 -211 -150.5 -361.5t-361.5 -150.5t-361.5 150.5t-150.5 361.5v823h-34v74h108z" />
<glyph unicode="V" horiz-adv-x="1243" d="M1204 1376l-555 -1392h-55l-528 1333h-29v74h80l506 -1276l514 1288z" />
<glyph unicode="W" horiz-adv-x="1974" d="M55 1317v74h80l469 -1270l346 921v201h74v-201l342 -921l477 1282l70 -27l-520 -1392h-54l-352 946l-356 -946h-56l-491 1333h-29z" />
<glyph unicode="X" horiz-adv-x="1243" d="M1102 1409l57 -45l-491 -645l528 -694l-59 -43l-514 675l-517 -675l-59 43l528 694l-495 649l59 43l484 -633z" />
<glyph unicode="Y" horiz-adv-x="1243" d="M623 584l495 821l64 -37l-525 -868v-500h-71v500l-496 817h-35v74h74l492 -807h2z" />
<glyph unicode="Z" d="M1061 1391v-50l-881 -1265h-2v-2h846v37h74v-111h-1024v47l878 1268h2v2h-772v-37h-71v111h950z" />
<glyph unicode="[" horiz-adv-x="438" d="M219 1462v-1829h148v-71h-222v1974h222v-74h-148z" />
<glyph unicode="\" horiz-adv-x="1095" d="M98 1425l963 -1503l-62 -39l-962 1503z" />
<glyph unicode="]" horiz-adv-x="438" d="M219 1462h-145v74h219v-1974h-219v71h145v1829z" />
<glyph unicode="^" horiz-adv-x="1046" d="M483 1409q8 10 21 10q14 0 22 -10l396 -514l-43 -33l-375 484l-389 -486l-41 37z" />
<glyph unicode="_" horiz-adv-x="1443" d="M1317 -385h-1243v55h1243v-55z" />
<glyph unicode="`" horiz-adv-x="438" d="M336 1098l-281 235l76 76l254 -256z" />
<glyph unicode="a" horiz-adv-x="1095" d="M879 246v266h-404q-160 0 -245 -68.5t-85 -160.5q0 -94 97.5 -161t232.5 -67q121 0 241 52.5t163 138.5zM877 150q-70 -80 -180.5 -124t-221.5 -44q-166 0 -283.5 88t-117.5 213t106.5 214t294.5 89h404v53q0 139 -94.5 198.5t-227.5 59.5q-145 0 -264 -55v-37h-74v80 q133 84 338 84q166 0 279.5 -80t113.5 -250v-565h37v-74h-108v150h-2z" />
<glyph unicode="b" d="M219 231v-231h-74v1317h-34v74h108v-672h2q59 115 165 182.5t237 67.5q197 0 336 -145.5t139 -348.5t-139.5 -348t-335.5 -145q-131 0 -236.5 67.5t-165.5 181.5h-2zM219 475q0 -174 119 -297t284.5 -123t283.5 123t118 297t-118 298t-283.5 124t-284.5 -124t-119 -298z " />
<glyph unicode="c" horiz-adv-x="987" d="M842 795q-123 102 -275 102q-174 0 -298 -124t-124 -298t124 -297t298 -123q180 0 307 133l56 -51q-150 -156 -363 -155q-205 0 -349 144t-144 349t144 349.5t349 144.5q188 0 334 -131l12 -11v-59h-71v27z" />
<glyph unicode="d" d="M950 475q0 174 -117.5 298t-283.5 124t-285 -124t-119 -298t119 -297t285 -123t283.5 123t117.5 297zM1024 1391v-1317h37v-74h-111v231h-2q-59 -115 -163.5 -182t-235.5 -67q-197 0 -336 145t-139 348t139 348.5t336 145.5q131 0 235.5 -67.5t163.5 -182.5h2v598h-37v74 h111z" />
<glyph unicode="e" horiz-adv-x="1058" d="M494 512q23 0 46 4t48.5 16.5t45 20.5t48.5 29.5t43 30t46 35.5l39 34l42 37l33 31q-127 147 -318 147q-162 0 -283.5 -111.5t-136.5 -273.5h347zM147 438q14 -162 135 -272.5t285 -110.5q180 0 307 133l54 -49q-147 -158 -361 -157q-205 0 -349 144t-144 349 t145.5 349.5t347.5 144.5q248 0 398 -203l20 -27l-24 -22q-10 -8 -63.5 -56.5t-90.5 -77t-93.5 -67.5t-112.5 -58.5t-107 -19.5h-347z" />
<glyph unicode="f" horiz-adv-x="731" d="M74 879v71h145v148q0 129 91 220t220 91q86 0 157 -42t112 -114l6 -10v-55h-74v35q-72 113 -201 112q-98 0 -167.5 -69.5t-69.5 -167.5v-148h293v-71h-293v-879h-74v879h-145z" />
<glyph unicode="g" horiz-adv-x="1024" d="M246 66q-55 -37 -95 -110t-40 -142q0 -80 58 -130.5t185 -50.5h373q102 0 153.5 41t51.5 99q0 53 -37 99t-104 62zM188 186q0 -31 56 -43l563 -137q90 -20 144.5 -86.5t54.5 -146.5q0 -88 -73 -149.5t-206 -61.5h-373q-162 0 -239.5 71.5t-77.5 180.5q0 78 37 153.5 t92 126.5q-51 33 -51 92q0 86 125 217q-94 94 -95 228q0 141 108.5 239.5t258.5 98.5q63 0 119 -19h356v-71h-225q117 -100 117 -248q0 -141 -108.5 -239.5t-258.5 -98.5q-121 0 -215 65q-109 -109 -109 -172zM219 631q0 -109 85 -186.5t208 -77.5t208 77.5t85 186 t-86 187.5t-207 79q-123 0 -208 -77.5t-85 -188.5z" />
<glyph unicode="h" d="M221 680q63 133 178 211t258 78q166 0 266.5 -89t100.5 -241v-565h37v-74h-111v74v565q0 123 -78.5 190.5t-214.5 67.5q-178 0 -308 -137t-130 -340v-420h-74v1317h-34v74h108v-711h2z" />
<glyph unicode="i" horiz-adv-x="364" d="M111 1253.5q0 26.5 18 45t45 18.5t45.5 -18.5t18.5 -45t-18.5 -46t-45.5 -19.5t-45 19.5t-18 46zM145 879h-34v71h108v-950h-74v879z" />
<glyph unicode="j" horiz-adv-x="327" d="M109 1253.5q0 26.5 19 45t46 18.5t45.5 -18.5t18.5 -45t-18.5 -46t-45.5 -19.5t-46 19.5t-19 46zM111 950h108v-1114q0 -115 -81 -194.5t-193 -79.5q-152 0 -232 127l-6 10v45h74v-25q61 -86 164 -86q82 0 141 59.5t59 143.5v1043h-34v71z" />
<glyph unicode="k" horiz-adv-x="1095" d="M221 299l619 651h110v-71h-80l-333 -355l344 -385q61 -66 143 -65v-74q-115 0 -197 92l-340 379l-268 -283v-188h-74v1317h-34v74h108v-1092h2z" />
<glyph unicode="l" horiz-adv-x="364" d="M111 1391h108v-1391h-74v1317h-34v74z" />
<glyph unicode="m" horiz-adv-x="1826" d="M221 702q35 80 86 135.5t109.5 82t107.5 38t99 11.5q297 0 325 -275h2q66 154 177.5 214.5t226.5 60.5q160 0 243.5 -85t83.5 -245v-565h37v-74h-108v74v565q0 258 -256 258q-174 0 -289 -135t-115 -342v-420h-71v639q0 258 -256 258q-174 0 -289 -135t-115 -342v-420 h-74v879h-34v71h108v-248h2z" />
<glyph unicode="n" d="M221 680q63 133 178 211t258 78q166 0 266.5 -89t100.5 -241v-565h37v-74h-111v74v565q0 123 -78.5 190.5t-214.5 67.5q-178 0 -308 -137t-130 -340v-420h-74v879h-34v71h108v-270h2z" />
<glyph unicode="o" horiz-adv-x="1132" d="M145 475q0 -174 124 -297t298 -123t297 123t123 297t-123 298t-297 124t-298 -124t-124 -298zM567 969q205 0 349.5 -144.5t144.5 -349.5t-144.5 -349t-349.5 -144t-349 144t-144 349t144 349.5t349 144.5z" />
<glyph unicode="p" d="M219 231v-669h-74v1317h-34v71h108v-231h2q59 115 165 182.5t237 67.5q197 0 336 -145.5t139 -348.5t-139.5 -348t-335.5 -145q-131 0 -236.5 67.5t-165.5 181.5h-2zM219 475q0 -174 119 -297t284.5 -123t283.5 123t118 297t-118 298t-283.5 124t-284.5 -124t-119 -298z " />
<glyph unicode="q" d="M950 475q0 174 -117.5 298t-283.5 124t-285 -124t-119 -298t119 -297t285 -123t283.5 123t117.5 297zM1024 950v-1317h37v-71h-111v669h-2q-59 -115 -163.5 -182t-235.5 -67q-197 0 -336 145t-139 348t139 348.5t336 145.5q131 0 235.5 -67.5t163.5 -182.5h2v231h74z" />
<glyph unicode="r" horiz-adv-x="731" d="M221 639q63 147 179 238.5t223 91.5h34v-109h-71v33q-127 -25 -247 -174.5t-120 -351.5v-367h-74v879h-34v71h108v-311h2z" />
<glyph unicode="s" horiz-adv-x="950" d="M475 541q213 -70 281 -113q123 -78 123 -199q0 -111 -111 -179t-293 -68q-272 0 -395 155l-6 8v56h71v-29q102 -117 330 -117q160 0 245 53.5t85 120.5q0 45 -22.5 80t-75 62.5t-90 43t-117.5 42.5q-16 6 -25 8q-61 20 -98 34.5t-87 40t-77 51t-47.5 64.5t-20.5 84 q0 90 100.5 160t229.5 70q201 0 320 -117l10 -10v-56h-74v25q-98 86 -256 86q-104 0 -180 -53t-76 -105q0 -70 64.5 -112.5t191.5 -85.5z" />
<glyph unicode="t" horiz-adv-x="876" d="M74 879v71h145v219h74v-219h438v-71h-438v-586q0 -98 69.5 -168t167.5 -70q131 0 201 111v16h74v-37l-6 -8q-41 -72 -112 -113.5t-157 -41.5q-129 0 -220 91t-91 220v586h-145z" />
<glyph unicode="u" d="M219 950v-71v-568q0 -123 79 -189.5t214 -66.5q178 0 308 136.5t130 338.5v420h74v-876h37v-74h-111v270h-2q-63 -133 -178 -210.5t-258 -77.5q-166 0 -266.5 89t-100.5 240v568h-34v71h108z" />
<glyph unicode="v" horiz-adv-x="1095" d="M1077 934l-487 -950h-47l-455 895h-33v71h76l436 -854l445 871z" />
<glyph unicode="w" horiz-adv-x="1644" d="M512 106l293 650v157h74v-157l290 -650l387 859l66 -29l-426 -952h-51l-303 673l-305 -673h-50l-401 895h-31v71h78z" />
<glyph unicode="x" horiz-adv-x="1024" d="M883 971l55 -47l-377 -428l414 -469l-55 -47l-408 460l-408 -460l-55 47l416 469l-338 383h-35v71h68l352 -399z" />
<glyph unicode="y" horiz-adv-x="1095" d="M1061 903l-553 -1147q-92 -195 -244 -194q-68 0 -127 40t-94 93l-6 8v39h74v-16q66 -92 153 -93q102 0 178 156l66 137l-422 953h-31v71h78l416 -936h2l436 908v28h74v-47z" />
<glyph unicode="z" horiz-adv-x="1024" d="M795 879h-613v-37h-71v108h802v-51l-720 -823v-2h686v37h71v-111h-876v51l721 826v2z" />
<glyph unicode="{" horiz-adv-x="438" d="M145 -182v530q0 55 -22.5 91t-44 45.5t-41.5 9.5h-37v110h37q20 0 41.5 9.5t44 45t22.5 91.5v530q0 152 61.5 204t160.5 52v-74q-74 0 -111 -35.5t-37 -146.5v-530q0 -147 -108 -201q109 -53 108 -201v-530q0 -111 37 -148t111 -37v-71q-98 0 -160 52t-62 204z" />
<glyph unicode="|" horiz-adv-x="364" d="M145 1317h74v-1684h-74v1684z" />
<glyph unicode="}" horiz-adv-x="438" d="M293 -182q0 -152 -60.5 -204t-158.5 -52v71q74 0 109.5 36t35.5 149v530q0 147 111 201q-111 53 -111 201v530q0 111 -36 146.5t-109 35.5v74q98 0 158.5 -52t60.5 -204v-530q0 -55 22.5 -91t44 -45.5t41.5 -9.5h37v-110h-37q-20 0 -41.5 -9.5t-44 -45.5t-22.5 -91v-530z " />
<glyph unicode="~" horiz-adv-x="731" d="M209 791q43 0 88 -23l172 -80q31 -14 55 -14q27 0 44.5 16.5t20.5 25.5t7 27l74 -12q-10 -61 -49 -96t-97 -35q-45 0 -90 23l-170 79q-31 14 -55 15q-57 0 -74 -70l-74 10q10 66 51.5 100t96.5 34z" />
<glyph unicode="&#xa1;" horiz-adv-x="364" d="M119 905.5q0 26.5 18.5 45t45 18.5t46 -18.5t19.5 -45t-19.5 -45t-46 -18.5t-45 18.5t-18.5 45zM219 -438h-108v71h34v953h74v-1024z" />
<glyph unicode="&#xa2;" horiz-adv-x="1024" d="M512 115v866q-156 -27 -261.5 -149.5t-105.5 -282.5t105.5 -283.5t261.5 -150.5zM950 907v-65h-71v35q-123 111 -293 110v-876q195 0 321 137l51 -49q-156 -162 -372 -162v-111h-74v117q-186 29 -312 172t-126 333.5t126 334t312 172.5v114h74v-108q210 0 364 -154z" />
<glyph unicode="&#xa3;" horiz-adv-x="1095" d="M55 74q98 0 168 69.5t70 167.5v346h-148v74h148v311q0 129 91 220.5t220 91.5q86 0 156.5 -42t111.5 -114l7 -10v-37h-74v18q-70 111 -201 111q-98 0 -167.5 -69.5t-69.5 -168.5v-311h290v-74h-290v-346q0 -143 -111 -237h694v37h74v-111h-969v74z" />
<glyph unicode="&#xa5;" horiz-adv-x="1243" d="M293 512v74h242l-445 731h-35v74h74l489 -805h7l495 823l66 -37l-477 -786h241v-74h-284l-9 -12v-133h293v-74h-293v-293h-71v293h-293v74h293v133l-8 12h-285z" />
<glyph unicode="&#xa7;" d="M817 111q102 35 154.5 97t52.5 136q0 109 -76 187.5t-171 115.5l-225 89q-130 52 -200 104q-102 -35 -154.5 -97.5t-52.5 -136.5q0 -109 76 -187.5t171 -115.5l225 -89q130 -52 200 -103zM586 1317q-150 0 -221.5 -63.5t-71.5 -163.5q0 -104 83 -174t202 -114l236 -92 q118 -48 201 -139.5t83 -226.5q0 -92 -57.5 -167t-161.5 -120q72 -86 71 -196q0 -129 -91 -214t-273 -85q-152 0 -259.5 107.5t-107.5 256.5h74q0 -121 86 -207t207 -86q150 0 221.5 63.5t71.5 164.5q0 104 -83 173.5t-202 113.5l-237 93q-118 48 -200.5 139t-82.5 226 q0 88 54 165t163 124q-72 86 -72 195q0 129 92 215t275 86q150 0 257 -107.5t107 -259.5h-71q0 121 -86 207t-207 86z" />
<glyph unicode="&#xa8;" horiz-adv-x="731" d="M520 1216.5q0 26.5 19.5 45t46 18.5t45 -18.5t18.5 -45t-18.5 -46t-45 -19.5t-46 19.5t-19.5 46zM92 1216.5q0 26.5 18.5 45t45 18.5t45 -18.5t18.5 -45t-18.5 -46t-45 -19.5t-45 19.5t-18.5 46z" />
<glyph unicode="&#xa9;" horiz-adv-x="1681" d="M1098 995q-106 84 -238 84q-160 0 -272.5 -112.5t-112.5 -272t112.5 -271.5t272.5 -112q166 0 281 121l53 -49q-139 -145 -334 -145q-188 0 -323.5 134t-135.5 322.5t135.5 322.5t323.5 134q166 0 297 -111l12 -10v-80h-71v45zM1516 346q-100 -166 -281 -262 q-178 -94 -393 -94t-393 94q-182 98 -283 262q-102 160 -102.5 352.5t102.5 352.5q100 164 283 262q186 98 393 98t393 -98q180 -96 281 -262q102 -160 102 -352.5t-102 -352.5zM1544 698q0 174 -90 316q-96 152 -254 235q-166 90 -358.5 90t-358.5 -90q-158 -84 -254 -235 q-92 -143 -92 -316q0 -170 92 -313q98 -154 254 -238q162 -86 359 -86q199 0 358 86q156 84 254 238q90 141 90 313z" />
<glyph unicode="&#xaa;" horiz-adv-x="802" d="M657 829v195h-270q-117 0 -179.5 -46t-62.5 -110q0 -82 70 -128t172 -46q86 0 162.5 37t107.5 98zM750 657h-93v58q-106 -92 -270 -92q-137 0 -225 67.5t-88 177.5q0 98 85 164t228 66h270v71q0 184 -219 185q-127 0 -219 -54v-20h-74v57l17 11q96 78 276 77 q127 0 210 -61t83 -195v-438h19v-74z" />
<glyph unicode="&#xab;" horiz-adv-x="731" d="M127 477v-6l240 -287l-58 -45l-254 307v58l254 311l58 -47zM420 477v-6l237 -287l-55 -45l-254 307v58l254 311l55 -47z" />
<glyph unicode="&#xac;" horiz-adv-x="1095" d="M74 731h876v-512h-71v438h-805v74z" />
<glyph unicode="&#xad;" horiz-adv-x="657" d="M586 512h-512v74h512v-74z" />
<glyph unicode="&#xae;" horiz-adv-x="1681" d="M891 713q104 0 162.5 55t58.5 129t-57.5 128t-163.5 54h-234v-366h234zM1169 274q-70 0 -116 70l-133 213q-37 59 -60.5 70.5t-105.5 11.5h-97v-365h-71v877h305q139 0 217 -75t78 -179q0 -94 -67.5 -160.5t-188.5 -77.5q35 -35 51 -61l135 -213q16 -25 25.5 -31t27.5 -6 h52v-74h-52zM1544 698q0 174 -90 316q-96 152 -254 235q-166 90 -358.5 90t-358.5 -90q-158 -84 -254 -235q-92 -143 -92 -316q0 -170 92 -313q98 -154 254 -238q162 -86 359 -86q199 0 358 86q156 84 254 238q90 141 90 313zM1516 346q-100 -166 -281 -262 q-178 -94 -393 -94t-393 94q-182 98 -283 262q-102 160 -102.5 352.5t102.5 352.5q100 164 283 262q186 98 393 98t393 -98q180 -96 281 -262q102 -160 102 -352.5t-102 -352.5z" />
<glyph unicode="&#xaf;" horiz-adv-x="731" d="M657 1243h-583v74h583v-74z" />
<glyph unicode="&#xb0;" horiz-adv-x="512" d="M256 1317q-39 0 -75 -34t-36 -77t35 -75.5t76 -32.5t76 32.5t35 75.5t-36 77t-75 34zM256 1391q70 0 126 -55.5t56 -129.5q0 -72 -56 -127t-126 -55t-126 55.5t-56 126.5q0 74 56 129.5t126 55.5z" />
<glyph unicode="&#xb1;" horiz-adv-x="950" d="M879 145h-805v74h805v-74zM512 805h367v-74h-367v-364h-74v364h-364v74h364v364h74v-364z" />
<glyph unicode="&#xb4;" horiz-adv-x="438" d="M121 1116l-51 51l202 205l54 -51z" />
<glyph unicode="&#xb5;" d="M219 950v-71v-568q0 -123 79 -189.5t214 -66.5q178 0 308 136.5t130 338.5v420h74v-876h37v-74h-111v270h-2q-63 -133 -178 -210.5t-258 -77.5q-215 0 -311 139v-68q0 -49 18.5 -123.5t18.5 -107.5q0 -78 -35 -133l-62 39q25 41 25 94q0 25 -10.5 101.5t-10.5 129.5v258 v17v551h-34v71h108z" />
<glyph unicode="&#xb6;" horiz-adv-x="876" d="M367 -367v1098q-121 0 -207 86t-86 207t86 207t207 86h364v-1684h-74v1610h-219v-1610h-71zM367 1243q-92 0 -156 -63q-66 -66 -66 -156t66 -156q63 -63 156 -63v438z" />
<glyph unicode="&#xb7;" horiz-adv-x="364" d="M111 483.5q0 26.5 18 46t45 19.5t45.5 -19.5t18.5 -46t-18.5 -45t-45.5 -18.5t-45 18.5t-18 45z" />
<glyph unicode="&#xb8;" horiz-adv-x="821" d="M291 -145l-45 12l45 158l53 -15l-25 -84q25 8 58 8q78 0 125 -53t47 -123q0 -74 -55.5 -115.5t-124.5 -41.5q-109 0 -160 86l47 28q37 -59 113 -59q51 0 78.5 32.5t27.5 78t-25.5 79t-72.5 33.5q-31 1 -86 -24z" />
<glyph unicode="&#xba;" horiz-adv-x="950" d="M475 1354q-135 0 -232.5 -97.5t-97.5 -232.5t97.5 -232.5t232.5 -97.5t232.5 97.5t97.5 232.5t-97.5 232.5t-232.5 97.5zM879 1024q0 -166 -119 -283.5t-285 -117.5t-283.5 117.5t-117.5 283.5t117.5 283.5t283.5 117.5t285 -117.5t119 -283.5z" />
<glyph unicode="&#xbb;" horiz-adv-x="731" d="M604 473v6l-237 287l55 45l254 -307v-58l-254 -311l-55 47zM311 473v6l-237 287l55 45l256 -307v-58l-256 -311l-55 47z" />
<glyph unicode="&#xbf;" horiz-adv-x="876" d="M412 905.5q0 26.5 18.5 45t45 18.5t45 -18.5t18.5 -45t-18.5 -45t-45 -18.5t-45 18.5t-18.5 45zM512 442q0 -70 -38 -122t-92 -86l-108 -69q-53 -36 -91 -96.5t-38 -142.5q0 -121 86 -207t207 -86t207 86t86 207h74q0 -150 -107.5 -257t-259 -107t-258 106.5 t-106.5 257.5q0 94 38 164t91 110t106 73.5t91 74.5t38 94v144h74v-144z" />
<glyph unicode="&#xc0;" horiz-adv-x="1243" d="M684 1554l-203 205l54 51l202 -204zM1006 367h-727l-144 -367h-80v74h29l530 1351h52l557 -1411l-68 -28zM639 1288l-332 -850h670l-336 850h-2z" />
<glyph unicode="&#xc1;" horiz-adv-x="1243" d="M596 1554l-51 52l203 204l53 -51zM1006 367h-727l-144 -367h-80v74h29l530 1351h52l557 -1411l-68 -28zM639 1288l-332 -850h670l-336 850h-2z" />
<glyph unicode="&#xc2;" horiz-adv-x="1243" d="M643 1737h-6l-252 -201l-47 57l272 217h60l272 -217l-45 -57zM1006 367h-727l-144 -367h-80v74h29l530 1351h52l557 -1411l-68 -28zM639 1288l-332 -850h670l-336 850h-2z" />
<glyph unicode="&#xc3;" horiz-adv-x="1243" d="M709 1722q41 -18 63 -18q49 0 62 63l10 52l71 -15l-8 -49q-23 -123 -135 -123q-49 0 -88 21l-113 63q-37 16 -63 17q-49 0 -62 -64l-12 -49l-69 12l8 49q23 123 135 123q49 0 88 -20zM1006 367h-727l-144 -367h-80v74h29l530 1351h52l557 -1411l-68 -28zM639 1288 l-332 -850h670l-336 850h-2z" />
<glyph unicode="&#xc4;" horiz-adv-x="1243" d="M795 1654.5q0 26.5 19.5 45t46 18.5t45 -18.5t18.5 -45t-18.5 -45t-45 -18.5t-46 18.5t-19.5 45zM367 1654.5q0 26.5 18 45t45 18.5t45.5 -18.5t18.5 -45t-18.5 -45t-45.5 -18.5t-45 18.5t-18 45zM1006 367h-727l-144 -367h-80v74h29l530 1351h52l557 -1411l-68 -28z M639 1288l-332 -850h670l-336 850h-2z" />
<glyph unicode="&#xc5;" horiz-adv-x="1243" d="M639 1829q66 0 125 -55.5t59 -126.5q0 -74 -59 -129.5t-125 -55.5q-61 0 -123 58q-59 55 -59 126.5t59 127.5q57 55 123 55zM639 1774q-41 0 -86 -41q-41 -41 -41 -86q0 -47 41 -88t86 -41q43 0 88 41q41 41 41 88q0 45 -41 86q-45 41 -88 41zM1006 367h-727l-144 -367 h-80v74h29l530 1351h52l557 -1411l-68 -28zM639 1288l-332 -850h670l-336 850h-2z" />
<glyph unicode="&#xc6;" horiz-adv-x="1755" d="M281 367l-187 -367h-57v74h14l660 1317h899v-111h-74v37h-604v-586h311v-74h-311v-583h678v37h71v-111h-821v367h-579zM315 438h545v879h-102z" />
<glyph unicode="&#xc7;" horiz-adv-x="1280" d="M612 -174l-45 12l45 158l54 -14l-25 -84q25 8 57 8q78 0 125 -53.5t47 -122.5q0 -74 -55 -116t-125 -42q-109 0 -160 86l48 29q37 -59 112 -60q51 0 79 33t28 78t-26 78.5t-73 33.5q-31 1 -86 -24zM1135 1233q-162 102 -349 102q-264 0 -452.5 -188.5t-188.5 -452.5 t188.5 -451.5t452.5 -187.5q207 0 369 117l45 -59q-184 -131 -414 -131q-295 0 -503.5 208.5t-208.5 503.5t209 505t503 210q219 0 404 -125l16 -12v-66h-71v27z" />
<glyph unicode="&#xc8;" d="M631 1554l-205 205l53 51l203 -204zM950 1317h-731v-586h438v-74h-438v-583h805v37h74v-111h-953v1317h-34v74h913v-111h-74v37z" />
<glyph unicode="&#xc9;" d="M543 1554l-51 52l202 204l54 -51zM950 1317h-731v-586h438v-74h-438v-583h805v37h74v-111h-953v1317h-34v74h913v-111h-74v37z" />
<glyph unicode="&#xca;" d="M588 1737h-6l-252 -201l-47 55l272 219h59l273 -219l-45 -55zM950 1317h-731v-586h438v-74h-438v-583h805v37h74v-111h-953v1317h-34v74h913v-111h-74v37z" />
<glyph unicode="&#xcb;" d="M739 1654.5q0 26.5 19.5 45t46 18.5t45 -18.5t18.5 -45t-18.5 -46t-45 -19.5t-46 19.5t-19.5 46zM311 1654.5q0 26.5 18.5 45t45 18.5t45 -18.5t18.5 -45t-18.5 -46t-45 -19.5t-45 19.5t-18.5 46zM950 1317h-731v-586h438v-74h-438v-583h805v37h74v-111h-953v1317h-34v74 h913v-111h-74v37z" />
<glyph unicode="&#xcc;" horiz-adv-x="364" d="M227 1554l-202 205l53 51l203 -204zM219 0h-74v1391h74v-1391z" />
<glyph unicode="&#xcd;" horiz-adv-x="364" d="M139 1554l-51 52l203 204l53 -51zM219 0h-74v1391h74v-1391z" />
<glyph unicode="&#xce;" horiz-adv-x="364" d="M186 1737h-6l-254 -201l-45 57l273 217h59l272 -217l-47 -57zM219 0h-74v1391h74v-1391z" />
<glyph unicode="&#xcf;" horiz-adv-x="364" d="M338 1654.5q0 26.5 18.5 45t45 18.5t46 -18.5t19.5 -45t-19.5 -45t-46 -18.5t-45 18.5t-18.5 45zM-92 1654.5q0 26.5 19.5 45t46 18.5t45 -18.5t18.5 -45t-18.5 -45t-45 -18.5t-46 18.5t-19.5 45zM219 0h-74v1391h74v-1391z" />
<glyph unicode="&#xd0;" horiz-adv-x="1388" d="M219 74h404q258 0 439 181t181 439t-181 440.5t-439 182.5h-404v-586h367v-74h-367v-583zM145 1317h-34v74h34h39h439q289 0 491.5 -204t202.5 -492.5t-203 -491.5t-491 -203h-478v657h-71v74h71v586z" />
<glyph unicode="&#xd1;" horiz-adv-x="1314" d="M764 1722q41 -18 63 -18q49 0 62 63l10 52l72 -15l-8 -49q-23 -123 -136 -123q-49 0 -88 21l-114 63q-37 16 -62 17q-49 0 -61 -64l-13 -49l-71 12l10 49q23 123 135 123q49 0 88 -20zM1169 1391v-1391h-71l-879 1264v-1264h-74v1317h-34v74h108l879 -1264v1264h71z" />
<glyph unicode="&#xd2;" horiz-adv-x="1607" d="M848 1554l-203 205l53 51l203 -204zM145 694.5q0 -272.5 192.5 -465t467.5 -192.5q272 0 464.5 192.5t192.5 464.5q0 274 -192.5 467t-465 193t-466 -193.5t-193.5 -466zM805 1425q303 0 517 -214t214 -517t-214 -517t-517 -214t-517 214t-214 517t214 517t517 214z" />
<glyph unicode="&#xd3;" horiz-adv-x="1570" d="M743 1554l-51 52l203 204l53 -51zM145 694q0 -264 188.5 -451.5t453 -187.5t451.5 187.5t187 451.5t-187 452.5t-451.5 188.5t-453 -188.5t-188.5 -452.5zM786.5 1409q294.5 0 503.5 -210t209 -505t-209 -503.5t-503.5 -208.5t-503.5 208.5t-209 503.5t209 505t503.5 210 z" />
<glyph unicode="&#xd4;" horiz-adv-x="1607" d="M809 1737h-8l-252 -201l-45 57l272 217h58l272 -217l-45 -57zM145 694.5q0 -272.5 192.5 -465t467.5 -192.5q272 0 464.5 192.5t192.5 464.5q0 274 -192.5 467t-465 193t-466 -193.5t-193.5 -466zM805 1425q303 0 517 -214t214 -517t-214 -517t-517 -214t-517 214 t-214 517t214 517t517 214z" />
<glyph unicode="&#xd5;" horiz-adv-x="1607" d="M874 1722q41 -18 62 -18q51 0 63 63l11 52l71 -15l-10 -49q-23 -123 -135 -123q-49 0 -88 21l-113 63q-37 16 -61 17q-51 0 -64 -64l-10 -49l-72 12l9 49q23 123 137 123q47 0 86 -20zM145 694.5q0 -272.5 192.5 -465t467.5 -192.5q272 0 464.5 192.5t192.5 464.5 q0 274 -192.5 467t-465 193t-466 -193.5t-193.5 -466zM805 1425q303 0 517 -214t214 -517t-214 -517t-517 -214t-517 214t-214 517t214 517t517 214z" />
<glyph unicode="&#xd6;" horiz-adv-x="1607" d="M961 1654.5q0 26.5 18 45t45 18.5t45 -18.5t18 -45t-18 -45t-45 -18.5t-45 18.5t-18 45zM530 1654.5q0 26.5 18.5 45t45.5 18.5t45 -18.5t18 -45t-18 -45t-45 -18.5t-45.5 18.5t-18.5 45zM145 694.5q0 -272.5 192.5 -465t467.5 -192.5q272 0 464.5 192.5t192.5 464.5 q0 274 -192.5 467t-465 193t-466 -193.5t-193.5 -466zM805 1425q303 0 517 -214t214 -517t-214 -517t-517 -214t-517 214t-214 517t214 517t517 214z" />
<glyph unicode="&#xd8;" horiz-adv-x="1570" d="M1401 1358l51 -51l-135 -136q182 -205 182 -477q0 -295 -209 -503.5t-504 -208.5q-270 0 -477 184l-137 -137l-51 51l137 137q-184 205 -184 477q0 295 209 505t503 210q272 0 480 -186zM1212 1171q-180 164 -426 164q-264 0 -452.5 -188.5t-188.5 -452.5 q0 -242 164 -426zM1264 1118l-904 -901q182 -162 426 -162q264 0 451.5 187.5t187.5 451.5q1 242 -161 424z" />
<glyph unicode="&#xd9;" horiz-adv-x="1314" d="M702 1554l-202 205l53 51l203 -204zM219 1391v-916q0 -180 128 -309t310.5 -129t311.5 129t129 309v916h71v-916q0 -213 -150.5 -362.5t-361.5 -149.5t-361.5 149.5t-150.5 362.5v842h-34v74h108z" />
<glyph unicode="&#xda;" horiz-adv-x="1314" d="M614 1554l-51 52l203 204l53 -51zM219 1391v-916q0 -180 128 -309t310.5 -129t311.5 129t129 309v916h71v-916q0 -213 -150.5 -362.5t-361.5 -149.5t-361.5 149.5t-150.5 362.5v842h-34v74h108z" />
<glyph unicode="&#xdb;" horiz-adv-x="1314" d="M662 1737h-7l-254 -201l-45 57l273 217h59l273 -217l-48 -57zM219 1391v-916q0 -180 128 -309t310.5 -129t311.5 129t129 309v916h71v-916q0 -213 -150.5 -362.5t-361.5 -149.5t-361.5 149.5t-150.5 362.5v842h-34v74h108z" />
<glyph unicode="&#xdc;" horiz-adv-x="1314" d="M813 1654.5q0 26.5 19.5 45t46 18.5t45 -18.5t18.5 -45t-18.5 -45t-45 -18.5t-46 18.5t-19.5 45zM385 1654.5q0 26.5 18.5 45t45 18.5t45 -18.5t18.5 -45t-18.5 -45t-45 -18.5t-45 18.5t-18.5 45zM219 1391v-916q0 -180 128 -309t310.5 -129t311.5 129t129 309v916h71 v-916q0 -213 -150.5 -362.5t-361.5 -149.5t-361.5 149.5t-150.5 362.5v842h-34v74h108z" />
<glyph unicode="&#xdd;" horiz-adv-x="1243" d="M578 1554l-52 52l203 204l53 -51zM623 584l497 825l66 -37l-529 -872v-500h-71v500l-496 817h-35v74h74l492 -807h2z" />
<glyph unicode="&#xde;" d="M219 1169v-802h404q166 0 283.5 117.5t117.5 283.5t-118 283.5t-283 117.5h-404zM145 1391h74v-148h404q199 0 337 -138t138 -337t-138.5 -337t-336.5 -138h-404v-293h-74v1391z" />
<glyph unicode="&#xdf;" horiz-adv-x="1095" d="M401 178q102 -123 293 -123q106 0 181 48.5t75 134.5q0 53 -18.5 102t-60.5 89t-78.5 69.5t-102 62.5t-102.5 49.5t-109.5 44t-91.5 35.5l-20 8v115h34q33 0 78 15.5t96.5 45t85 89t33.5 135.5q0 98 -69.5 167.5t-167.5 69.5q-96 0 -167 -69.5t-71 -167.5v-1098h-74v879 h-71v71h71v148q0 129 92.5 220t219.5 91q129 0 220 -91t91 -220q0 -158 -105.5 -244t-224.5 -102v-7q6 -2 81 -30.5t109 -44.5l106 -52q73 -35 113 -69.5t87 -82.5t68.5 -105.5t21.5 -122.5q0 -115 -93 -185.5t-237 -70.5q-102 0 -200.5 40.5t-157.5 120.5l-6 9v49h71v-23z " />
<glyph unicode="&#xe0;" horiz-adv-x="1095" d="M879 246v266h-404q-160 0 -245 -68.5t-85 -160.5q0 -94 97.5 -161t232.5 -67q121 0 241 52.5t163 138.5zM877 150q-70 -80 -180.5 -124t-221.5 -44q-166 0 -283.5 88t-117.5 213t106.5 214t294.5 89h404v53q0 139 -94.5 198.5t-227.5 59.5q-145 0 -264 -55v-37h-74v80 q133 84 338 84q166 0 279.5 -80t113.5 -250v-565h37v-74h-108v150h-2zM602 1116l-205 205l54 51l202 -205z" />
<glyph unicode="&#xe1;" horiz-adv-x="1095" d="M879 246v266h-404q-160 0 -245 -68.5t-85 -160.5q0 -94 97.5 -161t232.5 -67q121 0 241 52.5t163 138.5zM877 150q-70 -80 -180.5 -124t-221.5 -44q-166 0 -283.5 88t-117.5 213t106.5 214t294.5 89h404v53q0 139 -94.5 198.5t-227.5 59.5q-145 0 -264 -55v-37h-74v80 q133 84 338 84q166 0 279.5 -80t113.5 -250v-565h37v-74h-108v150h-2zM514 1116l-51 51l203 205l53 -51z" />
<glyph unicode="&#xe2;" horiz-adv-x="1095" d="M879 246v266h-404q-160 0 -245 -68.5t-85 -160.5q0 -94 97.5 -161t232.5 -67q121 0 241 52.5t163 138.5zM877 150q-70 -80 -180.5 -124t-221.5 -44q-166 0 -283.5 88t-117.5 213t106.5 214t294.5 89h404v53q0 139 -94.5 198.5t-227.5 59.5q-145 0 -264 -55v-37h-74v80 q133 84 338 84q166 0 279.5 -80t113.5 -250v-565h37v-74h-108v150h-2zM561 1298h-6l-252 -200l-47 55l272 219h60l272 -219l-45 -55z" />
<glyph unicode="&#xe3;" horiz-adv-x="1095" d="M627 1284q41 -18 61 -18q51 0 64 63l10 49l72 -12l-9 -49q-23 -123 -137 -123q-47 0 -86 20l-115 62q-41 18 -61 18q-51 0 -64 -63l-10 -49l-71 12l10 49q23 123 135 123q49 0 88 -20zM879 246v266h-404q-160 0 -245 -68.5t-85 -160.5q0 -94 97.5 -161t232.5 -67 q121 0 241 52.5t163 138.5zM877 150q-70 -80 -180.5 -124t-221.5 -44q-166 0 -283.5 88t-117.5 213t106.5 214t294.5 89h404v53q0 139 -94.5 198.5t-227.5 59.5q-145 0 -264 -55v-37h-74v80q133 84 338 84q166 0 279.5 -80t113.5 -250v-565h37v-74h-108v150h-2z" />
<glyph unicode="&#xe4;" horiz-adv-x="1095" d="M713 1216.5q0 26.5 19.5 45t46 18.5t45 -18.5t18.5 -45t-18.5 -46t-45 -19.5t-46 19.5t-19.5 46zM285 1216.5q0 26.5 18.5 45t45 18.5t45 -18.5t18.5 -45t-18.5 -46t-45 -19.5t-45 19.5t-18.5 46zM879 246v266h-404q-160 0 -245 -68.5t-85 -160.5q0 -94 97.5 -161 t232.5 -67q121 0 241 52.5t163 138.5zM877 150q-70 -80 -180.5 -124t-221.5 -44q-166 0 -283.5 88t-117.5 213t106.5 214t294.5 89h404v53q0 139 -94.5 198.5t-227.5 59.5q-145 0 -264 -55v-37h-74v80q133 84 338 84q166 0 279.5 -80t113.5 -250v-565h37v-74h-108v150h-2z " />
<glyph unicode="&#xe5;" horiz-adv-x="1095" d="M557.5 1391q65.5 0 124.5 -56q57 -55 57 -129q0 -72 -57 -127q-59 -55 -125 -55q-63 0 -125 57q-57 55 -57 125q0 74 57 129q60 56 125.5 56zM557 1335q-43 0 -88 -41q-41 -41 -41 -88t41 -88q39 -39 88 -39q45 0 88 39q41 41 41 88t-41 88q-45 41 -88 41zM879 246v266 h-404q-160 0 -245 -68.5t-85 -160.5q0 -94 97.5 -161t232.5 -67q121 0 241 52.5t163 138.5zM877 150q-70 -80 -180.5 -124t-221.5 -44q-166 0 -283.5 88t-117.5 213t106.5 214t294.5 89h404v53q0 139 -94.5 198.5t-227.5 59.5q-145 0 -264 -55v-37h-74v80q133 84 338 84 q166 0 279.5 -80t113.5 -250v-565h37v-74h-108v150h-2z" />
<glyph unicode="&#xe6;" horiz-adv-x="1863" d="M877 150q-70 -80 -180.5 -124t-221.5 -44q-180 0 -290.5 72.5t-110.5 191.5q0 121 110.5 193.5t290.5 72.5h404v127q0 139 -94.5 198.5t-227.5 59.5q-145 0 -264 -55v-37h-74v80q133 84 338 84q143 0 252 -60.5t135 -187.5q66 113 179.5 180.5t248.5 67.5q248 0 397 -203 l21 -27l-25 -22q-10 -8 -63 -56.5t-90 -77t-93.5 -67.5t-112.5 -58.5t-108 -19.5h-346q14 -162 135 -272.5t285 -110.5q180 0 307 133l54 -49q-147 -158 -361 -157q-131 0 -242.5 63.5t-179.5 171.5v-217h-71v150h-2zM1298 512q23 0 46.5 4t49 16.5t45 20.5t48.5 29.5t43 30 t46 35.5l39 34q7 6 40 37l35 31q-127 147 -318 147q-162 0 -283.5 -111.5t-136.5 -273.5h346zM879 438h-404q-150 0 -240 -53t-90 -139t90.5 -138.5t239.5 -52.5q121 0 241 52.5t163 138.5v192z" />
<glyph unicode="&#xe7;" horiz-adv-x="987" d="M494 -158l-48 13l39 135q-176 29 -293.5 166t-117.5 319q0 205 144 349.5t349 144.5q188 0 334 -131l12 -11v-59h-71v27q-123 102 -275 102q-174 0 -298 -124t-124 -298t124 -297t298 -123q180 0 307 133l56 -51q-150 -156 -363 -155h-26l-19 -66q18 6 56 6q78 0 125 -52 t47 -122q0 -74 -54.5 -116t-124.5 -42q-111 0 -161 86l47 27q35 -57 114 -57q51 0 78 31.5t27 76.5t-25.5 80t-72.5 35q-23 0 -84 -27z" />
<glyph unicode="&#xe8;" horiz-adv-x="1058" d="M631 1116l-205 205l53 51l203 -205zM494 512q23 0 46 4t48.5 16.5t45 20.5t48.5 29.5t43 30t46 35.5l39 34l42 37l33 31q-127 147 -318 147q-162 0 -283.5 -111.5t-136.5 -273.5h347zM147 438q14 -162 135 -272.5t285 -110.5q180 0 307 133l54 -49q-147 -158 -361 -157 q-205 0 -349 144t-144 349t145.5 349.5t347.5 144.5q248 0 398 -203l20 -27l-24 -22q-10 -8 -63.5 -56.5t-90.5 -77t-93.5 -67.5t-112.5 -58.5t-107 -19.5h-347z" />
<glyph unicode="&#xe9;" horiz-adv-x="1058" d="M543 1116l-51 51l202 205l54 -51zM494 512q23 0 46 4t48.5 16.5t45 20.5t48.5 29.5t43 30t46 35.5l39 34l42 37l33 31q-127 147 -318 147q-162 0 -283.5 -111.5t-136.5 -273.5h347zM147 438q14 -162 135 -272.5t285 -110.5q180 0 307 133l54 -49q-147 -158 -361 -157 q-205 0 -349 144t-144 349t145.5 349.5t347.5 144.5q248 0 398 -203l20 -27l-24 -22q-10 -8 -63.5 -56.5t-90.5 -77t-93.5 -67.5t-112.5 -58.5t-107 -19.5h-347z" />
<glyph unicode="&#xea;" horiz-adv-x="1058" d="M588 1298h-6l-252 -200l-47 55l272 219h59l273 -219l-45 -55zM494 512q23 0 46 4t48.5 16.5t45 20.5t48.5 29.5t43 30t46 35.5l39 34l42 37l33 31q-127 147 -318 147q-162 0 -283.5 -111.5t-136.5 -273.5h347zM147 438q14 -162 135 -272.5t285 -110.5q180 0 307 133 l54 -49q-147 -158 -361 -157q-205 0 -349 144t-144 349t145.5 349.5t347.5 144.5q248 0 398 -203l20 -27l-24 -22q-10 -8 -63.5 -56.5t-90.5 -77t-93.5 -67.5t-112.5 -58.5t-107 -19.5h-347z" />
<glyph unicode="&#xeb;" horiz-adv-x="1058" d="M739 1216.5q0 26.5 19.5 45t46 18.5t45 -18.5t18.5 -45t-18.5 -46t-45 -19.5t-46 19.5t-19.5 46zM311 1216.5q0 26.5 18.5 45t45 18.5t45 -18.5t18.5 -45t-18.5 -46t-45 -19.5t-45 19.5t-18.5 46zM494 512q23 0 46 4t48.5 16.5t45 20.5t48.5 29.5t43 30t46 35.5l39 34 l42 37l33 31q-127 147 -318 147q-162 0 -283.5 -111.5t-136.5 -273.5h347zM147 438q14 -162 135 -272.5t285 -110.5q180 0 307 133l54 -49q-147 -158 -361 -157q-205 0 -349 144t-144 349t145.5 349.5t347.5 144.5q248 0 398 -203l20 -27l-24 -22q-10 -8 -63.5 -56.5 t-90.5 -77t-93.5 -67.5t-112.5 -58.5t-107 -19.5h-347z" />
<glyph unicode="&#xec;" horiz-adv-x="364" d="M217 1116l-203 205l54 51l202 -205zM145 879h-34v71h108v-950h-74v879z" />
<glyph unicode="&#xed;" horiz-adv-x="364" d="M129 1116l-51 51l205 205l51 -51zM145 879h-34v71h108v-950h-74v879z" />
<glyph unicode="&#xee;" horiz-adv-x="364" d="M186 1298h-6l-198 -147l-45 57l217 164h59l217 -164l-45 -57zM145 879h-34v71h108v-950h-74v879z" />
<glyph unicode="&#xef;" horiz-adv-x="364" d="M264 1216.5q0 26.5 19.5 45t46 18.5t45 -18.5t18.5 -45t-18.5 -46t-45 -19.5t-46 19.5t-19.5 46zM-27 1216.5q0 26.5 18.5 45t45 18.5t45 -18.5t18.5 -45t-18.5 -46t-45 -19.5t-45 19.5t-18.5 46zM145 879h-34v71h108v-950h-74v879z" />
<glyph unicode="&#xf0;" horiz-adv-x="950" d="M805 475q0 176 -102.5 299t-245.5 123q-127 0 -219.5 -123t-92.5 -299t93.5 -298t218.5 -122q143 0 245.5 122t102.5 298zM457 -18q-162 0 -272.5 146t-110.5 347t110.5 347.5t272.5 146.5q199 0 327 -185q-37 264 -166 387l-169 -63l-23 61l131 52q-72 43 -131 63l27 68 q111 -39 186 -99l152 62l26 -70l-125 -45q186 -205 187 -725q0 -201 -123 -347t-299 -146z" />
<glyph unicode="&#xf1;" d="M655 1284q41 -18 62 -18q51 0 63 63l11 49l71 -12l-8 -49q-23 -123 -137 -123q-47 0 -86 20l-115 62q-41 18 -61 18q-51 0 -64 -63l-10 -49l-72 12l10 49q23 123 136 123q49 0 88 -20zM221 680q63 133 178 211t258 78q166 0 266.5 -89t100.5 -241v-565h37v-74h-111v74 v565q0 123 -78.5 190.5t-214.5 67.5q-178 0 -308 -137t-130 -340v-420h-74v879h-34v71h108v-270h2z" />
<glyph unicode="&#xf2;" horiz-adv-x="1132" d="M612 1116l-204 205l53 51l203 -205zM145 475q0 -174 124 -297t298 -123t297 123t123 297t-123 298t-297 124t-298 -124t-124 -298zM567 969q205 0 349.5 -144.5t144.5 -349.5t-144.5 -349t-349.5 -144t-349 144t-144 349t144 349.5t349 144.5z" />
<glyph unicode="&#xf3;" horiz-adv-x="1132" d="M524 1116l-51 51l203 205l53 -51zM145 475q0 -174 124 -297t298 -123t297 123t123 297t-123 298t-297 124t-298 -124t-124 -298zM567 969q205 0 349.5 -144.5t144.5 -349.5t-144.5 -349t-349.5 -144t-349 144t-144 349t144 349.5t349 144.5z" />
<glyph unicode="&#xf4;" horiz-adv-x="1132" d="M569 1298h-6l-252 -200l-47 55l273 219h59l272 -219l-45 -55zM145 475q0 -174 124 -297t298 -123t297 123t123 297t-123 298t-297 124t-298 -124t-124 -298zM567 969q205 0 349.5 -144.5t144.5 -349.5t-144.5 -349t-349.5 -144t-349 144t-144 349t144 349.5t349 144.5z " />
<glyph unicode="&#xf5;" horiz-adv-x="1132" d="M637 1284q41 -18 61 -18q51 0 64 63l10 49l72 -12l-8 -49q-23 -123 -138 -123q-47 0 -86 20l-114 62q-41 18 -62 18q-51 0 -63 -63l-11 -49l-71 12l10 49q23 123 135 123q49 0 88 -20zM145 475q0 -174 124 -297t298 -123t297 123t123 297t-123 298t-297 124t-298 -124 t-124 -298zM567 969q205 0 349.5 -144.5t144.5 -349.5t-144.5 -349t-349.5 -144t-349 144t-144 349t144 349.5t349 144.5z" />
<glyph unicode="&#xf6;" horiz-adv-x="1132" d="M721 1216.5q0 26.5 19.5 45t46 18.5t45 -18.5t18.5 -45t-18.5 -46t-45 -19.5t-46 19.5t-19.5 46zM293 1216.5q0 26.5 18.5 45t45 18.5t45 -18.5t18.5 -45t-18.5 -46t-45 -19.5t-45 19.5t-18.5 46zM145 475q0 -174 124 -297t298 -123t297 123t123 297t-123 298t-297 124 t-298 -124t-124 -298zM567 969q205 0 349.5 -144.5t144.5 -349.5t-144.5 -349t-349.5 -144t-349 144t-144 349t144 349.5t349 144.5z" />
<glyph unicode="&#xf7;" horiz-adv-x="802" d="M338 997.5q0 26.5 18.5 45t45 18.5t46 -18.5t19.5 -45t-19.5 -46t-46 -19.5t-45 19.5t-18.5 46zM338 538.5q0 26.5 18.5 46t45 19.5t46 -19.5t19.5 -46t-19.5 -45t-46 -18.5t-45 18.5t-18.5 45zM731 731h-657v74h657v-74z" />
<glyph unicode="&#xf8;" horiz-adv-x="1132" d="M567 897q-174 0 -298 -124t-124 -298q0 -150 101 -270l592 592q-121 100 -271 100zM1061 475q0 -205 -144.5 -349t-349.5 -144q-186 0 -321 118l-74 -71l-51 51l72 74q-119 135 -119 321q0 205 144 349.5t349 144.5q186 0 322 -119l74 72l51 -52l-72 -73 q119 -136 119 -322zM889 745l-592 -591q119 -98 270 -99q174 0 297 123t123 297q0 151 -98 270z" />
<glyph unicode="&#xf9;" d="M219 950v-71v-568q0 -123 79 -189.5t214 -66.5q178 0 308 136.5t130 338.5v420h74v-876h37v-74h-111v270h-2q-63 -133 -178 -210.5t-258 -77.5q-166 0 -266.5 89t-100.5 240v568h-34v71h108zM631 1116l-205 205l53 51l203 -205z" />
<glyph unicode="&#xfa;" d="M219 950v-71v-568q0 -123 79 -189.5t214 -66.5q178 0 308 136.5t130 338.5v420h74v-876h37v-74h-111v270h-2q-63 -133 -178 -210.5t-258 -77.5q-166 0 -266.5 89t-100.5 240v568h-34v71h108zM543 1116l-51 51l202 205l54 -51z" />
<glyph unicode="&#xfb;" d="M219 950v-71v-568q0 -123 79 -189.5t214 -66.5q178 0 308 136.5t130 338.5v420h74v-876h37v-74h-111v270h-2q-63 -133 -178 -210.5t-258 -77.5q-166 0 -266.5 89t-100.5 240v568h-34v71h108zM588 1298h-6l-252 -200l-47 55l272 219h59l273 -219l-45 -55z" />
<glyph unicode="&#xfc;" d="M739 1216.5q0 26.5 19.5 45t46 18.5t45 -18.5t18.5 -45t-18.5 -46t-45 -19.5t-46 19.5t-19.5 46zM311 1216.5q0 26.5 18.5 45t45 18.5t45 -18.5t18.5 -45t-18.5 -46t-45 -19.5t-45 19.5t-18.5 46zM219 950v-71v-568q0 -123 79 -189.5t214 -66.5q178 0 308 136.5 t130 338.5v420h74v-876h37v-74h-111v270h-2q-63 -133 -178 -210.5t-258 -77.5q-166 0 -266.5 89t-100.5 240v568h-34v71h108z" />
<glyph unicode="&#xfd;" horiz-adv-x="1095" d="M506 1116l-51 51l202 205l54 -51zM1061 903l-553 -1147q-92 -195 -244 -194q-68 0 -127 40t-94 93l-6 8v39h74v-16q66 -92 153 -93q102 0 178 156l66 137l-422 953h-31v71h78l416 -936h2l436 908v28h74v-47z" />
<glyph unicode="&#xfe;" d="M219 231v-669h-74v1755h-34v74h108v-672h2q59 115 165 182.5t237 67.5q197 0 336 -145.5t139 -348.5t-139.5 -348t-335.5 -145q-131 0 -236.5 67.5t-165.5 181.5h-2zM219 475q0 -174 119 -297t284.5 -123t283.5 123t118 297t-118 298t-283.5 124t-284.5 -124t-119 -298z " />
<glyph unicode="&#xff;" horiz-adv-x="1095" d="M705 1216.5q0 26.5 18 45t45 18.5t45 -18.5t18 -45t-18 -46t-45 -19.5t-45 19.5t-18 46zM274 1216.5q0 26.5 18.5 45t45.5 18.5t45 -18.5t18 -45t-18 -46t-45 -19.5t-45.5 19.5t-18.5 46zM1061 903l-553 -1147q-92 -195 -244 -194q-68 0 -127 40t-94 93l-6 8v39h74v-16 q66 -92 153 -93q102 0 178 156l66 137l-422 953h-31v71h78l416 -936h2l436 908v28h74v-47z" />
<glyph unicode="&#x10c;" horiz-adv-x="1280" d="M770 1626l254 203l45 -57l-272 -218h-60l-272 218l47 57l252 -203h6zM1135 1233q-162 102 -349 102q-264 0 -452.5 -188.5t-188.5 -452.5t188.5 -451.5t452.5 -187.5q207 0 369 117l45 -59q-184 -131 -414 -131q-295 0 -503.5 208.5t-208.5 503.5t209 505t503 210 q219 0 404 -125l16 -12v-66h-71v27z" />
<glyph unicode="&#x10d;" horiz-adv-x="987" d="M569 1188l254 203l45 -58l-272 -217h-59l-273 217l47 58l252 -203h6zM842 795q-123 102 -275 102q-174 0 -298 -124t-124 -298t124 -297t298 -123q180 0 307 133l56 -51q-150 -156 -363 -155q-205 0 -349 144t-144 349t144 349.5t349 144.5q188 0 334 -131l12 -11v-59 h-71v27z" />
<glyph unicode="&#x10e;" horiz-adv-x="1388" d="M625 1626l254 203l45 -57l-273 -218h-59l-273 218l48 57l251 -203h7zM111 1391h512q289 0 491.5 -204t202.5 -492.5t-203 -491.5t-491 -203h-478v1317h-34v74zM219 74h404q258 0 439 181t181 439t-181 440.5t-439 182.5h-404v-1243z" />
<glyph unicode="&#x10f;" horiz-adv-x="1351" d="M1171 1325q0 27 18.5 46.5t45.5 19.5t45 -19.5t18 -46.5q0 -133 -122 -256l-33 33q74 74 74 164q-46 14 -46 59zM950 475q0 174 -117.5 298t-283.5 124t-285 -124t-119 -298t119 -297t285 -123t283.5 123t117.5 297zM1024 1391v-1317h37v-74h-111v231h-2 q-59 -115 -163.5 -182t-235.5 -67q-197 0 -336 145t-139 348t139 348.5t336 145.5q131 0 235.5 -67.5t163.5 -182.5h2v598h-37v74h111z" />
<glyph unicode="&#x11a;" d="M588 1626l254 203l45 -57l-273 -218h-59l-272 218l47 57l252 -203h6zM950 1317h-731v-586h438v-74h-438v-583h805v37h74v-111h-953v1317h-34v74h913v-111h-74v37z" />
<glyph unicode="&#x11b;" horiz-adv-x="1058" d="M588 1188l254 203l45 -58l-273 -217h-59l-272 217l47 58l252 -203h6zM494 512q23 0 46 4t48.5 16.5t45 20.5t48.5 29.5t43 30t46 35.5l39 34l42 37l33 31q-127 147 -318 147q-162 0 -283.5 -111.5t-136.5 -273.5h347zM147 438q14 -162 135 -272.5t285 -110.5 q180 0 307 133l54 -49q-147 -158 -361 -157q-205 0 -349 144t-144 349t145.5 349.5t347.5 144.5q248 0 398 -203l20 -27l-24 -22q-10 -8 -63.5 -56.5t-90.5 -77t-93.5 -67.5t-112.5 -58.5t-107 -19.5h-347z" />
<glyph unicode="&#x131;" horiz-adv-x="364" d="M145 879h-34v71h108v-950h-74v879z" />
<glyph unicode="&#x139;" d="M578 1554l-52 52l203 204l53 -51zM219 74h805v37h74v-111h-953v1391h74v-1317z" />
<glyph unicode="&#x13a;" horiz-adv-x="364" d="M139 1554l-51 52l203 204l53 -51zM111 1391h108v-1391h-74v1317h-34v74z" />
<glyph unicode="&#x13d;" horiz-adv-x="1206" d="M1042 1343q0 27 18.5 46.5t45.5 19.5t45 -19.5t18 -46.5q0 -133 -122 -256l-33 33q74 74 73 164q-45 14 -45 59zM219 74h805v37h74v-111h-953v1391h74v-1317z" />
<glyph unicode="&#x13e;" horiz-adv-x="546" d="M367 1325q0 27 18 46.5t45 19.5t45.5 -19.5t18.5 -46.5q0 -133 -123 -256l-33 33q74 74 74 164q-45 14 -45 59zM111 1391h108v-1391h-74v1317h-34v74z" />
<glyph unicode="&#x147;" horiz-adv-x="1314" d="M698 1626l254 203l45 -57l-272 -218h-59l-273 218l47 57l252 -203h6zM1169 1391v-1391h-71l-879 1264v-1264h-74v1317h-34v74h108l879 -1264v1264h71z" />
<glyph unicode="&#x148;" d="M588 1188l254 203l45 -58l-273 -217h-59l-272 217l47 58l252 -203h6zM221 680q63 133 178 211t258 78q166 0 266.5 -89t100.5 -241v-565h37v-74h-111v74v565q0 123 -78.5 190.5t-214.5 67.5q-178 0 -308 -137t-130 -340v-420h-74v879h-34v71h108v-270h2z" />
<glyph unicode="&#x152;" horiz-adv-x="1755" d="M768 1317q-258 0 -440.5 -182.5t-182.5 -440.5t182.5 -439t440.5 -181h111v1243h-111zM1610 1391v-111h-74v37h-586v-586h367v-74h-367v-583h660v37h71v-111h-913q-289 0 -491.5 203t-202.5 491.5t202.5 492.5t491.5 204h842z" />
<glyph unicode="&#x153;" horiz-adv-x="1974" d="M145 475q0 -174 124 -297t298 -123t297 123t123 297t-123 298t-297 124t-298 -124t-124 -298zM1063 438q14 -162 134 -272.5t284 -110.5q180 0 307 133l53 -49q-147 -158 -360 -157q-154 0 -278 85t-179 222q-55 -137 -179 -222t-278 -85q-205 0 -349 144t-144 349 t144 349.5t349 144.5q154 0 278 -85t179 -222q55 137 180 222t277 85q121 0 225 -54.5t174 -148.5l21 -27l-27 -22q-10 -10 -63.5 -57.5t-90.5 -76l-92 -67.5t-111.5 -58.5t-107.5 -19.5h-346zM1409 512q23 0 46.5 4t49 16.5t45 20.5t48 29.5t43 30t46.5 35.5l38 34 q7 6 40 37l35 31q-127 147 -319 147q-162 0 -283 -111.5t-135 -273.5h346z" />
<glyph unicode="&#x154;" horiz-adv-x="1243" d="M637 602q61 -31 123 -125l213 -332q29 -43 51.5 -57t60.5 -14h84v-74h-84q-57 0 -96 22.5t-78 83.5l-213 330q-68 104 -111.5 127t-185.5 23h-182v-586h-74v1317h-34v74h520q219 0 343 -120t124 -284q0 -160 -122 -270.5t-339 -112.5h-2v-2h2zM631 657q188 0 290.5 98.5 t102.5 231.5t-102.5 231.5t-290.5 98.5h-412v-660h412zM506 1554l-51 52l202 204l54 -51z" />
<glyph unicode="&#x155;" horiz-adv-x="731" d="M358 1116l-51 51l203 205l53 -51zM221 639q63 147 179 238.5t223 91.5h34v-109h-71v33q-127 -25 -247 -174.5t-120 -351.5v-367h-74v879h-34v71h108v-311h2z" />
<glyph unicode="&#x158;" horiz-adv-x="1243" d="M551 1626l254 203l45 -57l-272 -218h-60l-272 218l47 57l252 -203h6zM637 602q61 -31 123 -125l213 -332q29 -43 51.5 -57t60.5 -14h84v-74h-84q-57 0 -96 22.5t-78 83.5l-213 330q-68 104 -111.5 127t-185.5 23h-182v-586h-74v1317h-34v74h520q219 0 343 -120t124 -284 q0 -160 -122 -270.5t-339 -112.5h-2v-2h2zM631 657q188 0 290.5 98.5t102.5 231.5t-102.5 231.5t-290.5 98.5h-412v-660h412z" />
<glyph unicode="&#x159;" horiz-adv-x="731" d="M406 1188l253 203l46 -58l-273 -217h-59l-273 217l47 58l252 -203h7zM221 639q63 147 179 238.5t223 91.5h34v-109h-71v33q-127 -25 -247 -174.5t-120 -351.5v-367h-74v879h-34v71h108v-311h2z" />
<glyph unicode="&#x160;" horiz-adv-x="1243" d="M621 1624l253 203l46 -58l-273 -217h-59l-273 217l47 58l252 -203h7zM145 229q74 -63 208 -118.5t270 -55.5q227 0 351 79t124 188q0 70 -33 124t-104.5 99t-138 74.5t-183.5 72.5q-248 90 -336 146q-158 102 -158 247q0 141 137.5 232.5t340.5 91.5q117 0 244.5 -42 t217.5 -130l13 -12v-68h-74v37q-76 68 -185.5 104.5t-215.5 36.5q-170 0 -287 -70.5t-117 -179.5q0 -57 30 -102t97.5 -85t134 -68.5t183.5 -69.5q92 -33 141 -52.5t130 -61.5t124 -83t76.5 -104.5t33.5 -136.5q0 -150 -149.5 -245t-396.5 -95q-158 0 -311.5 66.5 t-227.5 139.5l-10 11v67h71v-37z" />
<glyph unicode="&#x161;" horiz-adv-x="950" d="M479 1188l254 203l45 -58l-272 -217h-60l-272 217l47 58l252 -203h6zM475 541q213 -70 281 -113q123 -78 123 -199q0 -111 -111 -179t-293 -68q-272 0 -395 155l-6 8v56h71v-29q102 -117 330 -117q160 0 245 53.5t85 120.5q0 45 -22.5 80t-75 62.5t-90 43t-117.5 42.5 q-16 6 -25 8q-61 20 -98 34.5t-87 40t-77 51t-47.5 64.5t-20.5 84q0 90 100.5 160t229.5 70q201 0 320 -117l10 -10v-56h-74v25q-98 86 -256 86q-104 0 -180 -53t-76 -105q0 -70 64.5 -112.5t191.5 -85.5z" />
<glyph unicode="&#x164;" horiz-adv-x="1243" d="M625 1626l254 203l45 -57l-273 -218h-59l-273 218l48 57l251 -203h7zM74 1391h1095v-111h-71v37h-441v-1317h-71v1317h-441v-37h-71v111z" />
<glyph unicode="&#x165;" horiz-adv-x="1024" d="M842 1180q0 27 18.5 46t45 19t45 -19.5t18.5 -45.5q0 -133 -123 -256l-33 32q74 74 74 164q-45 15 -45 60zM74 879v71h145v219h74v-219h438v-71h-438v-586q0 -98 69.5 -168t167.5 -70q131 0 201 111v16h74v-37l-6 -8q-41 -72 -112 -113.5t-157 -41.5q-129 0 -220 91 t-91 220v586h-145z" />
<glyph unicode="&#x16e;" horiz-adv-x="1314" d="M657.5 1829q67.5 0 125 -55.5t57.5 -128.5q0 -72 -57.5 -127.5t-125.5 -55.5q-63 0 -125 58q-57 55 -57 125q0 74 57.5 129t125 55zM657 1774q-43 0 -88 -41q-41 -41 -41 -88.5t41 -88.5q39 -39 88 -38q45 0 88 38q41 41 41 88.5t-41 88.5q-45 41 -88 41zM219 1391v-897 q0 -182 128 -310.5t310.5 -128.5t311.5 129t129 310v897h71v-897q0 -211 -150.5 -361.5t-361.5 -150.5t-361.5 150.5t-150.5 361.5v823h-34v74h108z" />
<glyph unicode="&#x16f;" d="M585.5 1391q65.5 0 125.5 -56q57 -55 57 -129q0 -72 -57 -127q-59 -55 -125 -55q-63 0 -125 57q-57 55 -58 125q0 74 58 129q59 56 124.5 56zM586 1335q-43 0 -88 -41q-41 -41 -41 -88t41 -88q39 -39 88 -39q45 0 88 39q41 41 41 88t-41 88q-45 41 -88 41zM219 950v-71 v-568q0 -123 79 -189.5t214 -66.5q178 0 308 136.5t130 338.5v420h74v-876h37v-74h-111v270h-2q-63 -133 -178 -210.5t-258 -77.5q-166 0 -266.5 89t-100.5 240v568h-34v71h108z" />
<glyph unicode="&#x178;" horiz-adv-x="1243" d="M776 1654.5q0 26.5 19.5 45t46 18.5t45 -18.5t18.5 -45t-18.5 -46t-45 -19.5t-46 19.5t-19.5 46zM348 1654.5q0 26.5 18.5 45t45 18.5t45 -18.5t18.5 -45t-18.5 -46t-45 -19.5t-45 19.5t-18.5 46zM623 584l495 821l64 -37l-525 -868v-500h-71v500l-496 817h-35v74h74 l492 -807h2z" />
<glyph unicode="&#x17d;" d="M588 1626l254 203l45 -57l-273 -218h-59l-272 218l47 57l252 -203h6zM1061 1391v-50l-881 -1265h-2v-2h846v37h74v-111h-1024v47l878 1268h2v2h-772v-37h-71v111h950z" />
<glyph unicode="&#x17e;" horiz-adv-x="1024" d="M514 1188l254 203l45 -58l-272 -217h-60l-272 217l47 58l252 -203h6zM795 879h-613v-37h-71v108h802v-51l-720 -823v-2h686v37h71v-111h-876v51l721 826v2z" />
<glyph unicode="&#x192;" horiz-adv-x="1021" d="M512 -164q0 -115 -80 -194.5t-194 -79.5q-152 0 -232 127l-6 10v45h74v-25q61 -86 164 -86q82 0 141 59.5t59 143.5v895h-219v74h219v274q0 113 80 194t195 81q150 0 231 -129l6 -8v-48h-71v25q-61 86 -166 86q-82 0 -141.5 -58.5t-59.5 -142.5v-274h293v-74h-293v-895z " />
<glyph unicode="&#x2c6;" horiz-adv-x="802" d="M406 1298h-7l-254 -200l-45 55l273 219h59l273 -219l-48 -55z" />
<glyph unicode="&#x2c7;" horiz-adv-x="802" d="M406 1188l251 203l48 -58l-273 -217h-59l-273 217l45 58l254 -203h7z" />
<glyph unicode="&#x2d8;" horiz-adv-x="583" d="M292.5 1243q147.5 0 221.5 113l59 -43q-98 -143 -280 -144q-184 0 -283 144l62 43q73 -113 220.5 -113z" />
<glyph unicode="&#x2d9;" horiz-adv-x="290" d="M82 1253.5q0 26.5 18.5 45t45 18.5t46 -18.5t19.5 -45t-19.5 -46t-46 -19.5t-45 19.5t-18.5 46z" />
<glyph unicode="&#x2da;" horiz-adv-x="512" d="M256 1391q68 0 125 -55.5t57 -129.5q0 -72 -57 -127t-125 -55q-63 0 -125 57q-57 55 -57 125q0 74 57 129.5t125 55.5zM256 1335q-43 0 -88 -41q-41 -41 -41 -88t41 -88q39 -39 88 -39q45 0 88 39q41 41 41 88t-41 88q-45 41 -88 41z" />
<glyph unicode="&#x2db;" horiz-adv-x="512" d="M145 -203q0 -35 24 -62.5t81 -27.5q43 0 80 23l37 -62q-53 -35 -117 -35q-82 0 -129 47.5t-47 116.5q0 55 28.5 96t61.5 60.5t110.5 58.5t122.5 66l21 -41l-77 -44l-66 -37q-19 -11 -47.5 -29.5t-39 -29t-22.5 -27.5t-16.5 -33.5t-4.5 -39.5z" />
<glyph unicode="&#x2dc;" horiz-adv-x="583" d="M362 1284q41 -18 62 -18q51 0 63 63l11 49l71 -12l-10 -49q-23 -123 -135 -123q-49 0 -88 20l-113 62q-41 18 -61 18q-51 0 -64 -63l-10 -49l-72 12l9 49q23 123 137 123q47 0 86 -20z" />
<glyph unicode="&#x2dd;" horiz-adv-x="876" d="M606 1116l-53 51l205 205l51 -51zM240 1116l-54 51l205 205l51 -51z" />
<glyph unicode="&#x3a9;" horiz-adv-x="1536" d="M1354 0h-404v135l47 19q176 70 285 226.5t109 350.5q0 258 -182.5 440.5t-440.5 182.5q-256 0 -439.5 -183.5t-183.5 -439.5q0 -195 108.5 -351.5t285.5 -225.5l47 -19v-135h-404v74h330v10q-195 78 -316.5 254t-121.5 393q0 289 202.5 491.5t491.5 202.5t491.5 -202.5 t202.5 -491.5q0 -217 -121.5 -393t-316.5 -254v-10h330v-74z" />
<glyph unicode="&#x3c0;" horiz-adv-x="1095" d="M1024 950v-71h-145v-734q0 -31 20.5 -51t50.5 -20h37v-74h-37q-59 0 -102 43t-43 102v734h-512v-879h-74v879h-145v71h950z" />
<glyph unicode="&#x2000;" horiz-adv-x="913" />
<glyph unicode="&#x2001;" horiz-adv-x="1828" />
<glyph unicode="&#x2002;" horiz-adv-x="913" />
<glyph unicode="&#x2003;" horiz-adv-x="1828" />
<glyph unicode="&#x2004;" horiz-adv-x="608" />
<glyph unicode="&#x2005;" horiz-adv-x="456" />
<glyph unicode="&#x2006;" horiz-adv-x="303" />
<glyph unicode="&#x2007;" horiz-adv-x="303" />
<glyph unicode="&#x2008;" horiz-adv-x="227" />
<glyph unicode="&#x2009;" horiz-adv-x="364" />
<glyph unicode="&#x200a;" horiz-adv-x="100" />
<glyph unicode="&#x2010;" horiz-adv-x="657" d="M586 512h-512v74h512v-74z" />
<glyph unicode="&#x2011;" horiz-adv-x="657" d="M586 512h-512v74h512v-74z" />
<glyph unicode="&#x2012;" horiz-adv-x="657" d="M586 512h-512v74h512v-74z" />
<glyph unicode="&#x2013;" horiz-adv-x="950" d="M879 512h-805v74h805v-74z" />
<glyph unicode="&#x2014;" horiz-adv-x="1826" d="M1755 512h-1681v74h1681v-74z" />
<glyph unicode="&#x2018;" horiz-adv-x="364" d="M256 1188q0 -27 -18.5 -45.5t-45 -18.5t-46 18.5t-19.5 45.5q0 133 123 256l33 -33q-72 -72 -72 -162q18 -6 31.5 -23.5t13.5 -37.5z" />
<glyph unicode="&#x2019;" horiz-adv-x="364" d="M111 1380q0 27 18 45.5t45 18.5t45.5 -18.5t18.5 -45.5q0 -133 -123 -256l-33 33q74 74 74 164q-45 14 -45 59z" />
<glyph unicode="&#x201a;" horiz-adv-x="364" d="M111 45q0 27 18 46.5t45 19.5t45.5 -19.5t18.5 -46.5q0 -133 -123 -256l-33 33q74 74 74 164q-45 14 -45 59z" />
<glyph unicode="&#x201c;" horiz-adv-x="583" d="M256 1188q0 -27 -18.5 -45.5t-45 -18.5t-46 18.5t-19.5 45.5q0 133 123 256l33 -33q-72 -72 -72 -162q18 -6 31.5 -23.5t13.5 -37.5zM475 1188q0 -27 -18.5 -45.5t-45 -18.5t-45 18.5t-18.5 45.5q0 135 121 256l35 -33q-74 -74 -74 -162q18 -6 31.5 -23.5t13.5 -37.5z " />
<glyph unicode="&#x201d;" horiz-adv-x="583" d="M330 1380q0 27 18.5 46.5t45 19.5t45 -19.5t18.5 -46.5q0 -133 -123 -256l-33 33q74 74 74 164q-45 14 -45 59zM111 1380q0 27 18 46.5t45 19.5t45.5 -19.5t18.5 -46.5q0 -133 -123 -256l-33 33q74 74 74 164q-45 14 -45 59z" />
<glyph unicode="&#x201e;" horiz-adv-x="583" d="M330 45q0 27 18.5 46.5t45 19.5t45 -19.5t18.5 -46.5q0 -133 -123 -256l-33 33q74 74 74 164q-45 14 -45 59zM111 45q0 27 18 46.5t45 19.5t45.5 -19.5t18.5 -46.5q0 -133 -123 -256l-33 33q74 74 74 164q-45 14 -45 59z" />
<glyph unicode="&#x2020;" horiz-adv-x="1095" d="M74 860v109l438 -19l-18 441h110l-18 -441l438 19v-109l-438 19l18 -1172h-110l18 1172z" />
<glyph unicode="&#x2021;" horiz-adv-x="1095" d="M74 860v109l438 -19l-18 441h110l-18 -441l438 19v-109l-438 19v-330v-330l438 19v-111l-438 18l18 -438h-110l18 438l-438 -18v111l438 -19v330v330z" />
<glyph unicode="&#x2022;" horiz-adv-x="512" d="M74 475q0 76 53 129t129 53t129 -53t53 -129t-53 -129t-129 -53t-129 53t-53 129z" />
<glyph unicode="&#x2026;" horiz-adv-x="950" d="M694 45q0 27 19.5 46.5t46 19.5t45 -19.5t18.5 -46.5t-18.5 -45t-45 -18t-46 18t-19.5 45zM401 45q0 27 19.5 46.5t46.5 19.5t45 -19.5t18 -46.5t-18 -45t-45 -18t-46.5 18t-19.5 45zM111 45q0 27 18 46.5t45 19.5t45.5 -19.5t18.5 -46.5t-18.5 -45t-45.5 -18t-45 18 t-18 45z" />
<glyph unicode="&#x202f;" horiz-adv-x="364" />
<glyph unicode="&#x2030;" horiz-adv-x="1974" d="M1143 1268l55 -47l-1024 -1172l-55 47zM586 1061q0 -104 -68.5 -180t-187.5 -76t-187.5 75.5t-68.5 180.5q0 102 67.5 179t188.5 77t188.5 -77t67.5 -179zM330 1243q-88 0 -136.5 -54t-48.5 -128q0 -76 47.5 -129t137.5 -53t136 53t46 129q0 74 -46 128t-136 54z M1243 256q0 -104 -68.5 -180t-187.5 -76t-187.5 76t-68.5 180q0 102 67.5 179t188.5 77t188.5 -77t67.5 -179zM987 438q-88 0 -135 -54t-47 -128q0 -76 46 -129t136 -53t136 53t46 129q0 74 -46 128t-136 54zM1903 256q0 -104 -69 -180t-187.5 -76t-187 76t-68.5 180 q0 102 67.5 179t188 77t188.5 -77t68 -179zM1647 438q-88 0 -136.5 -54t-48.5 -128q0 -76 47 -129t137.5 -53t136.5 53t46 129q0 74 -46 128t-136 54z" />
<glyph unicode="&#x2039;" horiz-adv-x="438" d="M127 477v-6l240 -287l-58 -45l-254 307v58l254 311l58 -47z" />
<glyph unicode="&#x203a;" horiz-adv-x="438" d="M311 477l-237 291l55 47l256 -311v-58l-256 -307l-55 45l237 287v6z" />
<glyph unicode="&#x2044;" horiz-adv-x="219" d="M594 1268l55 -47l-1024 -1172l-55 47z" />
<glyph unicode="&#x205f;" horiz-adv-x="456" />
<glyph unicode="&#x20ac;" horiz-adv-x="1388" d="M246 512q59 -207 234 -341t399 -134q211 0 378 121l46 -60q-190 -135 -424 -135q-252 0 -450 154.5t-259 394.5h-133l8 74h109q-8 49 -9 108v37h-71l8 74h72q41 266 245.5 443t479.5 177q238 0 424 -135l14 -10v-74h-74v35q-170 113 -364 113q-244 0 -426.5 -157 t-223.5 -392h750l-10 -74h-748q0 -6 -1 -18.5t-1 -18.5q0 -47 10 -108h713l-10 -74h-686z" />
<glyph unicode="&#x2122;" horiz-adv-x="2048" d="M805 1391v-74h-293v-805h-74v805h-293v74h660zM1337 489l-342 742l-86 -719h-67v74h2l98 809h57l371 -805l371 805h57l113 -865l-72 -10l-92 713l-342 -744h-68z" />
<glyph unicode="&#x2202;" horiz-adv-x="950" d="M481 913q-123 0 -229.5 -128t-106.5 -349q0 -188 88.5 -293.5t200.5 -105.5q170 0 270.5 166t100.5 444q0 78 -4 117q-72 70 -161 109.5t-159 39.5zM786 874q-31 182 -105.5 294t-197.5 112q-78 0 -151 -51v-23h-72l4 60l12 10q100 78 211 78q109 0 190 -66.5t123 -176.5 t60.5 -225.5t18.5 -238.5q0 -307 -122 -495.5t-325 -188.5q-143 0 -250.5 129t-107.5 342q0 248 127 400.5t286 152.5q147 0 299 -113z" />
<glyph unicode="&#x2206;" horiz-adv-x="1024" d="M571 1169l398 -1169h-914l398 1169h118zM516 1098h-8l-352 -1024h712z" />
<glyph unicode="&#x220f;" horiz-adv-x="1243" d="M74 -367v1758h1095v-1758h-71v1684h-953v-1684h-71z" />
<glyph unicode="&#x2211;" horiz-adv-x="1243" d="M1169 -256v-111h-1095v64l737 815l-737 815v64h1095v-111h-71v37h-916l707 -780v-50l-707 -780h916v37h71z" />
<glyph unicode="&#x221a;" horiz-adv-x="1024" d="M55 379l228 57l123 -342l409 1368h209v-71h-154l-428 -1432h-65l-141 391l-162 -41z" />
<glyph unicode="&#x221e;" horiz-adv-x="2048" d="M973 512l-10 10l-42 43q-36 37 -47.5 46.5t-44 41t-50.5 42.5l-50 34q-33 23 -57 32l-58 22q-33 13 -67.5 17.5t-71.5 4.5q-154 0 -242 -83t-88 -210t88.5 -210t241.5 -83q37 0 71 4t67.5 17.5t57 21.5t58.5 32.5l49.5 34t51 43.5t44 40t47.5 47l42 43zM1075 512l10 -10 l42 -43q40 -41 47.5 -47t44 -40t51 -43.5l49.5 -34t58.5 -32.5t57 -21.5t67.5 -17.5t71 -4q154 0 242 83t88 210t-88.5 210t-241.5 83q-37 0 -72 -4t-67 -18l-58 -22q-25 -9 -57 -32l-50 -34q-17 -11 -50 -42.5t-44.5 -41t-47.5 -46.5l-42 -43zM1014 451l-47 -48l-55 -54 q-13 -13 -53 -49t-63 -50l-66 -40q-42 -26 -78 -36t-82 -19.5t-95 -9.5q-184 0 -292.5 105.5t-108.5 261.5t108.5 261.5t292.5 105.5q49 0 95 -9.5t82 -19.5t78 -36l66 -40q24 -14 63.5 -50t52.5 -49l55 -54l47 -48l10 -10l10 10l47 48l55 54q13 13 53 49t63 50l66 40 q42 26 78 36t82 19.5t95 9.5q184 0 292.5 -105.5t108.5 -261.5t-108.5 -261.5t-292.5 -105.5q-49 0 -95 9.5t-82 19.5t-78 36l-66 40q-24 14 -63.5 50t-52.5 49l-55 54l-47 48l-10 10z" />
<glyph unicode="&#x222b;" horiz-adv-x="735" d="M193 -293q41 0 68.5 28.5t31.5 74.5l74 1554q4 72 53 122t119 50q59 0 102 -33l-43 -59q-27 18 -59 18q-41 0 -69 -28.5t-32 -73.5l-71 -1555q-4 -72 -54.5 -122t-119.5 -50q-55 0 -103 35l43 58q27 -19 60 -19z" />
<glyph unicode="&#x2248;" horiz-adv-x="802" d="M209 899q31 0 88 -20l244 -82q43 -14 57 -15q53 0 72 72l71 -12q-10 -61 -48 -97t-95 -36q-18 0 -90 22l-244 80q-45 16 -55 16q-57 0 -74 -69l-74 10q10 63 51.5 97t96.5 34zM209 582q25 0 88 -23l244 -84q43 -14 57 -14q53 0 72 74l71 -15q-10 -61 -48 -97t-95 -36 q-18 0 -90 23l-244 84q-39 14 -55 14q-57 0 -74 -74l-74 15q10 66 51.5 99.5t96.5 33.5z" />
<glyph unicode="&#x2260;" horiz-adv-x="950" d="M252 201l-66 37l119 200h-231v74h274l172 293h-446v74h487l137 237l66 -37l-119 -200h234v-74h-275l-172 -293h447v-74h-490z" />
<glyph unicode="&#x2264;" horiz-adv-x="657" d="M623 317l-43 -59l-506 360v82l508 347l41 -64l-478 -321v-7zM623 74h-549v71h549v-71z" />
<glyph unicode="&#x2265;" horiz-adv-x="657" d="M74 317l475 338v7l-475 321l39 64l510 -347v-82l-508 -360zM74 74v71h549v-71h-549z" />
<glyph unicode="&#x25ca;" horiz-adv-x="876" d="M479 1391l328 -697l-328 -694h-80l-327 694l327 697h80zM438 88l287 606l-287 609l-286 -609z" />
<glyph unicode="&#xe000;" horiz-adv-x="970" d="M0 970h970v-970h-970v970z" />
<glyph unicode="&#xfb01;" horiz-adv-x="1024" d="M657 1380v-63h-71v12q-29 6 -56 6q-98 0 -167.5 -69.5t-69.5 -167.5v-148h293v-71h-293v-879h-74v879h-145v71h145v148q0 129 91 220t220 91q66 0 127 -29zM768 1253.5q0 26.5 18.5 45t45 18.5t45 -18.5t18.5 -45t-18.5 -46t-45 -19.5t-45 19.5t-18.5 46zM803 879h-35v71 h109v-950h-74v879z" />
<glyph unicode="&#xfb02;" horiz-adv-x="1024" d="M768 1391h109v-1391h-74v1317h-35v74zM657 1380v-63h-71v12q-29 6 -56 6q-98 0 -167.5 -69.5t-69.5 -167.5v-148h293v-71h-293v-879h-74v879h-145v71h145v148q0 129 91 220t220 91q66 0 127 -29z" />
<glyph unicode="&#xfb03;" horiz-adv-x="1607" d="M1356 1253.5q0 26.5 18.5 45t45 18.5t45 -18.5t18.5 -45t-18.5 -46t-45 -19.5t-45 19.5t-18.5 46zM1391 879h-35v71h108v-950h-73v879zM1245 1380v-63h-74v12q-29 6 -53 6q-98 0 -168.5 -69.5t-70.5 -167.5v-148h292v-71h-292v-879h-72v879h-148v71h148v148q0 129 91 220 t220 91q66 0 127 -29zM657 1380v-63h-71v12q-29 6 -56 6q-98 0 -167.5 -69.5t-69.5 -167.5v-148h256v-71h-256v-879h-74v879h-145v71h145v148q0 129 91 220t220 91q66 0 127 -29z" />
<glyph unicode="&#xfb04;" horiz-adv-x="1607" d="M1354 1391h108v-1391h-73v1317h-35v74zM1243 1380v-63h-72v12q-29 6 -55 6q-98 0 -167.5 -69.5t-69.5 -167.5v-148h292v-71h-292v-879h-74v879h-146v71h146v148q0 129 91 220t220 91q66 0 127 -29zM657 1380v-63h-71v12q-29 6 -56 6q-98 0 -167.5 -69.5t-69.5 -167.5 v-148h256v-71h-256v-879h-74v879h-145v71h145v148q0 129 91 220t220 91q66 0 127 -29z" />
</font>
</defs>
</svg>
