<?xml version="1.0" standalone="no"?>
<!DOCTYPE svg PUBLIC "-//W3C//DTD SVG 1.1//EN" "http://www.w3.org/Graphics/SVG/1.1/DTD/svg11.dtd" >
<svg xmlns="http://www.w3.org/2000/svg">
<metadata>
This is a custom SVG webfont generated by Font Squirrel.
Copyright   : Created by gluk with FontForge 20 httpfontforgesfnet
</metadata>
<defs>
<font id="webfonteXulLQVy" horiz-adv-x="1169" >
<font-face units-per-em="2048" ascent="1610" descent="-438" />
<missing-glyph horiz-adv-x="731" />
<glyph unicode=" "  horiz-adv-x="731" />
<glyph unicode="&#x09;" horiz-adv-x="731" />
<glyph unicode="&#xa0;" horiz-adv-x="731" />
<glyph unicode="!" horiz-adv-x="364" d="M200.5 127q32.5 0 57.5 -24.5t25 -57.5t-25 -57.5t-57.5 -24.5t-57 24.5t-24.5 57.5t24.5 57.5t57 24.5zM145 1391h148v-111h-37v-913h-111v1024z" />
<glyph unicode="&#x22;" horiz-adv-x="512" d="M324 1384l-5 19l109 20l4 -18q6 -20 6 -90q0 -121 -20 -180l-19 -54l-106 29l16 55q20 63 21 158q0 41 -6 61zM104 1384l-4 19l109 20l4 -18q6 -20 6 -90q0 -115 -22 -180l-17 -54l-106 29l16 55q20 63 21 158q-1 41 -7 61z" />
<glyph unicode="#" horiz-adv-x="839" d="M508 530l27 275h-203l-25 -275h201zM301 438l-18 -219h-93l21 219h-150l11 92h143l27 275h-148l8 92h146l18 219h92l-20 -219h201l20 219h92l-20 -219h147l-8 -92h-145l-25 -275h148l-9 -92h-145l-21 -219h-90l21 219h-203z" />
<glyph unicode="$" horiz-adv-x="1243" d="M694 -111h-108v113q-137 8 -278.5 75.5t-217.5 141.5l-16 14v78h108v-28q70 -59 184.5 -111.5t219.5 -60.5v546q-80 23 -133.5 40.5t-117 48t-101 65.5t-63.5 87t-26 118q0 113 128 202t313 97v110h108v-112q242 -27 387 -166l17 -14v-82h-111v32q-119 100 -293 121v-463 q84 -23 141.5 -42t126 -53t109.5 -72.5t69.5 -98t28.5 -131.5v-2q0 -139 -127 -232.5t-348 -107.5v-113zM586 770v434q-139 -8 -234.5 -67.5t-95.5 -120.5q0 -94 83 -146.5t247 -99.5zM694 625v-514q170 12 268.5 73.5t98.5 155.5v4q0 111 -93.5 170.5t-273.5 110.5z" />
<glyph unicode="%" horiz-adv-x="1314" d="M1128 1280l82 -72l-1022 -1171l-82 72zM586 1061q0 -104 -68.5 -180t-187.5 -76t-187.5 75.5t-68.5 180.5q0 102 67.5 179t188.5 77t188.5 -77t67.5 -179zM330 1225q-82 0 -124 -49.5t-42 -115t43 -114.5t123 -49t122 48t42 116q0 66 -41 115t-123 49zM1243 256 q0 -104 -68.5 -180t-187.5 -76t-187.5 76t-68.5 180q0 102 67.5 179t188.5 77t188.5 -77t67.5 -179zM987 420q-82 0 -123 -49t-41 -115q0 -68 42 -116t122 -48t122 48t42 116q0 66 -41 115t-123 49z" />
<glyph unicode="&#x26;" horiz-adv-x="1388" d="M903 1061q-23 61 -89 103t-157 42q-106 0 -181 -74.5t-75 -181.5q0 -72 43 -144.5t215 -256.5l326 -350q150 125 150 321q0 109 -74 156v-37h-111v166h56q102 0 169.5 -86t67.5 -199q0 -242 -180 -397q20 -12 43 -12h211v-111h-211q-74 0 -135 57q-164 -94 -344 -94 q-268 0 -410.5 121t-142.5 283q0 115 72.5 218t203.5 169q-57 90 -57 196q0 152 107.5 259.5t257 107.5t258 -90t108.5 -221v-56h-160v111h39zM182 367q0 -111 109.5 -202t335.5 -91q139 0 266 65l-313 334q-100 109 -164 189q-104 -47 -169 -128t-65 -167z" />
<glyph unicode="'" horiz-adv-x="290" d="M104 1384l-4 19l109 20l4 -18q6 -20 6 -90q0 -115 -22 -180l-17 -54l-106 29l16 55q20 63 21 158q-1 41 -7 61z" />
<glyph unicode="(" horiz-adv-x="546" d="M74 537q0 319 89 613t265 400l57 -92q-135 -80 -219 -340t-84 -581q0 -313 84 -556t219 -327l-57 -92q-176 106 -265 383t-89 592z" />
<glyph unicode=")" horiz-adv-x="546" d="M475 537q0 -315 -89 -592t-265 -383l-58 92q135 84 219.5 326.5t84.5 556.5q0 322 -84 581.5t-220 339.5l58 92q176 -106 265 -400t89 -613z" />
<glyph unicode="*" horiz-adv-x="657" d="M559 1182l27 -68l-199 -72l123 -168l-57 -45l-123 170l-123 -170l-60 45l123 168l-196 72l24 68l195 -70v205h74v-205z" />
<glyph unicode="+" horiz-adv-x="987" d="M549 731h364v-108h-364v-367h-111v367h-364v108h364v367h111v-367z" />
<glyph unicode="," horiz-adv-x="438" d="M213 127q33 0 56.5 -24.5t23.5 -57.5q0 -139 -129 -268l-12 -13l-41 39q82 82 82 162q-27 6 -46.5 28.5t-19.5 51.5q0 33 25.5 57.5t60.5 24.5z" />
<glyph unicode="-" horiz-adv-x="731" d="M657 475h-583v111h583v-111z" />
<glyph unicode="." horiz-adv-x="401" d="M211 127q35 0 58.5 -24.5t23.5 -57.5t-23.5 -57.5t-58.5 -24.5t-59.5 24.5t-24.5 57.5t24.5 57.5t59.5 24.5z" />
<glyph unicode="/" horiz-adv-x="1132" d="M1001 1456l93 -59l-963 -1503l-90 59z" />
<glyph unicode="0" d="M182 657q0 -285 122 -434t281.5 -149t280.5 149.5t121 433.5q0 272 -123 429t-278.5 157t-279.5 -157t-124 -429zM586 1354q207 0 359.5 -191.5t152.5 -505.5q0 -324 -150.5 -509t-361.5 -185t-361.5 185.5t-150.5 508.5q0 313 152.5 505t359.5 192z" />
<glyph unicode="1" horiz-adv-x="475" d="M219 1139h-2l-86 -97l-80 74l180 201h99v-1317h-111v1139z" />
<glyph unicode="2" horiz-adv-x="950" d="M475 1354q166 0 285 -119t119 -285v-2q0 -109 -67 -214t-222 -261l-363 -360v-2h541v53h111v-164h-824v92l457 459q145 145 200.5 232t55.5 167q0 121 -86 207t-207 86t-207 -86t-86 -207h-108q0 166 117.5 285t283.5 119z" />
<glyph unicode="3" horiz-adv-x="1024" d="M512 805q90 0 154.5 64.5t64.5 154.5t-64.5 154.5t-154.5 64.5t-154.5 -64.5t-64.5 -154.5h-111q0 135 97.5 232.5t232.5 97.5t232.5 -97.5t97.5 -232.5q0 -82 -45 -152.5t-119 -113.5v-2q121 -45 196.5 -145.5t75.5 -225.5q0 -174 -129 -298t-309 -124t-309 124 t-129 298h108q0 -127 96.5 -219t233.5 -92t233.5 92t96.5 219q0 129 -97.5 219t-232.5 90v111z" />
<glyph unicode="4" horiz-adv-x="987" d="M731 879h111v-549h108v-111h-108v-219h-111v219h-657v76l8 14q240 362 333 580.5t93 427.5h110q0 -219 -88 -437t-303 -550h504v549z" />
<glyph unicode="5" horiz-adv-x="950" d="M805 1317v-166h-111v55h-475l-22 -366q119 111 278 110q156 0 280 -131t124 -362q0 -240 -127 -367t-291 -127q-111 0 -219.5 59.5t-161.5 153.5l-6 12v86h108v-57q43 -63 122 -103t157 -40q119 0 213 95t94 288q0 188 -92 286.5t-201 98.5q-88 0 -170 -55.5t-125 -157.5 l-14 -33h-96l47 721h688z" />
<glyph unicode="6" horiz-adv-x="950" d="M494 950q154 0 269.5 -131t115.5 -362.5t-116 -362.5t-269 -131q-72 0 -143.5 32t-135 90t-102.5 155.5t-39 216.5q0 78 1 132t9 155.5t22.5 174t44 160.5t70.5 143.5t106.5 93.5t147.5 38q199 0 320 -154l10 -14v-88h-111v47q-88 98 -219 98q-254 0 -307 -508h2 q55 98 140.5 156.5t183.5 58.5zM182 456.5q0 -184.5 99.5 -283.5t212.5 -99q104 0 189 97t85 286q0 190 -85 287.5t-189 97.5q-113 0 -212.5 -100.5t-99.5 -285z" />
<glyph unicode="7" horiz-adv-x="876" d="M655 1206h-510v-55h-108v166h768v-92l-170 -232q-260 -356 -260 -993h-111q0 676 281 1059z" />
<glyph unicode="8" horiz-adv-x="1024" d="M842 1024q0 -82 -45 -152.5t-119 -113.5v-2q121 -45 196.5 -145.5t75.5 -225.5q0 -174 -129 -298t-309 -124t-309 124t-129 298q0 125 75.5 225.5t196.5 145.5v2q-74 43 -119 113.5t-45 152.5q0 135 97.5 232.5t232.5 97.5t232.5 -97.5t97.5 -232.5zM842 385 q0 129 -97.5 219t-232.5 90t-232.5 -90t-97.5 -219q0 -127 96.5 -219t233.5 -92t233.5 92t96.5 219zM293 1024q0 -90 64.5 -154.5t154.5 -64.5t154.5 64.5t64.5 154.5t-64.5 154.5t-154.5 64.5t-154.5 -64.5t-64.5 -154.5z" />
<glyph unicode="9" horiz-adv-x="950" d="M457 367q-154 0 -268.5 130t-114.5 363q0 231 115.5 362.5t267.5 131.5q158 0 290 -132t132 -362q0 -76 -1 -132t-9.5 -156.5t-23 -174t-45 -160.5t-71.5 -142.5t-106.5 -93.5t-147.5 -38q-197 0 -317 154l-13 14v88h111v-47q88 -98 219 -98q252 0 305 508h-2 q-55 -100 -139 -157.5t-182 -57.5zM768 860q0 184 -99.5 283.5t-211.5 99.5q-104 0 -189.5 -97t-85.5 -286q0 -190 85 -287.5t190 -97.5q113 0 212 100.5t99 284.5z" />
<glyph unicode=":" horiz-adv-x="438" d="M211 127q35 0 58.5 -24.5t23.5 -57.5t-23.5 -57.5t-58.5 -24.5t-59.5 24.5t-24.5 57.5t24.5 57.5t59.5 24.5zM211 897q33 0 57.5 -24.5t24.5 -59.5t-23.5 -58.5t-58.5 -23.5t-59.5 24.5t-24.5 57.5q0 35 24.5 59.5t59.5 24.5z" />
<glyph unicode=";" horiz-adv-x="438" d="M211 897q33 0 57.5 -24.5t24.5 -59.5t-23.5 -58.5t-58.5 -23.5t-59.5 24.5t-24.5 57.5q0 35 24.5 59.5t59.5 24.5zM213 127q33 0 56.5 -24.5t23.5 -57.5q0 -139 -129 -268l-12 -13l-41 39q82 82 82 162q-27 6 -46.5 28.5t-19.5 51.5q0 33 25.5 57.5t60.5 24.5z" />
<glyph unicode="&#x3c;" horiz-adv-x="731" d="M666 322l-64 -91l-528 377v101l532 362l60 -92l-473 -322z" />
<glyph unicode="=" horiz-adv-x="950" d="M879 401h-805v111h805v-111zM879 768h-805v111h805v-111z" />
<glyph unicode="&#x3e;" horiz-adv-x="731" d="M539 657l-473 322l61 92l530 -362v-101l-528 -377l-63 91z" />
<glyph unicode="?" horiz-adv-x="876" d="M420 127q35 0 59.5 -24.5t24.5 -57.5t-24.5 -57.5t-59.5 -24.5t-58.5 24.5t-23.5 57.5t23.5 57.5t58.5 24.5zM438 1391q152 0 259.5 -107.5t107.5 -259.5q0 -94 -34 -163.5t-83 -108.5t-97 -73t-82 -76t-34 -95v-141h-108v141q0 78 33.5 133t81.5 90l97 70q48 35 81.5 91 t33.5 132q0 106 -74.5 181t-181 75t-181.5 -75t-75 -181h-108q0 152 107 259.5t257 107.5z" />
<glyph unicode="@" horiz-adv-x="1755" d="M1006 283l108 551h-172q-53 0 -115.5 -33t-120 -89.5t-95.5 -149.5t-38 -200q0 -123 63.5 -186t139.5 -63q55 0 122 41t101 112zM784 -293q-334 0 -522 202t-188 492q0 352 261 613.5t644 261.5q170 0 307 -57.5t221 -151.5t129 -210t45 -241q0 -143 -47 -263 t-120.5 -190.5t-157.5 -109.5t-164 -39q-41 0 -88 15q-61 20 -90 77q-106 -102 -238 -102q-121 0 -216 95.5t-95 262.5q0 252 155.5 417t321.5 165h305l-135 -690q-8 -41 -8 -53q0 -76 96 -76q53 0 114.5 29.5t121 85t98.5 155t39 221.5q0 102 -36 197.5t-106.5 175.5 t-187.5 129t-264 49q-338 0 -567.5 -229t-229.5 -537q0 -246 158 -424t444 -178q217 0 396 95l43 -82q-206 -105 -439 -105z" />
<glyph unicode="A" horiz-adv-x="1243" d="M72 111l510 1314h80l538 -1405l-102 -40l-133 350h-691l-129 -330h-127v111h54zM623 1223l-308 -785h607z" />
<glyph unicode="B" horiz-adv-x="1243" d="M256 731v-620h467q143 0 240.5 86t97.5 204q0 133 -130 231.5t-319 98.5h-356zM256 842h283q156 0 265 69.5t109 165.5q0 80 -86 141.5t-215 61.5h-356v-438zM799 799q168 -43 269 -151.5t101 -246.5q0 -170 -131 -285.5t-315 -115.5h-578v1280h-53v111h520 q164 0 288 -89.5t124 -224.5q0 -84 -61.5 -157.5t-163.5 -118.5v-2z" />
<glyph unicode="C" horiz-adv-x="1314" d="M805 -37q-303 0 -517 214t-214 517t214 517t517 214q225 0 405 -122l33 -23v-100h-108v41q-154 96 -330 96q-258 0 -440.5 -182.5t-182.5 -440.5t182.5 -439t440.5 -181q203 0 358 112l64 -90q-186 -133 -422 -133z" />
<glyph unicode="D" horiz-adv-x="1388" d="M92 1391h531q289 0 491.5 -204t202.5 -492.5t-203 -491.5t-491 -203h-478v1280h-53v111zM256 111h367q242 0 412.5 170t170.5 413.5t-171 414.5t-412 171h-367v-1169z" />
<glyph unicode="E" d="M913 1280h-657v-549h401v-108h-401v-512h731v53h111v-164h-953v1280h-53v111h932v-166h-111v55z" />
<glyph unicode="F" d="M145 1280h-53v111h1006v-166h-111v55h-731v-549h475v-108h-475v-623h-111v1280z" />
<glyph unicode="G" horiz-adv-x="1388" d="M1206 549h-256v108h367v-657h-111v129h-2q-199 -166 -399 -166q-303 0 -517 214t-214 517t214 517t517 214q231 0 416 -129l22 -16v-100h-108v41q-154 96 -330 96q-258 0 -440.5 -182.5t-182.5 -440.5t182.5 -439t440.5 -181q109 0 217 47t184 127v301z" />
<glyph unicode="H" horiz-adv-x="1314" d="M145 1391h111v-660h805v660h108v-1391h-108v623h-805v-623h-111v1391z" />
<glyph unicode="I" horiz-adv-x="401" d="M256 0h-111v1391h111v-1391z" />
<glyph unicode="J" horiz-adv-x="802" d="M145 141q61 -68 177 -67q94 0 160.5 57t66.5 162v987h-404v111h512v-1098q0 -152 -99 -241t-236 -89q-78 0 -156 34t-121 95l-8 12v78h108v-41z" />
<glyph unicode="K" horiz-adv-x="1243" d="M145 1391h111v-856l727 856h115v-111h-64l-473 -555l477 -563q27 -31 50.5 -41t80.5 -10v-111q-86 0 -131 21.5t-84 70.5l-465 547l-233 -274v-365h-111v1391z" />
<glyph unicode="L" d="M256 111h731v53h111v-164h-953v1391h111v-1280z" />
<glyph unicode="M" horiz-adv-x="1974" d="M117 111l162 1312h88l620 -1314l623 1314h86l188 -1417l-108 -14l-160 1192l-576 -1221h-106l-574 1217l-145 -1180h-152v111h54z" />
<glyph unicode="N" horiz-adv-x="1388" d="M145 1280h-53v111h156l885 -1194h2v1194h108v-1391h-100l-885 1194h-2v-1194h-111v1280z" />
<glyph unicode="O" horiz-adv-x="1607" d="M182 694q0 -258 182.5 -439t440.5 -181t439 181t181 439t-181 440.5t-439 182.5t-440.5 -182.5t-182.5 -440.5zM805 1425q303 0 517 -214t214 -517t-214 -517t-517 -214t-517 214t-214 517t214 517t517 214z" />
<glyph unicode="P" horiz-adv-x="1243" d="M145 1280h-53v111h602q199 0 337 -139.5t138 -338t-138 -337t-337 -138.5h-438v-438h-111v1280zM256 1280v-731h438q152 0 259.5 107.5t107.5 256.5q0 152 -108.5 259.5t-258.5 107.5h-438z" />
<glyph unicode="Q" horiz-adv-x="1607" d="M805 1425q303 0 517 -214t214 -517t-214 -517t-517 -214q-279 0 -416 -170l6 -6q80 63 195 63q104 0 288.5 -61t239.5 -61q33 0 56.5 21.5t23.5 49.5h109q0 -74 -55.5 -128t-133.5 -54q-72 0 -258 61.5t-270 61.5q-98 0 -156 -68l-39 -49l-147 162l24 35q90 137 246 203 q-199 84 -321.5 266t-122.5 405q0 303 214 517t517 214zM805 74q258 0 439 181t181 439t-181 440.5t-439 182.5t-440.5 -182.5t-182.5 -440.5t182.5 -439t440.5 -181z" />
<glyph unicode="R" horiz-adv-x="1243" d="M631 694q147 0 251.5 86t104.5 207t-92 207t-264 86h-375v-586h375zM791 498l213 -334q16 -25 23 -33t21.5 -14t36.5 -6h84v-111h-84q-49 0 -84.5 17.5t-51 36t-38.5 52.5l-213 330q-68 104 -111.5 127t-185.5 23h-145v-586h-111v1280h-53v111h539q219 0 343 -120 t124 -284q0 -145 -120 -254.5t-294 -126.5v-2q66 -40 107 -106z" />
<glyph unicode="S" horiz-adv-x="1243" d="M987 1192q-74 63 -176 94t-188 31q-156 0 -261.5 -66.5t-105.5 -152.5q0 -39 13.5 -73t48 -64.5t62.5 -51t88 -48t93 -41l109 -42.5l137 -54q47 -19 128 -64.5t123 -88.5t76.5 -111.5t34.5 -148.5q0 -152 -162.5 -250t-383.5 -98q-156 0 -305.5 65.5t-227.5 139.5l-16 16 v90h108v-43q74 -61 198 -109t243 -48q184 0 311 72.5t127 164.5q0 125 -104.5 202t-327.5 163q-225 88 -305 139q-178 115 -179 283q0 143 142.5 235t335.5 92q119 0 245.5 -43t212.5 -127l17 -16v-88h-111v41z" />
<glyph unicode="T" horiz-adv-x="1351" d="M74 1391h1206v-166h-111v55h-438v-1280h-108v1280h-441v-55h-108v166z" />
<glyph unicode="U" horiz-adv-x="1314" d="M92 1391h164v-916q0 -166 118 -283.5t283.5 -117.5t284.5 117.5t119 283.5v916h108v-916q0 -213 -150.5 -362.5t-361.5 -149.5t-361.5 149.5t-150.5 362.5v805h-53v111z" />
<glyph unicode="V" horiz-adv-x="1243" d="M37 1391h108l478 -1225l475 1243l102 -39l-538 -1407h-80l-510 1317h-35v111z" />
<glyph unicode="W" horiz-adv-x="1974" d="M37 1391h115l452 -1221l328 883v190h110v-190l330 -883l459 1239l102 -37l-522 -1409h-80l-344 924l-344 -924h-80l-487 1317h-39v111z" />
<glyph unicode="X" horiz-adv-x="1243" d="M1090 1423l88 -67l-486 -637l522 -686l-88 -66l-503 662l-506 -662l-88 66l524 686l-487 637l88 67l469 -612z" />
<glyph unicode="Y" d="M1135 1348l-496 -820v-528h-109v528l-454 752h-39v111h100l447 -740h4l436 727v13h111v-43z" />
<glyph unicode="Z" d="M1061 1309l-834 -1198h760v53h111v-164h-1024v80l833 1200h-688v-55h-108v166h950v-82z" />
<glyph unicode="[" horiz-adv-x="475" d="M256 1425v-1755h145v-108h-256v1974h256v-111h-145z" />
<glyph unicode="\" d="M59 1376l91 60l962 -1504l-92 -59z" />
<glyph unicode="]" horiz-adv-x="475" d="M219 1425h-145v111h256v-1974h-256v108h145v1755z" />
<glyph unicode="^" horiz-adv-x="1024" d="M541 1419l405 -528l-72 -55l-370 481l-387 -483l-70 61l422 524h72z" />
<glyph unicode="_" horiz-adv-x="1443" d="M1317 -420h-1243v90h1243v-90z" />
<glyph unicode="`" horiz-adv-x="438" d="M289 1116l-205 205l72 70l196 -211z" />
<glyph unicode="a" horiz-adv-x="1095" d="M1006 0h-164v123q-150 -160 -367 -160q-174 0 -287.5 89t-113.5 233q0 125 106.5 213t294.5 88h367v71q0 123 -83 172.5t-202 49.5q-123 0 -227 -43v-50h-111v119l29 15q129 68 309 67q72 0 136.5 -15.5t125 -51t96 -103t35.5 -160.5v-546h56v-111zM475 475 q-147 0 -220 -57.5t-73 -132.5q0 -94 82 -152.5t211 -58.5q109 0 217.5 43t149.5 119v239h-367z" />
<glyph unicode="b" d="M145 1280h-53v111h164v-631h4q59 104 154.5 165.5t208.5 61.5q209 0 342 -148.5t133 -363.5t-133.5 -363.5t-341.5 -148.5q-111 0 -207.5 62.5t-155.5 167.5h-4v-193h-111v1280zM256 475q0 -172 102.5 -286.5t264 -114.5t263 114.5t101.5 286.5t-101.5 288t-263 116 t-264 -116t-102.5 -288z" />
<glyph unicode="c" horiz-adv-x="1024" d="M586 -37q-213 0 -362.5 149.5t-149.5 362.5t149.5 362.5t362.5 149.5q197 0 340 -129l24 -22v-86h-108v36q-111 92 -256 93q-166 0 -285 -119t-119 -285t119 -283.5t285 -117.5q172 0 293 127l82 -74q-154 -164 -375 -164z" />
<glyph unicode="d" d="M913 475q0 172 -101 288t-263 116t-264.5 -116t-102.5 -288t102.5 -286.5t264.5 -114.5t263 114.5t101 286.5zM1024 111h55v-111h-166v193h-2q-59 -104 -155.5 -167t-206.5 -63q-209 0 -342 148.5t-133 363.5t133 363.5t342 148.5q113 0 208 -61.5t154 -165.5h2v520h-53 v111h164v-1280z" />
<glyph unicode="e" horiz-adv-x="1095" d="M520 549q129 0 359 203q-121 127 -293 127q-145 0 -257 -94.5t-139 -235.5h330zM184 438q14 -154 130 -259t272 -105q172 0 293 127l82 -74q-154 -164 -375 -164q-213 0 -362.5 149.5t-149.5 362.5t149.5 362.5t362.5 149.5q125 0 233.5 -56.5t179.5 -154.5l31 -41 l-41 -33q-4 -2 -60.5 -53t-88.5 -75l-91 -62q-58 -39 -116 -56.5t-113 -17.5h-336z" />
<glyph unicode="f" horiz-adv-x="731" d="M74 842v108h145v166q0 129 91 219t220 90q174 0 267 -149l8 -14v-74h-111v43q-61 86 -164 86q-84 0 -142 -58.5t-58 -142.5v-166h256v-108h-256v-842h-111v842h-145z" />
<glyph unicode="g" horiz-adv-x="1024" d="M262 199l481 -119q117 -29 190 -107.5t73 -175.5q0 -100 -76 -167.5t-203 -67.5h-299q-168 0 -279.5 79.5t-111.5 213.5q0 125 125 276q-35 35 -35 82q0 80 100 201q-82 96 -82 225q0 162 110 255t257 93q119 0 207 -55h268v-109h-158q49 -78 50 -184q0 -162 -110 -254 t-257 -92q-131 0 -225 67q-53 -72 -54 -120q0 -35 29 -41zM256 639q0 -115 76 -176.5t180 -61.5t180 61.5t76 176.5t-76 177.5t-180 62.5t-180 -62.5t-76 -177.5zM233 94q-90 -111 -90 -211q0 -92 72 -152.5t213 -60.5h299q78 0 124 35t46 92q0 55 -49 107.5t-129 70.5 l-483 119h-3z" />
<glyph unicode="h" d="M1079 0h-166v657q0 109 -68.5 165.5t-187.5 56.5q-164 0 -282.5 -126t-118.5 -315v-438h-111v1280h-53v111h164v-660h2q63 119 168.5 187.5t230.5 68.5q166 0 266.5 -88t100.5 -242v-546h55v-111z" />
<glyph unicode="i" horiz-adv-x="401" d="M203 1335q35 0 58.5 -24.5t23.5 -57.5q0 -35 -24.5 -59.5t-57.5 -24.5q-35 0 -59.5 26t-24.5 58.5t24.5 57t59.5 24.5zM145 842h-53v108h164v-950h-111v842z" />
<glyph unicode="j" horiz-adv-x="364" d="M92 950h164v-1114q0 -115 -81 -194.5t-193 -79.5q-143 0 -226 116l-12 19v74h111v-37q53 -63 127 -64q70 0 116.5 48.5t46.5 117.5v1006h-53v108zM200.5 1335q32.5 0 57.5 -24.5t25 -57.5q0 -35 -25 -59.5t-57.5 -24.5t-57 25t-24.5 59q0 33 24.5 57.5t57 24.5z" />
<glyph unicode="k" horiz-adv-x="1095" d="M92 1391h164v-1055l584 614h92v-108h-45l-299 -318l321 -360q47 -53 115 -53v-111q-115 0 -197 92l-317 352l-254 -268v-176h-111v1280h-53v111z" />
<glyph unicode="l" horiz-adv-x="401" d="M256 1391v-1391h-111v1280h-53v111h164z" />
<glyph unicode="m" horiz-adv-x="1826" d="M860 639q0 240 -229 240q-152 0 -263.5 -133.5t-111.5 -323.5v-422h-111v842h-53v108h164v-219h2q61 117 159.5 186.5t213.5 69.5q141 0 226 -69.5t106 -196.5h2q59 123 159.5 194.5t218.5 71.5q162 0 250 -92t88 -256v-528h56v-111h-164v639q0 240 -230 240 q-152 0 -263 -133.5t-111 -323.5v-422h-109v639z" />
<glyph unicode="n" d="M1079 0h-166v657q0 109 -68.5 165.5t-187.5 56.5q-164 0 -282.5 -126t-118.5 -315v-438h-111v842h-53v108h164v-219h2q63 119 168.5 187.5t230.5 68.5q166 0 266.5 -88t100.5 -242v-546h55v-111z" />
<glyph unicode="o" d="M182 475q0 -166 119 -283.5t285 -117.5t283.5 117.5t117.5 283.5t-117.5 285t-283.5 119t-285 -119t-119 -285zM586 987q213 0 362.5 -149.5t149.5 -362.5t-149.5 -362.5t-362.5 -149.5t-362.5 149.5t-149.5 362.5t149.5 362.5t362.5 149.5z" />
<glyph unicode="p" d="M145 842h-53v108h164v-190h2q59 104 155.5 165.5t209.5 61.5q209 0 342 -148.5t133 -363.5t-133.5 -363.5t-341.5 -148.5q-113 0 -209.5 62.5t-155.5 167.5h-2v-631h-111v1280zM256 475q0 -172 102.5 -286.5t264 -114.5t263 114.5t101.5 286.5t-101.5 288t-263 116 t-264 -116t-102.5 -288z" />
<glyph unicode="q" d="M1024 -330h55v-108h-166v631h-2q-59 -104 -155.5 -167t-206.5 -63q-209 0 -342 148.5t-133 363.5t133 363.5t342 148.5q113 0 208 -61.5t154 -165.5h2v190h111v-1280zM913 475q0 172 -101 288t-263 116t-264.5 -116t-102.5 -288t102.5 -286.5t264.5 -114.5t263 114.5 t101 286.5z" />
<glyph unicode="r" horiz-adv-x="731" d="M145 842h-53v108h164v-237h2q61 125 161.5 199.5t215.5 74.5h22v-164h-108v39q-111 -47 -202 -177t-91 -300v-385h-111v842z" />
<glyph unicode="s" horiz-adv-x="950" d="M475 565q6 -2 53 -19.5t58.5 -22.5l53.5 -22.5t55 -25.5l47 -28q34 -19 48 -33l34 -38q22 -24 31 -46.5t16.5 -51t7.5 -59.5q0 -106 -119 -181t-285 -75q-268 0 -391 156l-10 14v78h108v-37q96 -100 293 -100q121 0 207 43t86 102q0 37 -18.5 67.5t-38 49t-70.5 43 t-74.5 34t-91.5 33.5q-78 29 -123 49.5t-100 56.5t-81 85t-26 113v2q0 96 96.5 165.5t233.5 69.5q193 0 313 -115l17 -14v-82h-111v33q-86 70 -219 70q-90 0 -154.5 -37t-64.5 -90v-2q0 -63 56.5 -104.5t162.5 -80.5z" />
<glyph unicode="t" horiz-adv-x="876" d="M219 1169h111v-219h401v-108h-401v-568q0 -82 58 -141t142 -59q102 0 164 86v41h111v-74l-8 -14q-92 -150 -267 -150q-129 0 -220 91t-91 220v568h-145v108h145v219z" />
<glyph unicode="u" d="M92 950h164v-657q0 -109 67.5 -164t188.5 -55q164 0 282.5 125t118.5 313v438h111v-839h55v-111h-166v219h-2q-63 -119 -168.5 -187.5t-230.5 -68.5q-166 0 -266.5 88t-100.5 242v549h-53v108z" />
<glyph unicode="v" horiz-adv-x="1095" d="M524 -35l-436 877h-51v108h121l391 -786l412 817l98 -47l-488 -969h-47z" />
<glyph unicode="w" horiz-adv-x="1644" d="M469 -37l-385 879h-47v108h119l340 -774l272 588v149h111v-149l272 -588l352 805l101 -45l-426 -973h-50l-305 660h-2l-303 -660h-49z" />
<glyph unicode="x" horiz-adv-x="1024" d="M874 987l80 -74l-368 -417l405 -459l-80 -74l-399 451l-399 -451l-80 74l405 459l-305 346h-41v108h90l330 -370z" />
<glyph unicode="y" horiz-adv-x="1095" d="M1061 950v-45l-553 -1147q-94 -197 -244 -196q-127 0 -215 123l-12 16v70h108v-33q51 -68 119 -68q80 0 146 135l82 170h-5l-387 867h-45v108h117l379 -852l399 832v20h111z" />
<glyph unicode="z" horiz-adv-x="1024" d="M913 872l-665 -761h594v53h108v-164h-876v78l667 764h-522v-56h-108v164h802v-78z" />
<glyph unicode="{" horiz-adv-x="438" d="M145 -164v512q0 49 -19.5 81t-36.5 39t-34 7h-55v148h55q10 0 22.5 4t29 16t27.5 40t11 67v512q0 113 71 193.5t169 80.5v-111q-53 0 -91 -47t-38 -116v-512q0 -135 -92 -201q92 -66 92 -201v-512q0 -70 38 -118t91 -48v-108q-98 0 -169 80.5t-71 193.5z" />
<glyph unicode="|" horiz-adv-x="401" d="M145 1317h111v-1684h-111v1684z" />
<glyph unicode="}" horiz-adv-x="438" d="M293 -164q0 -113 -69.5 -193.5t-168.5 -80.5v108q53 0 90 48.5t37 117.5v512q0 135 92 201q-92 66 -92 201v512q0 70 -36.5 116.5t-90.5 46.5v111q98 0 168 -81t70 -193v-512q0 -51 20.5 -82t39 -38t32.5 -7h53v-148h-53q-16 0 -33.5 -7t-38 -39t-20.5 -81v-512z" />
<glyph unicode="~" horiz-adv-x="731" d="M303 784l172 -79q31 -12 49 -13q41 0 54 56l4 16l110 -19l-4 -18q-12 -63 -54 -104t-110 -41q-49 0 -96 24l-172 80q-25 12 -47 12q-41 0 -55 -55l-4 -16l-109 16l2 19q12 72 58 109.5t108 37.5q49 0 94 -25z" />
<glyph unicode="&#xa1;" horiz-adv-x="364" d="M166 823q-35 0 -58.5 24.5t-23.5 57.5t23.5 57.5t58.5 24.5t58.5 -24.5t23.5 -57.5t-23.5 -57.5t-58.5 -24.5zM221 -440h-147v110h37v914h110v-1024z" />
<glyph unicode="&#xa2;" horiz-adv-x="1024" d="M623 -111h-111v154q-186 29 -312 172t-126 333.5t126 334t312 172.5v151h111v-147q172 -12 303 -129l24 -21v-86h-108v37q-90 76 -219 88v-801q147 12 256 127l82 -75q-137 -147 -338 -160v-150zM512 154v790q-141 -27 -235.5 -138.5t-94.5 -257t94.5 -256.5t235.5 -138z " />
<glyph unicode="&#xa3;" horiz-adv-x="1024" d="M74 90l22 12q55 31 89 87.5t34 121.5v312h-145v108h145v311q0 129 91 220.5t220 91.5q174 0 267 -150l8 -16v-90h-111v59q-61 86 -164 86q-84 0 -142 -58.5t-58 -142.5v-311h256v-108h-256v-312q0 -109 -66 -200h578v53h108v-164h-876v90z" />
<glyph unicode="&#xa5;" horiz-adv-x="1243" d="M950 657v-108h-262l-12 -21v-161h274v-111h-274v-256h-109v256h-274v111h274v161l-12 21h-262v108h194l-376 623h-37v111h100l449 -740h2l465 776l96 -55l-430 -715h194z" />
<glyph unicode="&#xa7;" horiz-adv-x="1206" d="M604 1298q-139 0 -206.5 -58t-67.5 -150q0 -84 59.5 -143.5t149.5 -92.5l193 -74q103 -41 193.5 -85t150 -129t59.5 -204q0 -88 -51.5 -166.5t-155.5 -127.5q59 -76 59 -189q0 -135 -97 -226t-286 -91q-160 0 -272.5 111.5t-112.5 271.5h111q0 -113 81 -194t193 -81 q139 0 207 58.5t68 150.5q0 84 -59.5 143.5t-149.5 92.5l-194 73q-103 41 -193 85t-149.5 129t-59.5 204q0 88 51 167t156 128q-61 78 -62 189q0 135 98.5 227t286.5 92q160 0 271.5 -112.5t111.5 -272.5h-108q0 115 -81 194.5t-194 79.5zM840 150q184 68 184 212 q0 102 -72.5 174t-166.5 105l-221 81q-128 48 -197 97q-184 -68 -185 -213q0 -102 73 -174t166 -104l221 -81q128 -48 198 -97z" />
<glyph unicode="&#xa8;" horiz-adv-x="731" d="M155.5 1317q32.5 0 57.5 -23.5t25 -58.5t-25 -59.5t-57.5 -24.5t-57 24.5t-24.5 59.5t24.5 58.5t57 23.5zM585.5 1317q32.5 0 57.5 -23.5t25 -58.5t-25 -59.5t-57.5 -24.5t-57 24.5t-24.5 59.5t24.5 58.5t57 23.5z" />
<glyph unicode="&#xa9;" horiz-adv-x="1681" d="M860 219q-197 0 -336 139.5t-139 336t139.5 335.5t335.5 139q178 0 309 -114l19 -17v-88h-109v35q-102 76 -219 76q-152 0 -259 -108.5t-107 -258t107.5 -257t258.5 -107.5q160 0 268 114l80 -75q-141 -150 -348 -150zM1423 403q86 135 86 295t-86 295q-88 141 -241 224 q-162 86 -340 86t-340 -86q-154 -82 -242 -224q-86 -135 -86 -294.5t86 -295.5q88 -143 240 -223q154 -82 342 -82t340 82q153 82 241 223zM1235 84q-170 -94 -393 -94q-219 0 -393 94q-182 100 -283 262q-102 160 -102.5 352.5t102.5 352.5q100 162 283 262q182 98 393 98 t393 -98q178 -98 281 -262q102 -160 102 -352.5t-102 -352.5q-103 -164 -281 -262z" />
<glyph unicode="&#xaa;" horiz-adv-x="839" d="M768 657h-145v70q-100 -88 -236 -88q-125 0 -219 64.5t-94 164.5q0 98 85 164t228 66h236v71q0 147 -185 148q-113 0 -182 -37v-37h-111v96l25 17q100 70 268 69q154 0 223.5 -73.5t69.5 -182.5v-401h37v-111zM387 987q-102 0 -153.5 -37t-51.5 -82q0 -43 58.5 -80.5 t146.5 -37.5q78 0 142.5 30.5t93.5 77.5v129h-236z" />
<glyph unicode="&#xab;" horiz-adv-x="802" d="M498 475l241 -293l-84 -69l-270 325v74l270 330l84 -72zM150 475l241 -293l-84 -69l-270 325v74l270 330l84 -72z" />
<glyph unicode="&#xac;" horiz-adv-x="1095" d="M74 731h876v-512h-108v404h-768v108z" />
<glyph unicode="&#xad;" horiz-adv-x="731" d="M657 475h-583v111h583v-111z" />
<glyph unicode="&#xae;" horiz-adv-x="1699" d="M1243 84q-170 -94 -393 -94q-219 0 -393 94q-178 98 -281 262q-102 160 -102 352.5t102 352.5q102 164 281 262q182 98 393 98t393 -98q182 -100 283 -262q102 -160 102 -352.5t-102 -352.5q-101 -162 -283 -262zM1432 403q86 135 86 295t-86 295q-88 141 -242 224 q-162 86 -340 86t-340 -86q-154 -82 -242 -224q-86 -135 -86 -294.5t86 -295.5q88 -143 240 -223q154 -82 342 -82t340 82q154 82 242 223zM1163 289q-82 0 -131 78l-127 198q-33 49 -59.5 61.5t-91.5 12.5h-78v-336h-109v885h324q145 0 229 -81t84 -194q0 -96 -68.5 -158.5 t-189.5 -74.5v-2q29 -18 49 -51l127 -201q16 -27 41 -27h51v-110h-51zM891 750q98 0 150.5 49t52.5 114q0 68 -52.5 117t-150.5 49h-215v-329h215z" />
<glyph unicode="&#xaf;" horiz-adv-x="731" d="M657 1206h-583v111h583v-111z" />
<glyph unicode="&#xb0;" horiz-adv-x="512" d="M256 1298q-33 0 -62.5 -28.5t-29.5 -63.5t29.5 -62.5t62.5 -27.5t62.5 27.5t29.5 62.5t-29.5 63.5t-62.5 28.5zM256 1391q70 0 126 -55.5t56 -129.5q0 -72 -56 -127t-126 -55t-126 55.5t-56 126.5q0 74 56 129.5t126 55.5z" />
<glyph unicode="&#xb1;" horiz-adv-x="987" d="M913 111h-839v108h839v-108zM549 805h364v-111h-364v-364h-111v364h-364v111h364v364h111v-364z" />
<glyph unicode="&#xb4;" horiz-adv-x="438" d="M150 1116l-64 64l197 211l71 -70z" />
<glyph unicode="&#xb5;" d="M92 950h164v-657q0 -109 67.5 -164t188.5 -55q164 0 282.5 125t118.5 313v438h111v-839h55v-111h-166v219h-2q-63 -119 -168.5 -187.5t-230.5 -68.5q-197 0 -293 115v-25q0 -49 27.5 -124.5t27.5 -108.5q0 -78 -38 -142l-91 58q18 27 19 84q0 23 -9.5 100.5t-9.5 132.5 v789h-53v108z" />
<glyph unicode="&#xb6;" horiz-adv-x="987" d="M401 768v438h-2q-88 0 -151 -63q-66 -66 -66 -156v-4q0 -86 66 -152q63 -63 153 -63zM842 1317v-1684h-111v1610h-219v-586v-1024h-111v1024q-133 0 -231 99q-96 96 -96 227v4q0 137 96 233.5t229 96.5h443z" />
<glyph unicode="&#xb7;" horiz-adv-x="364" d="M211 565q35 0 58.5 -24.5t23.5 -57t-23.5 -57.5t-58.5 -25t-59.5 25t-24.5 57.5t24.5 57t59.5 24.5z" />
<glyph unicode="&#xb8;" horiz-adv-x="821" d="M293 -166l-70 21l58 192l86 -22l-33 -84q14 12 43 12q84 0 137 -53.5t53 -141.5q0 -80 -54 -128t-144 -48q-117 0 -176 96l-11 17l82 45l8 -16q29 -49 97 -50q39 0 63.5 26t24.5 67q0 43 -22.5 68.5t-57.5 25.5q-23 0 -78 -23z" />
<glyph unicode="&#xba;" horiz-adv-x="913" d="M456.5 1298q-112.5 0 -193.5 -80.5t-81 -193.5t81 -193.5t193.5 -80.5t193.5 80.5t81 193.5t-81 193.5t-193.5 80.5zM842 1024q0 -160 -113 -272.5t-272.5 -112.5t-271 112.5t-111.5 272.5t111.5 272.5t271 112.5t272.5 -112.5t113 -272.5z" />
<glyph unicode="&#xbb;" horiz-adv-x="802" d="M307 475l-241 295l84 72l270 -330v-74l-270 -325l-84 69zM655 475l-241 295l84 72l270 -330v-74l-270 -325l-84 69z" />
<glyph unicode="&#xbf;" horiz-adv-x="876" d="M459 823q-35 0 -59.5 24.5t-24.5 57.5t24.5 57.5t59.5 24.5q33 0 57.5 -24.5t24.5 -57.5t-24.5 -57.5t-57.5 -24.5zM440.5 -440q-149.5 0 -258 107.5t-108.5 258.5q0 94 33.5 164t82 109t97.5 72.5t82.5 75.5t33.5 95v142h109v-142q0 -78 -34 -133t-82 -90l-96 -69 q-48 -35 -82 -91.5t-34 -132.5q0 -106 75 -181t181.5 -75t181 75t74.5 181h109q0 -152 -107.5 -259t-257 -107z" />
<glyph unicode="&#xc0;" horiz-adv-x="1243" d="M668 1554l-205 205l69 70l199 -211zM72 111l510 1314h80l538 -1405l-102 -40l-133 350h-691l-129 -330h-127v111h54zM623 1223l-308 -785h607z" />
<glyph unicode="&#xc1;" horiz-adv-x="1243" d="M580 1554l-66 64l199 211l71 -70zM72 111l510 1314h80l538 -1405l-102 -40l-133 350h-691l-129 -330h-127v111h54zM623 1223l-308 -785h607z" />
<glyph unicode="&#xc2;" horiz-adv-x="1243" d="M621 1718l-254 -202l-68 86l287 227h71l289 -227l-67 -86l-256 202h-2zM72 111l510 1314h80l538 -1405l-102 -40l-133 350h-691l-129 -330h-127v111h54zM623 1223l-308 -785h607z" />
<glyph unicode="&#xc3;" horiz-adv-x="1243" d="M653 1636l-108 62q-33 16 -53 16q-35 0 -46 -49l-10 -49l-108 20l10 50q27 137 154 137q53 0 94 -23l112 -61q25 -16 54 -17q33 0 43 50l10 49l108 -21l-8 -49q-27 -137 -153 -137q-56 -1 -99 22zM72 111l510 1314h80l538 -1405l-102 -40l-133 350h-691l-129 -330h-127 v111h54zM623 1223l-308 -785h607z" />
<glyph unicode="&#xc4;" horiz-adv-x="1243" d="M411.5 1755q34.5 0 58.5 -23.5t24 -58.5t-25 -59.5t-57.5 -24.5t-57 24.5t-24.5 59.5t23.5 58.5t58 23.5zM842 1755q35 0 58.5 -23.5t23.5 -58.5t-25 -59.5t-57 -24.5q-35 0 -59.5 24.5t-24.5 59.5q0 33 24.5 57.5t59.5 24.5zM72 111l510 1314h80l538 -1405l-102 -40 l-133 350h-691l-129 -330h-127v111h54zM623 1223l-308 -785h607z" />
<glyph unicode="&#xc5;" horiz-adv-x="1243" d="M623 1714q-39 0 -76 -35q-35 -35 -35 -75.5t35 -75.5t76 -35q37 0 73 35q35 35 35 76t-35 75q-36 35 -73 35zM623 1223l-308 -785h607zM623 1786q68 0 122 -53q59 -55 60 -129q0 -72 -60 -127q-39 -39 -83 -52l538 -1405l-102 -40l-133 350h-691l-129 -330h-127v111h54 l510 1314q-45 12 -84 52q-59 55 -60 127q0 74 60 129q55 53 125 53z" />
<glyph unicode="&#xc6;" horiz-adv-x="1755" d="M692 1391h918v-148h-111v37h-549v-549h293v-108h-293v-512h623v34h108v-145h-839v330h-559l-164 -330h-101v111h33zM842 1280h-82l-422 -842h504v842z" />
<glyph unicode="&#xc7;" horiz-adv-x="1314" d="M633 -207l-70 21l51 176q-236 63 -388 258.5t-152 445.5q0 303 214 517t517 214q225 0 405 -122l33 -23v-100h-108v41q-154 96 -330 96q-258 0 -440.5 -182.5t-182.5 -440.5t182.5 -439t440.5 -181q203 0 358 112l64 -90q-186 -133 -422 -133q-59 0 -103 8l-28 -69 q12 10 43 10q84 0 137 -53.5t53 -141.5q0 -80 -54 -127t-144 -47q-117 0 -177 95l-10 16l82 47l8 -16q31 -51 97 -52q39 0 63.5 26t24.5 67q0 43 -22.5 68.5t-57.5 25.5q-23 0 -78 -23z" />
<glyph unicode="&#xc8;" d="M631 1554l-205 205l70 70l198 -211zM913 1280h-657v-549h401v-108h-401v-512h731v53h111v-164h-953v1280h-53v111h932v-166h-111v55z" />
<glyph unicode="&#xc9;" d="M543 1554l-66 64l199 211l72 -70zM913 1280h-657v-549h401v-108h-401v-512h731v53h111v-164h-953v1280h-53v111h932v-166h-111v55z" />
<glyph unicode="&#xca;" d="M584 1718l-254 -202l-68 86l287 227h72l288 -227l-67 -86l-256 202h-2zM913 1280h-657v-549h401v-108h-401v-512h731v53h111v-164h-953v1280h-53v111h932v-166h-111v55z" />
<glyph unicode="&#xcb;" d="M375 1755q35 0 58.5 -23.5t23.5 -58.5t-24.5 -59.5t-57.5 -24.5t-57.5 24.5t-24.5 59.5t23.5 58.5t58.5 23.5zM805 1755q35 0 58.5 -23.5t23.5 -58.5t-24.5 -59.5t-57.5 -24.5q-35 0 -59.5 24.5t-24.5 59.5q0 33 24.5 57.5t59.5 24.5zM913 1280h-657v-549h401v-108h-401 v-512h731v53h111v-164h-953v1280h-53v111h932v-166h-111v55z" />
<glyph unicode="&#xcc;" horiz-adv-x="401" d="M246 1554l-205 205l70 70l198 -211zM256 0h-111v1391h111v-1391z" />
<glyph unicode="&#xcd;" horiz-adv-x="401" d="M158 1554l-66 64l199 211l71 -70zM256 0h-111v1391h111v-1391z" />
<glyph unicode="&#xce;" horiz-adv-x="401" d="M256 0h-111v1391h111v-1391zM199 1716l-217 -172l-68 86l250 199h74l249 -199l-67 -86l-217 172h-4z" />
<glyph unicode="&#xcf;" horiz-adv-x="401" d="M-8 1755q33 0 57.5 -23.5t24.5 -58.5t-24.5 -59.5t-57.5 -24.5t-57.5 24.5t-24.5 59.5t24.5 58.5t57.5 23.5zM422 1755q33 0 57.5 -23.5t24.5 -58.5t-24.5 -59.5t-57.5 -24.5t-58.5 24.5t-25.5 59.5q0 33 24.5 57.5t59.5 24.5zM256 0h-111v1391h111v-1391z" />
<glyph unicode="&#xd0;" horiz-adv-x="1388" d="M256 111h367q242 0 412.5 170t170.5 413.5t-171 414.5t-412 171h-367v-549h330v-108h-330v-512zM92 1391h531q289 0 491.5 -204t202.5 -492.5t-203 -491.5t-491 -203h-478v623h-71v108h71v549h-53v111z" />
<glyph unicode="&#xd1;" horiz-adv-x="1388" d="M727 1636l-109 62q-33 16 -53 16q-35 0 -45 -49l-10 -49l-109 20l11 50q27 137 153 137q53 0 94 -23l113 -61q25 -16 53 -17q33 0 43 50l11 49l108 -21l-8 -49q-27 -137 -154 -137q-55 -1 -98 22zM145 1280h-53v111h156l885 -1194h2v1194h108v-1391h-100l-885 1194h-2 v-1194h-111v1280z" />
<glyph unicode="&#xd2;" horiz-adv-x="1607" d="M850 1554l-205 205l70 70l198 -211zM182 694q0 -258 182.5 -439t440.5 -181t439 181t181 439t-181 440.5t-439 182.5t-440.5 -182.5t-182.5 -440.5zM805 1425q303 0 517 -214t214 -517t-214 -517t-517 -214t-517 214t-214 517t214 517t517 214z" />
<glyph unicode="&#xd3;" horiz-adv-x="1607" d="M762 1554l-66 64l199 211l72 -70zM182 694q0 -258 182.5 -439t440.5 -181t439 181t181 439t-181 440.5t-439 182.5t-440.5 -182.5t-182.5 -440.5zM805 1425q303 0 517 -214t214 -517t-214 -517t-517 -214t-517 214t-214 517t214 517t517 214z" />
<glyph unicode="&#xd4;" horiz-adv-x="1607" d="M803 1718l-254 -202l-68 86l287 227h72l288 -227l-67 -86l-256 202h-2zM182 694q0 -258 182.5 -439t440.5 -181t439 181t181 439t-181 440.5t-439 182.5t-440.5 -182.5t-182.5 -440.5zM805 1425q303 0 517 -214t214 -517t-214 -517t-517 -214t-517 214t-214 517t214 517 t517 214z" />
<glyph unicode="&#xd5;" horiz-adv-x="1607" d="M838 1636l-109 62q-33 16 -53 16q-35 0 -45 -49l-10 -49l-109 20l10 50q27 137 154 137q53 0 94 -23l113 -61q25 -16 53 -17q33 0 43 50l10 49l109 -21l-8 -49q-27 -137 -154 -137q-55 -1 -98 22zM182 694q0 -258 182.5 -439t440.5 -181t439 181t181 439t-181 440.5 t-439 182.5t-440.5 -182.5t-182.5 -440.5zM805 1425q303 0 517 -214t214 -517t-214 -517t-517 -214t-517 214t-214 517t214 517t517 214z" />
<glyph unicode="&#xd6;" horiz-adv-x="1607" d="M594 1755q33 0 57.5 -23.5t24.5 -58.5t-24.5 -59.5t-57.5 -24.5t-57.5 24.5t-24.5 59.5t24.5 58.5t57.5 23.5zM1024 1755q33 0 57.5 -23.5t24.5 -58.5t-24.5 -59.5t-57.5 -24.5t-58.5 24.5t-25.5 59.5q0 33 24.5 57.5t59.5 24.5zM182 694q0 -258 182.5 -439t440.5 -181 t439 181t181 439t-181 440.5t-439 182.5t-440.5 -182.5t-182.5 -440.5zM805 1425q303 0 517 -214t214 -517t-214 -517t-517 -214t-517 214t-214 517t214 517t517 214z" />
<glyph unicode="&#xd8;" horiz-adv-x="1607" d="M1425 1391l76 -78l-141 -144q176 -203 176 -475q0 -303 -214 -517t-517 -214q-272 0 -477 178l-144 -143l-75 78l141 141q-176 203 -176 477q0 303 214 517t517 214q274 0 477 -176zM1204 1169q-174 147 -399 148q-258 0 -440.5 -182.5t-182.5 -440.5q0 -225 146 -397z M1282 1094l-876 -877q172 -143 399 -143q258 0 439 181t181 439q0 228 -143 400z" />
<glyph unicode="&#xd9;" horiz-adv-x="1314" d="M702 1554l-204 205l69 70l199 -211zM92 1391h164v-916q0 -166 118 -283.5t283.5 -117.5t284.5 117.5t119 283.5v916h108v-916q0 -213 -150.5 -362.5t-361.5 -149.5t-361.5 149.5t-150.5 362.5v805h-53v111z" />
<glyph unicode="&#xda;" horiz-adv-x="1314" d="M614 1554l-65 64l199 211l71 -70zM92 1391h164v-916q0 -166 118 -283.5t283.5 -117.5t284.5 117.5t119 283.5v916h108v-916q0 -213 -150.5 -362.5t-361.5 -149.5t-361.5 149.5t-150.5 362.5v805h-53v111z" />
<glyph unicode="&#xdb;" horiz-adv-x="1314" d="M657 1718l-254 -202l-67 86l287 227h71l289 -227l-68 -86l-256 202h-2zM92 1391h164v-916q0 -166 118 -283.5t283.5 -117.5t284.5 117.5t119 283.5v916h108v-916q0 -213 -150.5 -362.5t-361.5 -149.5t-361.5 149.5t-150.5 362.5v805h-53v111z" />
<glyph unicode="&#xdc;" horiz-adv-x="1314" d="M448.5 1755q34.5 0 58 -23.5t23.5 -58.5t-24.5 -59.5t-57 -24.5t-57 24.5t-24.5 59.5t23.5 58.5t58 23.5zM878.5 1755q34.5 0 58.5 -23.5t24 -58.5t-25 -59.5t-57 -24.5q-35 0 -59.5 24.5t-24.5 59.5q0 33 24.5 57.5t59 24.5zM92 1391h164v-916q0 -166 118 -283.5 t283.5 -117.5t284.5 117.5t119 283.5v916h108v-916q0 -213 -150.5 -362.5t-361.5 -149.5t-361.5 149.5t-150.5 362.5v805h-53v111z" />
<glyph unicode="&#xdd;" d="M543 1554l-66 64l199 211l72 -70zM1135 1348l-496 -820v-528h-109v528l-454 752h-39v111h100l447 -740h4l436 727v13h111v-43z" />
<glyph unicode="&#xde;" horiz-adv-x="1243" d="M145 1391h111v-148h438q199 0 337 -138t138 -337t-138 -337t-337 -138h-438v-293h-111v1391zM256 1135v-734h438q150 0 258.5 108.5t108.5 258.5t-108.5 258.5t-258.5 108.5h-438z" />
<glyph unicode="&#xdf;" horiz-adv-x="1095" d="M401 868q106 0 181 73t75 175q0 84 -58 142.5t-142 58.5t-142.5 -58.5t-58.5 -142.5v-1116h-111v842h-71v108h71v166q0 129 91.5 219t220.5 90t220 -90t91 -219q0 -115 -79 -202t-202 -113v-2q63 -29 126 -65t140.5 -92t135 -116.5t96.5 -142.5t39 -164 q0 -115 -93 -185.5t-237 -70.5q-100 0 -197.5 52.5t-125.5 111.5l-4 14v70h108v-43q23 -33 90.5 -63.5t128.5 -30.5q96 0 157.5 40t61.5 105q0 76 -48 157t-127 147.5t-165 120.5t-172 91v133z" />
<glyph unicode="&#xe0;" horiz-adv-x="1095" d="M602 1116l-205 205l70 70l199 -211zM1006 0h-164v123q-150 -160 -367 -160q-174 0 -287.5 89t-113.5 233q0 125 106.5 213t294.5 88h367v71q0 123 -83 172.5t-202 49.5q-123 0 -227 -43v-50h-111v119l29 15q129 68 309 67q72 0 136.5 -15.5t125 -51t96 -103t35.5 -160.5 v-546h56v-111zM475 475q-147 0 -220 -57.5t-73 -132.5q0 -94 82 -152.5t211 -58.5q109 0 217.5 43t149.5 119v239h-367z" />
<glyph unicode="&#xe1;" horiz-adv-x="1095" d="M514 1116l-65 64l198 211l72 -70zM1006 0h-164v123q-150 -160 -367 -160q-174 0 -287.5 89t-113.5 233q0 125 106.5 213t294.5 88h367v71q0 123 -83 172.5t-202 49.5q-123 0 -227 -43v-50h-111v119l29 15q129 68 309 67q72 0 136.5 -15.5t125 -51t96 -103t35.5 -160.5 v-546h56v-111zM475 475q-147 0 -220 -57.5t-73 -132.5q0 -94 82 -152.5t211 -58.5q109 0 217.5 43t149.5 119v239h-367z" />
<glyph unicode="&#xe2;" horiz-adv-x="1095" d="M557 1300l-254 -202l-67 86l286 227h72l289 -227l-68 -86l-256 202h-2zM1006 0h-164v123q-150 -160 -367 -160q-174 0 -287.5 89t-113.5 233q0 125 106.5 213t294.5 88h367v71q0 123 -83 172.5t-202 49.5q-123 0 -227 -43v-50h-111v119l29 15q129 68 309 67 q72 0 136.5 -15.5t125 -51t96 -103t35.5 -160.5v-546h56v-111zM475 475q-147 0 -220 -57.5t-73 -132.5q0 -94 82 -152.5t211 -58.5q109 0 217.5 43t149.5 119v239h-367z" />
<glyph unicode="&#xe3;" horiz-adv-x="1095" d="M590 1198l-109 62q-33 16 -53 16q-35 0 -45 -49l-10 -49l-109 20l10 49q27 137 154 137q53 0 94 -22l113 -62q25 -16 53 -16q33 0 43 49l10 49l109 -20l-8 -49q-27 -137 -154 -137q-55 -1 -98 22zM1006 0h-164v123q-150 -160 -367 -160q-174 0 -287.5 89t-113.5 233 q0 125 106.5 213t294.5 88h367v71q0 123 -83 172.5t-202 49.5q-123 0 -227 -43v-50h-111v119l29 15q129 68 309 67q72 0 136.5 -15.5t125 -51t96 -103t35.5 -160.5v-546h56v-111zM475 475q-147 0 -220 -57.5t-73 -132.5q0 -94 82 -152.5t211 -58.5q109 0 217.5 43t149.5 119 v239h-367z" />
<glyph unicode="&#xe4;" horiz-adv-x="1095" d="M348 1317q33 0 57.5 -23.5t24.5 -58.5t-24.5 -59.5t-57.5 -24.5t-57.5 24.5t-24.5 59.5t24.5 58.5t57.5 23.5zM778 1317q33 0 57.5 -23.5t24.5 -58.5t-24.5 -59.5t-57.5 -24.5t-58.5 24.5t-25.5 59.5q0 33 24.5 57.5t59.5 24.5zM1006 0h-164v123q-150 -160 -367 -160 q-174 0 -287.5 89t-113.5 233q0 125 106.5 213t294.5 88h367v71q0 123 -83 172.5t-202 49.5q-123 0 -227 -43v-50h-111v119l29 15q129 68 309 67q72 0 136.5 -15.5t125 -51t96 -103t35.5 -160.5v-546h56v-111zM475 475q-147 0 -220 -57.5t-73 -132.5q0 -94 82 -152.5 t211 -58.5q109 0 217.5 43t149.5 119v239h-367z" />
<glyph unicode="&#xe5;" horiz-adv-x="1095" d="M557.5 1391q65.5 0 124.5 -56q57 -55 57 -129q0 -72 -57 -127q-59 -55 -125 -55q-63 0 -125 57q-57 55 -57 125q0 74 57 129q60 56 125.5 56zM557 1317q-39 0 -76 -35q-35 -35 -35 -76q0 -39 35 -73.5t76 -34.5q39 0 76 35q35 35 35 73q0 41 -35 76q-37 35 -76 35z M1006 0h-164v123q-150 -160 -367 -160q-174 0 -287.5 89t-113.5 233q0 125 106.5 213t294.5 88h367v71q0 123 -83 172.5t-202 49.5q-123 0 -227 -43v-50h-111v119l29 15q129 68 309 67q72 0 136.5 -15.5t125 -51t96 -103t35.5 -160.5v-546h56v-111zM475 475 q-147 0 -220 -57.5t-73 -132.5q0 -94 82 -152.5t211 -58.5q109 0 217.5 43t149.5 119v239h-367z" />
<glyph unicode="&#xe6;" horiz-adv-x="1863" d="M475 438q-150 0 -221.5 -50t-71.5 -122q0 -92 80 -142t213 -50q109 0 217.5 43t149.5 119v202h-367zM950 0h-108v123q-150 -160 -367 -160q-178 0 -289.5 81t-111.5 222q0 123 105.5 203t295.5 80h367v108q0 123 -83 172.5t-202 49.5q-123 0 -227 -43v-50h-111v119l29 15 q129 68 309 67q127 0 233.5 -51t143.5 -166q72 100 182.5 158.5t237.5 58.5q125 0 232.5 -56.5t178.5 -154.5l33 -41l-41 -33q-4 -2 -60.5 -53t-88.5 -75l-91 -62q-58 -39 -116 -56.5t-113 -17.5h-336q14 -154 130 -259t272 -105q172 0 293 127l82 -74q-154 -164 -375 -164 q-119 0 -225.5 52.5t-178.5 142.5v-158zM1288 549q129 0 359 203q-121 127 -293 127q-145 0 -257 -94.5t-139 -235.5h330z" />
<glyph unicode="&#xe7;" horiz-adv-x="1024" d="M518 -205l-69 19l47 157q-180 33 -301 175.5t-121 328.5q0 213 149.5 362.5t362.5 149.5q197 0 340 -129l24 -22v-86h-108v36q-111 92 -256 93q-166 0 -285 -119t-119 -285t119 -283.5t285 -117.5q172 0 293 127l82 -74q-154 -164 -375 -164l-27 -61q12 10 43 10 q86 0 138.5 -58.5t52.5 -136.5q0 -82 -61.5 -128t-137.5 -46q-117 0 -176 95l-8 16l77 47l11 -16q31 -51 96 -52q47 0 67.5 29t20.5 64q0 39 -20.5 66.5t-59.5 27.5q-25 0 -80 -23z" />
<glyph unicode="&#xe8;" horiz-adv-x="1095" d="M631 1116l-205 205l70 70l198 -211zM520 549q129 0 359 203q-121 127 -293 127q-145 0 -257 -94.5t-139 -235.5h330zM184 438q14 -154 130 -259t272 -105q172 0 293 127l82 -74q-154 -164 -375 -164q-213 0 -362.5 149.5t-149.5 362.5t149.5 362.5t362.5 149.5 q125 0 233.5 -56.5t179.5 -154.5l31 -41l-41 -33q-4 -2 -60.5 -53t-88.5 -75l-91 -62q-58 -39 -116 -56.5t-113 -17.5h-336z" />
<glyph unicode="&#xe9;" horiz-adv-x="1095" d="M543 1116l-66 64l199 211l72 -70zM520 549q129 0 359 203q-121 127 -293 127q-145 0 -257 -94.5t-139 -235.5h330zM184 438q14 -154 130 -259t272 -105q172 0 293 127l82 -74q-154 -164 -375 -164q-213 0 -362.5 149.5t-149.5 362.5t149.5 362.5t362.5 149.5 q125 0 233.5 -56.5t179.5 -154.5l31 -41l-41 -33q-4 -2 -60.5 -53t-88.5 -75l-91 -62q-58 -39 -116 -56.5t-113 -17.5h-336z" />
<glyph unicode="&#xea;" horiz-adv-x="1095" d="M584 1300l-254 -202l-68 86l287 227h72l288 -227l-67 -86l-256 202h-2zM520 549q129 0 359 203q-121 127 -293 127q-145 0 -257 -94.5t-139 -235.5h330zM184 438q14 -154 130 -259t272 -105q172 0 293 127l82 -74q-154 -164 -375 -164q-213 0 -362.5 149.5t-149.5 362.5 t149.5 362.5t362.5 149.5q125 0 233.5 -56.5t179.5 -154.5l31 -41l-41 -33q-4 -2 -60.5 -53t-88.5 -75l-91 -62q-58 -39 -116 -56.5t-113 -17.5h-336z" />
<glyph unicode="&#xeb;" horiz-adv-x="1095" d="M375 1317q35 0 58.5 -23.5t23.5 -58.5t-24.5 -59.5t-57.5 -24.5t-57.5 24.5t-24.5 59.5t23.5 58.5t58.5 23.5zM805 1317q35 0 58.5 -23.5t23.5 -58.5t-24.5 -59.5t-57.5 -24.5q-35 0 -59.5 24.5t-24.5 59.5q0 33 24.5 57.5t59.5 24.5zM520 549q129 0 359 203 q-121 127 -293 127q-145 0 -257 -94.5t-139 -235.5h330zM184 438q14 -154 130 -259t272 -105q172 0 293 127l82 -74q-154 -164 -375 -164q-213 0 -362.5 149.5t-149.5 362.5t149.5 362.5t362.5 149.5q125 0 233.5 -56.5t179.5 -154.5l31 -41l-41 -33q-4 -2 -60.5 -53 t-88.5 -75l-91 -62q-58 -39 -116 -56.5t-113 -17.5h-336z" />
<glyph unicode="&#xec;" horiz-adv-x="401" d="M219 1116l-205 205l70 70l199 -211zM145 842h-53v108h164v-950h-111v842z" />
<glyph unicode="&#xed;" horiz-adv-x="401" d="M131 1116l-65 64l198 211l72 -70zM145 842h-53v108h164v-950h-111v842z" />
<glyph unicode="&#xee;" horiz-adv-x="401" d="M172 1300l-217 -174l-68 86l250 199h74l250 -199l-68 -86l-217 174h-4zM145 842h-53v108h164v-950h-111v842z" />
<glyph unicode="&#xef;" horiz-adv-x="401" d="M145 842h-53v108h164v-950h-111v842zM45 1317q33 0 57.5 -23.5t24.5 -58.5t-24.5 -59.5t-57.5 -24.5t-57.5 24.5t-24.5 59.5t24.5 58.5t57.5 23.5zM356.5 1317q32.5 0 57 -23.5t24.5 -58.5t-24.5 -59.5t-57 -24.5t-57.5 24.5t-25 59.5t25 58.5t57.5 23.5z" />
<glyph unicode="&#xf0;" horiz-adv-x="950" d="M457 -37q-152 0 -267.5 139.5t-115.5 373t114.5 372.5t268.5 139q78 0 159.5 -41t143.5 -117q-35 199 -127 306l-187 -68l-28 84l135 57q-57 41 -115 60l15 84q100 -35 186 -105l154 68l36 -103l-114 -43q164 -215 164 -694q0 -229 -133 -370.5t-289 -141.5zM768 475 q0 188 -102.5 296t-208.5 108q-100 0 -187.5 -105.5t-87.5 -298t87 -297t188 -104.5q111 0 211 107.5t100 293.5z" />
<glyph unicode="&#xf1;" d="M653 1198l-108 62q-33 16 -53 16q-35 0 -46 -49l-10 -49l-108 20l10 49q27 137 154 137q53 0 94 -22l112 -62q25 -16 54 -16q33 0 43 49l10 49l108 -20l-8 -49q-27 -137 -153 -137q-56 -1 -99 22zM1079 0h-166v657q0 109 -68.5 165.5t-187.5 56.5q-164 0 -282.5 -126 t-118.5 -315v-438h-111v842h-53v108h164v-219h2q63 119 168.5 187.5t230.5 68.5q166 0 266.5 -88t100.5 -242v-546h55v-111z" />
<glyph unicode="&#xf2;" d="M631 1116l-205 205l70 70l198 -211zM182 475q0 -166 119 -283.5t285 -117.5t283.5 117.5t117.5 283.5t-117.5 285t-283.5 119t-285 -119t-119 -285zM586 987q213 0 362.5 -149.5t149.5 -362.5t-149.5 -362.5t-362.5 -149.5t-362.5 149.5t-149.5 362.5t149.5 362.5 t362.5 149.5z" />
<glyph unicode="&#xf3;" d="M543 1116l-66 64l199 211l72 -70zM182 475q0 -166 119 -283.5t285 -117.5t283.5 117.5t117.5 283.5t-117.5 285t-283.5 119t-285 -119t-119 -285zM586 987q213 0 362.5 -149.5t149.5 -362.5t-149.5 -362.5t-362.5 -149.5t-362.5 149.5t-149.5 362.5t149.5 362.5 t362.5 149.5z" />
<glyph unicode="&#xf4;" d="M584 1300l-254 -202l-68 86l287 227h72l288 -227l-67 -86l-256 202h-2zM182 475q0 -166 119 -283.5t285 -117.5t283.5 117.5t117.5 283.5t-117.5 285t-283.5 119t-285 -119t-119 -285zM586 987q213 0 362.5 -149.5t149.5 -362.5t-149.5 -362.5t-362.5 -149.5 t-362.5 149.5t-149.5 362.5t149.5 362.5t362.5 149.5z" />
<glyph unicode="&#xf5;" d="M618 1198l-108 62q-33 16 -53 16q-35 0 -45 -49l-11 -49l-108 20l10 49q27 137 154 137q53 0 94 -22l113 -62q25 -16 53 -16q33 0 43 49l10 49l109 -20l-9 -49q-27 -137 -153 -137q-56 -1 -99 22zM182 475q0 -166 119 -283.5t285 -117.5t283.5 117.5t117.5 283.5 t-117.5 285t-283.5 119t-285 -119t-119 -285zM586 987q213 0 362.5 -149.5t149.5 -362.5t-149.5 -362.5t-362.5 -149.5t-362.5 149.5t-149.5 362.5t149.5 362.5t362.5 149.5z" />
<glyph unicode="&#xf6;" d="M375 1317q35 0 58.5 -23.5t23.5 -58.5t-24.5 -59.5t-57.5 -24.5t-57.5 24.5t-24.5 59.5t23.5 58.5t58.5 23.5zM805 1317q35 0 58.5 -23.5t23.5 -58.5t-24.5 -59.5t-57.5 -24.5q-35 0 -59.5 24.5t-24.5 59.5q0 33 24.5 57.5t59.5 24.5zM182 475q0 -166 119 -283.5 t285 -117.5t283.5 117.5t117.5 283.5t-117.5 285t-283.5 119t-285 -119t-119 -285zM586 987q213 0 362.5 -149.5t149.5 -362.5t-149.5 -362.5t-362.5 -149.5t-362.5 149.5t-149.5 362.5t149.5 362.5t362.5 149.5z" />
<glyph unicode="&#xf7;" horiz-adv-x="802" d="M401 1042q35 0 59.5 -24.5t24.5 -57t-24.5 -57t-59.5 -24.5q-33 0 -57.5 23.5t-24.5 58t24.5 58t57.5 23.5zM401 475q35 0 59.5 -24.5t24.5 -57.5t-24.5 -57.5t-59.5 -24.5q-33 0 -57.5 24.5t-24.5 57.5t24.5 57.5t57.5 24.5zM731 623h-657v108h657v-108z" />
<glyph unicode="&#xf8;" d="M1022 989l78 -76l-117 -116q115 -141 115 -322q0 -213 -149.5 -362.5t-362.5 -149.5q-180 0 -322 115l-117 -117l-75 78l114 117q-113 139 -112 319q0 213 149.5 362.5t362.5 149.5q180 0 319 -113zM827 795q-111 84 -241 84q-166 0 -285 -119t-119 -285q0 -135 82 -244z M905 719l-563 -563q109 -82 244 -82q166 0 283.5 117.5t117.5 283.5q0 135 -82 244z" />
<glyph unicode="&#xf9;" d="M631 1116l-205 205l70 70l198 -211zM92 950h164v-657q0 -109 67.5 -164t188.5 -55q164 0 282.5 125t118.5 313v438h111v-839h55v-111h-166v219h-2q-63 -119 -168.5 -187.5t-230.5 -68.5q-166 0 -266.5 88t-100.5 242v549h-53v108z" />
<glyph unicode="&#xfa;" d="M543 1116l-66 64l199 211l72 -70zM92 950h164v-657q0 -109 67.5 -164t188.5 -55q164 0 282.5 125t118.5 313v438h111v-839h55v-111h-166v219h-2q-63 -119 -168.5 -187.5t-230.5 -68.5q-166 0 -266.5 88t-100.5 242v549h-53v108z" />
<glyph unicode="&#xfb;" d="M584 1300l-254 -202l-68 86l287 227h72l288 -227l-67 -86l-256 202h-2zM92 950h164v-657q0 -109 67.5 -164t188.5 -55q164 0 282.5 125t118.5 313v438h111v-839h55v-111h-166v219h-2q-63 -119 -168.5 -187.5t-230.5 -68.5q-166 0 -266.5 88t-100.5 242v549h-53v108z" />
<glyph unicode="&#xfc;" d="M375 1317q35 0 58.5 -23.5t23.5 -58.5t-24.5 -59.5t-57.5 -24.5t-57.5 24.5t-24.5 59.5t23.5 58.5t58.5 23.5zM805 1317q35 0 58.5 -23.5t23.5 -58.5t-24.5 -59.5t-57.5 -24.5q-35 0 -59.5 24.5t-24.5 59.5q0 33 24.5 57.5t59.5 24.5zM92 950h164v-657q0 -109 67.5 -164 t188.5 -55q164 0 282.5 125t118.5 313v438h111v-839h55v-111h-166v219h-2q-63 -119 -168.5 -187.5t-230.5 -68.5q-166 0 -266.5 88t-100.5 242v549h-53v108z" />
<glyph unicode="&#xfd;" horiz-adv-x="1095" d="M506 1116l-66 64l199 211l72 -70zM1061 950v-45l-553 -1147q-94 -197 -244 -196q-127 0 -215 123l-12 16v70h108v-33q51 -68 119 -68q80 0 146 135l82 170h-5l-387 867h-45v108h117l379 -852l399 832v20h111z" />
<glyph unicode="&#xfe;" d="M145 1280h-53v111h164v-631h2q59 104 155.5 165.5t209.5 61.5q209 0 342 -148.5t133 -363.5t-133.5 -363.5t-341.5 -148.5q-113 0 -209.5 62.5t-155.5 167.5h-2v-631h-111v1718zM256 475q0 -172 102.5 -286.5t264 -114.5t263 114.5t101.5 286.5t-101.5 288t-263 116 t-264 -116t-102.5 -288z" />
<glyph unicode="&#xff;" horiz-adv-x="1095" d="M338 1317q35 0 58.5 -23.5t23.5 -58.5t-24.5 -59.5t-57.5 -24.5t-57.5 24.5t-24.5 59.5t23.5 58.5t58.5 23.5zM768 1317q35 0 58.5 -23.5t23.5 -58.5t-24.5 -59.5t-57.5 -24.5q-35 0 -59.5 24.5t-24.5 59.5q0 33 24.5 57.5t59.5 24.5zM1061 950v-45l-553 -1147 q-94 -197 -244 -196q-127 0 -215 123l-12 16v70h108v-33q51 -68 119 -68q80 0 146 135l82 170h-5l-387 867h-45v108h117l379 -852l399 832v20h111z" />
<glyph unicode="&#x10c;" horiz-adv-x="1314" d="M766 1626h2l256 203l68 -86l-289 -230h-72l-287 230l68 86zM805 -37q-303 0 -517 214t-214 517t214 517t517 214q225 0 405 -122l33 -23v-100h-108v41q-154 96 -330 96q-258 0 -440.5 -182.5t-182.5 -440.5t182.5 -439t440.5 -181q203 0 358 112l64 -90 q-186 -133 -422 -133z" />
<glyph unicode="&#x10d;" horiz-adv-x="1024" d="M547 1219h2l256 202l67 -86l-288 -229h-72l-287 229l68 86zM586 -37q-213 0 -362.5 149.5t-149.5 362.5t149.5 362.5t362.5 149.5q197 0 340 -129l24 -22v-86h-108v36q-111 92 -256 93q-166 0 -285 -119t-119 -285t119 -283.5t285 -117.5q172 0 293 127l82 -74 q-154 -164 -375 -164z" />
<glyph unicode="&#x10e;" horiz-adv-x="1388" d="M621 1626h2l256 203l67 -86l-289 -230h-71l-287 230l68 86zM92 1391h531q289 0 491.5 -204t202.5 -492.5t-203 -491.5t-491 -203h-478v1280h-53v111zM256 111h367q242 0 412.5 170t170.5 413.5t-171 414.5t-412 171h-367v-1169z" />
<glyph unicode="&#x10f;" horiz-adv-x="1388" d="M1255 1389q33 0 56.5 -25t23.5 -57q0 -139 -129 -269l-12 -12l-41 39q82 82 82 162q-27 6 -46.5 28.5t-19.5 51.5q0 33 25.5 57.5t60.5 24.5zM913 475q0 172 -101 288t-263 116t-264.5 -116t-102.5 -288t102.5 -286.5t264.5 -114.5t263 114.5t101 286.5zM1024 111h55 v-111h-166v193h-2q-59 -104 -155.5 -167t-206.5 -63q-209 0 -342 148.5t-133 363.5t133 363.5t342 148.5q113 0 208 -61.5t154 -165.5h2v520h-53v111h164v-1280z" />
<glyph unicode="&#x11a;" d="M584 1626h2l256 203l67 -86l-288 -230h-72l-287 230l68 86zM913 1280h-657v-549h401v-108h-401v-512h731v53h111v-164h-953v1280h-53v111h932v-166h-111v55z" />
<glyph unicode="&#x11b;" horiz-adv-x="1095" d="M584 1219h2l256 202l67 -86l-288 -229h-72l-287 229l68 86zM520 549q129 0 359 203q-121 127 -293 127q-145 0 -257 -94.5t-139 -235.5h330zM184 438q14 -154 130 -259t272 -105q172 0 293 127l82 -74q-154 -164 -375 -164q-213 0 -362.5 149.5t-149.5 362.5t149.5 362.5 t362.5 149.5q125 0 233.5 -56.5t179.5 -154.5l31 -41l-41 -33q-4 -2 -60.5 -53t-88.5 -75l-91 -62q-58 -39 -116 -56.5t-113 -17.5h-336z" />
<glyph unicode="&#x131;" horiz-adv-x="401" d="M145 842h-53v108h164v-950h-111v842z" />
<glyph unicode="&#x139;" d="M580 1554l-66 64l199 211l71 -70zM256 111h731v53h111v-164h-953v1391h111v-1280z" />
<glyph unicode="&#x13a;" horiz-adv-x="401" d="M139 1554l-65 64l198 211l72 -70zM256 1391v-1391h-111v1280h-53v111h164z" />
<glyph unicode="&#x13d;" horiz-adv-x="1243" d="M1090 1425q33 0 56 -24.5t23 -57.5q0 -139 -129 -268l-12 -12l-41 39q82 82 82 162q-27 6 -46 28.5t-19 50.5q0 33 25.5 57.5t60.5 24.5zM256 111h731v53h111v-164h-953v1391h111v-1280z" />
<glyph unicode="&#x13e;" horiz-adv-x="620" d="M487 1389q33 0 56.5 -25t23.5 -57q0 -139 -129 -269l-12 -12l-41 39q82 82 82 162q-27 6 -46.5 28.5t-19.5 51.5q0 33 25.5 57.5t60.5 24.5zM256 1391v-1391h-111v1280h-53v111h164z" />
<glyph unicode="&#x147;" horiz-adv-x="1388" d="M694 1626h2l256 203l68 -86l-289 -230h-72l-286 230l67 86zM145 1280h-53v111h156l885 -1194h2v1194h108v-1391h-100l-885 1194h-2v-1194h-111v1280z" />
<glyph unicode="&#x148;" d="M621 1219h2l256 202l67 -86l-289 -229h-71l-287 229l68 86zM1079 0h-166v657q0 109 -68.5 165.5t-187.5 56.5q-164 0 -282.5 -126t-118.5 -315v-438h-111v842h-53v108h164v-219h2q63 119 168.5 187.5t230.5 68.5q166 0 266.5 -88t100.5 -242v-546h55v-111z" />
<glyph unicode="&#x152;" horiz-adv-x="1755" d="M768 1280q-244 0 -415 -171t-171 -415q0 -242 171 -412.5t415 -170.5h111v1169h-111zM1610 1391v-148h-111v37h-512v-549h330v-108h-330v-512h586v34h108v-145h-913q-289 0 -491.5 203t-202.5 491.5t202.5 492.5t491.5 204h842z" />
<glyph unicode="&#x153;" horiz-adv-x="2011" d="M182 475q0 -166 119 -283.5t285 -117.5t283.5 117.5t117.5 283.5t-117.5 285t-283.5 119t-285 -119t-119 -285zM1436 549q127 0 356 203q-121 127 -293 127q-145 0 -257 -94.5t-138 -235.5h332zM1042 707q63 127 186.5 203.5t270.5 76.5q125 0 233.5 -56.5t180.5 -154.5 l31 -41l-41 -33q-6 -4 -60.5 -53t-88.5 -73.5l-91 -62.5t-114.5 -56.5t-112.5 -18.5h-336q14 -154 128.5 -259t270.5 -105q174 0 295 127l80 -74q-154 -164 -375 -164q-147 0 -270 78t-187 205q-63 -127 -187 -205t-269 -78q-213 0 -362.5 149.5t-149.5 362.5t149.5 362.5 t362.5 149.5q147 0 270 -76.5t186 -203.5z" />
<glyph unicode="&#x154;" horiz-adv-x="1243" d="M506 1554l-66 64l199 211l72 -70zM631 694q147 0 251.5 86t104.5 207t-92 207t-264 86h-375v-586h375zM791 498l213 -334q16 -25 23 -33t21.5 -14t36.5 -6h84v-111h-84q-49 0 -84.5 17.5t-51 36t-38.5 52.5l-213 330q-68 104 -111.5 127t-185.5 23h-145v-586h-111v1280 h-53v111h539q219 0 343 -120t124 -284q0 -145 -120 -254.5t-294 -126.5v-2q66 -40 107 -106z" />
<glyph unicode="&#x155;" horiz-adv-x="731" d="M358 1116l-65 64l199 211l71 -70zM145 842h-53v108h164v-237h2q61 125 161.5 199.5t215.5 74.5h22v-164h-108v39q-111 -47 -202 -177t-91 -300v-385h-111v842z" />
<glyph unicode="&#x158;" horiz-adv-x="1243" d="M547 1626h2l256 203l67 -86l-288 -230h-72l-287 230l68 86zM631 694q147 0 251.5 86t104.5 207t-92 207t-264 86h-375v-586h375zM791 498l213 -334q16 -25 23 -33t21.5 -14t36.5 -6h84v-111h-84q-49 0 -84.5 17.5t-51 36t-38.5 52.5l-213 330q-68 104 -111.5 127 t-185.5 23h-145v-586h-111v1280h-53v111h539q219 0 343 -120t124 -284q0 -145 -120 -254.5t-294 -126.5v-2q66 -40 107 -106z" />
<glyph unicode="&#x159;" horiz-adv-x="731" d="M401 1219h2l256 202l68 -86l-289 -229h-71l-287 229l67 86zM145 842h-53v108h164v-237h2q61 125 161.5 199.5t215.5 74.5h22v-164h-108v39q-111 -47 -202 -177t-91 -300v-385h-111v842z" />
<glyph unicode="&#x160;" horiz-adv-x="1243" d="M625 1626h2l256 203l67 -86l-288 -230h-72l-287 230l68 86zM987 1192q-74 63 -176 94t-188 31q-156 0 -261.5 -66.5t-105.5 -152.5q0 -39 13.5 -73t48 -64.5t62.5 -51t88 -48t93 -41l109 -42.5l137 -54q47 -19 128 -64.5t123 -88.5t76.5 -111.5t34.5 -148.5 q0 -152 -162.5 -250t-383.5 -98q-156 0 -305.5 65.5t-227.5 139.5l-16 16v90h108v-43q74 -61 198 -109t243 -48q184 0 311 72.5t127 164.5q0 125 -104.5 202t-327.5 163q-225 88 -305 139q-178 115 -179 283q0 143 142.5 235t335.5 92q119 0 245.5 -43t212.5 -127l17 -16 v-88h-111v41z" />
<glyph unicode="&#x161;" horiz-adv-x="950" d="M475 1219h2l256 202l68 -86l-289 -229h-72l-286 229l67 86zM475 565q6 -2 53 -19.5t58.5 -22.5l53.5 -22.5t55 -25.5l47 -28q34 -19 48 -33l34 -38q22 -24 31 -46.5t16.5 -51t7.5 -59.5q0 -106 -119 -181t-285 -75q-268 0 -391 156l-10 14v78h108v-37q96 -100 293 -100 q121 0 207 43t86 102q0 37 -18.5 67.5t-38 49t-70.5 43t-74.5 34t-91.5 33.5q-78 29 -123 49.5t-100 56.5t-81 85t-26 113v2q0 96 96.5 165.5t233.5 69.5q193 0 313 -115l17 -14v-82h-111v33q-86 70 -219 70q-90 0 -154.5 -37t-64.5 -90v-2q0 -63 56.5 -104.5t162.5 -80.5z " />
<glyph unicode="&#x164;" horiz-adv-x="1351" d="M676 1626h2l256 203l67 -86l-288 -230h-72l-287 230l68 86zM74 1391h1206v-166h-111v55h-438v-1280h-108v1280h-441v-55h-108v166z" />
<glyph unicode="&#x165;" horiz-adv-x="1058" d="M926 1243q33 0 56.5 -24.5t23.5 -57.5q0 -139 -129 -268l-13 -12l-41 39q82 82 82 161q-27 6 -46 29t-19 51q0 33 25.5 57.5t60.5 24.5zM219 1169h111v-219h401v-108h-401v-568q0 -82 58 -141t142 -59q102 0 164 86v41h111v-74l-8 -14q-92 -150 -267 -150q-129 0 -220 91 t-91 220v568h-145v108h145v219z" />
<glyph unicode="&#x16e;" horiz-adv-x="1314" d="M657.5 1829q67.5 0 125 -55.5t57.5 -128.5q0 -72 -57.5 -127.5t-125.5 -55.5q-63 0 -125 58q-57 55 -57 125q0 74 57.5 129t125 55zM657 1755q-39 0 -75 -35q-35 -35 -35 -75q0 -39 34.5 -74t75.5 -35q39 0 76 35q35 35 35 74q0 41 -35 75q-37 35 -76 35zM92 1391h164 v-916q0 -166 118 -283.5t283.5 -117.5t284.5 117.5t119 283.5v916h108v-916q0 -213 -150.5 -362.5t-361.5 -149.5t-361.5 149.5t-150.5 362.5v805h-53v111z" />
<glyph unicode="&#x16f;" d="M585.5 1391q65.5 0 125.5 -56q57 -55 57 -129q0 -72 -57 -127q-59 -55 -125 -55q-63 0 -125 57q-57 55 -58 125q0 74 58 129q59 56 124.5 56zM586 1317q-39 0 -76 -35q-35 -35 -35 -76q0 -39 35 -73.5t76 -34.5q39 0 76 35q35 35 34 73q0 41 -34 76q-37 35 -76 35z M92 950h164v-657q0 -109 67.5 -164t188.5 -55q164 0 282.5 125t118.5 313v438h111v-839h55v-111h-166v219h-2q-63 -119 -168.5 -187.5t-230.5 -68.5q-166 0 -266.5 88t-100.5 242v549h-53v108z" />
<glyph unicode="&#x178;" d="M375 1755q35 0 58.5 -23.5t23.5 -58.5t-24.5 -59.5t-57.5 -24.5t-57.5 24.5t-24.5 59.5t23.5 58.5t58.5 23.5zM805 1755q35 0 58.5 -23.5t23.5 -58.5t-24.5 -59.5t-57.5 -24.5q-35 0 -59.5 24.5t-24.5 59.5q0 33 24.5 57.5t59.5 24.5zM1135 1348l-496 -820v-528h-109v528 l-454 752h-39v111h100l447 -740h4l436 727v13h111v-43z" />
<glyph unicode="&#x17d;" d="M584 1626h2l256 203l67 -86l-288 -230h-72l-287 230l68 86zM1061 1309l-834 -1198h760v53h111v-164h-1024v80l833 1200h-688v-55h-108v166h950v-82z" />
<glyph unicode="&#x17e;" horiz-adv-x="1024" d="M510 1219h2l256 202l68 -86l-289 -229h-72l-287 229l68 86zM913 872l-665 -761h594v53h108v-164h-876v78l667 764h-522v-56h-108v164h802v-78z" />
<glyph unicode="&#x192;" horiz-adv-x="1040" d="M248 -438q-154 0 -240 131l-8 12v57h92v-28q61 -82 156 -82q80 0 135 56t55 136v869h-219v92h219v264q0 119 83 202t202 83q150 0 238 -133l8 -11v-59h-90v31q-59 80 -156 80q-80 0 -136.5 -56.5t-56.5 -136.5v-264h275v-92h-275v-869q0 -119 -81.5 -200.5t-200.5 -81.5z " />
<glyph unicode="&#x2c6;" horiz-adv-x="802" d="M401 1300l-256 -202l-67 86l289 227h71l287 -227l-68 -86l-254 202h-2z" />
<glyph unicode="&#x2c7;" horiz-adv-x="802" d="M401 1219h2l254 202l68 -86l-287 -229h-71l-289 229l67 86z" />
<glyph unicode="&#x2d8;" horiz-adv-x="657" d="M537 1382l88 -61q-102 -152 -295 -152q-195 0 -297 152l90 61q68 -102 207 -102t207 102z" />
<glyph unicode="&#x2d9;" horiz-adv-x="290" d="M145.5 1335q34.5 0 59 -24.5t24.5 -57t-24.5 -58.5t-59.5 -26q-33 0 -57.5 25t-24.5 59q0 33 24 57.5t58.5 24.5z" />
<glyph unicode="&#x2da;" horiz-adv-x="512" d="M256 1391q68 0 125 -55.5t57 -129.5q0 -72 -57 -127t-125 -55q-63 0 -125 57q-57 55 -57 125q0 74 57 129.5t125 55.5zM256 1335q-43 0 -88 -41q-41 -41 -41 -88t41 -88q39 -39 88 -39q45 0 88 39q41 41 41 88t-41 88q-45 41 -88 41z" />
<glyph unicode="&#x2db;" horiz-adv-x="512" d="M182 -201q0 -23 20.5 -39t47.5 -16q29 0 61 16l56 -92q-61 -35 -117 -35q-74 0 -125 49.5t-51 116.5q0 41 16 75t51 62.5t69 49.5l90 52q56 32 91 54l27 -55q-92 -57 -132 -86t-72 -69t-32 -83z" />
<glyph unicode="&#x2dc;" horiz-adv-x="583" d="M362 1284q41 -18 62 -18q51 0 63 63l11 49l71 -12l-10 -49q-23 -123 -135 -123q-49 0 -88 20l-113 62q-41 18 -61 18q-51 0 -64 -63l-10 -49l-72 12l9 49q23 123 137 123q47 0 86 -20z" />
<glyph unicode="&#x2dd;" horiz-adv-x="876" d="M606 1116l-53 51l205 205l51 -51zM240 1116l-54 51l205 205l51 -51z" />
<glyph unicode="&#x3a9;" horiz-adv-x="1536" d="M1354 0h-441v160l70 26q164 66 267.5 214.5t103.5 330.5q0 244 -171 415t-415 171q-242 0 -414 -172t-172 -414q0 -182 103.5 -330.5t267.5 -214.5l70 -26v-160h-441v111h275q-174 88 -278.5 253.5t-104.5 366.5q0 289 202.5 491.5t491.5 202.5t491.5 -202.5 t202.5 -491.5q0 -201 -104.5 -366.5t-278.5 -253.5h275v-111z" />
<glyph unicode="&#x3c0;" horiz-adv-x="1095" d="M1024 950v-108h-145v-697q0 -35 34 -34h37v-111h-37q-59 0 -102 43t-43 102v697h-475v-842h-111v842h-108v108h950z" />
<glyph unicode="&#x2000;" horiz-adv-x="913" />
<glyph unicode="&#x2001;" horiz-adv-x="1828" />
<glyph unicode="&#x2002;" horiz-adv-x="913" />
<glyph unicode="&#x2003;" horiz-adv-x="1828" />
<glyph unicode="&#x2004;" horiz-adv-x="608" />
<glyph unicode="&#x2005;" horiz-adv-x="456" />
<glyph unicode="&#x2006;" horiz-adv-x="303" />
<glyph unicode="&#x2007;" horiz-adv-x="303" />
<glyph unicode="&#x2008;" horiz-adv-x="227" />
<glyph unicode="&#x2009;" horiz-adv-x="364" />
<glyph unicode="&#x200a;" horiz-adv-x="100" />
<glyph unicode="&#x2010;" horiz-adv-x="731" d="M657 475h-583v111h583v-111z" />
<glyph unicode="&#x2011;" horiz-adv-x="731" d="M657 475h-583v111h583v-111z" />
<glyph unicode="&#x2012;" horiz-adv-x="731" d="M657 475h-583v111h583v-111z" />
<glyph unicode="&#x2013;" horiz-adv-x="950" d="M879 475h-805v111h805v-111z" />
<glyph unicode="&#x2014;" horiz-adv-x="1826" d="M1755 475h-1681v111h1681v-111z" />
<glyph unicode="&#x2018;" horiz-adv-x="438" d="M188 1116q-33 0 -56 24.5t-23 57.5q0 139 129 268l12 13l41 -39q-82 -82 -82 -162q27 -6 46 -28.5t19 -51.5q0 -33 -25.5 -57.5t-60.5 -24.5z" />
<glyph unicode="&#x2019;" horiz-adv-x="438" d="M213 1479q33 0 56.5 -24.5t23.5 -57.5q0 -139 -129 -269l-12 -12l-41 39q82 82 82 162q-27 6 -46.5 28.5t-19.5 51.5q0 33 25.5 57.5t60.5 24.5z" />
<glyph unicode="&#x201a;" horiz-adv-x="438" d="M213 127q33 0 56.5 -24.5t23.5 -57.5q0 -139 -129 -268l-12 -13l-41 39q82 82 82 162q-27 6 -46.5 28.5t-19.5 51.5q0 33 25.5 57.5t60.5 24.5z" />
<glyph unicode="&#x201c;" horiz-adv-x="694" d="M188 1116q-33 0 -56 24.5t-23 57.5q0 139 129 268l12 13l41 -39q-82 -82 -82 -162q27 -6 46 -28.5t19 -51.5q0 -33 -25.5 -57.5t-60.5 -24.5zM444 1116q-33 0 -56 24.5t-23 57.5q0 139 129 268l12 13l41 -39q-82 -82 -82 -162q27 -6 46 -28.5t19 -51.5q0 -33 -25.5 -57.5 t-60.5 -24.5z" />
<glyph unicode="&#x201d;" horiz-adv-x="694" d="M469 1479q33 0 56.5 -24.5t23.5 -57.5q0 -139 -129 -269l-12 -12l-41 39q82 82 82 162q-27 6 -46.5 28.5t-19.5 51.5q0 33 25.5 57.5t60.5 24.5zM213 1479q33 0 56.5 -24.5t23.5 -57.5q0 -139 -129 -269l-12 -12l-41 39q82 82 82 162q-27 6 -46.5 28.5t-19.5 51.5 q0 33 25.5 57.5t60.5 24.5z" />
<glyph unicode="&#x201e;" horiz-adv-x="694" d="M469 127q33 0 56.5 -24.5t23.5 -57.5q0 -139 -129 -268l-12 -13l-41 39q82 82 82 162q-27 6 -46.5 28.5t-19.5 51.5q0 33 25.5 57.5t60.5 24.5zM213 127q33 0 56.5 -24.5t23.5 -57.5q0 -139 -129 -268l-12 -13l-41 39q82 82 82 162q-27 6 -46.5 28.5t-19.5 51.5 q0 33 25.5 57.5t60.5 24.5z" />
<glyph unicode="&#x2020;" horiz-adv-x="1095" d="M74 860v109l438 -19l-18 441h110l-18 -441l438 19v-109l-438 19l18 -1172h-110l18 1172z" />
<glyph unicode="&#x2021;" horiz-adv-x="1095" d="M74 860v109l438 -19l-18 441h110l-18 -441l438 19v-109l-438 19v-330v-330l438 19v-111l-438 18l18 -438h-110l18 438l-438 -18v111l438 -19v330v330z" />
<glyph unicode="&#x2022;" horiz-adv-x="512" d="M74 475q0 76 53 129t129 53t129 -53t53 -129t-53 -129t-129 -53t-129 53t-53 129z" />
<glyph unicode="&#x2026;" horiz-adv-x="950" d="M760 127q35 0 58.5 -24.5t23.5 -57.5t-23.5 -57.5t-58.5 -24.5t-59.5 24.5t-24.5 57.5t24.5 57.5t59.5 24.5zM467 127q33 0 57.5 -24.5t24.5 -57.5t-24.5 -57.5t-57.5 -24.5t-57.5 24.5t-24.5 57.5t24.5 57.5t57.5 24.5zM174 127q35 0 58.5 -24.5t23.5 -57.5t-23.5 -57.5 t-58.5 -24.5t-58.5 24.5t-23.5 57.5t23.5 57.5t58.5 24.5z" />
<glyph unicode="&#x202f;" horiz-adv-x="364" />
<glyph unicode="&#x2030;" horiz-adv-x="1974" d="M1128 1280l82 -72l-1022 -1171l-82 72zM586 1061q0 -104 -68.5 -180t-187.5 -76t-187.5 75.5t-68.5 180.5q0 102 67.5 179t188.5 77t188.5 -77t67.5 -179zM330 1225q-82 0 -124 -49.5t-42 -115t43 -114.5t123 -49t122 48t42 116q0 66 -41 115t-123 49zM1243 256 q0 -104 -68.5 -180t-187.5 -76t-187.5 76t-68.5 180q0 102 67.5 179t188.5 77t188.5 -77t67.5 -179zM987 420q-82 0 -123 -49t-41 -115q0 -68 42 -116t122 -48t122 48t42 116q0 66 -41 115t-123 49zM1903 256q0 -104 -69 -180t-187.5 -76t-187 76t-68.5 180q0 102 67.5 179 t188 77t188.5 -77t68 -179zM1647 420q-82 0 -124 -49t-42 -115t43 -115t122.5 -49t121.5 48t42 116q0 66 -40.5 115t-122.5 49z" />
<glyph unicode="&#x2039;" horiz-adv-x="438" d="M150 475l241 -293l-84 -69l-270 325v74l270 330l84 -72z" />
<glyph unicode="&#x203a;" horiz-adv-x="438" d="M289 475l-242 295l84 72l270 -330v-74l-270 -325l-84 69z" />
<glyph unicode="&#x2044;" horiz-adv-x="364" d="M649 1274l82 -70l-1014 -1161l-84 70z" />
<glyph unicode="&#x205f;" horiz-adv-x="456" />
<glyph unicode="&#x20ac;" horiz-adv-x="1388" d="M74 731l18 111h70q51 252 251.5 417.5t465.5 165.5q225 0 405 -122l33 -23v-92h-111v33q-154 96 -327 96q-217 0 -387 -134t-220 -341h715l-18 -111h-711q0 -6 -1 -18.5t-1 -18.5q0 -47 4 -71h690l-18 -111h-649q59 -193 223 -315.5t373 -122.5q203 0 358 112l63 -90 q-186 -133 -421 -133q-252 0 -450 154.5t-259 394.5h-133l18 111h95q-4 49 -5 71v37h-71z" />
<glyph unicode="&#x2122;" horiz-adv-x="2285" d="M74 1391h805v-154h-111v43h-238v-805h-110v805h-238v-37h-108v148zM969 586l106 823h84l391 -797l394 797h84l131 -926l-111 -14l-96 702l-355 -714h-92l-352 712l-88 -694h-133v111h37z" />
<glyph unicode="&#x2202;" horiz-adv-x="950" d="M487 879q-109 0 -207 -118t-98 -327q0 -172 78 -266t172 -94q152 0 244 156.5t92 416.5q0 63 -6 131q-148 101 -275 101zM745 901q-63 342 -258 342q-61 0 -118 -35v-16l-109 8l4 68l19 14q96 72 204 72q111 0 192 -67.5t122 -179.5t59.5 -225.5t18.5 -234.5 q0 -311 -123 -497.5t-324 -186.5q-139 0 -248.5 125t-109.5 346q0 248 127 400.5t286 152.5q121 0 258 -86z" />
<glyph unicode="&#x2206;" horiz-adv-x="1024" d="M571 1169l398 -1169h-914l398 1169h118zM512 995l-305 -884h610z" />
<glyph unicode="&#x220f;" horiz-adv-x="1243" d="M74 -367v1758h1095v-1758h-108v1647h-879v-1647h-108z" />
<glyph unicode="&#x2211;" horiz-adv-x="1243" d="M111 1391h1058v-148h-108v37h-797l654 -723v-90l-654 -723h797v37h108v-148h-1058v103l698 774v4l-698 774v103z" />
<glyph unicode="&#x221a;" horiz-adv-x="1024" d="M43 416l256 67l104 -297l396 1313h225v-108h-145l-426 -1428h-86l-138 387l-155 -41z" />
<glyph unicode="&#x221e;" horiz-adv-x="2048" d="M475 768q-137 0 -215 -71.5t-78 -184.5t78 -184.5t215 -71.5q133 0 239.5 66.5t231.5 189.5q-82 82 -138 128t-147.5 87t-185.5 41zM1102 512q119 -121 227.5 -188.5t243.5 -67.5q137 0 215 71.5t78 184.5t-78 184.5t-215 71.5q-135 0 -243.5 -67.5t-227.5 -188.5z M1024 434q-63 -63 -106.5 -100t-117 -87t-154.5 -76t-171 -26q-184 0 -292.5 105.5t-108.5 261.5t108.5 261.5t292.5 105.5q90 0 171 -26t154.5 -76t117 -87t106.5 -100q59 61 105.5 101t118 88t153.5 74t172 26q184 0 292.5 -105.5t108.5 -261.5t-108.5 -261.5 t-292.5 -105.5q-117 0 -228.5 50.5t-175 103.5t-145.5 135z" />
<glyph unicode="&#x222b;" horiz-adv-x="731" d="M539 1536q63 0 114 -37l-65 -88q-18 14 -49 14q-33 0 -56.5 -23.5t-25.5 -60.5l-72 -1517q-4 -78 -59.5 -134.5t-132.5 -56.5q-63 0 -115 37l67 88q18 -14 48 -14q33 0 56 23.5t25 60.5l74 1518q4 78 58.5 134t132.5 56z" />
<glyph unicode="&#x2248;" horiz-adv-x="802" d="M754 510q-25 -66 -66 -103.5t-86 -37.5q-27 0 -96 24l-244 84q-41 16 -59 17q-8 0 -24.5 -18.5t-24.5 -45.5l-103 33q18 59 61.5 100t90.5 41q29 0 96 -22l244 -86q41 -16 59 -17q25 0 49 66zM754 827q-25 -66 -66 -102.5t-86 -36.5q-33 0 -96 23l-244 84q-41 16 -59 16 q-8 0 -24.5 -18.5t-24.5 -44.5l-103 32q18 59 61.5 100.5t90.5 41.5q29 0 96 -23l244 -86q41 -16 59 -16q25 0 49 65z" />
<glyph unicode="&#x2260;" horiz-adv-x="950" d="M684 1124l94 -55l-110 -190h211v-111h-275l-151 -256h426v-111h-490l-123 -208l-94 55l92 153h-190v111h254l147 256h-401v111h465z" />
<glyph unicode="&#x2264;" horiz-adv-x="731" d="M666 322l-64 -91l-528 377v101l532 362l60 -92l-473 -322zM657 37h-583v108h583v-108z" />
<glyph unicode="&#x2265;" horiz-adv-x="731" d="M539 657l-473 322l61 92l530 -362v-101l-528 -377l-63 91zM74 37v108h583v-108h-583z" />
<glyph unicode="&#x25ca;" horiz-adv-x="876" d="M479 1391l328 -697l-328 -694h-80l-327 694l327 697h80zM438 174l248 520l-248 523l-245 -523z" />
<glyph unicode="&#xe000;" horiz-adv-x="985" d="M0 985h985v-985h-985v985z" />
<glyph unicode="&#xfb01;" horiz-adv-x="1095" d="M586 1309q-25 8 -56 8q-84 0 -142 -58.5t-58 -142.5v-166h293v-108h-293v-842h-111v842h-145v108h145v166q0 129 91 219t220 90q86 0 164 -47v-98h-108v29zM897 1335q33 0 57.5 -24.5t24.5 -57.5q0 -35 -24.5 -59.5t-57.5 -24.5t-58.5 26t-25.5 58.5t24.5 57t59.5 24.5z M840 842h-54v108h164v-950h-110v842z" />
<glyph unicode="&#xfb02;" horiz-adv-x="1095" d="M586 1309q-25 8 -56 8q-84 0 -142 -58.5t-58 -142.5v-166h293v-108h-293v-842h-111v842h-145v108h145v166q0 129 91 219t220 90q86 0 164 -47v-98h-108v29zM950 1391v-1391h-110v1280h-54v111h164z" />
<glyph unicode="&#xfb03;" horiz-adv-x="1755" d="M1317 1309q-25 8 -55 8q-82 0 -141.5 -58.5t-59.5 -142.5v-166h293v-108h-293v-842h-111v842h-145v108h145v166q0 129 91.5 219t220.5 90q86 0 163 -47v-98h-108v29zM1628 1335q35 0 58.5 -24.5t23.5 -57.5q0 -35 -24.5 -59.5t-57.5 -24.5q-35 0 -59.5 26t-24.5 58.5 t24.5 57t59.5 24.5zM1571 842h-53v108h163v-950h-110v842zM74 842v108h145v166q0 129 91 219t220 90q174 0 267 -149l8 -14v-74h-111v43q-61 86 -164 86q-84 0 -142 -58.5t-58 -142.5v-166h256v-108h-256v-842h-111v842h-145z" />
<glyph unicode="&#xfb04;" horiz-adv-x="1826" d="M1317 1309q-25 8 -55 8q-82 0 -141.5 -58.5t-59.5 -142.5v-166h293v-108h-293v-842h-111v842h-145v108h145v166q0 129 91.5 219t220.5 90q86 0 163 -47v-98h-108v29zM1681 1391v-1391h-110v1280h-53v111h163zM74 842v108h145v166q0 129 91 219t220 90q174 0 267 -149 l8 -14v-74h-111v43q-61 86 -164 86q-84 0 -142 -58.5t-58 -142.5v-166h256v-108h-256v-842h-111v842h-145z" />
</font>
</defs>
</svg>
