<?xml version="1.0" standalone="no"?>
<!DOCTYPE svg PUBLIC "-//W3C//DTD SVG 1.1//EN" "http://www.w3.org/Graphics/SVG/1.1/DTD/svg11.dtd" >
<svg xmlns="http://www.w3.org/2000/svg">
<metadata>
This is a custom SVG webfont generated by Font Squirrel.
Copyright   : Created by gluk with FontForge 20 httpfontforgesfnet
</metadata>
<defs>
<font id="webfontMbsb65ty" horiz-adv-x="950" >
<font-face units-per-em="2048" ascent="1610" descent="-438" />
<missing-glyph horiz-adv-x="731" />
<glyph unicode=" "  horiz-adv-x="731" />
<glyph unicode="&#x09;" horiz-adv-x="731" />
<glyph unicode="&#xa0;" horiz-adv-x="731" />
<glyph unicode="!" horiz-adv-x="364" d="M119 45q0 27 18.5 46.5t45 19.5t46 -19.5t19.5 -46.5t-19.5 -45t-46 -18t-45 18t-18.5 45zM145 1098h111v-74h-37v-731h-74v805z" />
<glyph unicode="&#x22;" horiz-adv-x="512" d="M309 1159q20 76 21 162q0 43 -6 68l71 12q6 -25 6 -80q0 -104 -20 -180l-16 -58l-72 21zM109 1159q18 68 18 162q0 51 -4 68l72 12q6 -25 6 -80q0 -104 -21 -180l-18 -58l-70 21z" />
<glyph unicode="#" horiz-adv-x="802" d="M504 367l20 219h-219l-20 -219h219zM500 293h-219l-17 -182h-74l17 182h-148l9 74h145l18 219h-145l8 71h144l16 185h74l-17 -185h219l17 185h74l-17 -185h146l-9 -71h-143l-20 -219h147l-8 -74h-146l-16 -182h-72z" />
<glyph unicode="$" horiz-adv-x="876" d="M401 551v291q-92 -6 -155.5 -47t-63.5 -86q0 -61 56.5 -96t162.5 -62zM401 915v109h74v-111q147 -16 246 -114l10 -11v-57h-74v27q-74 68 -182 82v-308q76 -18 122 -34.5t100.5 -46t81 -74.5t26.5 -107q0 -100 -88 -163.5t-242 -71.5v-109h-74v111q-96 8 -184 54t-133 93 l-10 11v61h71v-31q41 -37 113 -71.5t143 -42.5v364q-139 35 -214.5 84t-75.5 150q0 84 85.5 142t204.5 64zM475 459v-350q119 6 187.5 50t68.5 111q0 78 -65.5 117t-190.5 72z" />
<glyph unicode="%" horiz-adv-x="1095" d="M211 49l-55 47l704 805l53 -47zM256 879q-57 0 -84 -34t-27 -77q0 -25 7.5 -47.5t34 -43t69.5 -20.5q61 0 86 35t25 76q0 43 -26 77t-85 34zM438 768q0 -70 -43 -126t-139 -56t-139 56t-43 126q0 74 46 128t136 54t136 -54t46 -128zM842 293q-57 0 -84 -34t-27 -77 q0 -25 7 -46t34 -41.5t70 -20.5q109 0 108 108q1 111 -108 111zM1024 182q0 -70 -43 -126t-139.5 -56t-140.5 56.5t-44 125.5q0 74 47.5 129.5t137.5 55.5t136 -55.5t46 -129.5z" />
<glyph unicode="&#x26;" horiz-adv-x="1058" d="M145 272q0 -86 83 -151.5t253 -65.5q104 0 189 41l-232 248q-68 70 -135 154q-72 -39 -115 -99.5t-43 -126.5zM264 553q-45 74 -45 141q0 113 81 194t194 81q111 0 192.5 -69t81.5 -169v-37h-111v74h33q-16 53 -70.5 91t-125.5 38q-82 0 -141.5 -59.5t-59.5 -143.5 q0 -55 36 -106t165 -193l241 -260q127 92 127 250q0 49 -26.5 86t-67.5 49v-26h-74v106h37q84 0 143.5 -63.5t59.5 -151.5q0 -190 -146 -301q12 -10 37 -10h162v-74h-162q-55 0 -102 43q-117 -61 -242 -61q-199 0 -303 86t-104 204q0 82 50 158t140 123z" />
<glyph unicode="'" horiz-adv-x="290" d="M109 1159q18 68 18 162q0 51 -4 68l72 12q6 -25 6 -80q0 -104 -21 -180l-18 -58l-70 21z" />
<glyph unicode="(" horiz-adv-x="512" d="M74 528v2q0 319 88 611.5t256 394.5l39 -61q-139 -84 -225.5 -353.5t-86.5 -591.5v-2q0 -315 85 -568t227 -337l-39 -61q-170 102 -257 375.5t-87 590.5z" />
<glyph unicode=")" horiz-adv-x="512" d="M438 530.5q0 -319.5 -87 -593t-257 -375.5l-39 61q141 84 226.5 338t85.5 569q0 322 -86 591.5t-226 353.5l39 61q168 -102 256 -394t88 -611.5z" />
<glyph unicode="*" horiz-adv-x="657" d="M559 1034l27 -67l-199 -70l123 -170l-57 -43l-123 168l-123 -168l-60 43l123 170l-196 70l24 67l195 -69v204h74v-204z" />
<glyph unicode="+" horiz-adv-x="802" d="M438 512h293v-74h-293v-293h-71v293h-293v74h293v293h71v-293z" />
<glyph unicode="," horiz-adv-x="364" d="M111 45q0 27 18 46.5t45 19.5t45.5 -19.5t18.5 -46.5q0 -133 -123 -256l-33 33q74 74 74 164q-45 14 -45 59z" />
<glyph unicode="-" horiz-adv-x="657" d="M586 512h-512v74h512v-74z" />
<glyph unicode="." horiz-adv-x="364" d="M111 45q0 27 18 46.5t45 19.5t45.5 -19.5t18.5 -46.5t-18.5 -45t-45.5 -18t-45 18t-18 45z" />
<glyph unicode="/" horiz-adv-x="839" d="M741 1026l64 -41l-707 -1102l-61 39z" />
<glyph unicode="0" horiz-adv-x="876" d="M438 969q147 0 257 -140.5t110 -341.5q0 -207 -106.5 -356t-260 -149t-259 149.5t-105.5 355.5q0 197 104 339.5t260 142.5zM145 487q0 -180 88.5 -306t205 -126t204.5 126t88 306q0 170 -88 290t-204.5 120t-205 -120t-88.5 -290z" />
<glyph unicode="1" horiz-adv-x="438" d="M217 838l-98 -113l-56 49l158 176h72v-950h-74v840h-2v-2z" />
<glyph unicode="2" horiz-adv-x="768" d="M395 969q123 0 211 -88t88 -211q0 -80 -55 -156t-176 -188l-273 -252h433v18h71v-92h-620v63l338 316q121 113 166 174t45 117q0 94 -67 160.5t-161 66.5q-96 0 -173 -69.5t-77 -157.5h-71q0 123 98 211t223 88z" />
<glyph unicode="3" horiz-adv-x="768" d="M145 274q0 -90 71 -154.5t169 -64.5t168 64.5t70 155t-70 155t-168 64.5v73q78 0 131 48.5t53 116t-53 116.5t-131 49t-132 -49t-54 -117h-72q0 98 77 168t181 70t180 -70t76 -168q0 -137 -135 -199q84 -31 136 -100.5t52 -157.5q0 -123 -90 -207.5t-219 -84.5t-220 85 t-91 207h71z" />
<glyph unicode="4" horiz-adv-x="731" d="M512 586h74v-367h71v-74h-71v-145h-74v145h-475v68l6 8q164 248 225.5 409t61.5 320h71q0 -164 -59 -327.5t-213 -403.5h383v367z" />
<glyph unicode="5" horiz-adv-x="749" d="M145 170q31 -51 94.5 -83t125.5 -32q92 0 165.5 74t73.5 219q0 139 -71.5 212t-157.5 73q-66 0 -136.5 -46t-91.5 -112l-6 -24l-67 6l32 512h517v-90h-74v18h-375l-18 -283q102 92 219 92.5t209 -94t92 -264.5q0 -176 -95.5 -271t-215.5 -95q-80 0 -163 44t-124 117l-4 9 v10v28h71v-20z" />
<glyph unicode="6" horiz-adv-x="768" d="M145 315.5q0 -114.5 75 -196.5t177 -82q92 0 159 81t67 197.5t-67 196.5t-159 80q-102 0 -177 -81t-75 -195.5zM397 666q125 0 211 -103.5t86 -247t-86 -248t-211 -104.5q-135 0 -229 104.5t-94 247.5q0 641 301 641q150 0 239 -118l9 -11v-51h-74v27q-66 80 -174 80 q-184 0 -230 -346q98 129 252 129z" />
<glyph unicode="7" horiz-adv-x="694" d="M522 879h-411v-37h-74v108h586v-61l-125 -168q-205 -279 -205 -721h-74q0 465 219 764z" />
<glyph unicode="8" horiz-adv-x="768" d="M385 -18q-129 0 -220 85t-91 207q0 88 52 158t136 100q-135 61 -135 199q0 98 77 168t181 70t180 -70t76 -168q0 -137 -135 -199q84 -31 136 -100.5t52 -157.5q0 -123 -90 -207.5t-219 -84.5zM623 274.5q0 90.5 -70 155t-168 64.5t-169 -64.5t-71 -155t71 -155t169 -64.5 t168 64.5t70 155zM199 731.5q0 -67.5 54 -116t132 -48.5t131 48.5t53 116t-53 116.5t-131 49t-132 -49t-54 -116.5z" />
<glyph unicode="9" horiz-adv-x="768" d="M623 622.5q0 114.5 -75 196.5t-177 82q-92 0 -159 -81t-67 -197.5t67 -196.5t159 -80q102 0 177 81t75 195.5zM371 272q-125 0 -211 103.5t-86 247t86 248t211 104.5q135 0 229 -104.5t94 -247.5q0 -641 -301 -641q-152 0 -239 118l-9 11v51h74v-27q68 -80 174 -80 q184 0 230 346q-98 -129 -252 -129z" />
<glyph unicode=":" horiz-adv-x="364" d="M111 831.5q0 26.5 18 46t45 19.5t45.5 -19.5t18.5 -46t-18.5 -45t-45.5 -18.5t-45 18.5t-18 45zM111 45q0 27 18 46.5t45 19.5t45.5 -19.5t18.5 -46.5t-18.5 -45t-45.5 -18t-45 18t-18 45z" />
<glyph unicode=";" horiz-adv-x="364" d="M111 831.5q0 26.5 18 46t45 19.5t45.5 -19.5t18.5 -46t-18.5 -45t-45.5 -18.5t-45 18.5t-18 45zM111 45q0 27 18 46.5t45 19.5t45.5 -19.5t18.5 -46.5q0 -133 -123 -256l-52 51q70 70 93 146q-45 14 -45 59z" />
<glyph unicode="&#x3c;" horiz-adv-x="657" d="M623 135l-43 -59l-506 358v84l508 344l41 -61l-478 -322v-8z" />
<glyph unicode="=" horiz-adv-x="802" d="M731 293h-657v74h657v-74zM731 586h-657v71h657v-71z" />
<glyph unicode="&#x3e;" horiz-adv-x="657" d="M37 135l475 336v8l-475 322l41 61l508 -344v-84l-508 -358z" />
<glyph unicode="?" horiz-adv-x="694" d="M293 453q0 53 26.5 91t64.5 63l75 51q37 26 63.5 68t26.5 99q0 82 -59.5 140.5t-143.5 58.5q-82 0 -141.5 -58.5t-59.5 -140.5h-71q0 113 79.5 193t192.5 80t195 -80t82 -193q0 -70 -27 -121t-63.5 -80.5t-74.5 -54t-64.5 -53.5t-26.5 -63v-160h-74v160zM264 45 q0 27 19.5 46.5t46 19.5t45 -19.5t18.5 -46.5t-18.5 -45t-45 -18t-46 18t-19.5 45z" />
<glyph unicode="@" horiz-adv-x="1243" d="M555 -88q-238 0 -374 144.5t-136 351.5q0 252 187.5 439t461.5 187q236 0 370 -141t134 -330q0 -197 -110.5 -313.5t-235.5 -116.5q-47 0 -78 14q-45 23 -57 64q-74 -84 -168 -84q-84 0 -152.5 66.5t-68.5 187.5q0 180 110.5 297t229.5 117h215l-95 -492q-6 -20 -6 -43 q0 -31 16.5 -42t53.5 -11q90 0 181 94t91 262q0 158 -111.5 279t-318.5 121q-244 0 -409.5 -167t-165.5 -388q0 -176 113.5 -299t322.5 -123q145 0 281 67l32 -65q-153 -76 -313 -76zM717 324l78 399h-127q-90 0 -178.5 -97.5t-88.5 -244.5q0 -88 46.5 -135t101.5 -47 q39 0 86 29.5t74 82.5z" />
<glyph unicode="A" horiz-adv-x="1243" d="M639 1274l-330 -836h666zM1004 367h-723l-146 -367h-80v74h29l528 1333h56l555 -1395l-68 -24z" />
<glyph unicode="B" horiz-adv-x="1243" d="M805 784q168 -33 266 -146.5t98 -252.5q0 -162 -122.5 -273.5t-341.5 -111.5h-560v1317h-34v74h446q217 0 342 -89.5t125 -224.5q0 -90 -57.5 -169t-161.5 -122h-2v-2h2zM219 731v-657h486q188 0 290.5 90t102.5 221q0 133 -112 239.5t-300 106.5h-467zM219 805h338 q188 0 290.5 84t102.5 188q0 98 -100 169t-293 71h-338v-512z" />
<glyph unicode="C" horiz-adv-x="1280" d="M1135 1233q-162 102 -349 102q-264 0 -452.5 -188.5t-188.5 -452.5t188.5 -451.5t452.5 -187.5q207 0 369 117l45 -59q-184 -131 -414 -131q-295 0 -503.5 208.5t-208.5 503.5t209 505t503 210q219 0 404 -125l16 -12v-66h-71v27z" />
<glyph unicode="D" horiz-adv-x="1388" d="M111 1391h512q289 0 491.5 -204t202.5 -492.5t-203 -491.5t-491 -203h-478v1317h-34v74zM219 74h404q258 0 439 181t181 439t-181 440.5t-439 182.5h-404v-1243z" />
<glyph unicode="E" horiz-adv-x="1169" d="M950 1317h-731v-586h438v-74h-438v-583h805v37h74v-111h-953v1317h-34v74h913v-111h-74v37z" />
<glyph unicode="F" horiz-adv-x="1169" d="M145 1317h-34v74h987v-111h-74v37h-805v-586h512v-74h-512v-657h-74v1317z" />
<glyph unicode="G" horiz-adv-x="1388" d="M950 586v71h367v-657h-74v170q-90 -82 -213 -135t-244 -53q-295 0 -503.5 208.5t-208.5 503.5t209 505t503 210q256 0 457 -168v-72h-74v37q-176 129 -383 129q-264 0 -452.5 -188.5t-188.5 -452.5t188.5 -451.5t452.5 -187.5q268 0 457 193v338h-293z" />
<glyph unicode="H" horiz-adv-x="1314" d="M145 1391h74v-660h879v660h71v-1391h-71v657h-879v-657h-74v1391z" />
<glyph unicode="I" horiz-adv-x="364" d="M219 0h-74v1391h74v-1391z" />
<glyph unicode="J" horiz-adv-x="802" d="M145 1391h512v-1098q0 -152 -99 -241t-236 -89q-84 0 -162 35t-117 98l-6 10v39h74v-18q31 -43 88 -66.5t123 -23.5q109 0 186.5 68.5t77.5 187.5v1024h-441v74z" />
<glyph unicode="K" horiz-adv-x="1243" d="M223 494l760 897h115v-74h-80l-504 -592l498 -586q33 -39 62.5 -52t94.5 -13v-74q-82 0 -127 21.5t-88 70.5l-489 576l-246 -287v-381h-74v1391h74v-897h4z" />
<glyph unicode="L" horiz-adv-x="1169" d="M219 74h805v37h74v-111h-953v1391h74v-1317z" />
<glyph unicode="M" horiz-adv-x="1974" d="M111 74h20l164 1331h59l633 -1327l633 1327h61l185 -1401l-72 -10l-166 1253l-604 -1265h-72l-602 1263l-153 -1245h-86v74z" />
<glyph unicode="N" horiz-adv-x="1314" d="M1169 1391v-1391h-71l-879 1264v-1264h-74v1317h-34v74h108l879 -1264v1264h71z" />
<glyph unicode="O" horiz-adv-x="1570" d="M145 694q0 -264 188.5 -451.5t453 -187.5t451.5 187.5t187 451.5t-187 452.5t-451.5 188.5t-453 -188.5t-188.5 -452.5zM786.5 1409q294.5 0 503.5 -210t209 -505t-209 -503.5t-503.5 -208.5t-503.5 208.5t-209 503.5t209 505t503.5 210z" />
<glyph unicode="P" horiz-adv-x="1243" d="M145 1317h-34v74h583q199 0 337 -139.5t138 -338t-138 -337t-337 -138.5h-475v-438h-74v1317zM219 1317v-805h475q166 0 285 118t119 283.5t-119 284.5t-285 119h-475z" />
<glyph unicode="Q" horiz-adv-x="1570" d="M786.5 1409q294.5 0 503.5 -210t209 -505t-209 -503.5t-504 -208.5h-2q-295 0 -438 -191l27 -29q76 70 196 70q96 0 284.5 -61.5t246.5 -61.5q43 0 69.5 31t26.5 59h74q0 -61 -49.5 -112.5t-120.5 -51.5q-70 0 -256.5 61.5t-274.5 61.5q-111 0 -168 -73l-28 -35l-121 137 l14 23q100 154 307 204q-221 68 -360 255.5t-139 424.5q0 295 209 505t503.5 210zM145 694q0 -264 188.5 -451.5t453 -187.5t451.5 187.5t187 451.5t-187 452.5t-451.5 188.5t-453 -188.5t-188.5 -452.5z" />
<glyph unicode="R" horiz-adv-x="1243" d="M637 602q61 -31 123 -125l213 -332q29 -43 51.5 -57t60.5 -14h84v-74h-84q-57 0 -96 22.5t-78 83.5l-213 330q-68 104 -111.5 127t-185.5 23h-182v-586h-74v1317h-34v74h520q219 0 343 -120t124 -284q0 -160 -122 -270.5t-339 -112.5h-2v-2h2zM631 657q188 0 290.5 98.5 t102.5 231.5t-102.5 231.5t-290.5 98.5h-412v-660h412z" />
<glyph unicode="S" horiz-adv-x="1243" d="M145 229q74 -63 208 -118.5t270 -55.5q227 0 351 79t124 188q0 70 -33 124t-104.5 99t-138 74.5t-183.5 72.5q-248 90 -336 146q-158 102 -158 247q0 141 137.5 232.5t340.5 91.5q117 0 244.5 -42t217.5 -130l13 -12v-68h-74v37q-76 68 -185.5 104.5t-215.5 36.5 q-170 0 -287 -70.5t-117 -179.5q0 -57 30 -102t97.5 -85t134 -68.5t183.5 -69.5q92 -33 141 -52.5t130 -61.5t124 -83t76.5 -104.5t33.5 -136.5q0 -150 -149.5 -245t-396.5 -95q-158 0 -311.5 66.5t-227.5 139.5l-10 11v67h71v-37z" />
<glyph unicode="T" horiz-adv-x="1243" d="M74 1391h1095v-111h-71v37h-441v-1317h-71v1317h-441v-37h-71v111z" />
<glyph unicode="U" horiz-adv-x="1314" d="M219 1391v-897q0 -182 128 -310.5t310.5 -128.5t311.5 129t129 310v897h71v-897q0 -211 -150.5 -361.5t-361.5 -150.5t-361.5 150.5t-150.5 361.5v823h-34v74h108z" />
<glyph unicode="V" horiz-adv-x="1243" d="M1204 1376l-555 -1392h-55l-528 1333h-29v74h80l506 -1276l514 1288z" />
<glyph unicode="W" horiz-adv-x="1974" d="M55 1317v74h80l469 -1270l346 921v201h74v-201l342 -921l477 1282l70 -27l-520 -1392h-54l-352 946l-356 -946h-56l-491 1333h-29z" />
<glyph unicode="X" horiz-adv-x="1243" d="M1102 1409l57 -45l-491 -645l528 -694l-59 -43l-514 675l-517 -675l-59 43l528 694l-495 649l59 43l484 -633z" />
<glyph unicode="Y" horiz-adv-x="1243" d="M623 584l495 821l64 -37l-525 -868v-500h-71v500l-496 817h-35v74h74l492 -807h2z" />
<glyph unicode="Z" horiz-adv-x="1169" d="M1061 1391v-50l-881 -1265h-2v-2h846v37h74v-111h-1024v47l878 1268h2v2h-772v-37h-71v111h950z" />
<glyph unicode="[" horiz-adv-x="438" d="M219 1098v-1243h148v-74h-222v1388h222v-71h-148z" />
<glyph unicode="\" horiz-adv-x="913" d="M111 1102l755 -1180l-61 -39l-756 1180z" />
<glyph unicode="]" horiz-adv-x="438" d="M219 1098h-145v71h219v-1388h-219v74h145v1243z" />
<glyph unicode="^" horiz-adv-x="802" d="M385 1188q8 12 22.5 12t22.5 -12l324 -422l-45 -33l-301 393l-316 -395l-43 37z" />
<glyph unicode="_" horiz-adv-x="1443" d="M1317 -385h-1243v55h1243v-55z" />
<glyph unicode="`" horiz-adv-x="438" d="M336 1098l-281 235l76 76l254 -256z" />
<glyph unicode="a" d="M713 293l-238 551l-237 -551h475zM37 0v74h26l388 895h51l409 -955l-67 -28l-101 233h-536l-94 -219h-76z" />
<glyph unicode="b" d="M219 512v-438h369q90 0 153.5 58t63.5 136q0 86 -77 165t-196 79h-313zM625 555q115 -27 184.5 -110t69.5 -177q0 -111 -87 -189.5t-204 -78.5h-443v879h-34v71h370q113 0 200 -63.5t87 -155.5q0 -111 -143 -172v-4zM219 586h225q113 0 181.5 40t68.5 105 q0 57 -61.5 102.5t-151.5 45.5h-262v-293z" />
<glyph unicode="c" horiz-adv-x="987" d="M842 795q-123 102 -275 102q-174 0 -298 -124t-124 -298t124 -297t298 -123q180 0 307 133l56 -51q-150 -156 -363 -155q-205 0 -349 144t-144 349t144 349.5t349 144.5q188 0 334 -131l12 -11v-59h-71v27z" />
<glyph unicode="d" horiz-adv-x="1024" d="M219 74h234q176 0 301 116.5t125 284.5t-125 286t-301 118h-234v-805zM145 879h-34v71h338q209 0 355 -138t146 -337t-146.5 -337t-354.5 -138h-304v879z" />
<glyph unicode="e" horiz-adv-x="876" d="M219 879v-367h367v-74h-367v-364h512v37h74v-111h-660v879h-34v71h620v-108h-74v37h-438z" />
<glyph unicode="f" horiz-adv-x="876" d="M145 879h-34v71h694v-108h-74v37h-512v-367h367v-74h-367v-438h-74v879z" />
<glyph unicode="g" horiz-adv-x="1024" d="M567 897q-174 0 -298 -124t-124 -298t123 -297t299 -123q82 0 174.5 48.5t137.5 109.5v154h-193v71h264v-438h-61l-8 137h-2q-147 -156 -312 -155q-205 0 -349 144t-144 349t145.5 349.5t347.5 144.5q188 0 334 -131l12 -11v-59h-71v27q-123 102 -275 102z" />
<glyph unicode="h" horiz-adv-x="1024" d="M145 950h74v-438h586v438h74v-950h-74v438h-586v-438h-74v950z" />
<glyph unicode="i" horiz-adv-x="364" d="M219 0h-74v950h74v-950z" />
<glyph unicode="j" horiz-adv-x="657" d="M145 82q47 -27 111 -27q74 0 128 45t54 123v656h-327v71h401v-727q0 -111 -77 -176t-179 -65q-94 0 -168 51l-14 10v68h71v-29z" />
<glyph unicode="k" d="M760 879l-309 -359l325 -395q43 -51 76 -51h27v-74h-27q-41 0 -67.5 16.5t-63.5 61.5l-320 387l-180 -211h-2v-254h-74v950h74v-585l506 585h80v-71h-45z" />
<glyph unicode="l" horiz-adv-x="876" d="M731 111h74v-111h-660v950h74v-876h512v37z" />
<glyph unicode="m" horiz-adv-x="1388" d="M55 0v74h27l115 895h57l440 -893l441 893h57l125 -965l-74 -12l-106 819l-408 -829h-70l-407 829l-107 -811h-90z" />
<glyph unicode="n" horiz-adv-x="1024" d="M231 950l574 -839v839h74v-968h-76l-584 860v-842h-74v879h-34v71h120z" />
<glyph unicode="o" horiz-adv-x="1095" d="M548.5 969q196.5 0 336 -145.5t139.5 -348.5t-139.5 -348t-336 -145t-335.5 145t-139 348t139 348.5t335.5 145.5zM145 475q0 -174 119 -297t285 -123t283.5 123t117.5 297t-117.5 298t-283.5 124t-285 -124t-119 -298z" />
<glyph unicode="p" d="M219 879v-512h309q115 0 196 74.5t81 181t-81 181.5t-196 75h-309zM145 879h-34v71h419q145 0 247 -95t102 -232.5t-99.5 -233.5t-238.5 -96h-322v-293h-74v879z" />
<glyph unicode="q" horiz-adv-x="1095" d="M549 897q-172 0 -288 -123t-116 -299t116 -298t288 -122t286.5 122t114.5 298t-114.5 299t-286.5 123zM567 -18q-111 0 -192.5 -55.5t-126.5 -137.5q80 43 160 43q102 0 233 -61.5t186 -61.5q43 0 70 31t27 59h73q0 -61 -49 -112.5t-120.5 -51.5t-202.5 61.5t-217 61.5 q-57 0 -114.5 -28.5t-68.5 -67.5l-8 -29h-80v37q0 84 66.5 184.5t177.5 155.5q-139 53 -223 179t-84 286q0 207 136 350.5t339 143.5t339 -143.5t136 -350.5q0 -201 -130 -344t-327 -149z" />
<glyph unicode="r" d="M455 438q127 0 201.5 70t74.5 162q0 86 -70.5 147.5t-203.5 61.5h-238v-441h236zM852 0q-39 0 -66.5 16.5t-64.5 61.5l-150 182q-6 6 -20 25l-17 22q-3 4 -14.5 16.5t-15.5 14.5t-14.5 10t-17.5 8t-18.5 4.5t-23.5 4.5t-27.5 1t-35.5 1h-148v-367h-74v879h-34v71h346 q166 0 257 -82t91 -196q0 -98 -66.5 -179t-189.5 -108q31 -20 76 -78l151 -182q29 -33 41 -42t35 -9h27v-74h-27z" />
<glyph unicode="s" d="M145 172q102 -117 330 -117q160 0 245 53.5t85 120.5q0 72 -67.5 123t-165.5 82l-194 65q-97 34 -165 94t-68 146q0 90 100.5 160t229.5 70q201 0 320 -117l10 -10v-56h-74v25q-98 86 -256 86q-104 0 -180 -53t-76 -105q0 -68 67.5 -113.5t165 -76.5t194.5 -65.5t165 -98 t68 -156.5q0 -111 -111 -179t-293 -68q-272 0 -395 155l-6 8v56h71v-29z" />
<glyph unicode="t" d="M74 950h805v-108h-74v37h-293v-879h-74v879h-293v-37h-71v108z" />
<glyph unicode="u" horiz-adv-x="1024" d="M219 348q0 -121 86 -207t207 -86t207 86t86 207v602h74v-602q0 -152 -107.5 -259t-259.5 -107t-259.5 107.5t-107.5 258.5v531h-34v71h108v-602z" />
<glyph unicode="v" d="M111 950l364 -844l369 859l67 -29l-409 -954h-51l-385 897h-29v71h74z" />
<glyph unicode="w" horiz-adv-x="1388" d="M133 950l305 -827l219 631v159h74v-159l219 -631l312 842l69 -27l-352 -954h-55l-230 653l-227 -653h-55l-332 895h-25v71h78z" />
<glyph unicode="x" d="M158 950l317 -395l336 420l59 -47l-348 -430l385 -473l-59 -50l-373 465l-373 -465l-59 50l385 473l-305 381h-31v71h66z" />
<glyph unicode="y" d="M139 950l336 -532l352 561l64 -41l-379 -600v-338h-74v338l-340 541h-43v71h84z" />
<glyph unicode="z" horiz-adv-x="876" d="M786 903l-618 -829h563v37h74v-111h-750v43l621 836h-512v-37h-72v108h694v-47z" />
<glyph unicode="{" horiz-adv-x="438" d="M145 -182v530q0 55 -22.5 91t-44 45.5t-41.5 9.5h-37v110h37q20 0 41.5 9.5t44 45t22.5 91.5v530q0 152 61.5 204t160.5 52v-74q-74 0 -111 -35.5t-37 -146.5v-530q0 -147 -108 -201q109 -53 108 -201v-530q0 -111 37 -148t111 -37v-71q-98 0 -160 52t-62 204z" />
<glyph unicode="|" horiz-adv-x="364" d="M145 1317h74v-1684h-74v1684z" />
<glyph unicode="}" horiz-adv-x="438" d="M293 -182q0 -152 -60.5 -204t-158.5 -52v71q74 0 109.5 36t35.5 149v530q0 147 111 201q-111 53 -111 201v530q0 111 -36 146.5t-109 35.5v74q98 0 158.5 -52t60.5 -204v-530q0 -55 22.5 -91t44 -45.5t41.5 -9.5h37v-110h-37q-20 0 -41.5 -9.5t-44 -45.5t-22.5 -91v-530z " />
<glyph unicode="~" horiz-adv-x="731" d="M209 791q43 0 88 -23l172 -80q31 -14 55 -14q27 0 44.5 16.5t20.5 25.5t7 27l74 -12q-10 -61 -49 -96t-97 -35q-45 0 -90 23l-170 79q-31 14 -55 15q-57 0 -74 -70l-74 10q10 66 51.5 100t96.5 34z" />
<glyph unicode="&#xa1;" horiz-adv-x="364" d="M248 905.5q0 -26.5 -19.5 -45t-46 -18.5t-45 18.5t-18.5 45t18.5 45t45 18.5t46 -18.5t19.5 -45zM219 -145h-108v71h34v731h74v-802z" />
<glyph unicode="&#xa2;" horiz-adv-x="913" d="M475 1024h74v-92q154 -6 278 -111l15 -10v-80h-74v45q-102 78 -219 84v-768q154 6 262 121l53 -51q-127 -137 -315 -144v-92h-74v97q-172 20 -286.5 149t-114.5 303t115.5 304t285.5 151v94zM475 94v762q-141 -20 -235.5 -127.5t-94.5 -253t94.5 -253.5t235.5 -128z" />
<glyph unicode="&#xa3;" horiz-adv-x="876" d="M805 111v-111h-750l-37 37l37 37q68 0 116 46t48 111v207h-108v74h108v229q0 96 68.5 162t165.5 66q135 0 200 -113l4 -10v-41h-71v22q-53 70 -133 70q-66 0 -113 -44t-47 -112v-229h182v-74h-182v-207q0 -94 -64 -157h502v37h74z" />
<glyph unicode="&#xa5;" d="M256 293v74h166l-324 512h-43v71h84l336 -532l352 561l64 -41l-363 -571h166v-74h-182v-293h-74v293h-182z" />
<glyph unicode="&#xa7;" horiz-adv-x="913" d="M455 1098q-84 0 -143.5 -50.5t-59.5 -122t60.5 -120.5t147.5 -80t174 -66.5t147.5 -103.5t60.5 -166q0 -78 -45 -138.5t-115 -82.5q49 -59 49 -143q0 -100 -81 -172t-195.5 -72t-194.5 81t-80 193h72q0 -84 59.5 -142t143.5 -58t143 49t59 120.5t-60 121t-146 80 t-173.5 66.5t-147.5 103.5t-60 165.5q0 78 45 138.5t114 82.5q-49 59 -49 144q0 100 80 171.5t194.5 71.5t195.5 -79.5t81 -192.5h-74q0 84 -59 142.5t-143 58.5zM610 227q66 6 112 52.5t46 109.5q0 72 -51 125t-116 79l-157 62q-92 37 -143 68q-66 -6 -112 -52t-46 -110 q0 -72 51.5 -125t115.5 -79l157 -62q92 -37 143 -68z" />
<glyph unicode="&#xa8;" horiz-adv-x="731" d="M520 1216.5q0 26.5 19.5 45t46 18.5t45 -18.5t18.5 -45t-18.5 -46t-45 -19.5t-46 19.5t-19.5 46zM92 1216.5q0 26.5 18.5 45t45 18.5t45 -18.5t18.5 -45t-18.5 -46t-45 -19.5t-45 19.5t-18.5 46z" />
<glyph unicode="&#xa9;" horiz-adv-x="1681" d="M1098 995q-106 84 -238 84q-158 0 -271.5 -113.5t-113.5 -271t113.5 -270.5t271.5 -113q166 0 281 121l53 -51q-135 -143 -334 -143q-188 0 -323.5 134t-135.5 322.5t135.5 322.5t323.5 134q166 0 297 -111l12 -10v-80h-71v45zM1516 346q-100 -166 -281 -262 q-178 -94 -393 -94t-393 94q-182 98 -283 262q-102 160 -102.5 352.5t102.5 352.5q100 164 283 262q186 98 393 98t393 -98q180 -96 281 -262q102 -160 102 -352.5t-102 -352.5zM1544 698q0 174 -90 316q-96 152 -254 235q-166 90 -358.5 90t-358.5 -90q-158 -84 -254 -235 q-92 -143 -92 -316q0 -170 92 -313q98 -154 254 -238q162 -86 359 -86q199 0 358 86q156 84 254 238q90 141 90 313z" />
<glyph unicode="&#xaa;" horiz-adv-x="802" d="M657 829v195h-270q-117 0 -179.5 -46t-62.5 -110q0 -82 70 -128t172 -46q86 0 162.5 37t107.5 98zM750 657h-93v58q-106 -92 -270 -92q-137 0 -225 67.5t-88 177.5q0 98 85 164t228 66h270v71q0 184 -219 185q-127 0 -219 -54v-20h-74v57l17 11q96 78 276 77 q127 0 210 -61t83 -195v-438h19v-74z" />
<glyph unicode="&#xab;" horiz-adv-x="731" d="M127 477v-6l240 -287l-58 -45l-254 307v58l254 311l58 -47zM420 477v-6l237 -287l-55 -45l-254 307v58l254 311l55 -47z" />
<glyph unicode="&#xac;" horiz-adv-x="1095" d="M74 731h876v-512h-71v438h-805v74z" />
<glyph unicode="&#xad;" horiz-adv-x="657" d="M586 512h-512v74h512v-74z" />
<glyph unicode="&#xae;" horiz-adv-x="1681" d="M891 713q104 0 162.5 55t58.5 129t-57.5 128t-163.5 54h-234v-366h234zM1169 274q-74 0 -116 70l-133 213q-37 59 -60.5 70.5t-105.5 11.5h-97v-365h-71v877h305q139 0 217 -75t78 -179q0 -94 -67.5 -160.5t-188.5 -77.5q35 -35 51 -61l135 -213q16 -25 24.5 -31t28.5 -6 h52v-74h-52zM1544 698q0 174 -90 316q-96 152 -254 235q-166 90 -358.5 90t-358.5 -90q-158 -84 -254 -235q-92 -143 -92 -316q0 -170 92 -313q98 -154 254 -238q162 -86 359 -86q199 0 358 86q156 84 254 238q90 141 90 313zM1516 346q-100 -166 -281 -262 q-178 -94 -393 -94t-393 94q-182 98 -283 262q-102 160 -102.5 352.5t102.5 352.5q100 164 283 262q186 98 393 98t393 -98q180 -96 281 -262q102 -160 102 -352.5t-102 -352.5z" />
<glyph unicode="&#xaf;" horiz-adv-x="731" d="M657 1243h-583v74h583v-74z" />
<glyph unicode="&#xb0;" horiz-adv-x="512" d="M256 1317q-39 0 -75 -34t-36 -77t35 -75.5t76 -32.5t76 32.5t35 75.5t-36 77t-75 34zM256 1391q70 0 126 -55.5t56 -129.5q0 -72 -56 -127t-126 -55t-126 55.5t-56 126.5q0 74 56 129.5t126 55.5z" />
<glyph unicode="&#xb1;" horiz-adv-x="802" d="M731 145h-657v74h657v-74zM438 731h293v-74h-293v-290h-71v290h-293v74h293v293h71v-293z" />
<glyph unicode="&#xb4;" horiz-adv-x="438" d="M121 1116l-51 51l202 205l54 -51z" />
<glyph unicode="&#xb6;" horiz-adv-x="876" d="M367 -219v805q-121 0 -207 86t-86 207q0 119 86 204.5t207 85.5h364v-1388h-74v1317h-219v-1317h-71zM367 1098q-90 0 -156 -65.5t-66 -153.5q0 -90 65.5 -156t156.5 -66v441z" />
<glyph unicode="&#xb7;" horiz-adv-x="364" d="M145 530h111v-92h-111v92z" />
<glyph unicode="&#xb8;" horiz-adv-x="821" d="M291 -145l-45 12l45 158l53 -15l-25 -84q25 8 58 8q78 0 125 -53t47 -123q0 -74 -55.5 -115.5t-124.5 -41.5q-109 0 -160 86l47 28q37 -59 113 -59q51 0 78.5 32.5t27.5 78t-25.5 79t-72.5 33.5q-31 1 -86 -24z" />
<glyph unicode="&#xba;" d="M475 1354q-135 0 -232.5 -97.5t-97.5 -232.5t97.5 -232.5t232.5 -97.5t232.5 97.5t97.5 232.5t-97.5 232.5t-232.5 97.5zM879 1024q0 -166 -119 -283.5t-285 -117.5t-283.5 117.5t-117.5 283.5t117.5 283.5t283.5 117.5t285 -117.5t119 -283.5z" />
<glyph unicode="&#xbb;" horiz-adv-x="731" d="M604 473v6l-237 287l55 45l254 -307v-58l-254 -311l-55 47zM311 473v6l-237 287l55 45l256 -307v-58l-256 -311l-55 47z" />
<glyph unicode="&#xbf;" horiz-adv-x="694" d="M401 498q0 -63 -39.5 -108.5t-88 -70t-88.5 -73.5t-40 -119q0 -82 60.5 -141.5t144.5 -59.5q82 0 140.5 59.5t58.5 141.5h74q0 -113 -80 -192.5t-192.5 -79.5t-194.5 79.5t-82 192.5q0 84 40 143.5t88 86t88 62.5t40 79v159h71v-159zM430 905.5q0 -26.5 -18.5 -45 t-45 -18.5t-46 18.5t-19.5 45t19.5 45t46 18.5t45 -18.5t18.5 -45z" />
<glyph unicode="&#xc0;" horiz-adv-x="1243" d="M684 1554l-203 205l54 51l202 -204zM1006 367h-727l-144 -367h-80v74h29l530 1351h52l557 -1411l-68 -28zM639 1288l-332 -850h670l-336 850h-2z" />
<glyph unicode="&#xc1;" horiz-adv-x="1243" d="M596 1554l-51 52l203 204l53 -51zM1006 367h-727l-144 -367h-80v74h29l530 1351h52l557 -1411l-68 -28zM639 1288l-332 -850h670l-336 850h-2z" />
<glyph unicode="&#xc2;" horiz-adv-x="1243" d="M643 1737h-6l-252 -201l-47 57l272 217h60l272 -217l-45 -57zM1006 367h-727l-144 -367h-80v74h29l530 1351h52l557 -1411l-68 -28zM639 1288l-332 -850h670l-336 850h-2z" />
<glyph unicode="&#xc3;" horiz-adv-x="1243" d="M709 1722q41 -18 63 -18q49 0 62 63l10 52l71 -15l-8 -49q-23 -123 -135 -123q-49 0 -88 21l-113 63q-37 16 -63 17q-49 0 -62 -64l-12 -49l-69 12l8 49q23 123 135 123q49 0 88 -20zM1006 367h-727l-144 -367h-80v74h29l530 1351h52l557 -1411l-68 -28zM639 1288 l-332 -850h670l-336 850h-2z" />
<glyph unicode="&#xc4;" horiz-adv-x="1243" d="M795 1654.5q0 26.5 19.5 45t46 18.5t45 -18.5t18.5 -45t-18.5 -45t-45 -18.5t-46 18.5t-19.5 45zM367 1654.5q0 26.5 18 45t45 18.5t45.5 -18.5t18.5 -45t-18.5 -45t-45.5 -18.5t-45 18.5t-18 45zM1006 367h-727l-144 -367h-80v74h29l530 1351h52l557 -1411l-68 -28z M639 1288l-332 -850h670l-336 850h-2z" />
<glyph unicode="&#xc5;" horiz-adv-x="1243" d="M639 1829q66 0 125 -55.5t59 -126.5q0 -74 -59 -129.5t-125 -55.5q-61 0 -123 58q-59 55 -59 126.5t59 127.5q57 55 123 55zM639 1774q-41 0 -86 -41q-41 -41 -41 -86q0 -47 41 -88t86 -41q43 0 88 41q41 41 41 88q0 45 -41 86q-45 41 -88 41zM1006 367h-727l-144 -367 h-80v74h29l530 1351h52l557 -1411l-68 -28zM639 1288l-332 -850h670l-336 850h-2z" />
<glyph unicode="&#xc6;" horiz-adv-x="1755" d="M281 367l-187 -367h-57v74h14l660 1317h899v-111h-74v37h-604v-586h311v-74h-311v-583h678v37h71v-111h-821v367h-579zM315 438h545v879h-102z" />
<glyph unicode="&#xc7;" horiz-adv-x="1280" d="M612 -174l-45 12l45 158l54 -14l-25 -84q25 8 57 8q78 0 125 -53.5t47 -122.5q0 -74 -55 -116t-125 -42q-109 0 -160 86l48 29q37 -59 112 -60q51 0 79 33t28 78t-26 78.5t-73 33.5q-31 1 -86 -24zM1135 1233q-162 102 -349 102q-264 0 -452.5 -188.5t-188.5 -452.5 t188.5 -451.5t452.5 -187.5q207 0 369 117l45 -59q-184 -131 -414 -131q-295 0 -503.5 208.5t-208.5 503.5t209 505t503 210q219 0 404 -125l16 -12v-66h-71v27z" />
<glyph unicode="&#xc8;" horiz-adv-x="1169" d="M631 1554l-205 205l53 51l203 -204zM950 1317h-731v-586h438v-74h-438v-583h805v37h74v-111h-953v1317h-34v74h913v-111h-74v37z" />
<glyph unicode="&#xc9;" horiz-adv-x="1169" d="M543 1554l-51 52l202 204l54 -51zM950 1317h-731v-586h438v-74h-438v-583h805v37h74v-111h-953v1317h-34v74h913v-111h-74v37z" />
<glyph unicode="&#xca;" horiz-adv-x="1169" d="M588 1737h-6l-252 -201l-47 55l272 219h59l273 -219l-45 -55zM950 1317h-731v-586h438v-74h-438v-583h805v37h74v-111h-953v1317h-34v74h913v-111h-74v37z" />
<glyph unicode="&#xcb;" horiz-adv-x="1169" d="M739 1654.5q0 26.5 19.5 45t46 18.5t45 -18.5t18.5 -45t-18.5 -46t-45 -19.5t-46 19.5t-19.5 46zM311 1654.5q0 26.5 18.5 45t45 18.5t45 -18.5t18.5 -45t-18.5 -46t-45 -19.5t-45 19.5t-18.5 46zM950 1317h-731v-586h438v-74h-438v-583h805v37h74v-111h-953v1317h-34v74 h913v-111h-74v37z" />
<glyph unicode="&#xcc;" horiz-adv-x="364" d="M227 1554l-202 205l53 51l203 -204zM219 0h-74v1391h74v-1391z" />
<glyph unicode="&#xcd;" horiz-adv-x="364" d="M139 1554l-51 52l203 204l53 -51zM219 0h-74v1391h74v-1391z" />
<glyph unicode="&#xce;" horiz-adv-x="364" d="M186 1737h-6l-254 -201l-45 57l273 217h59l272 -217l-47 -57zM219 0h-74v1391h74v-1391z" />
<glyph unicode="&#xcf;" horiz-adv-x="364" d="M264 1654.5q0 26.5 19.5 45t46 18.5t45 -18.5t18.5 -45t-18.5 -45t-45 -18.5t-46 18.5t-19.5 45zM-18 1654.5q0 26.5 18 45t45 18.5t46.5 -18.5t19.5 -45t-19.5 -45t-46.5 -18.5t-45 18.5t-18 45zM219 0h-74v1391h74v-1391z" />
<glyph unicode="&#xd0;" horiz-adv-x="1388" d="M219 74h404q258 0 439 181t181 439t-181 440.5t-439 182.5h-404v-586h367v-74h-367v-583zM145 1317h-34v74h34h39h439q289 0 491.5 -204t202.5 -492.5t-203 -491.5t-491 -203h-478v657h-71v74h71v586z" />
<glyph unicode="&#xd1;" horiz-adv-x="1314" d="M764 1722q41 -18 63 -18q49 0 62 63l10 52l72 -15l-8 -49q-23 -123 -136 -123q-49 0 -88 21l-114 63q-37 16 -62 17q-49 0 -61 -64l-13 -49l-71 12l10 49q23 123 135 123q49 0 88 -20zM1169 1391v-1391h-71l-879 1264v-1264h-74v1317h-34v74h108l879 -1264v1264h71z" />
<glyph unicode="&#xd2;" horiz-adv-x="1607" d="M848 1554l-203 205l53 51l203 -204zM145 694.5q0 -272.5 192.5 -465t467.5 -192.5q272 0 464.5 192.5t192.5 464.5q0 274 -192.5 467t-465 193t-466 -193.5t-193.5 -466zM805 1425q303 0 517 -214t214 -517t-214 -517t-517 -214t-517 214t-214 517t214 517t517 214z" />
<glyph unicode="&#xd3;" horiz-adv-x="1570" d="M743 1554l-51 52l203 204l53 -51zM145 694q0 -264 188.5 -451.5t453 -187.5t451.5 187.5t187 451.5t-187 452.5t-451.5 188.5t-453 -188.5t-188.5 -452.5zM786.5 1409q294.5 0 503.5 -210t209 -505t-209 -503.5t-503.5 -208.5t-503.5 208.5t-209 503.5t209 505t503.5 210 z" />
<glyph unicode="&#xd4;" horiz-adv-x="1607" d="M809 1737h-8l-252 -201l-45 57l272 217h58l272 -217l-45 -57zM145 694.5q0 -272.5 192.5 -465t467.5 -192.5q272 0 464.5 192.5t192.5 464.5q0 274 -192.5 467t-465 193t-466 -193.5t-193.5 -466zM805 1425q303 0 517 -214t214 -517t-214 -517t-517 -214t-517 214 t-214 517t214 517t517 214z" />
<glyph unicode="&#xd5;" horiz-adv-x="1607" d="M874 1722q41 -18 62 -18q51 0 63 63l11 52l71 -15l-10 -49q-23 -123 -135 -123q-49 0 -88 21l-113 63q-37 16 -61 17q-51 0 -64 -64l-10 -49l-72 12l9 49q23 123 137 123q47 0 86 -20zM145 694.5q0 -272.5 192.5 -465t467.5 -192.5q272 0 464.5 192.5t192.5 464.5 q0 274 -192.5 467t-465 193t-466 -193.5t-193.5 -466zM805 1425q303 0 517 -214t214 -517t-214 -517t-517 -214t-517 214t-214 517t214 517t517 214z" />
<glyph unicode="&#xd6;" horiz-adv-x="1607" d="M961 1654.5q0 26.5 18 45t45 18.5t45 -18.5t18 -45t-18 -45t-45 -18.5t-45 18.5t-18 45zM530 1654.5q0 26.5 18.5 45t45.5 18.5t45 -18.5t18 -45t-18 -45t-45 -18.5t-45.5 18.5t-18.5 45zM145 694.5q0 -272.5 192.5 -465t467.5 -192.5q272 0 464.5 192.5t192.5 464.5 q0 274 -192.5 467t-465 193t-466 -193.5t-193.5 -466zM805 1425q303 0 517 -214t214 -517t-214 -517t-517 -214t-517 214t-214 517t214 517t517 214z" />
<glyph unicode="&#xd8;" horiz-adv-x="1570" d="M1401 1358l51 -51l-135 -136q182 -205 182 -477q0 -295 -209 -503.5t-504 -208.5q-270 0 -477 184l-137 -137l-51 51l137 137q-184 205 -184 477q0 295 209 505t503 210q272 0 480 -186zM1212 1171q-180 164 -426 164q-264 0 -452.5 -188.5t-188.5 -452.5 q0 -242 164 -426zM1264 1118l-904 -901q182 -162 426 -162q264 0 451.5 187.5t187.5 451.5q1 242 -161 424z" />
<glyph unicode="&#xd9;" horiz-adv-x="1314" d="M702 1554l-202 205l53 51l203 -204zM219 1391v-916q0 -180 128 -309t310.5 -129t311.5 129t129 309v916h71v-916q0 -213 -150.5 -362.5t-361.5 -149.5t-361.5 149.5t-150.5 362.5v842h-34v74h108z" />
<glyph unicode="&#xda;" horiz-adv-x="1314" d="M614 1554l-51 52l203 204l53 -51zM219 1391v-916q0 -180 128 -309t310.5 -129t311.5 129t129 309v916h71v-916q0 -213 -150.5 -362.5t-361.5 -149.5t-361.5 149.5t-150.5 362.5v842h-34v74h108z" />
<glyph unicode="&#xdb;" horiz-adv-x="1314" d="M662 1737h-7l-254 -201l-45 57l273 217h59l273 -217l-48 -57zM219 1391v-916q0 -180 128 -309t310.5 -129t311.5 129t129 309v916h71v-916q0 -213 -150.5 -362.5t-361.5 -149.5t-361.5 149.5t-150.5 362.5v842h-34v74h108z" />
<glyph unicode="&#xdc;" horiz-adv-x="1314" d="M813 1654.5q0 26.5 19.5 45t46 18.5t45 -18.5t18.5 -45t-18.5 -45t-45 -18.5t-46 18.5t-19.5 45zM385 1654.5q0 26.5 18.5 45t45 18.5t45 -18.5t18.5 -45t-18.5 -45t-45 -18.5t-45 18.5t-18.5 45zM219 1391v-916q0 -180 128 -309t310.5 -129t311.5 129t129 309v916h71 v-916q0 -213 -150.5 -362.5t-361.5 -149.5t-361.5 149.5t-150.5 362.5v842h-34v74h108z" />
<glyph unicode="&#xdd;" horiz-adv-x="1243" d="M578 1554l-52 52l203 204l53 -51zM623 584l497 825l66 -37l-529 -872v-500h-71v500l-496 817h-35v74h74l492 -807h2z" />
<glyph unicode="&#xde;" horiz-adv-x="1169" d="M219 1169v-802h404q166 0 283.5 117.5t117.5 283.5t-118 283.5t-283 117.5h-404zM145 1391h74v-148h404q199 0 337 -138t138 -337t-138.5 -337t-336.5 -138h-404v-293h-74v1391z" />
<glyph unicode="&#xdf;" horiz-adv-x="1024" d="M633 55q109 0 177.5 40t68.5 83q0 49 -52.5 82t-128.5 55l-151 47q-76 25 -128 70t-52 109q0 84 86 139t198 55q18 0 64 -4q-16 72 -91 119t-167 47q-96 0 -167 -45t-71 -111v-741h-74v586h-71v71h71v84q0 100 93.5 164t218.5 64q137 0 236.5 -78t99.5 -193v-49 q-86 12 -142 13q-90 0 -151.5 -38t-61.5 -83q0 -43 53.5 -74t128 -52.5t149.5 -47t128 -73.5t53 -116q0 -86 -94 -141t-223 -55q-90 0 -180.5 26.5t-135.5 85.5l60 45q27 -37 99.5 -60.5t156.5 -23.5z" />
<glyph unicode="&#xe0;" d="M713 293l-238 551l-237 -551h475zM37 0v74h26l388 895h51l409 -955l-67 -28l-101 233h-536l-94 -219h-76zM520 1116l-205 205l54 51l202 -205z" />
<glyph unicode="&#xe1;" d="M713 293l-238 551l-237 -551h475zM37 0v74h26l388 895h51l409 -955l-67 -28l-101 233h-536l-94 -219h-76zM432 1116l-51 51l203 205l53 -51z" />
<glyph unicode="&#xe2;" d="M713 293l-238 551l-237 -551h475zM37 0v74h26l388 895h51l409 -955l-67 -28l-101 233h-536l-94 -219h-76zM479 1298h-6l-252 -200l-47 55l272 219h60l272 -219l-45 -55z" />
<glyph unicode="&#xe3;" d="M545 1284q41 -18 61 -18q51 0 64 63l10 49l72 -12l-9 -49q-23 -123 -137 -123q-47 0 -86 20l-114 62q-41 18 -62 18q-51 0 -63 -63l-11 -49l-71 12l10 49q23 123 135 123q49 0 88 -20zM713 293l-238 551l-237 -551h475zM37 0v74h26l388 895h51l409 -955l-67 -28l-101 233 h-536l-94 -219h-76z" />
<glyph unicode="&#xe4;" d="M631 1216.5q0 26.5 19.5 45t46 18.5t45 -18.5t18.5 -45t-18.5 -46t-45 -19.5t-46 19.5t-19.5 46zM203 1216.5q0 26.5 18.5 45t45 18.5t45 -18.5t18.5 -45t-18.5 -46t-45 -19.5t-45 19.5t-18.5 46zM713 293l-238 551l-237 -551h475zM37 0v74h26l388 895h51l409 -955 l-67 -28l-101 233h-536l-94 -219h-76z" />
<glyph unicode="&#xe5;" d="M475.5 1391q65.5 0 124.5 -56q57 -55 57 -129q0 -72 -57 -127q-59 -55 -125 -55q-63 0 -125 57q-57 55 -57 125q0 74 57 129q60 56 125.5 56zM475 1335q-43 0 -88 -41q-41 -41 -41 -88t41 -88q39 -39 88 -39q45 0 88 39q41 41 41 88t-41 88q-45 41 -88 41zM713 293 l-238 551l-237 -551h475zM37 0v74h26l388 895h51l409 -955l-67 -28l-101 233h-536l-94 -219h-76z" />
<glyph unicode="&#xe6;" horiz-adv-x="1314" d="M1243 0h-586v219h-428l-123 -244l-65 33l477 942h651v-108h-71v37h-367v-367h293v-74h-293v-364h438v37h74v-111zM657 879h-96l-297 -586h393v586z" />
<glyph unicode="&#xe7;" horiz-adv-x="987" d="M475 -174l-47 12l43 154q-172 33 -284.5 169t-112.5 314q0 205 144 349.5t349 144.5q188 0 334 -131l12 -11v-59h-71v27q-123 102 -275 102q-174 0 -298 -124t-124 -298t124 -297t298 -123q180 0 307 133l56 -51q-150 -156 -363 -155q-29 0 -41 2l-22 -84q18 6 55 6 q78 0 125 -52.5t47 -121.5q0 -74 -54 -116t-124 -42q-111 0 -162 86l47 27q35 -57 115 -58q51 0 77.5 32t26.5 77t-25.5 80t-72.5 35q-23 0 -84 -27z" />
<glyph unicode="&#xe8;" horiz-adv-x="876" d="M483 1116l-204 205l53 51l203 -205zM219 879v-367h367v-74h-367v-364h512v37h74v-111h-660v879h-34v71h620v-108h-74v37h-438z" />
<glyph unicode="&#xe9;" horiz-adv-x="876" d="M395 1116l-51 51l203 205l53 -51zM219 879v-367h367v-74h-367v-364h512v37h74v-111h-660v879h-34v71h620v-108h-74v37h-438z" />
<glyph unicode="&#xea;" horiz-adv-x="876" d="M442 1298h-6l-252 -200l-47 55l273 219h59l272 -219l-45 -55zM219 879v-367h367v-74h-367v-364h512v37h74v-111h-660v879h-34v71h620v-108h-74v37h-438z" />
<glyph unicode="&#xeb;" horiz-adv-x="876" d="M594 1216.5q0 26.5 19.5 45t46 18.5t45 -18.5t18.5 -45t-18.5 -46t-45 -19.5t-46 19.5t-19.5 46zM166 1216.5q0 26.5 18.5 45t45 18.5t45 -18.5t18.5 -45t-18.5 -46t-45 -19.5t-45 19.5t-18.5 46zM219 879v-367h367v-74h-367v-364h512v37h74v-111h-660v879h-34v71h620 v-108h-74v37h-438z" />
<glyph unicode="&#xec;" horiz-adv-x="364" d="M217 1116l-203 205l54 51l202 -205zM145 879h-34v71h108v-950h-74v879z" />
<glyph unicode="&#xed;" horiz-adv-x="364" d="M129 1116l-51 51l205 205l51 -51zM145 879h-34v71h108v-950h-74v879z" />
<glyph unicode="&#xee;" horiz-adv-x="364" d="M186 1298h-6l-198 -147l-45 57l217 164h59l217 -164l-45 -57zM145 879h-34v71h108v-950h-74v879z" />
<glyph unicode="&#xef;" horiz-adv-x="364" d="M264 1216.5q0 26.5 19.5 45t46 18.5t45 -18.5t18.5 -45t-18.5 -46t-45 -19.5t-46 19.5t-19.5 46zM-27 1216.5q0 26.5 18.5 45t45 18.5t45 -18.5t18.5 -45t-18.5 -46t-45 -19.5t-45 19.5t-18.5 46zM145 879h-34v71h108v-950h-74v879z" />
<glyph unicode="&#xf0;" horiz-adv-x="1024" d="M219 74h234q176 0 301 116.5t125 284.5t-125 286t-301 118h-234v-367h219v-74h-219v-364zM145 950h304q209 0 355 -138t146 -337t-146.5 -337t-354.5 -138h-304v438h-108v74h108v438z" />
<glyph unicode="&#xf1;" horiz-adv-x="1024" d="M582 1284q41 -18 61 -18q51 0 64 63l10 49l71 -12l-8 -49q-23 -123 -137 -123q-47 0 -86 20l-115 62q-41 18 -61 18q-51 0 -64 -63l-10 -49l-71 12l10 49q23 123 135 123q49 0 88 -20zM231 950l574 -839v839h74v-968h-76l-584 860v-842h-74v879h-34v71h120z" />
<glyph unicode="&#xf2;" horiz-adv-x="1095" d="M631 1116l-205 205l53 51l203 -205zM548.5 969q196.5 0 336 -145.5t139.5 -348.5t-139.5 -348t-336 -145t-335.5 145t-139 348t139 348.5t335.5 145.5zM145 475q0 -174 119 -297t285 -123t283.5 123t117.5 297t-117.5 298t-283.5 124t-285 -124t-119 -298z" />
<glyph unicode="&#xf3;" horiz-adv-x="1095" d="M543 1116l-51 51l202 205l54 -51zM548.5 969q196.5 0 336 -145.5t139.5 -348.5t-139.5 -348t-336 -145t-335.5 145t-139 348t139 348.5t335.5 145.5zM145 475q0 -174 119 -297t285 -123t283.5 123t117.5 297t-117.5 298t-283.5 124t-285 -124t-119 -298z" />
<glyph unicode="&#xf4;" horiz-adv-x="1095" d="M588 1298h-6l-252 -200l-47 55l272 219h59l273 -219l-45 -55zM548.5 969q196.5 0 336 -145.5t139.5 -348.5t-139.5 -348t-336 -145t-335.5 145t-139 348t139 348.5t335.5 145.5zM145 475q0 -174 119 -297t285 -123t283.5 123t117.5 297t-117.5 298t-283.5 124t-285 -124 t-119 -298z" />
<glyph unicode="&#xf5;" horiz-adv-x="1095" d="M655 1284q41 -18 62 -18q51 0 63 63l11 49l71 -12l-8 -49q-23 -123 -137 -123q-47 0 -86 20l-115 62q-41 18 -61 18q-51 0 -64 -63l-10 -49l-72 12l10 49q23 123 136 123q49 0 88 -20zM548.5 969q196.5 0 336 -145.5t139.5 -348.5t-139.5 -348t-336 -145t-335.5 145 t-139 348t139 348.5t335.5 145.5zM145 475q0 -174 119 -297t285 -123t283.5 123t117.5 297t-117.5 298t-283.5 124t-285 -124t-119 -298z" />
<glyph unicode="&#xf6;" horiz-adv-x="1095" d="M739 1216.5q0 26.5 19.5 45t46 18.5t45 -18.5t18.5 -45t-18.5 -46t-45 -19.5t-46 19.5t-19.5 46zM311 1216.5q0 26.5 18.5 45t45 18.5t45 -18.5t18.5 -45t-18.5 -46t-45 -19.5t-45 19.5t-18.5 46zM548.5 969q196.5 0 336 -145.5t139.5 -348.5t-139.5 -348t-336 -145 t-335.5 145t-139 348t139 348.5t335.5 145.5zM145 475q0 -174 119 -297t285 -123t283.5 123t117.5 297t-117.5 298t-283.5 124t-285 -124t-119 -298z" />
<glyph unicode="&#xf7;" horiz-adv-x="657" d="M264 704.5q0 26.5 19.5 45t46 18.5t45 -18.5t18.5 -45t-18.5 -46t-45 -19.5t-46 19.5t-19.5 46zM264 247.5q0 26.5 19.5 45t46 18.5t45 -18.5t18.5 -45t-18.5 -46t-45 -19.5t-46 19.5t-19.5 46zM586 438h-512v74h512v-74z" />
<glyph unicode="&#xf8;" horiz-adv-x="1169" d="M154 -8l-52 51l95 96q-123 141 -123 336q0 213 149.5 362.5t362.5 149.5q190 0 336 -125l94 96l51 -51l-94 -96q125 -145 125 -336q0 -213 -149.5 -362.5t-362.5 -149.5q-193 0 -338 125zM920 760l-619 -619q125 -104 285 -104q180 0 309 129t129 309q0 160 -104 285z M868 811q-121 102 -282 102q-182 0 -311.5 -129t-129.5 -309q0 -158 105 -282z" />
<glyph unicode="&#xf9;" horiz-adv-x="1024" d="M219 348q0 -121 86 -207t207 -86t207 86t86 207v602h74v-602q0 -152 -107.5 -259t-259.5 -107t-259.5 107.5t-107.5 258.5v531h-34v71h108v-602zM557 1116l-205 205l54 51l202 -205z" />
<glyph unicode="&#xfa;" horiz-adv-x="1024" d="M219 348q0 -121 86 -207t207 -86t207 86t86 207v602h74v-602q0 -152 -107.5 -259t-259.5 -107t-259.5 107.5t-107.5 258.5v531h-34v71h108v-602zM469 1116l-51 51l203 205l53 -51z" />
<glyph unicode="&#xfb;" horiz-adv-x="1024" d="M219 348q0 -121 86 -207t207 -86t207 86t86 207v602h74v-602q0 -152 -107.5 -259t-259.5 -107t-259.5 107.5t-107.5 258.5v531h-34v71h108v-602zM514 1298h-6l-252 -200l-47 55l272 219h60l272 -219l-45 -55z" />
<glyph unicode="&#xfc;" horiz-adv-x="1024" d="M668 1216.5q0 26.5 19.5 45t46 18.5t45 -18.5t18.5 -45t-18.5 -46t-45 -19.5t-46 19.5t-19.5 46zM240 1216.5q0 26.5 18 45t45 18.5t45.5 -18.5t18.5 -45t-18.5 -46t-45.5 -19.5t-45 19.5t-18 46zM219 348q0 -121 86 -207t207 -86t207 86t86 207v602h74v-602 q0 -152 -107.5 -259t-259.5 -107t-259.5 107.5t-107.5 258.5v531h-34v71h108v-602z" />
<glyph unicode="&#xfd;" d="M432 1116l-51 51l203 205l53 -51zM139 950l336 -532l352 561l64 -41l-379 -600v-338h-74v338l-340 541h-43v71h84z" />
<glyph unicode="&#xfe;" d="M219 805v-512h309q115 0 196 75.5t81 182t-81 180.5t-196 74h-309zM145 950h74v-71h311q145 0 247 -96.5t102 -233.5t-99.5 -233.5t-238.5 -96.5h-322v-219h-74v950z" />
<glyph unicode="&#xff;" d="M631 1216.5q0 26.5 19.5 45t46 18.5t45 -18.5t18.5 -45t-18.5 -46t-45 -19.5t-46 19.5t-19.5 46zM203 1216.5q0 26.5 18.5 45t45 18.5t45 -18.5t18.5 -45t-18.5 -46t-45 -19.5t-45 19.5t-18.5 46zM139 950l336 -532l352 561l64 -41l-379 -600v-338h-74v338l-340 541h-43 v71h84z" />
<glyph unicode="&#x10c;" horiz-adv-x="1280" d="M770 1626l254 203l45 -57l-272 -218h-60l-272 218l47 57l252 -203h6zM1135 1233q-162 102 -349 102q-264 0 -452.5 -188.5t-188.5 -452.5t188.5 -451.5t452.5 -187.5q207 0 369 117l45 -59q-184 -131 -414 -131q-295 0 -503.5 208.5t-208.5 503.5t209 505t503 210 q219 0 404 -125l16 -12v-66h-71v27z" />
<glyph unicode="&#x10d;" horiz-adv-x="987" d="M551 1188l254 203l45 -58l-272 -217h-60l-272 217l47 58l252 -203h6zM842 795q-123 102 -275 102q-174 0 -298 -124t-124 -298t124 -297t298 -123q180 0 307 133l56 -51q-150 -156 -363 -155q-205 0 -349 144t-144 349t144 349.5t349 144.5q188 0 334 -131l12 -11v-59 h-71v27z" />
<glyph unicode="&#x10e;" horiz-adv-x="1388" d="M625 1626l254 203l45 -57l-273 -218h-59l-273 218l48 57l251 -203h7zM111 1391h512q289 0 491.5 -204t202.5 -492.5t-203 -491.5t-491 -203h-478v1317h-34v74zM219 74h404q258 0 439 181t181 439t-181 440.5t-439 182.5h-404v-1243z" />
<glyph unicode="&#x10f;" horiz-adv-x="1024" d="M479 1188l254 203l45 -58l-272 -217h-60l-272 217l47 58l252 -203h6zM219 74h234q176 0 301 116.5t125 284.5t-125 286t-301 118h-234v-805zM145 879h-34v71h338q209 0 355 -138t146 -337t-146.5 -337t-354.5 -138h-304v879z" />
<glyph unicode="&#x11a;" horiz-adv-x="1169" d="M588 1626l254 203l45 -57l-273 -218h-59l-272 218l47 57l252 -203h6zM950 1317h-731v-586h438v-74h-438v-583h805v37h74v-111h-953v1317h-34v74h913v-111h-74v37z" />
<glyph unicode="&#x11b;" horiz-adv-x="876" d="M442 1188l254 203l45 -58l-272 -217h-59l-273 217l47 58l252 -203h6zM219 879v-367h367v-74h-367v-364h512v37h74v-111h-660v879h-34v71h620v-108h-74v37h-438z" />
<glyph unicode="&#x131;" horiz-adv-x="364" d="M145 879h-34v71h108v-950h-74v879z" />
<glyph unicode="&#x139;" horiz-adv-x="1169" d="M578 1554l-52 52l203 204l53 -51zM219 74h805v37h74v-111h-953v1391h74v-1317z" />
<glyph unicode="&#x13a;" horiz-adv-x="876" d="M731 111h74v-111h-660v950h74v-876h512v37zM395 1116l-51 51l203 205l53 -51z" />
<glyph unicode="&#x13d;" horiz-adv-x="1206" d="M1008 1343q0 27 18 46.5t45 19.5t45.5 -19.5t18.5 -46.5q0 -133 -123 -256l-33 33q74 74 74 164q-45 14 -45 59zM219 74h805v37h74v-111h-953v1391h74v-1317z" />
<glyph unicode="&#x13e;" horiz-adv-x="913" d="M715 958q0 27 18.5 46.5t45 19.5t45 -19.5t18.5 -46.5q0 -133 -123 -256l-33 33q74 74 74 164q-45 14 -45 59zM731 111h74v-111h-660v950h74v-876h512v37z" />
<glyph unicode="&#x147;" horiz-adv-x="1314" d="M698 1626l254 203l45 -57l-272 -218h-59l-273 218l47 57l252 -203h6zM1169 1391v-1391h-71l-879 1264v-1264h-74v1317h-34v74h108l879 -1264v1264h71z" />
<glyph unicode="&#x148;" horiz-adv-x="1024" d="M514 1188l254 203l45 -58l-272 -217h-60l-272 217l47 58l252 -203h6zM231 950l574 -839v839h74v-968h-76l-584 860v-842h-74v879h-34v71h120z" />
<glyph unicode="&#x152;" horiz-adv-x="1755" d="M768 1317q-258 0 -440.5 -182.5t-182.5 -440.5t182.5 -439t440.5 -181h111v1243h-111zM1610 1391v-111h-74v37h-586v-586h367v-74h-367v-583h660v37h71v-111h-913q-289 0 -491.5 203t-202.5 491.5t202.5 492.5t491.5 204h842z" />
<glyph unicode="&#x153;" horiz-adv-x="1314" d="M657 74v805h-86q-176 0 -301 -118t-125 -286t125 -284.5t301 -116.5h86zM1169 111h74v-111h-668q-209 0 -355 138t-146 337t146.5 337t354.5 138h594v-108h-71v37h-367v-367h293v-74h-293v-364h438v37z" />
<glyph unicode="&#x154;" horiz-adv-x="1243" d="M637 602q61 -31 123 -125l213 -332q29 -43 51.5 -57t60.5 -14h84v-74h-84q-57 0 -96 22.5t-78 83.5l-213 330q-68 104 -111.5 127t-185.5 23h-182v-586h-74v1317h-34v74h520q219 0 343 -120t124 -284q0 -160 -122 -270.5t-339 -112.5h-2v-2h2zM631 657q188 0 290.5 98.5 t102.5 231.5t-102.5 231.5t-290.5 98.5h-412v-660h412zM506 1554l-51 52l202 204l54 -51z" />
<glyph unicode="&#x155;" d="M395 1116l-51 51l203 205l53 -51zM455 438q127 0 201.5 70t74.5 162q0 86 -70.5 147.5t-203.5 61.5h-238v-441h236zM852 0q-39 0 -66.5 16.5t-64.5 61.5l-150 182q-6 6 -20 25l-17 22q-3 4 -14.5 16.5t-15.5 14.5t-14.5 10t-17.5 8t-18.5 4.5t-23.5 4.5t-27.5 1t-35.5 1 h-148v-367h-74v879h-34v71h346q166 0 257 -82t91 -196q0 -98 -66.5 -179t-189.5 -108q31 -20 76 -78l151 -182q29 -33 41 -42t35 -9h27v-74h-27z" />
<glyph unicode="&#x158;" horiz-adv-x="1243" d="M551 1626l254 203l45 -57l-272 -218h-60l-272 218l47 57l252 -203h6zM637 602q61 -31 123 -125l213 -332q29 -43 51.5 -57t60.5 -14h84v-74h-84q-57 0 -96 22.5t-78 83.5l-213 330q-68 104 -111.5 127t-185.5 23h-182v-586h-74v1317h-34v74h520q219 0 343 -120t124 -284 q0 -160 -122 -270.5t-339 -112.5h-2v-2h2zM631 657q188 0 290.5 98.5t102.5 231.5t-102.5 231.5t-290.5 98.5h-412v-660h412z" />
<glyph unicode="&#x159;" d="M442 1188l254 203l45 -58l-272 -217h-59l-273 217l47 58l252 -203h6zM455 438q127 0 201.5 70t74.5 162q0 86 -70.5 147.5t-203.5 61.5h-238v-441h236zM852 0q-39 0 -66.5 16.5t-64.5 61.5l-150 182q-6 6 -20 25l-17 22q-3 4 -14.5 16.5t-15.5 14.5t-14.5 10t-17.5 8 t-18.5 4.5t-23.5 4.5t-27.5 1t-35.5 1h-148v-367h-74v879h-34v71h346q166 0 257 -82t91 -196q0 -98 -66.5 -179t-189.5 -108q31 -20 76 -78l151 -182q29 -33 41 -42t35 -9h27v-74h-27z" />
<glyph unicode="&#x160;" horiz-adv-x="1243" d="M621 1624l253 203l46 -58l-273 -217h-59l-273 217l47 58l252 -203h7zM145 229q74 -63 208 -118.5t270 -55.5q227 0 351 79t124 188q0 70 -33 124t-104.5 99t-138 74.5t-183.5 72.5q-248 90 -336 146q-158 102 -158 247q0 141 137.5 232.5t340.5 91.5q117 0 244.5 -42 t217.5 -130l13 -12v-68h-74v37q-76 68 -185.5 104.5t-215.5 36.5q-170 0 -287 -70.5t-117 -179.5q0 -57 30 -102t97.5 -85t134 -68.5t183.5 -69.5q92 -33 141 -52.5t130 -61.5t124 -83t76.5 -104.5t33.5 -136.5q0 -150 -149.5 -245t-396.5 -95q-158 0 -311.5 66.5 t-227.5 139.5l-10 11v67h71v-37z" />
<glyph unicode="&#x161;" d="M479 1188l254 203l45 -58l-272 -217h-60l-272 217l47 58l252 -203h6zM145 172q102 -117 330 -117q160 0 245 53.5t85 120.5q0 72 -67.5 123t-165.5 82l-194 65q-97 34 -165 94t-68 146q0 90 100.5 160t229.5 70q201 0 320 -117l10 -10v-56h-74v25q-98 86 -256 86 q-104 0 -180 -53t-76 -105q0 -68 67.5 -113.5t165 -76.5t194.5 -65.5t165 -98t68 -156.5q0 -111 -111 -179t-293 -68q-272 0 -395 155l-6 8v56h71v-29z" />
<glyph unicode="&#x164;" horiz-adv-x="1243" d="M625 1628l254 201l45 -57l-273 -218h-59l-273 218l48 57l251 -201h7zM74 1391h1095v-111h-71v37h-441v-1317h-71v1317h-441v-37h-71v111z" />
<glyph unicode="&#x165;" d="M479 1188l254 203l45 -58l-272 -217h-60l-272 217l47 58l252 -203h6zM74 950h805v-108h-74v37h-293v-879h-74v879h-293v-37h-71v108z" />
<glyph unicode="&#x16e;" horiz-adv-x="1314" d="M657.5 1829q67.5 0 125 -55.5t57.5 -128.5q0 -72 -57.5 -127.5t-125.5 -55.5q-63 0 -125 58q-57 55 -57 125q0 74 57.5 129t125 55zM657 1774q-43 0 -88 -41q-41 -41 -41 -88.5t41 -88.5q39 -39 88 -38q45 0 88 38q41 41 41 88.5t-41 88.5q-45 41 -88 41zM219 1391v-897 q0 -182 128 -310.5t310.5 -128.5t311.5 129t129 310v897h71v-897q0 -211 -150.5 -361.5t-361.5 -150.5t-361.5 150.5t-150.5 361.5v823h-34v74h108z" />
<glyph unicode="&#x16f;" horiz-adv-x="1024" d="M512 1391q66 0 125 -56q57 -55 57 -129q0 -72 -57 -127q-59 -55 -125 -55q-63 0 -125 57q-57 55 -57 125q0 74 57 129q59 56 125 56zM512 1335q-43 0 -88 -41q-41 -41 -41 -88t41 -88q39 -39 88 -39q45 0 88 39q41 41 41 88t-41 88q-45 41 -88 41zM219 348 q0 -121 86 -207t207 -86t207 86t86 207v602h74v-602q0 -152 -107.5 -259t-259.5 -107t-259.5 107.5t-107.5 258.5v531h-34v71h108v-602z" />
<glyph unicode="&#x178;" horiz-adv-x="1243" d="M776 1654.5q0 26.5 19.5 45t46 18.5t45 -18.5t18.5 -45t-18.5 -46t-45 -19.5t-46 19.5t-19.5 46zM348 1654.5q0 26.5 18.5 45t45 18.5t45 -18.5t18.5 -45t-18.5 -46t-45 -19.5t-45 19.5t-18.5 46zM623 584l495 821l64 -37l-525 -868v-500h-71v500l-496 817h-35v74h74 l492 -807h2z" />
<glyph unicode="&#x17d;" horiz-adv-x="1169" d="M588 1626l254 203l45 -57l-273 -218h-59l-272 218l47 57l252 -203h6zM1061 1391v-50l-881 -1265h-2v-2h846v37h74v-111h-1024v47l878 1268h2v2h-772v-37h-71v111h950z" />
<glyph unicode="&#x17e;" horiz-adv-x="876" d="M442 1188l254 203l45 -58l-272 -217h-59l-273 217l47 58l252 -203h6zM786 903l-618 -829h563v37h74v-111h-750v43l621 836h-512v-37h-72v108h694v-47z" />
<glyph unicode="&#x192;" horiz-adv-x="1021" d="M512 -164q0 -115 -80 -194.5t-194 -79.5q-152 0 -232 127l-6 10v45h74v-25q61 -86 164 -86q82 0 141 59.5t59 143.5v895h-219v74h219v274q0 113 80 194t195 81q150 0 231 -129l6 -8v-48h-71v25q-61 86 -166 86q-82 0 -141.5 -58.5t-59.5 -142.5v-274h293v-74h-293v-895z " />
<glyph unicode="&#x2c6;" horiz-adv-x="802" d="M406 1298h-7l-254 -200l-45 55l273 219h59l273 -219l-48 -55z" />
<glyph unicode="&#x2c7;" horiz-adv-x="802" d="M406 1188l251 203l48 -58l-273 -217h-59l-273 217l45 58l254 -203h7z" />
<glyph unicode="&#x2d8;" horiz-adv-x="583" d="M292.5 1243q147.5 0 221.5 113l59 -43q-98 -143 -280 -144q-184 0 -283 144l62 43q73 -113 220.5 -113z" />
<glyph unicode="&#x2d9;" horiz-adv-x="290" d="M82 1253.5q0 26.5 18.5 45t45 18.5t46 -18.5t19.5 -45t-19.5 -46t-46 -19.5t-45 19.5t-18.5 46z" />
<glyph unicode="&#x2da;" horiz-adv-x="512" d="M256 1391q68 0 125 -55.5t57 -129.5q0 -72 -57 -127t-125 -55q-63 0 -125 57q-57 55 -57 125q0 74 57 129.5t125 55.5zM256 1335q-43 0 -88 -41q-41 -41 -41 -88t41 -88q39 -39 88 -39q45 0 88 39q41 41 41 88t-41 88q-45 41 -88 41z" />
<glyph unicode="&#x2db;" horiz-adv-x="512" d="M145 -203q0 -35 24 -62.5t81 -27.5q43 0 80 23l37 -62q-53 -35 -117 -35q-82 0 -129 47.5t-47 116.5q0 55 28.5 96t61.5 60.5t110.5 58.5t122.5 66l21 -41l-77 -44l-66 -37q-19 -11 -47.5 -29.5t-39 -29t-22.5 -27.5t-16.5 -33.5t-4.5 -39.5z" />
<glyph unicode="&#x2dc;" horiz-adv-x="583" d="M362 1284q41 -18 62 -18q51 0 63 63l11 49l71 -12l-10 -49q-23 -123 -135 -123q-49 0 -88 20l-113 62q-41 18 -61 18q-51 0 -64 -63l-10 -49l-72 12l9 49q23 123 137 123q47 0 86 -20z" />
<glyph unicode="&#x2dd;" horiz-adv-x="876" d="M606 1116l-53 51l205 205l51 -51zM240 1116l-54 51l205 205l51 -51z" />
<glyph unicode="&#x2000;" horiz-adv-x="913" />
<glyph unicode="&#x2001;" horiz-adv-x="1828" />
<glyph unicode="&#x2002;" horiz-adv-x="913" />
<glyph unicode="&#x2003;" horiz-adv-x="1828" />
<glyph unicode="&#x2004;" horiz-adv-x="608" />
<glyph unicode="&#x2005;" horiz-adv-x="456" />
<glyph unicode="&#x2006;" horiz-adv-x="303" />
<glyph unicode="&#x2007;" horiz-adv-x="303" />
<glyph unicode="&#x2008;" horiz-adv-x="227" />
<glyph unicode="&#x2009;" horiz-adv-x="364" />
<glyph unicode="&#x200a;" horiz-adv-x="100" />
<glyph unicode="&#x2010;" horiz-adv-x="657" d="M586 512h-512v74h512v-74z" />
<glyph unicode="&#x2011;" horiz-adv-x="657" d="M586 512h-512v74h512v-74z" />
<glyph unicode="&#x2012;" horiz-adv-x="657" d="M586 512h-512v74h512v-74z" />
<glyph unicode="&#x2013;" d="M879 512h-805v74h805v-74z" />
<glyph unicode="&#x2014;" horiz-adv-x="1826" d="M1755 512h-1681v74h1681v-74z" />
<glyph unicode="&#x2018;" horiz-adv-x="364" d="M256 1188q0 -27 -18.5 -45.5t-45 -18.5t-46 18.5t-19.5 45.5q0 133 123 256l33 -33q-72 -72 -72 -162q18 -6 31.5 -23.5t13.5 -37.5z" />
<glyph unicode="&#x2019;" horiz-adv-x="364" d="M111 1380q0 27 18 45.5t45 18.5t45.5 -18.5t18.5 -45.5q0 -133 -123 -256l-33 33q74 74 74 164q-45 14 -45 59z" />
<glyph unicode="&#x201a;" horiz-adv-x="364" d="M111 45q0 27 18 46.5t45 19.5t45.5 -19.5t18.5 -46.5q0 -133 -123 -256l-33 33q74 74 74 164q-45 14 -45 59z" />
<glyph unicode="&#x201c;" horiz-adv-x="583" d="M256 1188q0 -27 -18.5 -45.5t-45 -18.5t-46 18.5t-19.5 45.5q0 133 123 256l33 -33q-72 -72 -72 -162q18 -6 31.5 -23.5t13.5 -37.5zM475 1188q0 -27 -18.5 -45.5t-45 -18.5t-45 18.5t-18.5 45.5q0 135 121 256l35 -33q-74 -74 -74 -162q18 -6 31.5 -23.5t13.5 -37.5z " />
<glyph unicode="&#x201d;" horiz-adv-x="583" d="M330 1380q0 27 18.5 45.5t45 18.5t45 -18.5t18.5 -45.5q0 -133 -123 -256l-33 33q74 74 74 164q-45 14 -45 59zM111 1380q0 27 18 45.5t45 18.5t45.5 -18.5t18.5 -45.5q0 -133 -123 -256l-33 33q74 74 74 164q-45 14 -45 59z" />
<glyph unicode="&#x201e;" horiz-adv-x="583" d="M330 45q0 27 18.5 46.5t45 19.5t45 -19.5t18.5 -46.5q0 -133 -123 -256l-33 33q74 74 74 164q-45 14 -45 59zM111 45q0 27 18 46.5t45 19.5t45.5 -19.5t18.5 -46.5q0 -133 -123 -256l-33 33q74 74 74 164q-45 14 -45 59z" />
<glyph unicode="&#x2020;" horiz-adv-x="1095" d="M74 860v109l438 -19l-18 441h110l-18 -441l438 19v-109l-438 19l18 -1172h-110l18 1172z" />
<glyph unicode="&#x2021;" horiz-adv-x="1095" d="M74 860v109l438 -19l-18 441h110l-18 -441l438 19v-109l-438 19v-330v-330l438 19v-111l-438 18l18 -438h-110l18 438l-438 -18v111l438 -19v330v330z" />
<glyph unicode="&#x2022;" horiz-adv-x="512" d="M74 475q0 76 53 129t129 53t129 -53t53 -129t-53 -129t-129 -53t-129 53t-53 129z" />
<glyph unicode="&#x2026;" d="M694 45q0 27 19.5 46.5t46 19.5t45 -19.5t18.5 -46.5t-18.5 -45t-45 -18t-46 18t-19.5 45zM401 45q0 27 19.5 46.5t46.5 19.5t45 -19.5t18 -46.5t-18 -45t-45 -18t-46.5 18t-19.5 45zM111 45q0 27 18 46.5t45 19.5t45.5 -19.5t18.5 -46.5t-18.5 -45t-45.5 -18t-45 18 t-18 45z" />
<glyph unicode="&#x202f;" horiz-adv-x="364" />
<glyph unicode="&#x2030;" horiz-adv-x="1607" d="M1354 293q-57 0 -84 -34t-27 -77q0 -25 7 -46t34 -41.5t70 -20.5q109 0 108 108q1 111 -108 111zM1536 182q0 -70 -43 -126t-139.5 -56t-140.5 56.5t-44 125.5q0 74 47.5 129.5t137.5 55.5t136 -55.5t46 -129.5zM211 49l-55 47l704 805l53 -47zM256 879q-57 0 -84 -34 t-27 -77q0 -25 7.5 -47.5t34 -43t69.5 -20.5q61 0 86 35t25 76q0 43 -26 77t-85 34zM438 768q0 -70 -43 -126t-139 -56t-139 56t-43 126q0 74 46 128t136 54t136 -54t46 -128zM842 293q-57 0 -84 -34t-27 -77q0 -25 7 -46t34 -41.5t70 -20.5q109 0 108 108q1 111 -108 111z M1024 182q0 -70 -43 -126t-139.5 -56t-140.5 56.5t-44 125.5q0 74 47.5 129.5t137.5 55.5t136 -55.5t46 -129.5z" />
<glyph unicode="&#x2039;" horiz-adv-x="438" d="M127 477v-6l240 -287l-58 -45l-254 307v58l254 311l58 -47z" />
<glyph unicode="&#x203a;" horiz-adv-x="438" d="M311 477l-237 291l55 47l256 -311v-58l-256 -307l-55 45l237 287v6z" />
<glyph unicode="&#x205f;" horiz-adv-x="456" />
<glyph unicode="&#x20ac;" horiz-adv-x="1095" d="M981 98q-139 -117 -324 -116q-145 0 -259.5 97t-157.5 251h-166l8 71h143q-6 37 -6 74t6 74h-114l8 74h121q43 152 157.5 249t259.5 97q205 0 336 -119l13 -10v-90h-74v57q-109 90 -275 90q-115 0 -209 -77t-133 -197h445l-10 -74h-451q-6 -37 -6 -74t6 -74h424l-10 -71 h-398q39 -121 133.5 -198t208.5 -77q158 0 275 101z" />
<glyph unicode="&#x2122;" horiz-adv-x="3217" d="M1354 74h20l164 1331h59l633 -1327l633 1327h61l185 -1401l-72 -10l-166 1253l-604 -1265h-72l-602 1263l-153 -1245h-86v74zM74 1391h1095v-111h-71v37h-441v-1317h-71v1317h-441v-37h-71v111z" />
<glyph unicode="&#x2260;" horiz-adv-x="802" d="M723 1046l64 -41l-707 -1102l-61 39zM731 293h-657v74h657v-74zM731 586h-657v71h657v-71z" />
<glyph unicode="&#xe000;" horiz-adv-x="975" d="M0 975h975v-975h-975v975z" />
<glyph unicode="&#xfb01;" horiz-adv-x="1241" d="M1096 0h-74v950h74v-950zM145 879h-34v71h694v-108h-74v37h-512v-367h367v-74h-367v-438h-74v879z" />
<glyph unicode="&#xfb02;" horiz-adv-x="1753" d="M1608 111h74v-111h-660v950h74v-876h512v37zM145 879h-34v71h694v-108h-74v37h-512v-367h367v-74h-367v-438h-74v879z" />
<glyph unicode="&#xfb03;" horiz-adv-x="2117" d="M1972 0h-74v950h74v-950zM1022 879h-34v71h694v-108h-74v37h-512v-367h367v-74h-367v-438h-74v879zM145 879h-34v71h694v-108h-74v37h-512v-367h367v-74h-367v-438h-74v879z" />
<glyph unicode="&#xfb04;" horiz-adv-x="2629" d="M2484 111h74v-111h-660v950h74v-876h512v37zM1022 879h-34v71h694v-108h-74v37h-512v-367h367v-74h-367v-438h-74v879zM145 879h-34v71h694v-108h-74v37h-512v-367h367v-74h-367v-438h-74v879z" />
</font>
</defs>
</svg>
