<?xml version="1.0" encoding="UTF-8" standalone="no"?>
<!-- Created with Inkscape (http://www.inkscape.org/) -->

<svg
   xmlns:dc="http://purl.org/dc/elements/1.1/"
   xmlns:cc="http://creativecommons.org/ns#"
   xmlns:rdf="http://www.w3.org/1999/02/22-rdf-syntax-ns#"
   xmlns:svg="http://www.w3.org/2000/svg"
   xmlns="http://www.w3.org/2000/svg"
   xmlns:xlink="http://www.w3.org/1999/xlink"
   xmlns:sodipodi="http://sodipodi.sourceforge.net/DTD/sodipodi-0.dtd"
   xmlns:inkscape="http://www.inkscape.org/namespaces/inkscape"
   width="32"
   height="32"
   id="svg2844"
   version="1.1"
   inkscape:version="0.48.1 r9760"
   sodipodi:docname="HidePath.svg"
   inkscape:export-filename="/home/ra100/Develop/NetBeansProjects/Diplomovka/Cyd/data/prep/HidePath.png"
   inkscape:export-xdpi="90"
   inkscape:export-ydpi="90">
  <defs
     id="defs2846">
    <linearGradient
       id="linearGradient3799">
      <stop
         style="stop-color:#e9ddaf;stop-opacity:1;"
         offset="0"
         id="stop3801" />
      <stop
         style="stop-color:#dce9af;stop-opacity:1;"
         offset="1"
         id="stop3803" />
    </linearGradient>
    <marker
       inkscape:stockid="Arrow1Send"
       orient="auto"
       refY="0"
       refX="0"
       id="Arrow1Send"
       style="overflow:visible">
      <path
         id="path3816"
         d="M 0,0 5,-5 -12.5,0 5,5 0,0 z"
         style="fill-rule:evenodd;stroke:#000000;stroke-width:1pt;marker-start:none"
         transform="matrix(-0.2,0,0,-0.2,-1.2,0)"
         inkscape:connector-curvature="0" />
    </marker>
    <marker
       inkscape:stockid="Arrow1Sstart"
       orient="auto"
       refY="0"
       refX="0"
       id="Arrow1Sstart"
       style="overflow:visible">
      <path
         id="path3813"
         d="M 0,0 5,-5 -12.5,0 5,5 0,0 z"
         style="fill-rule:evenodd;stroke:#000000;stroke-width:1pt;marker-start:none"
         transform="matrix(0.2,0,0,0.2,1.2,0)"
         inkscape:connector-curvature="0" />
    </marker>
    <marker
       inkscape:stockid="Arrow1Lstart"
       orient="auto"
       refY="0"
       refX="0"
       id="Arrow1Lstart"
       style="overflow:visible">
      <path
         id="path3801"
         d="M 0,0 5,-5 -12.5,0 5,5 0,0 z"
         style="fill-rule:evenodd;stroke:#000000;stroke-width:1pt;marker-start:none"
         transform="matrix(0.8,0,0,0.8,10,0)"
         inkscape:connector-curvature="0" />
    </marker>
    <linearGradient
       id="linearGradient3758">
      <stop
         style="stop-color:#8cd35f;stop-opacity:1;"
         offset="0"
         id="stop3760" />
      <stop
         style="stop-color:#92b979;stop-opacity:1;"
         offset="1"
         id="stop3762" />
    </linearGradient>
    <inkscape:perspective
       sodipodi:type="inkscape:persp3d"
       inkscape:vp_x="0 : 16 : 1"
       inkscape:vp_y="0 : 1000 : 0"
       inkscape:vp_z="32 : 16 : 1"
       inkscape:persp3d-origin="16 : 10.666667 : 1"
       id="perspective2852" />
    <inkscape:perspective
       id="perspective2852-6"
       inkscape:persp3d-origin="16 : 10.666667 : 1"
       inkscape:vp_z="32 : 16 : 1"
       inkscape:vp_y="0 : 1000 : 0"
       inkscape:vp_x="0 : 16 : 1"
       sodipodi:type="inkscape:persp3d" />
    <linearGradient
       inkscape:collect="always"
       xlink:href="#linearGradient3799"
       id="linearGradient3805"
       x1="26.64946"
       y1="24.937511"
       x2="5.425725"
       y2="2.0783246"
       gradientUnits="userSpaceOnUse" />
  </defs>
  <sodipodi:namedview
     id="base"
     pagecolor="#828986"
     bordercolor="#666666"
     borderopacity="0"
     inkscape:pageopacity="0"
     inkscape:pageshadow="2"
     inkscape:zoom="0.98975521"
     inkscape:cx="-21.578156"
     inkscape:cy="55.031014"
     inkscape:current-layer="layer1"
     showgrid="true"
     inkscape:grid-bbox="true"
     inkscape:document-units="px"
     inkscape:window-width="1878"
     inkscape:window-height="1060"
     inkscape:window-x="40"
     inkscape:window-y="-3"
     inkscape:window-maximized="1"
     fit-margin-top="0"
     fit-margin-left="0"
     fit-margin-right="0"
     fit-margin-bottom="0" />
  <metadata
     id="metadata2849">
    <rdf:RDF>
      <cc:Work
         rdf:about="">
        <dc:format>image/svg+xml</dc:format>
        <dc:type
           rdf:resource="http://purl.org/dc/dcmitype/StillImage" />
        <dc:title></dc:title>
      </cc:Work>
    </rdf:RDF>
  </metadata>
  <g
     id="layer1"
     inkscape:label="Layer 1"
     inkscape:groupmode="layer"
     transform="translate(-0.07225768,3.5083484)">
    <rect
       inkscape:label="#br"
       ry="5.1780481"
       y="-3.4606857"
       x="0.072257683"
       height="31.952337"
       width="31.826044"
       id="bg"
       style="fill:#74adb9;fill-opacity:0.46276598;stroke:none" />
    <path
       style="fill:url(#linearGradient3805);fill-opacity:1;stroke:#000000;stroke-width:1;stroke-linejoin:round;stroke-miterlimit:4;stroke-opacity:1"
       d="m 2.1432777,-1.2775761 7.9042363,2.7285795 9.02738,-3.4321301 11.109602,3.0557742 -1.428852,13.2269005 0.669774,12.036795 -10.451702,-2.119571 -8.54981,3.388959 -8.2806283,-2.728579 1.4288518,-11.381334 z"
       id="rect2988"
       inkscape:connector-curvature="0"
       sodipodi:nodetypes="ccccccccccc" />
    <path
       id="path3777"
       style="fill:none;stroke:#a7ac93;stroke-width:1px;stroke-linecap:round;stroke-linejoin:miter;stroke-opacity:1"
       d="m 4.4205104,13.319212 c 0.357213,0 6.7423946,0.312562 6.7423946,0.312562 l 6.965653,-2.232581 9.64475,2.589794 M 19.066242,-0.88000323 18.217861,11.354541 19.021591,23.45513 M 10.091266,2.2902618 11.118253,13.631773 10.403827,26.580743"
       inkscape:connector-curvature="0"
       sodipodi:nodetypes="cccccccccc" />
    <path
       style="fill:none;stroke:#ff0000;stroke-width:2;stroke-linecap:butt;stroke-linejoin:round;stroke-opacity:1;stroke-miterlimit:4;stroke-dasharray:2, 2;stroke-dashoffset:0;opacity:0.49315068"
       d="m 6.4409865,24.296075 3.8169865,1.813575 3.634351,0.586008 4.472905,-4.632246 1.841788,-0.79839 -1.834648,-0.728593 -3.97487,-1.039521 3.687102,-3.086146 1.609385,-1.39777 4.743875,-2.020217 -6.019235,-3.2838589 -5.284065,-0.9469852"
       id="path3832"
       inkscape:connector-curvature="0"
       transform="translate(0.07225768,-3.5083484)"
       sodipodi:nodetypes="cccccccccccc" />
    <path
       style="fill:#1033ff;fill-opacity:1;stroke:none"
       d="m 7.5907754,20.619752 c 0,0.678162 -0.5497584,1.22792 -1.2279196,1.22792 -0.6781613,0 -1.2279196,-0.549758 -1.2279196,-1.22792 0,-0.678161 0.5497583,-1.227919 1.2279196,-1.227919 0.6781612,0 1.2279196,0.549758 1.2279196,1.227919 z"
       id="path3780"
       inkscape:connector-curvature="0" />
    <path
       style="fill:#1033ff;fill-opacity:1;stroke:none"
       d="m 15.44946,16.199241 c 0,0.678162 -0.549758,1.22792 -1.227919,1.22792 -0.678161,0 -1.22792,-0.549758 -1.22792,-1.22792 0,-0.678161 0.549759,-1.227919 1.22792,-1.227919 0.678161,0 1.227919,0.549758 1.227919,1.227919 z"
       id="path3782"
       inkscape:connector-curvature="0" />
    <path
       style="fill:#1033ff;fill-opacity:1;stroke:none"
       d="m 14.288518,5.5721556 c 0,0.678162 -0.549758,1.22792 -1.227919,1.22792 -0.678161,0 -1.22792,-0.549758 -1.22792,-1.22792 0,-0.678161 0.549759,-1.227919 1.22792,-1.227919 0.678161,0 1.227919,0.549758 1.227919,1.227919 z"
       id="path3784"
       inkscape:connector-curvature="0" />
    <path
       style="fill:#1033ff;fill-opacity:1;stroke:none"
       d="m 8.0819432,6.2865815 c 0,0.678162 -0.5497584,1.22792 -1.2279196,1.22792 -0.6781613,0 -1.2279196,-0.549758 -1.2279196,-1.22792 0,-0.678161 0.5497583,-1.227919 1.2279196,-1.227919 0.6781612,0 1.2279196,0.549758 1.2279196,1.227919 z"
       id="path3786"
       inkscape:connector-curvature="0" />
    <path
       style="fill:#1033ff;fill-opacity:1;stroke:none"
       d="m 15.226202,22.986287 c 0,0.678162 -0.549758,1.22792 -1.227919,1.22792 -0.678162,0 -1.22792,-0.549758 -1.22792,-1.22792 0,-0.678161 0.549758,-1.227919 1.22792,-1.227919 0.678161,0 1.227919,0.549758 1.227919,1.227919 z"
       id="path3788"
       inkscape:connector-curvature="0" />
    <path
       style="fill:#1033ff;fill-opacity:1;stroke:none"
       d="m 26.612365,22.048603 c 0,0.678162 -0.549758,1.22792 -1.227919,1.22792 -0.678162,0 -1.22792,-0.549758 -1.22792,-1.22792 0,-0.678161 0.549758,-1.227919 1.22792,-1.227919 0.678161,0 1.227919,0.549758 1.227919,1.227919 z"
       id="path3790"
       inkscape:connector-curvature="0" />
    <path
       style="fill:#1033ff;fill-opacity:1;stroke:none"
       d="m 21.656035,17.762048 c 0,0.678162 -0.549758,1.22792 -1.227919,1.22792 -0.678162,0 -1.22792,-0.549758 -1.22792,-1.22792 0,-0.678161 0.549758,-1.227919 1.22792,-1.227919 0.678161,0 1.227919,0.549758 1.227919,1.227919 z"
       id="path3792"
       inkscape:connector-curvature="0" />
    <g
       inkscape:label="Layer 1"
       id="layer1-7"
       transform="translate(0.07225797,-0.00910372)" />
    <path
       inkscape:connector-curvature="0"
       id="path3826"
       d="m 25.697438,9.4266537 c 0,0.6781623 -0.549758,1.2279203 -1.227919,1.2279203 -0.678162,0 -1.22792,-0.549758 -1.22792,-1.2279203 0,-0.678161 0.549758,-1.227919 1.22792,-1.227919 0.678161,0 1.227919,0.549758 1.227919,1.227919 z"
       style="fill:#1033ff;fill-opacity:1;stroke:none" />
  </g>
</svg>
