<?xml version="1.0" encoding="UTF-8" standalone="no"?>
<!-- Created with Inkscape (http://www.inkscape.org/) -->

<svg
   xmlns:dc="http://purl.org/dc/elements/1.1/"
   xmlns:cc="http://creativecommons.org/ns#"
   xmlns:rdf="http://www.w3.org/1999/02/22-rdf-syntax-ns#"
   xmlns:svg="http://www.w3.org/2000/svg"
   xmlns="http://www.w3.org/2000/svg"
   xmlns:sodipodi="http://sodipodi.sourceforge.net/DTD/sodipodi-0.dtd"
   xmlns:inkscape="http://www.inkscape.org/namespaces/inkscape"
   width="323.89001"
   height="215.27982"
   id="svg2"
   version="1.1"
   inkscape:version="0.48.0 r9654"
   sodipodi:docname="Message.svg">
  <defs
     id="defs4">
    <marker
       inkscape:stockid="Arrow2Mstart"
       orient="auto"
       refY="0"
       refX="0"
       id="Arrow2Mstart"
       style="overflow:visible">
      <path
         id="path3795"
         style="font-size:12px;fill-rule:evenodd;stroke-width:0.625;stroke-linejoin:round"
         d="M 8.7185878,4.0337352 -2.2072895,0.01601326 8.7185884,-4.0017078 c -1.7454984,2.3720609 -1.7354408,5.6174519 -6e-7,8.035443 z"
         transform="scale(0.6,0.6)"
         inkscape:connector-curvature="0" />
    </marker>
    <marker
       inkscape:stockid="Arrow1Lstart"
       orient="auto"
       refY="0"
       refX="0"
       id="Arrow1Lstart"
       style="overflow:visible">
      <path
         id="path3771"
         d="M 0,0 5,-5 -12.5,0 5,5 0,0 z"
         style="fill-rule:evenodd;stroke:#000000;stroke-width:1pt;marker-start:none"
         transform="matrix(0.8,0,0,0.8,10,0)"
         inkscape:connector-curvature="0" />
    </marker>
    <marker
       inkscape:stockid="Arrow1Lend"
       orient="auto"
       refY="0"
       refX="0"
       id="Arrow1Lend"
       style="overflow:visible">
      <path
         id="path3774"
         d="M 0,0 5,-5 -12.5,0 5,5 0,0 z"
         style="fill-rule:evenodd;stroke:#000000;stroke-width:1pt;marker-start:none"
         transform="matrix(-0.8,0,0,-0.8,-10,0)"
         inkscape:connector-curvature="0" />
    </marker>
    <inkscape:perspective
       id="perspective3642"
       inkscape:persp3d-origin="372.04724 : 350.78739 : 1"
       inkscape:vp_z="744.09448 : 526.18109 : 1"
       inkscape:vp_y="0 : 1000 : 0"
       inkscape:vp_x="0 : 526.18109 : 1"
       sodipodi:type="inkscape:persp3d" />
    <inkscape:perspective
       id="perspective2852"
       inkscape:persp3d-origin="16 : 10.666667 : 1"
       inkscape:vp_z="32 : 16 : 1"
       inkscape:vp_y="0 : 1000 : 0"
       inkscape:vp_x="0 : 16 : 1"
       sodipodi:type="inkscape:persp3d" />
  </defs>
  <sodipodi:namedview
     id="base"
     pagecolor="#6b8696"
     bordercolor="#666666"
     borderopacity="1.0"
     inkscape:pageopacity="0.58039216"
     inkscape:pageshadow="2"
     inkscape:zoom="2"
     inkscape:cx="124.66062"
     inkscape:cy="98.818281"
     inkscape:document-units="px"
     inkscape:current-layer="layer1"
     showgrid="false"
     inkscape:window-width="1878"
     inkscape:window-height="1060"
     inkscape:window-x="40"
     inkscape:window-y="-3"
     inkscape:window-maximized="1"
     fit-margin-top="0"
     fit-margin-left="0"
     fit-margin-right="0"
     fit-margin-bottom="0" />
  <metadata
     id="metadata7">
    <rdf:RDF>
      <cc:Work
         rdf:about="">
        <dc:format>image/svg+xml</dc:format>
        <dc:type
           rdf:resource="http://purl.org/dc/dcmitype/StillImage" />
        <dc:title></dc:title>
      </cc:Work>
    </rdf:RDF>
  </metadata>
  <g
     inkscape:label="Layer 1"
     inkscape:groupmode="layer"
     id="layer1"
     transform="translate(-203.25243,-421.8354)">
    <g
       inkscape:label="Layer 1"
       id="g2999"
       transform="matrix(-1,0,0,1,527.13778,-440.9018)">
      <path
         id="path3001"
         transform="translate(0,1000.3622)"
         style="font-size:medium;font-style:normal;font-variant:normal;font-weight:normal;font-stretch:normal;text-indent:0;text-align:start;text-decoration:none;line-height:normal;letter-spacing:normal;word-spacing:normal;text-transform:none;direction:ltr;block-progression:tb;writing-mode:lr-tb;text-anchor:start;color:#000000;fill:#ffffff;fill-opacity:0.56613758000000003;stroke:none;stroke-width:0;marker:none;visibility:visible;display:inline;overflow:visible;enable-background:accumulate;font-family:Bitstream Vera Sans;-inkscape-font-specification:Bitstream Vera Sans;stroke-miterlimit:4;stroke-dasharray:none;marker-start:none;marker-mid:none;marker-end:none"
         d="m 323.88535,69.498563 c 0,-77.7708325 0,-121.19648 0,-198.967313 0,-4.5045 -3.65174,-8.15625 -8.16845,-8.15625 l -307.56633,0 c -4.50451,0 -8.15625,3.65175 -8.15625,8.15625 0,77.770833 0,121.1964805 0,198.967313 0,4.5045 3.65174,8.15625 8.15625,8.15625 l 307.56633,0 c 4.51671,0 8.16845,-3.65175 8.16845,-8.15625 z M 8.15057,74.967313 c -3.05298,0 -5.46875,-2.41585 -5.46875,-5.46875 0,-77.7708325 0,-121.19648 0,-198.967313 0,-3.0529 2.41577,-5.46875 5.46875,-5.46875 l 307.56633,0 c 3.06518,0 5.48095,2.41585 5.48095,5.46875 0,77.770833 0,121.1964805 0,198.967313 0,3.0529 -2.41577,5.46875 -5.48095,5.46875 z"
         inkscape:connector-curvature="0"
         sodipodi:nodetypes="cccscccccscccccccs" />
    </g>
    <path
       style="font-size:medium;font-style:normal;font-variant:normal;font-weight:normal;font-stretch:normal;text-indent:0;text-align:start;text-decoration:none;line-height:normal;letter-spacing:normal;word-spacing:normal;text-transform:none;direction:ltr;block-progression:tb;writing-mode:lr-tb;text-anchor:start;color:#000000;fill:#000000;fill-opacity:0.40740738999999998;stroke:none;stroke-width:0;marker:none;visibility:visible;display:inline;overflow:visible;enable-background:accumulate;font-family:Bitstream Vera Sans;-inkscape-font-specification:Bitstream Vera Sans;stroke-miterlimit:4;stroke-dasharray:none;stroke-opacity:1;marker-start:none;marker-mid:none;marker-end:none"
       d="m 211.41964,424.53125 c -3.06518,0 -5.46875,2.41585 -5.46875,5.46875 l 0,198.96875 c 0,3.0529 2.40357,5.46875 5.46875,5.46875 l 307.5625,0 c 3.05298,0 5.46875,-2.41585 5.46875,-5.46875 l 0,-198.96875 c 0,-3.0529 -2.41577,-5.46875 -5.46875,-5.46875 z"
       id="path3010"
       inkscape:connector-curvature="0"
       sodipodi:nodetypes="sssssssss" />
  </g>
</svg>
