<?xml version="1.0" encoding="UTF-8" standalone="no"?>
<!-- Created with Inkscape (http://www.inkscape.org/) -->

<svg
   xmlns:dc="http://purl.org/dc/elements/1.1/"
   xmlns:cc="http://creativecommons.org/ns#"
   xmlns:rdf="http://www.w3.org/1999/02/22-rdf-syntax-ns#"
   xmlns:svg="http://www.w3.org/2000/svg"
   xmlns="http://www.w3.org/2000/svg"
   xmlns:sodipodi="http://sodipodi.sourceforge.net/DTD/sodipodi-0.dtd"
   xmlns:inkscape="http://www.inkscape.org/namespaces/inkscape"
   width="323.89102"
   height="215.27982"
   id="svg2"
   version="1.1"
   inkscape:version="0.48.0 r9654"
   sodipodi:docname="New document 1">
  <defs
     id="defs4">
    <inkscape:perspective
       id="perspective3642"
       inkscape:persp3d-origin="372.04724 : 350.78739 : 1"
       inkscape:vp_z="744.09448 : 526.18109 : 1"
       inkscape:vp_y="0 : 1000 : 0"
       inkscape:vp_x="0 : 526.18109 : 1"
       sodipodi:type="inkscape:persp3d" />
    <inkscape:perspective
       id="perspective2852"
       inkscape:persp3d-origin="16 : 10.666667 : 1"
       inkscape:vp_z="32 : 16 : 1"
       inkscape:vp_y="0 : 1000 : 0"
       inkscape:vp_x="0 : 16 : 1"
       sodipodi:type="inkscape:persp3d" />
  </defs>
  <sodipodi:namedview
     id="base"
     pagecolor="#6b8696"
     bordercolor="#666666"
     borderopacity="1.0"
     inkscape:pageopacity="0.58039216"
     inkscape:pageshadow="2"
     inkscape:zoom="0.98994949"
     inkscape:cx="187.82228"
     inkscape:cy="114.71715"
     inkscape:document-units="px"
     inkscape:current-layer="layer1"
     showgrid="false"
     inkscape:window-width="1878"
     inkscape:window-height="1060"
     inkscape:window-x="40"
     inkscape:window-y="-3"
     inkscape:window-maximized="1"
     fit-margin-top="0"
     fit-margin-left="0"
     fit-margin-right="0"
     fit-margin-bottom="0" />
  <metadata
     id="metadata7">
    <rdf:RDF>
      <cc:Work
         rdf:about="">
        <dc:format>image/svg+xml</dc:format>
        <dc:type
           rdf:resource="http://purl.org/dc/dcmitype/StillImage" />
        <dc:title></dc:title>
      </cc:Work>
    </rdf:RDF>
  </metadata>
  <g
     inkscape:label="Layer 1"
     inkscape:groupmode="layer"
     id="layer1"
     transform="translate(-203.25243,-421.8354)">
    <g
       id="background">
      <title
         id="title3024">background</title>
      <g
         transform="matrix(-1,0,0,1,527.13778,-440.9018)"
         id="g2999"
         inkscape:label="Layer 1">
        <path
           sodipodi:nodetypes="cccscccccscccccccs"
           inkscape:connector-curvature="0"
           d="m 323.88535,69.498563 c 0,-77.7708325 0,-121.19648 0,-198.967313 0,-4.5045 -3.65174,-8.15625 -8.16845,-8.15625 l -307.56633,0 c -4.50451,0 -8.15625,3.65175 -8.15625,8.15625 0,77.770833 0,121.1964805 0,198.967313 0,4.5045 3.65174,8.15625 8.15625,8.15625 l 307.56633,0 c 4.51671,0 8.16845,-3.65175 8.16845,-8.15625 z M 8.15057,74.967313 c -3.05298,0 -5.46875,-2.41585 -5.46875,-5.46875 0,-77.7708325 0,-121.19648 0,-198.967313 0,-3.0529 2.41577,-5.46875 5.46875,-5.46875 l 307.56633,0 c 3.06518,0 5.48095,2.41585 5.48095,5.46875 0,77.770833 0,121.1964805 0,198.967313 0,3.0529 -2.41577,5.46875 -5.48095,5.46875 z"
           style="font-size:medium;font-style:normal;font-variant:normal;font-weight:normal;font-stretch:normal;text-indent:0;text-align:start;text-decoration:none;line-height:normal;letter-spacing:normal;word-spacing:normal;text-transform:none;direction:ltr;block-progression:tb;writing-mode:lr-tb;text-anchor:start;color:#000000;fill:#ffffff;fill-opacity:0.56613758;stroke:none;stroke-width:2.71196628;marker:none;visibility:visible;display:inline;overflow:visible;enable-background:accumulate;font-family:Bitstream Vera Sans;-inkscape-font-specification:Bitstream Vera Sans"
           transform="translate(0,1000.3622)"
           id="path3001" />
      </g>
      <path
         sodipodi:nodetypes="sssssssss"
         inkscape:connector-curvature="0"
         id="path3010"
         d="m 211.41964,424.53125 c -3.06518,0 -5.46875,2.41585 -5.46875,5.46875 l 0,198.96875 c 0,3.0529 2.40357,5.46875 5.46875,5.46875 l 307.5625,0 c 3.05298,0 5.46875,-2.41585 5.46875,-5.46875 l 0,-198.96875 c 0,-3.0529 -2.41577,-5.46875 -5.46875,-5.46875 z"
         style="font-size:medium;font-style:normal;font-variant:normal;font-weight:normal;font-stretch:normal;text-indent:0;text-align:start;text-decoration:none;line-height:normal;letter-spacing:normal;word-spacing:normal;text-transform:none;direction:ltr;block-progression:tb;writing-mode:lr-tb;text-anchor:start;color:#000000;fill:#000000;fill-opacity:0.40740739;stroke:none;stroke-width:2.71196628;marker:none;visibility:visible;display:inline;overflow:visible;enable-background:accumulate;font-family:Bitstream Vera Sans;-inkscape-font-specification:Bitstream Vera Sans" />
    </g>
    <g
       inkscape:label="exit"
       id="exit"
       transform="translate(489.41832,426.9315)">
      <title
         id="title3061">exit</title>
      <path
         sodipodi:nodetypes="csssc"
         style="font-size:medium;font-style:normal;font-variant:normal;font-weight:normal;font-stretch:normal;text-indent:0;text-align:start;text-decoration:none;line-height:normal;letter-spacing:normal;word-spacing:normal;text-transform:none;direction:ltr;block-progression:tb;writing-mode:lr-tb;text-anchor:start;color:#000000;fill:#333333;fill-opacity:1;stroke:none;stroke-width:2.5;marker:none;visibility:visible;display:inline;overflow:visible;enable-background:accumulate;font-family:Bitstream Vera Sans;-inkscape-font-specification:Bitstream Vera Sans"
         d="m 16.108685,3.3266679 c 7.146348,0 12.921327,5.7749792 12.921327,12.9213271 0,7.146347 -5.774979,12.894181 -12.921327,12.894181 -7.1463475,0 -12.894181,-5.747834 -12.894181,-12.894181 0,-7.1463479 5.7478335,-12.9213271 12.894181,-12.9213271 z"
         id="path2832"
         inkscape:connector-curvature="0" />
      <path
         id="path3628"
         d="m 16.108685,0.23206516 c -8.8115592,0 -15.98878372,7.20437024 -15.98878372,16.01592984 0,8.811559 7.17722452,15.988784 15.98878372,15.988784 8.81156,0 16.01593,-7.177225 16.01593,-15.988784 0,-8.8115596 -7.20437,-16.01592984 -16.01593,-16.01592984 z m 0,3.99040954 c 6.654783,0 12.02552,5.3707374 12.02552,12.0255203 0,6.654783 -5.370737,11.998374 -12.02552,11.998374 -6.6547827,0 -11.9983741,-5.343591 -11.9983741,-11.998374 0,-6.6547829 5.3435914,-12.0255203 11.9983741,-12.0255203 z"
         style="font-size:medium;font-style:normal;font-variant:normal;font-weight:normal;font-stretch:normal;text-indent:0;text-align:start;text-decoration:none;line-height:normal;letter-spacing:normal;word-spacing:normal;text-transform:none;direction:ltr;block-progression:tb;writing-mode:lr-tb;text-anchor:start;color:#000000;fill:#00005d;fill-opacity:1;stroke:none;stroke-width:4.59417391;marker:none;visibility:visible;display:inline;overflow:visible;enable-background:accumulate;font-family:Bitstream Vera Sans;-inkscape-font-specification:Bitstream Vera Sans"
         inkscape:connector-curvature="0" />
      <path
         id="path2854"
         d="m 16.108685,1.1550163 c -8.3199952,0 -15.0658326,6.7729831 -15.0658326,15.0929787 0,8.319995 6.7458374,15.065833 15.0658326,15.065833 8.319995,0 15.092979,-6.745838 15.092979,-15.065833 0,-8.3199956 -6.772984,-15.0929787 -15.092979,-15.0929787 z m 0,2.1716516 c 7.146348,0 12.921327,5.7749792 12.921327,12.9213271 0,7.146347 -5.774979,12.894181 -12.921327,12.894181 -7.1463475,0 -12.894181,-5.747834 -12.894181,-12.894181 0,-7.1463479 5.7478335,-12.9213271 12.894181,-12.9213271 z"
         style="font-size:medium;font-style:normal;font-variant:normal;font-weight:normal;font-stretch:normal;text-indent:0;text-align:start;text-decoration:none;line-height:normal;letter-spacing:normal;word-spacing:normal;text-transform:none;direction:ltr;block-progression:tb;writing-mode:lr-tb;text-anchor:start;color:#000000;fill:#ffffff;fill-opacity:1;stroke:none;stroke-width:2.5;marker:none;visibility:visible;display:inline;overflow:visible;enable-background:accumulate;font-family:Bitstream Vera Sans;-inkscape-font-specification:Bitstream Vera Sans"
         inkscape:connector-curvature="0" />
      <path
         id="path3630"
         d="m 22.46875,7.5 a 2.3103993,2.3103993 0 0 0 -0.25,0.03125 2.3103993,2.3103993 0 0 0 -1.34375,0.6875 c -4.797706,4.812142 -2.935121,2.930757 -4.8125,4.8125 -1.906871,-1.902478 -0.04661,-0.0609 -4.8125,-4.8125 A 2.3103993,2.3103993 0 0 0 9.375,7.53125 2.3103993,2.3103993 0 0 0 8,11.5 c 4.812142,4.797706 2.930757,2.935121 4.8125,4.8125 -0.653364,0.654069 -4.75,4.75 -4.75,4.75 a 2.3104404,2.3104404 0 1 0 3.15625,3.375 c 0,0 4.167025,-4.166252 4.875,-4.875 0.654069,0.653364 4.75,4.75 4.75,4.75 a 2.3104404,2.3104404 0 1 0 3.375,-3.15625 c 0,0 -4.166252,-4.167025 -4.875,-4.875 1.902478,-1.906871 0.06091,-0.04661 4.8125,-4.8125 A 2.3103993,2.3103993 0 0 0 22.46875,7.5 z"
         style="font-size:medium;font-style:normal;font-variant:normal;font-weight:normal;font-stretch:normal;text-indent:0;text-align:start;text-decoration:none;line-height:normal;letter-spacing:normal;word-spacing:normal;text-transform:none;direction:ltr;block-progression:tb;writing-mode:lr-tb;text-anchor:start;color:#000000;fill:#ffffff;fill-opacity:1;stroke:none;stroke-width:4.62033653;marker:none;visibility:visible;display:inline;overflow:visible;enable-background:accumulate;font-family:Bitstream Vera Sans;-inkscape-font-specification:Bitstream Vera Sans"
         inkscape:connector-curvature="0" />
    </g>
    <g
       transform="translate(327.80563,-428.03101)"
       id="layer1-6"
       inkscape:label="Vrstva 1">
      <path
         style="font-size:medium;font-style:normal;font-variant:normal;font-weight:normal;font-stretch:normal;text-indent:0;text-align:start;text-decoration:none;line-height:normal;letter-spacing:normal;word-spacing:normal;text-transform:none;direction:ltr;block-progression:tb;writing-mode:lr-tb;text-anchor:start;baseline-shift:baseline;color:#000000;fill:#000000;fill-opacity:0.51851849;stroke:none;stroke-width:1.70000005;marker:none;visibility:visible;display:inline;overflow:visible;enable-background:accumulate;font-family:Sans;-inkscape-font-specification:Sans"
         d="m 3.09375,1021.8406 c -1.6680724,0 -3.0625,1.3632 -3.0625,3.0313 l 0,24.5528 c 0,1.6681 1.3944276,3.0313 3.0625,3.0313 l 44.373419,0 c 1.668072,0 3.03125,-1.3632 3.03125,-3.0313 l 0,-24.5528 c 0,-1.6681 -1.363178,-3.0313 -3.03125,-3.0313 z m 0,1.6875 44.373419,0 c 0.755678,0 1.34375,0.5881 1.34375,1.3438 l 0,24.5528 c 0,0.7557 -0.588072,1.3438 -1.34375,1.3438 l -44.373419,0 c -0.7556776,0 -1.34375,-0.5881 -1.34375,-1.3438 l 0,-24.5528 c 0,-0.7557 0.5880724,-1.3438 1.34375,-1.3438 z"
         inkscape:connector-curvature="0"
         sodipodi:nodetypes="ssssssssssssssssss"
         id="rect2915" />
      <path
         transform="translate(0,1036.3622)"
         style="fill:#e1e1e1;fill-opacity:0.52777782;stroke:none"
         d="m 3.125,-12.869792 44.257339,0 c 0.766697,0 1.383929,0.617232 1.383929,1.383929 l 0,24.494795 c 0,0.766696 -0.617232,1.383928 -1.383929,1.383928 l -44.257339,0 c -0.7666964,0 -1.3839285,-0.617232 -1.3839285,-1.383928 l 0,-24.494795 c 0,-0.766697 0.6172321,-1.383929 1.3839285,-1.383929 z"
         id="rect3685"
         inkscape:connector-curvature="0"
         sodipodi:nodetypes="sssssssss" />
    </g>
  </g>
</svg>
