<?xml version="1.0" encoding="UTF-8" standalone="no"?>
<!-- Created with Inkscape (http://www.inkscape.org/) -->

<svg
   xmlns:dc="http://purl.org/dc/elements/1.1/"
   xmlns:cc="http://creativecommons.org/ns#"
   xmlns:rdf="http://www.w3.org/1999/02/22-rdf-syntax-ns#"
   xmlns:svg="http://www.w3.org/2000/svg"
   xmlns="http://www.w3.org/2000/svg"
   xmlns:sodipodi="http://sodipodi.sourceforge.net/DTD/sodipodi-0.dtd"
   xmlns:inkscape="http://www.inkscape.org/namespaces/inkscape"
   width="31.826044"
   height="31.952337"
   id="svg5605"
   version="1.1"
   inkscape:version="0.48.1 r9760"
   sodipodi:docname="OkButton.svg">
  <defs
     id="defs5607">
    <inkscape:perspective
       sodipodi:type="inkscape:persp3d"
       inkscape:vp_x="0 : 16 : 1"
       inkscape:vp_y="0 : 1000 : 0"
       inkscape:vp_z="32 : 16 : 1"
       inkscape:persp3d-origin="16 : 10.666667 : 1"
       id="perspective2852-6" />
    <inkscape:perspective
       id="perspective2852"
       inkscape:persp3d-origin="16 : 10.666667 : 1"
       inkscape:vp_z="32 : 16 : 1"
       inkscape:vp_y="0 : 1000 : 0"
       inkscape:vp_x="0 : 16 : 1"
       sodipodi:type="inkscape:persp3d" />
    <linearGradient
       id="linearGradient3758">
      <stop
         id="stop3760"
         offset="0"
         style="stop-color:#8cd35f;stop-opacity:1;" />
      <stop
         id="stop3762"
         offset="1"
         style="stop-color:#92b979;stop-opacity:1;" />
    </linearGradient>
    <marker
       style="overflow:visible"
       id="Arrow1Lstart"
       refX="0"
       refY="0"
       orient="auto"
       inkscape:stockid="Arrow1Lstart">
      <path
         transform="matrix(0.8,0,0,0.8,10,0)"
         style="fill-rule:evenodd;stroke:#000000;stroke-width:1pt;marker-start:none"
         d="M 0,0 5,-5 -12.5,0 5,5 0,0 z"
         id="path3801"
         inkscape:connector-curvature="0" />
    </marker>
    <marker
       style="overflow:visible"
       id="Arrow1Sstart"
       refX="0"
       refY="0"
       orient="auto"
       inkscape:stockid="Arrow1Sstart">
      <path
         transform="matrix(0.2,0,0,0.2,1.2,0)"
         style="fill-rule:evenodd;stroke:#000000;stroke-width:1pt;marker-start:none"
         d="M 0,0 5,-5 -12.5,0 5,5 0,0 z"
         id="path3813"
         inkscape:connector-curvature="0" />
    </marker>
    <marker
       style="overflow:visible"
       id="Arrow1Send"
       refX="0"
       refY="0"
       orient="auto"
       inkscape:stockid="Arrow1Send">
      <path
         transform="matrix(-0.2,0,0,-0.2,-1.2,0)"
         style="fill-rule:evenodd;stroke:#000000;stroke-width:1pt;marker-start:none"
         d="M 0,0 5,-5 -12.5,0 5,5 0,0 z"
         id="path3816"
         inkscape:connector-curvature="0" />
    </marker>
  </defs>
  <sodipodi:namedview
     id="base"
     pagecolor="#ffffff"
     bordercolor="#666666"
     borderopacity="1.0"
     inkscape:pageopacity="0.0"
     inkscape:pageshadow="2"
     inkscape:zoom="0.98994949"
     inkscape:cx="6.8130915"
     inkscape:cy="4.3905472"
     inkscape:document-units="px"
     inkscape:current-layer="layer1"
     showgrid="false"
     fit-margin-top="0"
     fit-margin-left="0"
     fit-margin-right="0"
     fit-margin-bottom="0"
     inkscape:window-width="1878"
     inkscape:window-height="1060"
     inkscape:window-x="40"
     inkscape:window-y="-3"
     inkscape:window-maximized="1" />
  <metadata
     id="metadata5610">
    <rdf:RDF>
      <cc:Work
         rdf:about="">
        <dc:format>image/svg+xml</dc:format>
        <dc:type
           rdf:resource="http://purl.org/dc/dcmitype/StillImage" />
        <dc:title />
      </cc:Work>
    </rdf:RDF>
  </metadata>
  <g
     inkscape:label="Layer 1"
     inkscape:groupmode="layer"
     id="layer1"
     transform="translate(-451.38565,-405.16299)">
    <path
       style="fill:#74adb9;fill-opacity:0.46276598000000002;stroke:none;stroke-opacity:1;stroke-width:0;stroke-miterlimit:4;stroke-dasharray:none;marker-start:none;marker-mid:none;marker-end:none"
       d="m 456.5637,405.16299 21.46995,0 c 2.86864,0 5.17804,2.30941 5.17804,5.17805 l 0,21.59624 c 0,2.86864 -2.3094,5.17805 -5.17804,5.17805 l -21.46995,0 c -2.86864,0 -5.17805,-2.30941 -5.17805,-5.17805 l 0,-21.59624 c 0,-2.86864 2.30941,-5.17805 5.17805,-5.17805 z"
       id="bg" />
    <g
       inkscape:label="Layer 1"
       id="layer1-7"
       transform="translate(451.38566,408.61458)" />
    <text
       sodipodi:linespacing="125%"
       id="text5555"
       y="263.49243"
       x="375.91162"
       style="font-size:40px;font-style:normal;font-variant:normal;font-weight:normal;font-stretch:normal;line-height:125%;letter-spacing:0px;word-spacing:0px;fill:#000000;fill-opacity:1;stroke:none;font-family:Rawengulk;-inkscape-font-specification:Rawengulk"
       xml:space="preserve"><tspan
         y="263.49243"
         x="375.91162"
         id="tspan5557"
         sodipodi:role="line" /></text>
    <path
       inkscape:connector-curvature="0"
       d="m 458.24146,424.7433 c 0.29211,1.22427 0.65479,2.4237 1.07417,3.60975 0.21882,0.61882 0.49488,1.44768 0.82153,2.03805 0.10889,0.19685 0.2615,0.36616 0.39224,0.54924 0.10301,0.0702 0.43389,0.20873 0.30919,0.21072 -1.20847,0.0194 -2.43915,0.0884 -3.62247,-0.15753 -0.20351,-0.0423 0.22972,-0.34669 0.33532,-0.5257 0.24022,-0.40719 0.44405,-0.83618 0.70188,-1.23244 1.25101,-1.92274 1.74415,-2.38349 3.32293,-4.28017 0.90612,-0.88548 1.78053,-1.80463 2.71833,-2.65649 1.92244,-1.74625 4.15021,-3.50644 6.26474,-5.01568 1.62313,-1.15849 4.02209,-2.72073 5.80537,-3.71852 0.72829,-0.40749 1.48931,-0.75351 2.23397,-1.13029 0,0 1.95289,0.22562 1.95289,0.22562 l 0,0 c -0.89178,0.35526 -1.80378,0.6634 -2.6753,1.06581 -2.3135,1.06822 -4.19152,2.19146 -6.2933,3.65241 -2.18324,1.51755 -4.17768,3.08921 -6.01869,5.01575 -0.79971,0.83686 -1.48023,1.77998 -2.22034,2.66997 -1.02007,1.77029 -1.56134,2.42508 -2.11379,4.27637 -0.1186,0.39743 -0.15303,0.81591 -0.20129,1.22785 -0.0264,0.22576 0.19998,0.63424 -0.0223,0.68153 -3.7819,0.80433 -3.52715,1.33233 -3.94947,-0.15428 -0.55443,-2.13459 -0.9938,-4.35908 -2.29594,-6.19048 0,0 3.48038,-0.16149 3.48038,-0.16149 z"
       id="path3985"
       style="fill:#008000;fill-opacity:1;fill-rule:nonzero;stroke:#ffffff;stroke-width:4;stroke-linecap:round;stroke-linejoin:round;stroke-miterlimit:4;stroke-opacity:1;stroke-dasharray:none" />
    <path
       style="fill:#008000;fill-opacity:1;fill-rule:nonzero;stroke:#008000;stroke-width:1;stroke-linecap:round;stroke-linejoin:round;stroke-miterlimit:4;stroke-opacity:1;stroke-dasharray:none"
       id="path3197"
       d="m 458.24146,424.7433 c 0.29211,1.22427 0.65479,2.4237 1.07417,3.60975 0.21882,0.61882 0.49488,1.44768 0.82153,2.03805 0.10889,0.19685 0.2615,0.36616 0.39224,0.54924 0.10301,0.0702 0.43389,0.20873 0.30919,0.21072 -1.20847,0.0194 -2.43915,0.0884 -3.62247,-0.15753 -0.20351,-0.0423 0.22972,-0.34669 0.33532,-0.5257 0.24022,-0.40719 0.44405,-0.83618 0.70188,-1.23244 1.25101,-1.92274 1.74415,-2.38349 3.32293,-4.28017 0.90612,-0.88548 1.78053,-1.80463 2.71833,-2.65649 1.92244,-1.74625 4.15021,-3.50644 6.26474,-5.01568 1.62313,-1.15849 4.02209,-2.72073 5.80537,-3.71852 0.72829,-0.40749 1.48931,-0.75351 2.23397,-1.13029 0,0 1.95289,0.22562 1.95289,0.22562 l 0,0 c -0.89178,0.35526 -1.80378,0.6634 -2.6753,1.06581 -2.3135,1.06822 -4.19152,2.19146 -6.2933,3.65241 -2.18324,1.51755 -4.17768,3.08921 -6.01869,5.01575 -0.79971,0.83686 -1.48023,1.77998 -2.22034,2.66997 -1.02007,1.77029 -1.56134,2.42508 -2.11379,4.27637 -0.1186,0.39743 -0.15303,0.81591 -0.20129,1.22785 -0.0264,0.22576 0.19998,0.63424 -0.0223,0.68153 -3.7819,0.80433 -3.52715,1.33233 -3.94947,-0.15428 -0.55443,-2.13459 -0.9938,-4.35908 -2.29594,-6.19048 0,0 3.48038,-0.16149 3.48038,-0.16149 z"
       inkscape:connector-curvature="0" />
  </g>
</svg>
