<?xml version="1.0" encoding="UTF-8" standalone="no"?>
<!-- Created with Inkscape (http://www.inkscape.org/) -->
<svg
   xmlns:dc="http://purl.org/dc/elements/1.1/"
   xmlns:cc="http://web.resource.org/cc/"
   xmlns:rdf="http://www.w3.org/1999/02/22-rdf-syntax-ns#"
   xmlns:svg="http://www.w3.org/2000/svg"
   xmlns="http://www.w3.org/2000/svg"
   xmlns:sodipodi="http://sodipodi.sourceforge.net/DTD/sodipodi-0.dtd"
   xmlns:inkscape="http://www.inkscape.org/namespaces/inkscape"
   width="744.09448819"
   height="1052.3622047"
   id="svg2167"
   sodipodi:version="0.32"
   inkscape:version="0.45.1"
   sodipodi:docbase="/svgstuff/publicdomain"
   sodipodi:docname="British Flag.svg"
   inkscape:output_extension="org.inkscape.output.svg.inkscape">
  <defs
     id="defs2169" />
  <sodipodi:namedview
     id="base"
     pagecolor="#ffffff"
     bordercolor="#666666"
     borderopacity="1.0"
     gridtolerance="10000"
     guidetolerance="10"
     objecttolerance="10"
     inkscape:pageopacity="0.0"
     inkscape:pageshadow="2"
     inkscape:zoom="0.35"
     inkscape:cx="375"
     inkscape:cy="470.66299"
     inkscape:document-units="px"
     inkscape:current-layer="layer1"
     inkscape:window-width="744"
     inkscape:window-height="573"
     inkscape:window-x="22"
     inkscape:window-y="29" />
  <metadata
     id="metadata2172">
    <rdf:RDF>
      <cc:Work
         rdf:about="">
        <dc:format>image/svg+xml</dc:format>
        <dc:type
           rdf:resource="http://purl.org/dc/dcmitype/StillImage" />
      </cc:Work>
    </rdf:RDF>
  </metadata>
  <g
     inkscape:label="Layer 1"
     inkscape:groupmode="layer"
     id="layer1">
    <g
       id="g2251"
       transform="translate(2.8571431,2.857143e-6)">
      <path
         style="fill:#fdfcfd"
         d="M 3.3571475,295.21934 L 3.3571475,10.005044 L 371.42859,10.005044 L 739.50003,10.005044 L 739.50003,295.21934 L 739.50003,580.43363 L 371.42859,580.43363 L 3.3571475,580.43363 L 3.3571475,295.21934 z "
         id="path2267" />
      <path
         style="fill:#cbcbf4"
         d="M 5.3947883,579.82646 C 5.8822083,579.50588 6.2276351,579.00773 6.1624034,578.71945 C 6.070279,578.31233 213.83794,413.66312 277.98981,363.30495 L 290.48192,353.49885 L 306.00776,353.71355 L 321.53361,353.92826 L 321.53361,368.99458 L 321.53361,384.0609 L 194.49331,480.68041 C 124.62114,533.82115 66.092777,578.005 64.430271,578.86678 C 61.581701,580.34336 59.768301,580.43294 32.958052,580.42149 C 17.310837,580.41481 4.9073683,580.14705 5.3947883,579.82646 z M 88.101348,579.23158 C 88.339186,577.55674 319.57984,402.5366 320.87577,403.05057 C 321.74415,403.39498 321.91741,417.97352 321.91741,490.69374 C 321.91741,538.67026 321.70775,578.48849 321.45148,579.1787 C 321.02944,580.31541 310.00777,580.43363 204.4581,580.43363 C 100.79742,580.43363 87.949498,580.3009 88.101348,579.23158 z M 341.68942,580.23529 C 341.58714,580.12621 341.32807,523.45028 341.11371,454.28879 L 340.72398,328.54062 L 172.23247,328.13949 C 79.562136,327.91887 3.6545984,327.65111 3.5490513,327.54447 C 3.2981423,327.29096 3.2981423,250.4539 3.5490513,250.20038 C 3.6545984,250.09375 79.562136,249.82599 172.23247,249.60536 L 340.72398,249.20424 L 341.11402,129.80298 C 341.32854,64.132291 341.58761,10.312472 341.68974,10.203385 C 341.93249,9.9440656 407.0656,9.9440656 407.30836,10.203385 C 407.41048,10.312472 407.66955,64.132291 407.88407,129.80298 L 408.27411,249.20424 L 573.69517,249.60545 C 664.67675,249.82612 739.20258,250.09388 739.30812,250.20047 C 739.41367,250.30707 739.50003,267.70945 739.50003,288.87243 C 739.50003,310.03541 739.41367,327.43779 739.30812,327.54438 C 739.20258,327.65098 664.67675,327.91874 573.69517,328.13941 L 408.27411,328.54062 L 407.88439,454.28879 C 407.67003,523.45028 407.41096,580.12621 407.30868,580.23529 C 407.20638,580.34438 392.44205,580.43363 374.49905,580.43363 C 356.55604,580.43363 341.79171,580.34438 341.68942,580.23529 z M 426.01139,579.1787 C 425.75512,578.48849 425.54545,538.67026 425.54545,490.69374 C 425.54545,417.66249 425.71625,403.39596 426.59471,403.04756 C 427.89173,402.53315 659.89373,577.57387 660.13118,579.246 C 660.28031,580.29617 646.76745,580.43363 543.38857,580.43363 C 437.48892,580.43363 426.43344,580.31544 426.01139,579.1787 z M 597.62472,465.77285 C 520.92413,405.47297 458.05741,355.55055 457.92091,354.83414 C 457.69405,353.64352 460.34424,353.53158 488.75862,353.53158 L 519.84452,353.53158 L 523.54948,356.44652 C 541.54834,370.60739 737.80651,532.26225 738.54051,533.53135 C 739.24067,534.74193 739.50003,540.62595 739.50003,555.29968 C 739.50003,573.07723 739.35974,575.409 738.29019,575.409 C 737.62478,575.409 674.32532,526.07273 597.62472,465.77285 z M 3.3571475,438.85752 C 3.3571475,362.66154 3.4746898,354.44809 4.5713515,354.01314 C 5.2391636,353.74828 52.735348,353.53158 110.11843,353.53158 C 208.98844,353.53158 214.44895,353.60428 214.40637,354.91997 C 214.35603,356.47555 7.371268,522.42136 4.8571446,522.92177 C 3.376485,523.21648 3.3571475,522.13275 3.3571475,438.85752 z M 640.5786,436.90089 C 580.27171,386.6617 543.82109,355.78545 543.79693,354.91997 C 543.76022,353.60483 548.85786,353.53158 640.4149,353.53158 C 693.5761,353.53158 737.61801,353.74828 738.28582,354.01314 C 739.38211,354.44794 739.50003,362.40918 739.50003,435.99407 C 739.50003,505.84197 739.3443,517.49344 738.41077,517.49344 C 737.81167,517.49344 693.7872,481.2268 640.5786,436.90089 z M 4.3166664,223.68785 C 3.5575386,223.37126 3.3571475,205.76093 3.3571475,139.36555 C 3.3571475,58.013497 3.4009188,55.446184 4.7864408,55.533446 C 6.9734012,55.671182 213.58596,221.16828 213.63912,222.82489 C 213.68136,224.14087 208.24915,224.21001 109.47993,224.15064 C 52.167873,224.11619 4.8444018,223.90793 4.3166664,223.68785 z M 233.18114,221.96849 C 224.05014,215.12182 5.8253835,38.911321 4.7175425,37.490414 C 3.5846536,36.037382 3.388796,33.909686 3.3742161,22.897206 L 3.3571475,10.005044 L 11.663847,10.005044 C 18.042337,10.005044 20.592623,10.327326 22.650438,11.393431 C 27.210739,13.756013 291.98042,221.84123 291.98042,223.06264 C 291.98042,224.04681 287.94368,224.21328 264.07765,224.21328 L 236.17487,224.21328 L 233.18114,221.96849 z M 426.0572,223.68436 C 425.35858,222.96232 425.42825,202.60481 426.13292,201.55795 C 427.37326,199.71527 664.24594,11.591772 665.32577,11.591772 C 665.96389,11.591772 666.69947,11.234758 666.9604,10.798408 C 667.26429,10.290203 678.66163,10.009411 698.66983,10.017193 C 718.65831,10.024967 729.49026,10.300207 728.75342,10.781619 C 728.12013,11.195372 727.77471,11.703806 727.9858,11.911474 C 728.28356,12.204395 539.6751,161.7436 472.56439,214.42369 L 460.09314,224.21328 L 443.33104,224.21328 C 434.11188,224.21328 426.33865,223.97527 426.0572,223.68436 z M 544.56218,222.82489 C 544.60233,221.29307 736.07818,59.059704 738.23147,58.733066 C 739.40418,58.555176 739.50003,64.762899 739.50003,140.8954 C 739.50003,215.26029 739.38223,223.29687 738.28582,223.73171 C 737.61801,223.99658 693.74881,224.21328 640.7987,224.21328 C 549.6081,224.21328 544.52771,224.13999 544.56218,222.82489 z M 210.93998,94.621445 C 151.80224,49.173299 103.4137,11.542186 103.4099,10.996749 C 103.4044,10.208016 125.66929,10.005044 212.19427,10.005044 C 310.68957,10.005044 321.02964,10.123811 321.45148,11.259977 C 321.70775,11.95019 321.91741,49.615138 321.91741,94.959862 L 321.91741,177.40481 L 320.19028,177.32962 C 319.17167,177.28527 274.35373,143.35575 210.93998,94.621445 z M 425.54545,94.959862 C 425.54545,49.615138 425.75512,11.95019 426.01139,11.259977 C 426.43324,10.123772 436.8184,10.005044 535.78035,10.005044 C 619.51281,10.005044 645.03847,10.224593 644.89147,10.94352 C 644.58653,12.434772 428.67492,177.40481 427.02812,177.40481 C 425.57249,177.40481 425.54545,175.90156 425.54545,94.959862 z "
         id="path2265" />
      <path
         style="fill:#fea2a2"
         d="M 5.6599928,579.64027 C 6.2932753,579.21728 6.5182634,578.86573 6.1599665,578.85905 C 5.8016696,578.85237 69.662525,528.14371 148.07298,466.17313 L 290.63744,353.49936 L 306.08552,353.71381 L 321.53361,353.92826 L 321.53361,368.91246 L 321.53361,383.89666 L 193.77685,480.98956 C 123.51063,534.39066 64.994077,578.61148 63.740059,579.25805 C 61.847567,580.23382 56.619957,580.43157 32.984298,580.42149 C 14.315871,580.41352 4.9051306,580.14446 5.6599928,579.64027 z M 88.612157,579.24886 C 91.240249,576.5326 320.04723,403.70331 320.57409,404.03646 C 320.89073,404.23669 321.1498,444.00796 321.1498,492.41707 L 321.1498,580.43363 L 204.30781,580.43363 C 100.67912,580.43363 87.595466,580.29965 88.612157,579.24886 z M 341.68942,580.23529 C 341.58714,580.12621 341.32807,523.45028 341.11371,454.28879 L 340.72398,328.54062 L 172.23247,328.13949 C 79.562136,327.91887 3.6545984,327.65111 3.5490513,327.54447 C 3.2981423,327.29096 3.2981423,250.4539 3.5490513,250.20038 C 3.6545984,250.09375 79.562136,249.82599 172.23247,249.60536 L 340.72398,249.20424 L 341.11402,129.80298 C 341.32854,64.132291 341.58761,10.312472 341.68974,10.203385 C 341.93249,9.9440656 407.0656,9.9440656 407.30836,10.203385 C 407.41048,10.312472 407.66955,64.132291 407.88407,129.80298 L 408.27411,249.20424 L 573.69517,249.60545 C 664.67675,249.82612 739.20258,250.09388 739.30812,250.20047 C 739.41367,250.30707 739.50003,267.70945 739.50003,288.87243 C 739.50003,310.03541 739.41367,327.43779 739.30812,327.54438 C 739.20258,327.65098 664.67675,327.91874 573.69517,328.13941 L 408.27411,328.54062 L 407.88439,454.28879 C 407.67003,523.45028 407.41096,580.12621 407.30868,580.23529 C 407.20638,580.34438 392.44205,580.43363 374.49905,580.43363 C 356.55604,580.43363 341.79171,580.34438 341.68942,580.23529 z M 426.31307,492.41707 C 426.31307,444.00796 426.57303,404.23445 426.89076,404.0315 C 427.41509,403.69658 657.00856,576.56426 659.64065,579.27573 C 660.62591,580.29071 646.29525,580.43363 543.53886,580.43363 L 426.31307,580.43363 L 426.31307,492.41707 z M 597.76831,465.66931 C 520.98874,405.31249 458.05741,355.39007 457.92091,354.73061 C 457.70268,353.67635 461.42235,353.53158 488.72918,353.53158 L 519.78564,353.53158 L 628.29951,442.46108 C 687.98214,491.3723 737.41019,532.16112 738.13963,533.1029 C 739.31741,534.62352 739.4678,537.08748 739.48296,555.1121 C 739.49709,571.91271 739.31636,575.409 738.43378,575.409 C 737.84734,575.409 674.54788,526.02614 597.76831,465.66931 z M 3.3571475,438.81819 L 3.3571475,354.32494 L 108.58438,354.32494 C 171.12394,354.32494 213.70782,354.6165 213.55575,355.04364 C 213.31006,355.73372 4.2723877,523.31144 3.657257,523.31144 C 3.4921968,523.31144 3.3571475,485.28948 3.3571475,438.81819 z M 642.01291,436.76002 C 588.60609,392.22101 544.79446,355.45261 544.65373,355.05247 C 544.49944,354.61378 583.12597,354.32494 641.94894,354.32494 L 739.50003,354.32494 L 739.50003,436.04142 C 739.50003,480.98548 739.41367,517.75388 739.30812,517.74897 C 739.20258,517.74406 695.41973,481.29902 642.01291,436.76002 z M 120.69161,131.2338 C 57.213128,80.095084 4.8553875,37.699705 4.3410791,37.021844 C 3.6958026,36.171366 3.3984064,31.793533 3.3815602,22.897206 L 3.3571475,10.005044 L 11.811329,10.005044 C 17.15135,10.005044 20.895112,10.370346 21.974725,10.996749 C 26.417577,13.574541 291.98042,222.25522 291.98042,223.16865 C 291.98042,224.01344 286.63624,224.21328 264.04373,224.21328 L 236.10704,224.21328 L 120.69161,131.2338 z M 425.88111,223.17961 C 425.67003,222.6111 425.59451,217.53313 425.71329,211.89524 L 425.92926,201.64453 L 544.14198,107.39062 C 609.15898,55.550969 663.71494,12.432085 665.37745,11.570877 C 668.24267,10.086638 670.00267,10.008308 699.15251,10.067678 C 716.06629,10.102127 729.47091,10.311126 728.94054,10.532121 C 728.41017,10.753116 728.10696,11.171198 728.26673,11.461192 C 728.4265,11.751186 668.1178,59.739039 594.24739,118.10087 L 459.93756,224.21328 L 443.10122,224.21328 C 429.97579,224.21328 426.18029,223.98545 425.88111,223.17961 z M 3.3571475,139.2321 L 3.3571475,55.044292 L 5.3123209,56.368344 C 9.2826083,59.057038 212.54132,222.01018 212.78813,222.70234 C 212.93991,223.12798 170.39035,223.41991 108.20057,223.41991 L 3.3571475,223.41991 L 3.3571475,139.2321 z M 545.42135,222.69016 C 545.60064,222.17881 727.22259,68.223325 738.54051,58.988839 C 739.30683,58.363584 739.50003,74.838716 739.50003,140.81294 L 739.50003,223.41991 L 642.33275,223.41991 C 583.52779,223.41991 545.26649,223.1318 545.42135,222.69016 z M 211.76465,94.01065 C 152.65828,48.619765 103.97038,11.149507 103.5693,10.743407 C 103.11928,10.28776 144.63503,10.005044 211.99493,10.005044 L 321.1498,10.005044 L 321.1498,93.308246 C 321.1498,159.44108 320.95202,176.60404 320.19028,176.57548 C 319.66254,176.55571 270.87101,139.40153 211.76465,94.01065 z M 426.31307,93.366415 L 426.31307,10.005044 L 535.86271,10.005044 C 627.60799,10.005044 645.22967,10.178254 644.28834,11.070798 C 641.43987,13.771638 428.42377,176.24503 427.43458,176.47128 C 426.45651,176.69498 426.31307,166.06544 426.31307,93.366415 z "
         id="path2263" />
      <path
         style="fill:#9b9beb"
         d="M 147.78461,467.37021 L 290.829,354.3068 L 305.7975,354.51421 L 320.76599,354.72163 L 320.975,368.64894 C 321.17915,382.25296 321.14351,382.61458 319.43977,384.22797 C 318.48044,385.13642 260.07644,429.65433 189.65309,483.15667 L 61.610664,580.43363 L 33.175441,580.43363 L 4.740218,580.43363 L 147.78461,467.37021 z M 88.612157,579.24886 C 91.240249,576.5326 320.04723,403.70331 320.57409,404.03646 C 320.89073,404.23669 321.1498,444.00796 321.1498,492.41707 L 321.1498,580.43363 L 204.30781,580.43363 C 100.67912,580.43363 87.595466,580.29965 88.612157,579.24886 z M 341.68586,454.09044 L 341.4916,327.74726 L 172.42437,327.54715 L 3.3571475,327.34704 L 3.3571475,288.87243 L 3.3571475,250.39782 L 172.42437,250.19771 L 341.4916,249.9976 L 341.68598,130.00132 L 341.88036,10.005044 L 374.49905,10.005044 L 407.11774,10.005044 L 407.31211,130.00132 L 407.5065,249.9976 L 573.50326,250.19774 L 739.50003,250.39789 L 739.50003,288.87243 L 739.50003,327.34696 L 573.50326,327.54711 L 407.5065,327.74726 L 407.31224,454.09044 L 407.11798,580.43363 L 374.49905,580.43363 L 341.88011,580.43363 L 341.68586,454.09044 z M 426.31307,492.41707 C 426.31307,444.00796 426.57303,404.23445 426.89076,404.0315 C 427.41509,403.69658 657.00856,576.56426 659.64065,579.27573 C 660.62591,580.29071 646.29525,580.43363 543.53886,580.43363 L 426.31307,580.43363 L 426.31307,492.41707 z M 599.37604,465.94107 C 522.60928,405.58827 459.66343,355.78485 459.49635,355.26682 C 459.26534,354.55054 466.42463,354.32494 489.3872,354.32494 L 519.58182,354.32494 L 629.54092,444.47603 L 739.50003,534.62712 L 739.50003,555.15029 C 739.50003,566.43803 739.37671,575.67345 739.226,575.67345 C 739.07528,575.67345 676.1428,526.29388 599.37604,465.94107 z M 3.3571475,438.81819 L 3.3571475,354.32494 L 108.58438,354.32494 C 171.12394,354.32494 213.70782,354.6165 213.55575,355.04364 C 213.31006,355.73372 4.2723877,523.31144 3.657257,523.31144 C 3.4921968,523.31144 3.3571475,485.28948 3.3571475,438.81819 z M 642.01291,436.76002 C 588.60609,392.22101 544.79446,355.45261 544.65373,355.05247 C 544.49944,354.61378 583.12597,354.32494 641.94894,354.32494 L 739.50003,354.32494 L 739.50003,436.04142 C 739.50003,480.98548 739.41367,517.75388 739.30812,517.74897 C 739.20258,517.74406 695.41973,481.29902 642.01291,436.76002 z M 3.3571475,139.2321 L 3.3571475,55.044292 L 5.3123209,56.368344 C 9.2826083,59.057038 212.54132,222.01018 212.78813,222.70234 C 212.93991,223.12798 170.39035,223.41991 108.20057,223.41991 L 3.3571475,223.41991 L 3.3571475,139.2321 z M 120.03453,129.7176 L 3.740955,36.015288 L 3.5304911,23.010166 L 3.3200272,10.005044 L 11.749079,10.005044 L 20.17813,10.005044 L 155.31166,115.96054 C 229.6351,174.23605 290.44519,222.2544 290.44519,222.66797 C 290.44519,223.12743 279.92024,223.41991 263.38665,223.41991 L 236.32809,223.41991 L 120.03453,129.7176 z M 426.64795,222.3842 C 426.43646,221.81456 426.36094,216.99505 426.48015,211.67417 L 426.69687,201.99985 L 547.2001,106.00245 L 667.70333,10.005044 L 698.72055,10.005044 L 729.73778,10.005044 L 718.30708,19.029431 C 712.0202,23.992845 651.26267,72.010771 583.29035,125.73594 L 459.70432,223.41805 L 443.36842,223.41898 C 430.63696,223.41971 426.94765,223.19138 426.64795,222.3842 z M 545.42135,222.69016 C 545.60064,222.17881 727.22259,68.223325 738.54051,58.988839 C 739.30683,58.363584 739.50003,74.838716 739.50003,140.81294 L 739.50003,223.41991 L 642.33275,223.41991 C 583.52779,223.41991 545.26649,223.1318 545.42135,222.69016 z M 211.76465,94.01065 C 152.65828,48.619765 103.97038,11.149507 103.5693,10.743407 C 103.11928,10.28776 144.63503,10.005044 211.99493,10.005044 L 321.1498,10.005044 L 321.1498,93.308246 C 321.1498,159.44108 320.95202,176.60404 320.19028,176.57548 C 319.66254,176.55571 270.87101,139.40153 211.76465,94.01065 z M 426.31307,93.366415 L 426.31307,10.005044 L 535.86271,10.005044 C 627.60799,10.005044 645.22967,10.178254 644.28834,11.070798 C 641.43987,13.771638 428.42377,176.24503 427.43458,176.47128 C 426.45651,176.69498 426.31307,166.06544 426.31307,93.366415 z "
         id="path2261" />
      <path
         style="fill:#6969e2"
         d="M 147.78461,467.37021 L 290.829,354.3068 L 305.7975,354.51421 L 320.76599,354.72163 L 320.975,368.64894 C 321.17915,382.25296 321.14351,382.61458 319.43977,384.22797 C 318.48044,385.13642 260.07644,429.65433 189.65309,483.15667 L 61.610664,580.43363 L 33.175441,580.43363 L 4.740218,580.43363 L 147.78461,467.37021 z M 88.812052,579.39527 C 89.582638,578.8755 141.53436,539.59341 204.26033,492.10176 C 266.98629,444.6101 318.77434,405.56815 319.34486,405.34188 C 320.2123,404.99785 320.38218,419.09571 320.38218,491.42711 C 320.38218,539.00027 320.59185,578.48849 320.84812,579.1787 C 321.27178,580.31978 310.70333,580.4294 204.36253,580.38698 C 113.59497,580.35077 87.724679,580.12874 88.812052,579.39527 z M 341.68586,454.09044 L 341.4916,327.74726 L 172.42437,327.54715 L 3.3571475,327.34704 L 3.3571475,288.87243 L 3.3571475,250.39782 L 172.42437,250.19771 L 341.4916,249.9976 L 341.68598,130.00132 L 341.88036,10.005044 L 374.49905,10.005044 L 407.11774,10.005044 L 407.31211,130.00132 L 407.5065,249.9976 L 573.50326,250.19774 L 739.50003,250.39789 L 739.50003,288.87243 L 739.50003,327.34696 L 573.50326,327.54711 L 407.5065,327.74726 L 407.31224,454.09044 L 407.11798,580.43363 L 374.49905,580.43363 L 341.88011,580.43363 L 341.68586,454.09044 z M 426.61475,579.1787 C 426.87102,578.48849 427.08068,539.03847 427.08068,491.512 C 427.08068,443.98553 427.35976,405.10023 427.70086,405.10023 C 428.04195,405.10023 479.99847,444.10398 543.15978,491.77523 C 606.32109,539.44648 658.63324,578.8755 659.409,579.39527 C 660.50374,580.12878 634.55418,580.35077 543.48415,580.38698 C 436.79336,580.42941 426.19109,580.31979 426.61475,579.1787 z M 599.37604,465.94107 C 522.60928,405.58827 459.66343,355.78485 459.49635,355.26682 C 459.26534,354.55054 466.42463,354.32494 489.3872,354.32494 L 519.58182,354.32494 L 629.54092,444.47603 L 739.50003,534.62712 L 739.50003,555.15029 C 739.50003,566.43803 739.37671,575.67345 739.226,575.67345 C 739.07528,575.67345 676.1428,526.29388 599.37604,465.94107 z M 3.3571475,438.88174 C 3.3571475,361.94815 3.4688274,354.19947 4.5713515,354.63674 C 5.2391636,354.90161 52.29397,355.11831 109.13759,355.11831 C 210.48399,355.11831 212.46024,355.14738 210.97571,356.61681 C 210.14306,357.44099 164.03818,394.43505 108.52042,438.82585 C 53.002654,483.21664 6.6291069,520.45256 5.468089,521.57234 L 3.3571475,523.6083 L 3.3571475,438.88174 z M 738.3486,516.8765 C 737.92642,516.17356 699.75676,484.07284 653.52714,445.54157 C 607.29752,407.01029 564.1194,370.99152 557.57577,365.49985 L 545.67825,355.51499 L 642.39724,355.11831 C 695.59267,354.90013 739.2042,354.75306 739.31175,354.79148 C 739.41928,354.8299 739.41928,391.60232 739.31175,436.50796 C 739.18043,491.34288 738.86414,517.73487 738.3486,516.8765 z M 3.3571475,139.26993 L 3.3571475,54.950193 L 5.0842815,56.576833 C 6.0342052,57.471486 52.235039,94.524337 107.7528,138.9165 C 163.27056,183.30868 209.37544,220.30387 210.20809,221.12804 C 211.69262,222.59747 209.7239,222.62655 108.75378,222.62655 C 52.121256,222.62655 5.2391636,222.84325 4.5713515,223.10811 C 3.4688499,223.54538 3.3571475,215.83256 3.3571475,139.26993 z M 120.03453,129.7176 L 3.740955,36.015288 L 3.5304911,23.010166 L 3.3200272,10.005044 L 11.749079,10.005044 L 20.17813,10.005044 L 155.31166,115.96054 C 229.6351,174.23605 290.44519,222.2544 290.44519,222.66797 C 290.44519,223.12743 279.92024,223.41991 263.38665,223.41991 L 236.32809,223.41991 L 120.03453,129.7176 z M 426.64795,222.3842 C 426.43646,221.81456 426.36094,216.99505 426.48015,211.67417 L 426.69687,201.99985 L 547.2001,106.00245 L 667.70333,10.005044 L 698.72055,10.005044 L 729.73778,10.005044 L 718.30708,19.029431 C 712.0202,23.992845 651.26267,72.010771 583.29035,125.73594 L 459.70432,223.41805 L 443.36842,223.41898 C 430.63696,223.41971 426.94765,223.19138 426.64795,222.3842 z M 642.43339,222.63118 L 546.51818,222.22987 L 550.70338,218.57283 C 553.00525,216.56147 595.99438,180.17329 646.23479,137.7102 C 696.4752,95.247124 738.00179,59.941864 738.5161,59.254077 C 739.25296,58.268661 739.45638,75.537352 739.47562,140.71173 C 739.48904,186.20123 739.24096,223.33275 738.92432,223.22621 C 738.60767,223.11966 695.18676,222.8519 642.43339,222.63118 z M 212.91607,94.020726 C 154.44299,49.071537 105.73781,11.868958 104.68234,11.348327 C 103.18395,10.609218 126.64147,10.357651 211.69803,10.20065 C 271.61213,10.090058 320.66274,10.090058 320.69938,10.20065 C 321.10931,11.438029 320.21593,175.80851 319.79942,175.7823 C 319.48665,175.76263 271.38915,138.96991 212.91607,94.020726 z M 426.89585,93.17358 C 426.78642,47.649061 426.72685,10.311246 426.76348,10.200659 C 426.80011,10.090072 476.02343,10.090072 536.14863,10.200659 C 603.24783,10.324073 644.87426,10.68287 643.93195,11.129691 C 643.08757,11.530072 594.27962,48.659499 535.46982,93.639531 C 476.66003,138.61956 428.2171,175.53931 427.81887,175.68342 C 427.36905,175.8462 427.01946,144.59661 426.89585,93.17358 z "
         id="path2259" />
      <path
         style="fill:#fe5a5a"
         d="M 147.78461,467.37021 L 290.829,354.3068 L 305.7975,354.51421 L 320.76599,354.72163 L 320.975,368.64894 C 321.17915,382.25296 321.14351,382.61458 319.43977,384.22797 C 318.48044,385.13642 260.07644,429.65433 189.65309,483.15667 L 61.610664,580.43363 L 33.175441,580.43363 L 4.740218,580.43363 L 147.78461,467.37021 z M 88.178616,579.64027 C 88.439544,579.20392 89.237142,578.83676 89.951055,578.82435 C 90.664967,578.81195 142.54496,539.9352 205.23992,492.43157 L 319.23076,406.06134 L 319.42606,492.45412 C 319.55418,549.12932 319.88424,578.84691 320.38558,578.84691 C 320.8059,578.84691 321.1498,579.20392 321.1498,579.64027 C 321.1498,580.1657 281.73045,580.43363 204.427,580.43363 C 126.80727,580.43363 87.863134,580.16785 88.178616,579.64027 z M 341.68586,454.09044 L 341.4916,327.74726 L 172.42437,327.54715 L 3.3571475,327.34704 L 3.3571475,288.87243 L 3.3571475,250.39782 L 172.42437,250.19771 L 341.4916,249.9976 L 341.68598,130.00132 L 341.88036,10.005044 L 374.49905,10.005044 L 407.11774,10.005044 L 407.31211,130.00132 L 407.5065,249.9976 L 573.50326,250.19774 L 739.50003,250.39789 L 739.50003,288.87243 L 739.50003,327.34696 L 573.50326,327.54711 L 407.5065,327.74726 L 407.31224,454.09044 L 407.11798,580.43363 L 374.49905,580.43363 L 341.88011,580.43363 L 341.68586,454.09044 z M 426.31307,579.64027 C 426.31307,579.20392 426.65697,578.84691 427.07729,578.84691 C 427.57863,578.84691 427.90869,549.12566 428.03681,492.44326 L 428.2321,406.03962 L 542.60675,492.42703 C 605.51281,539.94011 657.56551,578.82176 658.27943,578.83068 C 658.99334,578.83961 659.79094,579.20392 660.05186,579.64027 C 660.36735,580.16786 621.29527,580.43363 543.41967,580.43363 C 465.86034,580.43363 426.31307,580.16572 426.31307,579.64027 z M 599.37604,465.94107 C 522.60928,405.58827 459.66343,355.78485 459.49635,355.26682 C 459.26534,354.55054 466.42463,354.32494 489.3872,354.32494 L 519.58182,354.32494 L 629.54092,444.47603 L 739.50003,534.62712 L 739.50003,555.15029 C 739.50003,566.43803 739.37671,575.67345 739.226,575.67345 C 739.07528,575.67345 676.1428,526.29388 599.37604,465.94107 z M 3.3571475,438.86502 C 3.3571475,383.03388 3.6178216,354.32494 4.1247626,354.32494 C 4.5469509,354.32494 4.8923777,354.68066 4.8923777,355.11544 C 4.8923777,355.63557 40.031798,355.97474 107.63751,356.10714 L 210.38264,356.30835 L 107.68209,438.42151 C 51.19678,483.58375 4.9614707,520.95986 4.9369538,521.47955 C 4.9124369,521.99923 4.5469509,522.64508 4.1247626,522.91476 C 3.6148536,523.24047 3.3571475,495.02304 3.3571475,438.86502 z M 738.48647,516.54097 C 738.14879,515.65349 695.07178,479.23809 642.75977,435.61786 L 547.64702,356.30835 L 642.57057,356.10689 C 716.13888,355.95074 737.62402,355.68819 738.07153,354.93982 C 738.3891,354.40874 738.84206,354.17382 739.0781,354.41778 C 739.31414,354.66173 739.41573,391.60232 739.30384,436.50796 C 739.19196,481.41359 738.82414,517.42846 738.48647,516.54097 z M 3.3571475,139.32335 L 3.3571475,55.226782 L 6.2978968,58.201896 C 7.9153089,59.838209 54.323629,97.235397 109.4275,141.30676 L 209.61635,221.4365 L 107.25437,221.63773 C 39.904068,221.77013 4.8923777,222.10933 4.8923777,222.62944 C 4.8923777,223.0642 4.5469509,223.41991 4.1247626,223.41991 C 3.617847,223.41991 3.3571475,194.85882 3.3571475,139.32335 z M 120.03453,129.7176 L 3.740955,36.015288 L 3.5304911,23.010166 L 3.3200272,10.005044 L 11.749079,10.005044 L 20.17813,10.005044 L 155.31166,115.96054 C 229.6351,174.23605 290.44519,222.2544 290.44519,222.66797 C 290.44519,223.12743 279.92024,223.41991 263.38665,223.41991 L 236.32809,223.41991 L 120.03453,129.7176 z M 426.64795,222.3842 C 426.43646,221.81456 426.36094,216.99505 426.48015,211.67417 L 426.69687,201.99985 L 547.2001,106.00245 L 667.70333,10.005044 L 698.72055,10.005044 L 729.73778,10.005044 L 718.30708,19.029431 C 712.0202,23.992845 651.26267,72.010771 583.29035,125.73594 L 459.70432,223.41805 L 443.36842,223.41898 C 430.63696,223.41971 426.94765,223.19138 426.64795,222.3842 z M 737.9648,222.62966 C 737.9648,222.11025 705.47217,221.77037 643.15987,221.63795 L 548.35495,221.4365 L 643.14863,141.30676 C 695.28516,97.235397 737.94737,60.751814 737.95356,60.232128 C 737.95974,59.712442 738.31022,59.066599 738.73241,58.796919 C 739.24228,58.471235 739.50003,86.027505 739.50003,140.86325 C 739.50003,195.37211 739.23924,223.41991 738.73241,223.41991 C 738.31022,223.41991 737.9648,223.0643 737.9648,222.62966 z M 213.68368,93.523501 C 155.63279,48.906278 107.1795,12.173028 106.00969,11.894053 C 104.83989,11.615079 103.69687,11.075926 103.46964,10.695935 C 103.23581,10.304895 150.38332,10.005044 212.10315,10.005044 C 284.28917,10.005044 321.1498,10.273222 321.1498,10.798408 C 321.1498,11.234758 320.80598,11.591772 320.38577,11.591772 C 319.88503,11.591772 319.55437,39.68677 319.42625,93.118743 L 319.23076,174.64571 L 213.68368,93.523501 z M 427.8483,93.374912 C 427.8483,39.381728 427.58746,11.591772 427.08068,11.591772 C 426.65849,11.591772 426.31307,11.234758 426.31307,10.798408 C 426.31307,10.273209 463.30163,10.005044 535.74352,10.005044 C 608.50169,10.005044 645.01499,10.270916 644.69956,10.798408 C 644.43864,11.234758 643.575,11.591772 642.78036,11.591772 C 641.69914,11.591772 447.11281,159.54391 430.72685,172.82494 L 427.8483,175.15805 L 427.8483,93.374912 z "
         id="path2257" />
      <path
         style="fill:#4e4ede"
         d="M 7.195223,578.98572 C 8.6728821,578.21821 73.22439,527.52636 150.64302,466.33714 L 291.40416,355.08403 L 305.70127,355.2995 L 319.99838,355.51499 L 320.20777,369.04698 L 320.41716,382.57898 L 191.51634,480.5146 C 120.62089,534.3792 62.667677,578.80724 62.73142,579.24359 C 62.806586,579.75813 52.595916,580.09744 33.677944,580.20906 C 5.3921131,580.37596 4.5899491,580.33891 7.195223,578.98572 z M 88.178616,579.64027 C 88.439544,579.20392 89.237142,578.83676 89.951055,578.82435 C 90.664967,578.81195 142.54496,539.9352 205.23992,492.43157 L 319.23076,406.06134 L 319.42606,492.45412 C 319.55418,549.12932 319.88424,578.84691 320.38558,578.84691 C 320.8059,578.84691 321.1498,579.20392 321.1498,579.64027 C 321.1498,580.1657 281.73045,580.43363 204.427,580.43363 C 126.80727,580.43363 87.863134,580.16785 88.178616,579.64027 z M 342.25921,453.69379 L 342.25921,326.95389 L 172.80817,326.95389 L 3.3571255,326.95389 L 3.3571255,288.87243 L 3.3571255,250.79096 L 172.80817,250.79096 L 342.25921,250.79096 L 342.25921,130.39798 L 342.25921,10.004997 L 374.49905,10.004997 L 406.73888,10.004997 L 406.73888,130.39798 L 406.73888,250.79096 L 573.11946,250.79096 L 739.50005,250.79096 L 739.50005,288.87243 L 739.50005,326.95389 L 573.11946,326.95389 L 406.73888,326.95389 L 406.73888,453.69379 L 406.73888,580.43367 L 374.49905,580.43367 L 342.25921,580.43367 L 342.25921,453.69379 z M 426.31307,579.64027 C 426.31307,579.20392 426.65697,578.84691 427.07729,578.84691 C 427.57863,578.84691 427.90869,549.12566 428.03681,492.44326 L 428.2321,406.03962 L 542.60675,492.42703 C 605.51281,539.94011 657.56551,578.82176 658.27943,578.83068 C 658.99334,578.83961 659.79094,579.20392 660.05186,579.64027 C 660.36735,580.16786 621.29527,580.43363 543.41967,580.43363 C 465.86034,580.43363 426.31307,580.16572 426.31307,579.64027 z M 737.9648,574.32129 C 737.33151,573.40804 675.32741,524.37918 600.17789,465.36827 C 525.02837,406.35735 462.86114,357.41028 462.02849,356.597 C 460.54991,355.15281 461.1972,355.11831 489.76574,355.11831 L 519.01689,355.11831 L 628.28258,444.70311 C 688.3787,493.97476 737.81714,534.11617 738.14576,533.90626 C 739.36352,533.12839 739.52252,536.08976 739.32168,555.80882 C 739.13658,573.98311 739.00214,575.81723 737.9648,574.32129 z M 3.3571475,438.86502 C 3.3571475,383.03388 3.6178216,354.32494 4.1247626,354.32494 C 4.5469509,354.32494 4.8923777,354.68066 4.8923777,355.11544 C 4.8923777,355.63557 40.031798,355.97474 107.63751,356.10714 L 210.38264,356.30835 L 107.68209,438.42151 C 51.19678,483.58375 4.9614707,520.95986 4.9369538,521.47955 C 4.9124369,521.99923 4.5469509,522.64508 4.1247626,522.91476 C 3.6148536,523.24047 3.3571475,495.02304 3.3571475,438.86502 z M 738.48647,516.54097 C 738.14879,515.65349 695.07178,479.23809 642.75977,435.61786 L 547.64702,356.30835 L 642.57057,356.10689 C 716.13888,355.95074 737.62402,355.68819 738.07153,354.93982 C 738.3891,354.40874 738.84206,354.17382 739.0781,354.41778 C 739.31414,354.66173 739.41573,391.60232 739.30384,436.50796 C 739.19196,481.41359 738.82414,517.42846 738.48647,516.54097 z M 3.3571475,139.32335 L 3.3571475,55.226782 L 6.2978968,58.201896 C 7.9153089,59.838209 54.323629,97.235397 109.4275,141.30676 L 209.61635,221.4365 L 107.25437,221.63773 C 39.904068,221.77013 4.8923777,222.10933 4.8923777,222.62944 C 4.8923777,223.0642 4.5469509,223.41991 4.1247626,223.41991 C 3.617847,223.41991 3.3571475,194.85882 3.3571475,139.32335 z M 737.9648,222.62966 C 737.9648,222.11025 705.47217,221.77037 643.15987,221.63795 L 548.35495,221.4365 L 643.14863,141.30676 C 695.28516,97.235397 737.94737,60.751814 737.95356,60.232128 C 737.95974,59.712442 738.31022,59.066599 738.73241,58.796919 C 739.24228,58.471235 739.50003,86.027505 739.50003,140.86325 C 739.50003,195.37211 739.23924,223.41991 738.73241,223.41991 C 738.31022,223.41991 737.9648,223.0643 737.9648,222.62966 z M 121.20962,129.42659 C 57.592522,78.166622 5.1368936,36.306763 4.6415605,36.404688 C 3.9880839,36.533876 3.6831726,32.929279 3.53038,23.268543 L 3.3198049,9.9543548 L 12.357953,10.17804 C 17.836075,10.313619 21.346978,10.714223 21.271386,11.19509 C 21.202792,11.63144 81.250268,59.108555 154.71022,116.69979 C 228.17018,174.29102 288.43731,221.6846 288.63717,222.01884 C 288.83704,222.35308 277.27278,222.62655 262.93883,222.62655 L 236.87708,222.62655 L 121.20962,129.42659 z M 427.59243,222.09764 C 427.31097,221.80674 427.08068,217.374 427.08068,212.24711 L 427.08068,202.9255 L 545.86912,108.36483 C 611.20276,56.356468 665.36138,12.949365 666.22162,11.904606 L 667.78569,10.005044 L 698.84526,10.036656 C 729.03932,10.067388 729.82997,10.107288 727.21819,11.468497 C 725.74053,12.238622 664.82579,60.064235 591.85209,117.74764 L 459.17265,222.62655 L 443.63841,222.62655 C 435.09458,222.62655 427.87388,222.38854 427.59243,222.09764 z M 213.68368,93.523501 C 155.63279,48.906278 107.1795,12.173028 106.00969,11.894053 C 104.83989,11.615079 103.69687,11.075926 103.46964,10.695935 C 103.23581,10.304895 150.38332,10.005044 212.10315,10.005044 C 284.28917,10.005044 321.1498,10.273222 321.1498,10.798408 C 321.1498,11.234758 320.80598,11.591772 320.38577,11.591772 C 319.88503,11.591772 319.55437,39.68677 319.42625,93.118743 L 319.23076,174.64571 L 213.68368,93.523501 z M 427.8483,93.374912 C 427.8483,39.381728 427.58746,11.591772 427.08068,11.591772 C 426.65849,11.591772 426.31307,11.234758 426.31307,10.798408 C 426.31307,10.273209 463.30163,10.005044 535.74352,10.005044 C 608.50169,10.005044 645.01499,10.270916 644.69956,10.798408 C 644.43864,11.234758 643.575,11.591772 642.78036,11.591772 C 641.69914,11.591772 447.11281,159.54391 430.72685,172.82494 L 427.8483,175.15805 L 427.8483,93.374912 z "
         id="path2255" />
      <path
         style="fill:#fe0101"
         d="M 7.195223,578.98572 C 8.6728821,578.21821 73.22439,527.52636 150.64302,466.33714 L 291.40416,355.08403 L 305.70127,355.2995 L 319.99838,355.51499 L 320.20777,369.04698 L 320.41716,382.57898 L 191.51634,480.5146 C 120.62089,534.3792 62.667677,578.80724 62.73142,579.24359 C 62.806586,579.75813 52.595916,580.09744 33.677944,580.20906 C 5.3921131,580.37596 4.5899491,580.33891 7.195223,578.98572 z M 342.25921,453.69379 L 342.25921,326.95389 L 172.80817,326.95389 L 3.3571255,326.95389 L 3.3571255,288.87243 L 3.3571255,250.79096 L 172.80817,250.79096 L 342.25921,250.79096 L 342.25921,130.39798 L 342.25921,10.004997 L 374.49905,10.004997 L 406.73888,10.004997 L 406.73888,130.39798 L 406.73888,250.79096 L 573.11946,250.79096 L 739.50005,250.79096 L 739.50005,288.87243 L 739.50005,326.95389 L 573.11946,326.95389 L 406.73888,326.95389 L 406.73888,453.69379 L 406.73888,580.43367 L 374.49905,580.43367 L 342.25921,580.43367 L 342.25921,453.69379 z M 737.9648,574.32129 C 737.33151,573.40804 675.32741,524.37918 600.17789,465.36827 C 525.02837,406.35735 462.86114,357.41028 462.02849,356.597 C 460.54991,355.15281 461.1972,355.11831 489.76574,355.11831 L 519.01689,355.11831 L 628.28258,444.70311 C 688.3787,493.97476 737.81714,534.11617 738.14576,533.90626 C 739.36352,533.12839 739.52252,536.08976 739.32168,555.80882 C 739.13658,573.98311 739.00214,575.81723 737.9648,574.32129 z M 121.20962,129.42659 C 57.592522,78.166622 5.1368936,36.306763 4.6415605,36.404688 C 3.9880839,36.533876 3.6831726,32.929279 3.53038,23.268543 L 3.3198049,9.9543548 L 12.357953,10.17804 C 17.836075,10.313619 21.346978,10.714223 21.271386,11.19509 C 21.202792,11.63144 81.250268,59.108555 154.71022,116.69979 C 228.17018,174.29102 288.43731,221.6846 288.63717,222.01884 C 288.83704,222.35308 277.27278,222.62655 262.93883,222.62655 L 236.87708,222.62655 L 121.20962,129.42659 z M 427.59243,222.09764 C 427.31097,221.80674 427.08068,217.374 427.08068,212.24711 L 427.08068,202.9255 L 545.86912,108.36483 C 611.20276,56.356468 665.36138,12.949365 666.22162,11.904606 L 667.78569,10.005044 L 698.84526,10.036656 C 729.03932,10.067388 729.82997,10.107288 727.21819,11.468497 C 725.74053,12.238622 664.82579,60.064235 591.85209,117.74764 L 459.17265,222.62655 L 443.63841,222.62655 C 435.09458,222.62655 427.87388,222.38854 427.59243,222.09764 z "
         id="path2253" />
    </g>
  </g>
</svg>
