<?xml version="1.0" encoding="UTF-8" standalone="no"?>
<!-- Created with Inkscape (http://www.inkscape.org/) -->

<svg
   xmlns:dc="http://purl.org/dc/elements/1.1/"
   xmlns:cc="http://creativecommons.org/ns#"
   xmlns:rdf="http://www.w3.org/1999/02/22-rdf-syntax-ns#"
   xmlns:svg="http://www.w3.org/2000/svg"
   xmlns="http://www.w3.org/2000/svg"
   xmlns:xlink="http://www.w3.org/1999/xlink"
   xmlns:sodipodi="http://sodipodi.sourceforge.net/DTD/sodipodi-0.dtd"
   xmlns:inkscape="http://www.inkscape.org/namespaces/inkscape"
   width="31.826044"
   height="31.952337"
   id="svg5605"
   version="1.1"
   inkscape:version="0.48.0 r9654"
   sodipodi:docname="New document 13">
  <defs
     id="defs5607">
    <inkscape:perspective
       sodipodi:type="inkscape:persp3d"
       inkscape:vp_x="0 : 16 : 1"
       inkscape:vp_y="0 : 1000 : 0"
       inkscape:vp_z="32 : 16 : 1"
       inkscape:persp3d-origin="16 : 10.666667 : 1"
       id="perspective2852-6" />
    <linearGradient
       gradientTransform="matrix(1.0536913,0,0,1.0535894,-0.11507531,-5.0721518)"
       y2="5.0304222"
       x2="19.878803"
       y1="25.748774"
       x1="7.269382"
       gradientUnits="userSpaceOnUse"
       id="linearGradient3769"
       xlink:href="#linearGradient3758"
       inkscape:collect="always" />
    <inkscape:perspective
       id="perspective2852"
       inkscape:persp3d-origin="16 : 10.666667 : 1"
       inkscape:vp_z="32 : 16 : 1"
       inkscape:vp_y="0 : 1000 : 0"
       inkscape:vp_x="0 : 16 : 1"
       sodipodi:type="inkscape:persp3d" />
    <linearGradient
       id="linearGradient3758">
      <stop
         id="stop3760"
         offset="0"
         style="stop-color:#8cd35f;stop-opacity:1;" />
      <stop
         id="stop3762"
         offset="1"
         style="stop-color:#92b979;stop-opacity:1;" />
    </linearGradient>
    <marker
       style="overflow:visible"
       id="Arrow1Lstart"
       refX="0"
       refY="0"
       orient="auto"
       inkscape:stockid="Arrow1Lstart">
      <path
         transform="matrix(0.8,0,0,0.8,10,0)"
         style="fill-rule:evenodd;stroke:#000000;stroke-width:1pt;marker-start:none"
         d="M 0,0 5,-5 -12.5,0 5,5 0,0 z"
         id="path3801"
         inkscape:connector-curvature="0" />
    </marker>
    <marker
       style="overflow:visible"
       id="Arrow1Sstart"
       refX="0"
       refY="0"
       orient="auto"
       inkscape:stockid="Arrow1Sstart">
      <path
         transform="matrix(0.2,0,0,0.2,1.2,0)"
         style="fill-rule:evenodd;stroke:#000000;stroke-width:1pt;marker-start:none"
         d="M 0,0 5,-5 -12.5,0 5,5 0,0 z"
         id="path3813"
         inkscape:connector-curvature="0" />
    </marker>
    <marker
       style="overflow:visible"
       id="Arrow1Send"
       refX="0"
       refY="0"
       orient="auto"
       inkscape:stockid="Arrow1Send">
      <path
         transform="matrix(-0.2,0,0,-0.2,-1.2,0)"
         style="fill-rule:evenodd;stroke:#000000;stroke-width:1pt;marker-start:none"
         d="M 0,0 5,-5 -12.5,0 5,5 0,0 z"
         id="path3816"
         inkscape:connector-curvature="0" />
    </marker>
  </defs>
  <sodipodi:namedview
     id="base"
     pagecolor="#ffffff"
     bordercolor="#666666"
     borderopacity="1.0"
     inkscape:pageopacity="0.0"
     inkscape:pageshadow="2"
     inkscape:zoom="5.6"
     inkscape:cx="47.979469"
     inkscape:cy="32.224624"
     inkscape:document-units="px"
     inkscape:current-layer="layer1"
     showgrid="false"
     fit-margin-top="0"
     fit-margin-left="0"
     fit-margin-right="0"
     fit-margin-bottom="0"
     inkscape:window-width="1878"
     inkscape:window-height="1060"
     inkscape:window-x="40"
     inkscape:window-y="-3"
     inkscape:window-maximized="1" />
  <metadata
     id="metadata5610">
    <rdf:RDF>
      <cc:Work
         rdf:about="">
        <dc:format>image/svg+xml</dc:format>
        <dc:type
           rdf:resource="http://purl.org/dc/dcmitype/StillImage" />
        <dc:title></dc:title>
      </cc:Work>
    </rdf:RDF>
  </metadata>
  <g
     inkscape:label="Layer 1"
     inkscape:groupmode="layer"
     id="layer1"
     transform="translate(-451.38565,-405.16299)">
    <rect
       inkscape:label="#br"
       ry="5.1780481"
       y="405.16299"
       x="451.38565"
       height="31.952337"
       width="31.826044"
       id="bg"
       style="fill:#74adb9;fill-opacity:0.46276598;stroke:none" />
    <g
       inkscape:label="Layer 1"
       id="layer1-7"
       transform="translate(451.38566,408.61458)" />
    <path
       inkscape:connector-curvature="0"
       id="path2998"
       d="m 466.49743,408.06507 c -2.71367,0.13236 -5.39966,1.10715 -7.64308,2.89737 -2.76523,-1.14888 -5.22446,-1.15599 -5.22028,1.29883 l 2.3229,7.71797 c 0.34457,1.14696 1.70048,1.86807 2.84742,1.52366 l 7.71802,-2.32293 c 0.42882,-1.24072 -0.42682,-2.79619 -1.84833,-4.2711 2.592,-1.0154 5.60968,-0.40419 7.61811,1.79837 2.60685,2.8587 2.40911,7.18422 -0.4496,9.79114 -2.85871,2.60684 -7.18428,2.4091 -9.79113,-0.44959 -0.10363,-0.11366 -0.20389,-0.22947 -0.29973,-0.34968 a 3.2006655,3.2006655 0 1 0 -5.02046,3.97136 c 0.18419,0.23115 0.37533,0.45599 0.57448,0.67443 4.93533,5.41206 13.42082,5.80946 18.83295,0.87417 5.41214,-4.93529 5.80954,-13.42081 0.87421,-18.83295 -2.46766,-2.70604 -5.82691,-4.16376 -9.24163,-4.32105 -0.42684,-0.02 -0.84687,-0.0208 -1.27385,0 z"
       style="font-size:medium;font-style:normal;font-variant:normal;font-weight:normal;font-stretch:normal;text-indent:0;text-align:start;text-decoration:none;line-height:normal;letter-spacing:normal;word-spacing:normal;text-transform:none;direction:ltr;block-progression:tb;writing-mode:lr-tb;text-anchor:start;baseline-shift:baseline;color:#000000;fill:#2a7fff;fill-opacity:1;stroke:none;stroke-width:2;marker:none;visibility:visible;display:inline;overflow:visible;enable-background:accumulate;font-family:Sans;-inkscape-font-specification:Sans" />
    <path
       inkscape:connector-curvature="0"
       id="path5541"
       d="m 466.46409,407.27258 c -2.71951,0.13268 -5.40045,1.12155 -7.69303,2.82249 -1.31261,-0.50482 -2.58036,-0.81223 -3.69666,-0.62448 -0.61537,0.10351 -1.20766,0.37702 -1.62353,0.87425 -0.41588,0.49723 -0.62571,1.17614 -0.62443,1.92322 l 0,0.0999 0.0499,0.12493 2.3229,7.71805 c 0.48424,1.61182 2.23907,2.53083 3.84652,2.04807 l 7.71801,-2.32286 0.37466,-0.0999 0.14987,-0.39964 c 0.30171,-0.87297 0.11841,-1.80037 -0.27475,-2.6476 -0.22243,-0.47933 -0.64803,-0.91581 -0.9991,-1.37372 2.02259,-0.40611 4.16995,0.15099 5.69485,1.82331 2.32281,2.54722 2.14736,6.3445 -0.39964,8.6672 -2.54722,2.32278 -6.34456,2.14733 -8.66716,-0.39964 -0.0944,-0.10359 -0.1923,-0.19638 -0.27475,-0.29973 -1.33824,-1.7015 -3.92218,-2.01737 -5.61991,-0.67443 -1.69774,1.34295 -1.99711,3.95091 -0.64941,5.64489 0.19471,0.24434 0.41286,0.46734 0.62443,0.69937 5.22955,5.73473 14.22166,6.15411 19.95694,0.9242 5.73477,-5.22958 6.15415,-14.22168 0.92416,-19.95697 -2.61471,-2.86733 -6.17375,-4.40426 -9.79114,-4.57091 -0.45031,-0.0208 -0.89538,-0.0224 -1.34878,0 z m 0.0749,1.59856 c 0.40056,-0.0192 0.79554,-0.0192 1.19891,0 3.21204,0.14802 6.37152,1.5016 8.69213,4.04641 4.64066,5.089 4.26523,13.06786 -0.82425,17.70894 -5.089,4.64059 -13.06788,4.26517 -17.70897,-0.82422 -0.18673,-0.20485 -0.37584,-0.40651 -0.5495,-0.62447 -0.74273,-0.93356 -0.53602,-2.63186 0.39963,-3.37191 0.93564,-0.74013 2.63443,-0.53807 3.37195,0.39964 0.10923,0.13699 0.23686,0.25089 0.34968,0.37462 2.89111,3.17041 7.74493,3.39045 10.91513,0.49955 3.1704,-2.89115 3.39044,-7.74491 0.49954,-10.91516 -2.2274,-2.44267 -5.60271,-3.13013 -8.49231,-1.9982 l -1.12398,0.42466 0.82425,0.87417 c 0.66893,0.69409 1.19084,1.38882 1.47367,1.99819 0.21929,0.47261 0.18612,0.80103 0.14986,1.12402 l -7.14353,2.14806 c -0.68645,0.20613 -1.64344,-0.29206 -1.84833,-0.97416 l -2.27294,-7.56811 c 0.0157,-0.40491 0.10535,-0.68146 0.22479,-0.82429 0.13047,-0.15594 0.32982,-0.26672 0.67439,-0.32467 0.68914,-0.1159 1.89148,0.10694 3.19711,0.64941 l 0.44959,0.19982 0.34969,-0.29973 c 2.11086,-1.68447 4.6449,-2.59821 7.19349,-2.72257 z"
       style="font-size:medium;font-style:normal;font-variant:normal;font-weight:normal;font-stretch:normal;text-indent:0;text-align:start;text-decoration:none;line-height:normal;letter-spacing:normal;word-spacing:normal;text-transform:none;direction:ltr;block-progression:tb;writing-mode:lr-tb;text-anchor:start;baseline-shift:baseline;color:#000000;fill:#ffffff;fill-opacity:1;stroke:none;stroke-width:2;marker:none;visibility:visible;display:inline;overflow:visible;enable-background:accumulate;font-family:Sans;-inkscape-font-specification:Sans" />
    <text
       sodipodi:linespacing="125%"
       id="text5555"
       y="263.49243"
       x="375.91162"
       style="font-size:40px;font-style:normal;font-variant:normal;font-weight:normal;font-stretch:normal;line-height:125%;letter-spacing:0px;word-spacing:0px;fill:#000000;fill-opacity:1;stroke:none;font-family:Rawengulk;-inkscape-font-specification:Rawengulk"
       xml:space="preserve"><tspan
         y="263.49243"
         x="375.91162"
         id="tspan5557"
         sodipodi:role="line" /></text>
  </g>
</svg>
