<?xml version="1.0" encoding="UTF-8" standalone="no"?>
<!-- Created with Inkscape (http://www.inkscape.org/) -->

<svg
   xmlns:dc="http://purl.org/dc/elements/1.1/"
   xmlns:cc="http://creativecommons.org/ns#"
   xmlns:rdf="http://www.w3.org/1999/02/22-rdf-syntax-ns#"
   xmlns:svg="http://www.w3.org/2000/svg"
   xmlns="http://www.w3.org/2000/svg"
   xmlns:xlink="http://www.w3.org/1999/xlink"
   xmlns:sodipodi="http://sodipodi.sourceforge.net/DTD/sodipodi-0.dtd"
   xmlns:inkscape="http://www.inkscape.org/namespaces/inkscape"
   width="32px"
   height="32px"
   id="svg2844"
   version="1.1"
   inkscape:version="0.48.1 r9760"
   sodipodi:docname="ShowExtButton.svg">
  <defs
     id="defs2846">
    <inkscape:perspective
       sodipodi:type="inkscape:persp3d"
       inkscape:vp_x="0 : 16 : 1"
       inkscape:vp_y="0 : 1000 : 0"
       inkscape:vp_z="32 : 16 : 1"
       inkscape:persp3d-origin="16 : 10.666667 : 1"
       id="perspective2852" />
    <radialGradient
       gradientTransform="matrix(0.88032611,0.1411525,-0.14123109,0.87983619,12.407931,6.8339136)"
       r="16.640026"
       fy="6.8791895"
       fx="-2.0491028"
       cy="6.8791895"
       cx="-2.0491028"
       gradientUnits="userSpaceOnUse"
       id="radialGradient3832"
       xlink:href="#linearGradient3797"
       inkscape:collect="always" />
    <linearGradient
       gradientUnits="userSpaceOnUse"
       y2="-0.35419792"
       x2="-5.4455004"
       y1="19.538454"
       x1="13.864648"
       id="linearGradient3805"
       xlink:href="#linearGradient3777"
       inkscape:collect="always" />
    <radialGradient
       gradientUnits="userSpaceOnUse"
       r="16.640026"
       fy="6.8791895"
       fx="-2.0491028"
       cy="6.8791895"
       cx="-2.0491028"
       id="radialGradient3803"
       xlink:href="#linearGradient3797"
       inkscape:collect="always" />
    <inkscape:perspective
       id="perspective2852-1"
       inkscape:persp3d-origin="16 : 10.666667 : 1"
       inkscape:vp_z="32 : 16 : 1"
       inkscape:vp_y="0 : 1000 : 0"
       inkscape:vp_x="0 : 16 : 1"
       sodipodi:type="inkscape:persp3d" />
    <linearGradient
       id="linearGradient3777">
      <stop
         id="stop3779"
         offset="0"
         style="stop-color:#ffe92a;stop-opacity:1;" />
      <stop
         id="stop3781"
         offset="1"
         style="stop-color:#ffffff;stop-opacity:1;" />
    </linearGradient>
    <linearGradient
       id="linearGradient3797">
      <stop
         style="stop-color:#ffa72a;stop-opacity:1;"
         offset="0"
         id="stop3799" />
      <stop
         style="stop-color:#ffe780;stop-opacity:1;"
         offset="1"
         id="stop3801" />
    </linearGradient>
  </defs>
  <sodipodi:namedview
     id="base"
     pagecolor="#828986"
     bordercolor="#666666"
     borderopacity="1.0"
     inkscape:pageopacity="0.51764706"
     inkscape:pageshadow="2"
     inkscape:zoom="7.9180417"
     inkscape:cx="12.070916"
     inkscape:cy="18.547376"
     inkscape:current-layer="layer1"
     showgrid="true"
     inkscape:grid-bbox="true"
     inkscape:document-units="px"
     inkscape:window-width="1878"
     inkscape:window-height="1060"
     inkscape:window-x="40"
     inkscape:window-y="-3"
     inkscape:window-maximized="1" />
  <metadata
     id="metadata2849">
    <rdf:RDF>
      <cc:Work
         rdf:about="">
        <dc:format>image/svg+xml</dc:format>
        <dc:type
           rdf:resource="http://purl.org/dc/dcmitype/StillImage" />
        <dc:title />
      </cc:Work>
    </rdf:RDF>
  </metadata>
  <g
     id="layer1"
     inkscape:label="Layer 1"
     inkscape:groupmode="layer">
    <g
       inkscape:label="Layer 1"
       id="layer1-7"
       transform="translate(2.9047608,-2.8416078)">
      <rect
         inkscape:label="#br"
         ry="5.1780481"
         y="2.8654392"
         x="-2.8177829"
         height="31.952337"
         width="31.826044"
         id="bg"
         style="fill:#74adb9;fill-opacity:0.46276598;stroke:none" />
    </g>
    <g
       id="g3811">
      <rect
         style="fill:none;stroke:#ff0000;stroke-width:2.00514293;stroke-linecap:round;stroke-linejoin:round;stroke-miterlimit:4;stroke-opacity:1;stroke-dasharray:none"
         id="rect2819"
         width="11.852413"
         height="7.8041277"
         x="-31.012825"
         y="-5.1946173"
         transform="matrix(-0.9413841,-0.3373366,-0.24043841,0.9706644,0,0)" />
      <rect
         transform="matrix(0.86351702,-0.5043197,0.25324121,0.96740317,0,0)"
         y="10.408876"
         x="-1.6377919"
         height="7.4813795"
         width="13.046396"
         id="rect2817"
         style="fill:none;stroke:#ff0000;stroke-width:2.03797102;stroke-linecap:round;stroke-linejoin:round;stroke-miterlimit:4;stroke-opacity:1;stroke-dasharray:none" />
      <g
         id="g2836"
         style="font-size:18.65634537px;font-style:normal;font-weight:normal;fill:#000000;fill-opacity:1;stroke:none;font-family:Bitstream Vera Sans">
        <path
           style="fill:#ffffff"
           d="m 7.375,3.1875 c -1.4405996,1.58e-5 -2.7421592,0.4193335 -3.71875,1.28125 -0.9710966,0.857095 -1.5721178,2.1038696 -1.75,3.5625 a 1.1367584,1.1367584 0 0 0 0.96875,1.25 L 4.5625,9.5 A 1.1367584,1.1367584 0 0 0 5.84375,8.5625 C 5.9629884,7.8023494 6.2180296,7.361473 6.4375,7.15625 6.698582,6.9121261 6.9454407,6.7812581 7.40625,6.78125 c 0.4752987,8.1e-6 0.723503,0.1078969 1.03125,0.40625 0.3162651,0.3066346 0.4062459,0.5368134 0.40625,0.875 -3.9e-6,0.1802578 -0.052387,0.2791759 -0.125,0.40625 C 8.67598,8.5435964 8.4006866,8.9111605 7.875,9.375 7.2845359,9.8959997 6.8590005,10.302098 6.5625,10.65625 6.2111527,11.079301 5.9134274,11.518001 5.71875,12.03125 5.472501,12.66328 5.3749949,13.364653 5.375,14.125 c 0,0.28379 0.027216,0.354956 0.03125,0.5 A 1.1367584,1.1367584 0 0 0 5.625,15.25 1.1367584,1.1367584 0 0 0 5.3125,16.03125 l 0,1.84375 A 1.1367584,1.1367584 0 0 0 6.4375,19 l 1.84375,0 a 1.1367584,1.1367584 0 0 0 1.125,-1.125 l 0,-1.84375 A 1.1367584,1.1367584 0 0 0 9.0625,15.21875 1.1367584,1.1367584 0 0 0 9.21875,14.625 c 0.010929,-0.590454 0.083479,-0.9717 0.125,-1.125 0.060552,-0.223589 0.1123635,-0.37736 0.15625,-0.4375 0.03631,-0.04976 0.3964015,-0.423088 0.90625,-0.875 0.843551,-0.74696 1.456143,-1.364818 1.84375,-2.0625 0.371963,-0.6695438 0.531238,-1.4316748 0.53125,-2.1875 -1.2e-5,-1.2929146 -0.527656,-2.5174412 -1.5,-3.40625 C 10.268523,3.6055806 8.8849467,3.1875156 7.375,3.1875 z"
           id="path2840"
           inkscape:original="M 7.375 4.3125 C 6.1421711 4.3125135 5.1562661 4.6505531 4.40625 5.3125 C 3.6562294 5.9744721 3.1830748 6.91129 3.03125 8.15625 L 4.71875 8.375 C 4.8645 7.445837 5.1886238 6.7497692 5.65625 6.3125 C 6.1238694 5.8752539 6.7078472 5.6562623 7.40625 5.65625 C 8.1289346 5.6562623 8.7207551 5.8922062 9.21875 6.375 C 9.7167308 6.8578169 9.9687423 7.4248425 9.96875 8.0625 C 9.9687423 8.4147452 9.8887872 8.7336807 9.71875 9.03125 C 9.5486979 9.328837 9.1928212 9.717733 8.625 10.21875 C 8.0571659 10.719782 7.6561236 11.113867 7.4375 11.375 C 7.1399166 11.733315 6.9148524 12.08527 6.78125 12.4375 C 6.5990547 12.905128 6.4999957 13.481263 6.5 14.125 C 6.5 14.234318 6.52517 14.375124 6.53125 14.59375 L 8.09375 14.59375 C 8.1058902 13.937867 8.171045 13.47901 8.25 13.1875 C 8.3289433 12.896 8.429772 12.630957 8.59375 12.40625 C 8.7577153 12.181553 9.1218165 11.817453 9.65625 11.34375 C 10.451809 10.639286 10.976705 10.054423 11.25 9.5625 C 11.523277 9.0705935 11.656241 8.5205202 11.65625 7.9375 C 11.656241 6.9293881 11.277338 6.0855562 10.5 5.375 C 9.7226445 4.6644688 8.6806948 4.3125135 7.375 4.3125 z M 6.4375 16.03125 L 6.4375 17.875 L 8.28125 17.875 L 8.28125 16.03125 L 6.4375 16.03125 z "
           inkscape:radius="1.1366447"
           sodipodi:type="inkscape:offset" />
      </g>
      <g
         id="text2823"
         style="font-size:18.65634537px;font-style:normal;font-weight:normal;fill:#000000;fill-opacity:1;stroke:none;font-family:Bitstream Vera Sans">
        <path
           id="path2828"
           style=""
           d="m 6.5234807,14.601542 c -0.00608,-0.218626 -0.00911,-0.382597 -0.00911,-0.491915 -4.3e-6,-0.643737 0.091091,-1.199419 0.2732863,-1.667047 C 6.9212594,12.09035 7.1368517,11.735078 7.4344351,11.376763 7.6530587,11.11563 8.0462869,10.734548 8.614121,10.233516 9.1819422,9.732499 9.5508784,9.3331977 9.7209305,9.0356107 9.8909677,8.7380414 9.97599,8.4131347 9.9759977,8.0608895 9.97599,7.423232 9.726996,6.8629956 9.2290152,6.3801787 8.7310203,5.8973849 8.1206815,5.6559823 7.3979969,5.65597 6.6995941,5.6559823 6.1165839,5.8746111 5.6489645,6.3118572 5.1813383,6.7491264 4.8746506,7.4323415 4.7289006,8.3615045 L 3.043635,8.1610945 C 3.1954598,6.9161345 3.6463817,5.9626699 4.3964023,5.3006978 5.1464184,4.6387509 6.1378394,4.3077711 7.3706683,4.3077576 c 1.3056948,1.35e-5 2.3472182,0.3552854 3.1245737,1.0658166 0.777338,0.7105562 1.166012,1.5698889 1.166021,2.5780008 -9e-6,0.5830202 -0.136652,1.1204827 -0.409929,1.6123892 -0.273295,0.4919228 -0.807721,1.0901158 -1.6032798,1.7945798 -0.5344335,0.473703 -0.8836323,0.822901 -1.0475976,1.047598 -0.163978,0.224707 -0.2854384,0.482811 -0.3643817,0.774311 -0.078955,0.29151 -0.124503,0.765206 -0.1366432,1.421089 z m -0.100205,3.288545 0,-1.867456 1.8674565,0 0,1.867456 z" />
      </g>
      <g
         style="font-size:18.65634537px;font-style:normal;font-weight:normal;fill:#000000;fill-opacity:1;stroke:none;font-family:Bitstream Vera Sans"
         id="g2830">
        <path
           style=""
           d="m 6.5234807,14.601542 c -0.00608,-0.218626 -0.00911,-0.382597 -0.00911,-0.491915 -4.3e-6,-0.643737 0.091091,-1.199419 0.2732863,-1.667047 C 6.9212594,12.09035 7.1368517,11.735078 7.4344351,11.376763 7.6530587,11.11563 8.0462869,10.734548 8.614121,10.233516 9.1819422,9.732499 9.5508784,9.3331977 9.7209305,9.0356107 9.8909677,8.7380414 9.97599,8.4131347 9.9759977,8.0608895 9.97599,7.423232 9.726996,6.8629956 9.2290152,6.3801787 8.7310203,5.8973849 8.1206815,5.6559823 7.3979969,5.65597 6.6995941,5.6559823 6.1165839,5.8746111 5.6489645,6.3118572 5.1813383,6.7491264 4.8746506,7.4323415 4.7289006,8.3615045 L 3.043635,8.1610945 C 3.1954598,6.9161345 3.6463817,5.9626699 4.3964023,5.3006978 5.1464184,4.6387509 6.1378394,4.3077711 7.3706683,4.3077576 c 1.3056948,1.35e-5 2.3472182,0.3552854 3.1245737,1.0658166 0.777338,0.7105562 1.166012,1.5698889 1.166021,2.5780008 -9e-6,0.5830202 -0.136652,1.1204827 -0.409929,1.6123892 -0.273295,0.4919228 -0.807721,1.0901158 -1.6032798,1.7945798 -0.5344335,0.473703 -0.8836323,0.822901 -1.0475976,1.047598 -0.163978,0.224707 -0.2854384,0.482811 -0.3643817,0.774311 -0.078955,0.29151 -0.124503,0.765206 -0.1366432,1.421089 z m -0.100205,3.288545 0,-1.867456 1.8674565,0 0,1.867456 z"
           id="path2832" />
      </g>
      <g
         transform="matrix(0.75627602,0,0,0.75627602,18.270359,-1.2438315)"
         style="font-size:18.65634537px;font-style:normal;font-weight:normal;fill:#000000;fill-opacity:1;stroke:none;font-family:Bitstream Vera Sans"
         id="g2842">
        <path
           sodipodi:type="inkscape:offset"
           inkscape:radius="1.1366447"
           inkscape:original="M 7.375 4.3125 C 6.1421711 4.3125135 5.1562661 4.6505531 4.40625 5.3125 C 3.6562294 5.9744721 3.1830748 6.91129 3.03125 8.15625 L 4.71875 8.375 C 4.8645 7.445837 5.1886238 6.7497692 5.65625 6.3125 C 6.1238694 5.8752539 6.7078472 5.6562623 7.40625 5.65625 C 8.1289346 5.6562623 8.7207551 5.8922062 9.21875 6.375 C 9.7167308 6.8578169 9.9687423 7.4248425 9.96875 8.0625 C 9.9687423 8.4147452 9.8887872 8.7336807 9.71875 9.03125 C 9.5486979 9.328837 9.1928212 9.717733 8.625 10.21875 C 8.0571659 10.719782 7.6561236 11.113867 7.4375 11.375 C 7.1399166 11.733315 6.9148524 12.08527 6.78125 12.4375 C 6.5990547 12.905128 6.4999957 13.481263 6.5 14.125 C 6.5 14.234318 6.52517 14.375124 6.53125 14.59375 L 8.09375 14.59375 C 8.1058902 13.937867 8.171045 13.47901 8.25 13.1875 C 8.3289433 12.896 8.429772 12.630957 8.59375 12.40625 C 8.7577153 12.181553 9.1218165 11.817453 9.65625 11.34375 C 10.451809 10.639286 10.976705 10.054423 11.25 9.5625 C 11.523277 9.0705935 11.656241 8.5205202 11.65625 7.9375 C 11.656241 6.9293881 11.277338 6.0855562 10.5 5.375 C 9.7226445 4.6644688 8.6806948 4.3125135 7.375 4.3125 z M 6.4375 16.03125 L 6.4375 17.875 L 8.28125 17.875 L 8.28125 16.03125 L 6.4375 16.03125 z "
           id="path2844"
           d="m 7.375,3.1875 c -1.4405996,1.58e-5 -2.7421592,0.4193335 -3.71875,1.28125 -0.9710966,0.857095 -1.5721178,2.1038696 -1.75,3.5625 a 1.1367584,1.1367584 0 0 0 0.96875,1.25 L 4.5625,9.5 A 1.1367584,1.1367584 0 0 0 5.84375,8.5625 C 5.9629884,7.8023494 6.2180296,7.361473 6.4375,7.15625 6.698582,6.9121261 6.9454407,6.7812581 7.40625,6.78125 c 0.4752987,8.1e-6 0.723503,0.1078969 1.03125,0.40625 0.3162651,0.3066346 0.4062459,0.5368134 0.40625,0.875 -3.9e-6,0.1802578 -0.052387,0.2791759 -0.125,0.40625 C 8.67598,8.5435964 8.4006866,8.9111605 7.875,9.375 7.2845359,9.8959997 6.8590005,10.302098 6.5625,10.65625 6.2111527,11.079301 5.9134274,11.518001 5.71875,12.03125 5.472501,12.66328 5.3749949,13.364653 5.375,14.125 c 0,0.28379 0.027216,0.354956 0.03125,0.5 A 1.1367584,1.1367584 0 0 0 5.625,15.25 1.1367584,1.1367584 0 0 0 5.3125,16.03125 l 0,1.84375 A 1.1367584,1.1367584 0 0 0 6.4375,19 l 1.84375,0 a 1.1367584,1.1367584 0 0 0 1.125,-1.125 l 0,-1.84375 A 1.1367584,1.1367584 0 0 0 9.0625,15.21875 1.1367584,1.1367584 0 0 0 9.21875,14.625 c 0.010929,-0.590454 0.083479,-0.9717 0.125,-1.125 0.060552,-0.223589 0.1123635,-0.37736 0.15625,-0.4375 0.03631,-0.04976 0.3964015,-0.423088 0.90625,-0.875 0.843551,-0.74696 1.456143,-1.364818 1.84375,-2.0625 0.371963,-0.6695438 0.531238,-1.4316748 0.53125,-2.1875 -1.2e-5,-1.2929146 -0.527656,-2.5174412 -1.5,-3.40625 C 10.268523,3.6055806 8.8849467,3.1875156 7.375,3.1875 z"
           style="fill:#ffffff" />
      </g>
      <g
         transform="matrix(0.75627602,0,0,0.75627602,18.270359,-1.2438315)"
         id="g2846"
         style="font-size:18.65634537px;font-style:normal;font-weight:normal;fill:#000000;fill-opacity:1;stroke:none;font-family:Bitstream Vera Sans">
        <path
           id="path2848"
           d="m 6.5234807,14.601542 c -0.00608,-0.218626 -0.00911,-0.382597 -0.00911,-0.491915 C 6.5143664,13.46589 6.6054617,12.910208 6.787657,12.44258 6.9212594,12.09035 7.1368517,11.735078 7.4344351,11.376763 7.6530587,11.11563 8.0462869,10.734548 8.614121,10.233516 9.1819422,9.732499 9.5508784,9.3331977 9.7209305,9.0356107 9.8909677,8.7380414 9.97599,8.4131347 9.9759977,8.0608895 9.97599,7.423232 9.726996,6.8629956 9.2290152,6.3801787 8.7310203,5.8973849 8.1206815,5.6559823 7.3979969,5.65597 6.6995941,5.6559823 6.1165839,5.8746111 5.6489645,6.3118572 5.1813383,6.7491264 4.8746506,7.4323415 4.7289006,8.3615045 L 3.043635,8.1610945 C 3.1954598,6.9161345 3.6463817,5.9626699 4.3964023,5.3006978 5.1464184,4.6387509 6.1378394,4.3077711 7.3706683,4.3077576 c 1.3056948,1.35e-5 2.3472182,0.3552854 3.1245737,1.0658166 0.777338,0.7105562 1.166012,1.5698889 1.166021,2.5780008 -9e-6,0.5830202 -0.136652,1.1204827 -0.409929,1.6123892 -0.273295,0.4919228 -0.807721,1.0901158 -1.6032798,1.7945798 -0.5344335,0.473703 -0.8836323,0.822901 -1.0475976,1.047598 -0.163978,0.224707 -0.2854384,0.482811 -0.3643817,0.774311 -0.078955,0.29151 -0.124503,0.765206 -0.1366432,1.421089 z m -0.100205,3.288545 0,-1.867456 1.8674565,0 0,1.867456 z" />
      </g>
      <rect
         style="fill:none;stroke:#ff0000;stroke-width:2.06446123;stroke-linecap:round;stroke-linejoin:round;stroke-miterlimit:4;stroke-opacity:1;stroke-dasharray:none"
         id="rect3770"
         width="14.130225"
         height="11.032989"
         x="22.38872"
         y="21.508171"
         transform="matrix(0.99995916,-0.00903727,-0.33671172,0.94160778,0,0)" />
      <g
         id="g2850"
         style="font-size:18.65634537px;font-style:normal;font-weight:normal;fill:#000000;fill-opacity:1;stroke:none;font-family:Bitstream Vera Sans"
         transform="matrix(1.1396502,0,0,1.1396502,10.343434,7.7639653)">
        <path
           style="fill:#ffffff"
           d="m 7.375,3.1875 c -1.4405996,1.58e-5 -2.7421592,0.4193335 -3.71875,1.28125 -0.9710966,0.857095 -1.5721178,2.1038696 -1.75,3.5625 a 1.1367584,1.1367584 0 0 0 0.96875,1.25 L 4.5625,9.5 A 1.1367584,1.1367584 0 0 0 5.84375,8.5625 C 5.9629884,7.8023494 6.2180296,7.361473 6.4375,7.15625 6.698582,6.9121261 6.9454407,6.7812581 7.40625,6.78125 c 0.4752987,8.1e-6 0.723503,0.1078969 1.03125,0.40625 0.3162651,0.3066346 0.4062459,0.5368134 0.40625,0.875 -3.9e-6,0.1802578 -0.052387,0.2791759 -0.125,0.40625 C 8.67598,8.5435964 8.4006866,8.9111605 7.875,9.375 7.2845359,9.8959997 6.8590005,10.302098 6.5625,10.65625 6.2111527,11.079301 5.9134274,11.518001 5.71875,12.03125 5.472501,12.66328 5.3749949,13.364653 5.375,14.125 c 0,0.28379 0.027216,0.354956 0.03125,0.5 A 1.1367584,1.1367584 0 0 0 5.625,15.25 1.1367584,1.1367584 0 0 0 5.3125,16.03125 l 0,1.84375 A 1.1367584,1.1367584 0 0 0 6.4375,19 l 1.84375,0 a 1.1367584,1.1367584 0 0 0 1.125,-1.125 l 0,-1.84375 A 1.1367584,1.1367584 0 0 0 9.0625,15.21875 1.1367584,1.1367584 0 0 0 9.21875,14.625 c 0.010929,-0.590454 0.083479,-0.9717 0.125,-1.125 0.060552,-0.223589 0.1123635,-0.37736 0.15625,-0.4375 0.03631,-0.04976 0.3964015,-0.423088 0.90625,-0.875 0.843551,-0.74696 1.456143,-1.364818 1.84375,-2.0625 0.371963,-0.6695438 0.531238,-1.4316748 0.53125,-2.1875 -1.2e-5,-1.2929146 -0.527656,-2.5174412 -1.5,-3.40625 C 10.268523,3.6055806 8.8849467,3.1875156 7.375,3.1875 z"
           id="path2852"
           inkscape:original="M 7.375 4.3125 C 6.1421711 4.3125135 5.1562661 4.6505531 4.40625 5.3125 C 3.6562294 5.9744721 3.1830748 6.91129 3.03125 8.15625 L 4.71875 8.375 C 4.8645 7.445837 5.1886238 6.7497692 5.65625 6.3125 C 6.1238694 5.8752539 6.7078472 5.6562623 7.40625 5.65625 C 8.1289346 5.6562623 8.7207551 5.8922062 9.21875 6.375 C 9.7167308 6.8578169 9.9687423 7.4248425 9.96875 8.0625 C 9.9687423 8.4147452 9.8887872 8.7336807 9.71875 9.03125 C 9.5486979 9.328837 9.1928212 9.717733 8.625 10.21875 C 8.0571659 10.719782 7.6561236 11.113867 7.4375 11.375 C 7.1399166 11.733315 6.9148524 12.08527 6.78125 12.4375 C 6.5990547 12.905128 6.4999957 13.481263 6.5 14.125 C 6.5 14.234318 6.52517 14.375124 6.53125 14.59375 L 8.09375 14.59375 C 8.1058902 13.937867 8.171045 13.47901 8.25 13.1875 C 8.3289433 12.896 8.429772 12.630957 8.59375 12.40625 C 8.7577153 12.181553 9.1218165 11.817453 9.65625 11.34375 C 10.451809 10.639286 10.976705 10.054423 11.25 9.5625 C 11.523277 9.0705935 11.656241 8.5205202 11.65625 7.9375 C 11.656241 6.9293881 11.277338 6.0855562 10.5 5.375 C 9.7226445 4.6644688 8.6806948 4.3125135 7.375 4.3125 z M 6.4375 16.03125 L 6.4375 17.875 L 8.28125 17.875 L 8.28125 16.03125 L 6.4375 16.03125 z "
           inkscape:radius="1.1366447"
           sodipodi:type="inkscape:offset" />
      </g>
      <g
         style="font-size:18.65634537px;font-style:normal;font-weight:normal;fill:#000000;fill-opacity:1;stroke:none;font-family:Bitstream Vera Sans"
         id="g2854"
         transform="matrix(1.1396502,0,0,1.1396502,10.343434,7.7639653)">
        <path
           d="m 6.5234807,14.601542 c -0.00608,-0.218626 -0.00911,-0.382597 -0.00911,-0.491915 C 6.5143664,13.46589 6.6054617,12.910208 6.787657,12.44258 6.9212594,12.09035 7.1368517,11.735078 7.4344351,11.376763 7.6530587,11.11563 8.0462869,10.734548 8.614121,10.233516 9.1819422,9.732499 9.5508784,9.3331977 9.7209305,9.0356107 9.8909677,8.7380414 9.97599,8.4131347 9.9759977,8.0608895 9.97599,7.423232 9.726996,6.8629956 9.2290152,6.3801787 8.7310203,5.8973849 8.1206815,5.6559823 7.3979969,5.65597 6.6995941,5.6559823 6.1165839,5.8746111 5.6489645,6.3118572 5.1813383,6.7491264 4.8746506,7.4323415 4.7289006,8.3615045 L 3.043635,8.1610945 C 3.1954598,6.9161345 3.6463817,5.9626699 4.3964023,5.3006978 5.1464184,4.6387509 6.1378394,4.3077711 7.3706683,4.3077576 c 1.3056948,1.35e-5 2.3472182,0.3552854 3.1245737,1.0658166 0.777338,0.7105562 1.166012,1.5698889 1.166021,2.5780008 -9e-6,0.5830202 -0.136652,1.1204827 -0.409929,1.6123892 -0.273295,0.4919228 -0.807721,1.0901158 -1.6032798,1.7945798 -0.5344335,0.473703 -0.8836323,0.822901 -1.0475976,1.047598 -0.163978,0.224707 -0.2854384,0.482811 -0.3643817,0.774311 -0.078955,0.29151 -0.124503,0.765206 -0.1366432,1.421089 z m -0.100205,3.288545 0,-1.867456 1.8674565,0 0,1.867456 z"
           id="path2856" />
      </g>
    </g>
  </g>
</svg>
