<?xml version="1.0" encoding="UTF-8" standalone="no"?>
<!-- Created with Inkscape (http://www.inkscape.org/) -->

<svg
   xmlns:dc="http://purl.org/dc/elements/1.1/"
   xmlns:cc="http://creativecommons.org/ns#"
   xmlns:rdf="http://www.w3.org/1999/02/22-rdf-syntax-ns#"
   xmlns:svg="http://www.w3.org/2000/svg"
   xmlns="http://www.w3.org/2000/svg"
   xmlns:xlink="http://www.w3.org/1999/xlink"
   xmlns:sodipodi="http://sodipodi.sourceforge.net/DTD/sodipodi-0.dtd"
   xmlns:inkscape="http://www.inkscape.org/namespaces/inkscape"
   width="32px"
   height="32px"
   id="svg2844"
   version="1.1"
   inkscape:version="0.48.0 r9654"
   sodipodi:docname="ToggleMap.svg">
  <defs
     id="defs2846">
    <marker
       inkscape:stockid="Arrow1Send"
       orient="auto"
       refY="0.0"
       refX="0.0"
       id="Arrow1Send"
       style="overflow:visible;">
      <path
         id="path3816"
         d="M 0.0,0.0 L 5.0,-5.0 L -12.5,0.0 L 5.0,5.0 L 0.0,0.0 z "
         style="fill-rule:evenodd;stroke:#000000;stroke-width:1.0pt;marker-start:none;"
         transform="scale(0.2) rotate(180) translate(6,0)" />
    </marker>
    <marker
       inkscape:stockid="Arrow1Sstart"
       orient="auto"
       refY="0.0"
       refX="0.0"
       id="Arrow1Sstart"
       style="overflow:visible">
      <path
         id="path3813"
         d="M 0.0,0.0 L 5.0,-5.0 L -12.5,0.0 L 5.0,5.0 L 0.0,0.0 z "
         style="fill-rule:evenodd;stroke:#000000;stroke-width:1.0pt;marker-start:none"
         transform="scale(0.2) translate(6,0)" />
    </marker>
    <marker
       inkscape:stockid="Arrow1Lstart"
       orient="auto"
       refY="0.0"
       refX="0.0"
       id="Arrow1Lstart"
       style="overflow:visible">
      <path
         id="path3801"
         d="M 0.0,0.0 L 5.0,-5.0 L -12.5,0.0 L 5.0,5.0 L 0.0,0.0 z "
         style="fill-rule:evenodd;stroke:#000000;stroke-width:1.0pt;marker-start:none"
         transform="scale(0.8) translate(12.5,0)" />
    </marker>
    <linearGradient
       id="linearGradient3758">
      <stop
         style="stop-color:#8cd35f;stop-opacity:1;"
         offset="0"
         id="stop3760" />
      <stop
         style="stop-color:#92b979;stop-opacity:1;"
         offset="1"
         id="stop3762" />
    </linearGradient>
    <inkscape:perspective
       sodipodi:type="inkscape:persp3d"
       inkscape:vp_x="0 : 16 : 1"
       inkscape:vp_y="0 : 1000 : 0"
       inkscape:vp_z="32 : 16 : 1"
       inkscape:persp3d-origin="16 : 10.666667 : 1"
       id="perspective2852" />
    <linearGradient
       inkscape:collect="always"
       xlink:href="#linearGradient3758"
       id="linearGradient3769"
       gradientUnits="userSpaceOnUse"
       x1="7.269382"
       y1="25.748774"
       x2="19.878803"
       y2="5.0304222"
       gradientTransform="matrix(1.0536913,0,0,1.0535894,-0.11507531,-5.0721518)" />
    <inkscape:perspective
       id="perspective2852-6"
       inkscape:persp3d-origin="16 : 10.666667 : 1"
       inkscape:vp_z="32 : 16 : 1"
       inkscape:vp_y="0 : 1000 : 0"
       inkscape:vp_x="0 : 16 : 1"
       sodipodi:type="inkscape:persp3d" />
  </defs>
  <sodipodi:namedview
     id="base"
     pagecolor="#828986"
     bordercolor="#666666"
     borderopacity="1.0"
     inkscape:pageopacity="0.51764706"
     inkscape:pageshadow="2"
     inkscape:zoom="7.9180417"
     inkscape:cx="5.1674484"
     inkscape:cy="14.339499"
     inkscape:current-layer="layer1"
     showgrid="true"
     inkscape:grid-bbox="true"
     inkscape:document-units="px"
     inkscape:window-width="1878"
     inkscape:window-height="1060"
     inkscape:window-x="40"
     inkscape:window-y="-3"
     inkscape:window-maximized="1" />
  <metadata
     id="metadata2849">
    <rdf:RDF>
      <cc:Work
         rdf:about="">
        <dc:format>image/svg+xml</dc:format>
        <dc:type
           rdf:resource="http://purl.org/dc/dcmitype/StillImage" />
        <dc:title></dc:title>
      </cc:Work>
    </rdf:RDF>
  </metadata>
  <g
     id="layer1"
     inkscape:label="Layer 1"
     inkscape:groupmode="layer">
    <rect
       inkscape:label="#br"
       ry="5.1780481"
       y="-3.4606857"
       x="0.072257683"
       height="31.952337"
       width="31.826044"
       id="bg"
       style="fill:#74adb9;fill-opacity:0.46276598;stroke:none" />
    <path
       style="fill:url(#linearGradient3769);fill-opacity:1;stroke:#000000;stroke-width:1;stroke-linejoin:round;stroke-miterlimit:4;stroke-opacity:1"
       d="m 2.1432777,-1.2775761 7.9042363,2.7285795 9.02738,-3.4321301 11.109602,3.0557742 -1.428852,13.2269005 0.669774,12.036795 -10.451702,-2.119571 -8.54981,3.388959 -8.2806283,-2.728579 1.4288518,-11.381334 z"
       id="rect2988"
       inkscape:connector-curvature="0"
       sodipodi:nodetypes="ccccccccccc" />
    <path
       id="path3777"
       style="fill:none;stroke:#a7ac93;stroke-width:1px;stroke-linecap:round;stroke-linejoin:miter;stroke-opacity:1"
       d="m 4.4205104,13.319212 c 0.357213,0 6.7423946,0.312562 6.7423946,0.312562 l 6.965653,-2.232581 9.64475,2.589794 M 19.066242,-0.88000323 18.217861,11.354541 19.021591,23.45513 M 10.091266,2.2902618 11.118253,13.631773 10.403827,26.580743"
       inkscape:connector-curvature="0"
       sodipodi:nodetypes="cccccccccc" />
    <path
       style="fill:#1033ff;fill-opacity:1;stroke:none"
       d="m 7.5907754,20.619752 c 0,0.678162 -0.5497584,1.22792 -1.2279196,1.22792 -0.6781613,0 -1.2279196,-0.549758 -1.2279196,-1.22792 0,-0.678161 0.5497583,-1.227919 1.2279196,-1.227919 0.6781612,0 1.2279196,0.549758 1.2279196,1.227919 z"
       id="path3780"
       inkscape:connector-curvature="0" />
    <path
       style="fill:#1033ff;fill-opacity:1;stroke:none"
       d="m 15.44946,16.199241 c 0,0.678162 -0.549758,1.22792 -1.227919,1.22792 -0.678161,0 -1.22792,-0.549758 -1.22792,-1.22792 0,-0.678161 0.549759,-1.227919 1.22792,-1.227919 0.678161,0 1.227919,0.549758 1.227919,1.227919 z"
       id="path3782"
       inkscape:connector-curvature="0" />
    <path
       style="fill:#1033ff;fill-opacity:1;stroke:none"
       d="m 14.288518,5.5721556 c 0,0.678162 -0.549758,1.22792 -1.227919,1.22792 -0.678161,0 -1.22792,-0.549758 -1.22792,-1.22792 0,-0.678161 0.549759,-1.227919 1.22792,-1.227919 0.678161,0 1.227919,0.549758 1.227919,1.227919 z"
       id="path3784"
       inkscape:connector-curvature="0" />
    <path
       style="fill:#1033ff;fill-opacity:1;stroke:none"
       d="m 8.0819432,6.2865815 c 0,0.678162 -0.5497584,1.22792 -1.2279196,1.22792 -0.6781613,0 -1.2279196,-0.549758 -1.2279196,-1.22792 0,-0.678161 0.5497583,-1.227919 1.2279196,-1.227919 0.6781612,0 1.2279196,0.549758 1.2279196,1.227919 z"
       id="path3786"
       inkscape:connector-curvature="0" />
    <path
       style="fill:#1033ff;fill-opacity:1;stroke:none"
       d="m 15.226202,22.986287 c 0,0.678162 -0.549758,1.22792 -1.227919,1.22792 -0.678162,0 -1.22792,-0.549758 -1.22792,-1.22792 0,-0.678161 0.549758,-1.227919 1.22792,-1.227919 0.678161,0 1.227919,0.549758 1.227919,1.227919 z"
       id="path3788"
       inkscape:connector-curvature="0" />
    <path
       style="fill:#1033ff;fill-opacity:1;stroke:none"
       d="m 26.612365,22.048603 c 0,0.678162 -0.549758,1.22792 -1.227919,1.22792 -0.678162,0 -1.22792,-0.549758 -1.22792,-1.22792 0,-0.678161 0.549758,-1.227919 1.22792,-1.227919 0.678161,0 1.227919,0.549758 1.227919,1.227919 z"
       id="path3790"
       inkscape:connector-curvature="0" />
    <path
       style="fill:#1033ff;fill-opacity:1;stroke:none"
       d="m 21.656035,17.762048 c 0,0.678162 -0.549758,1.22792 -1.227919,1.22792 -0.678162,0 -1.22792,-0.549758 -1.22792,-1.22792 0,-0.678161 0.549758,-1.227919 1.22792,-1.227919 0.678161,0 1.227919,0.549758 1.227919,1.227919 z"
       id="path3792"
       inkscape:connector-curvature="0" />
    <g
       id="g4652"
       transform="translate(0,-3.409934)">
      <path
         style="font-size:medium;font-style:normal;font-variant:normal;font-weight:normal;font-stretch:normal;text-indent:0;text-align:start;text-decoration:none;line-height:normal;letter-spacing:normal;word-spacing:normal;text-transform:none;direction:ltr;block-progression:tb;writing-mode:lr-tb;text-anchor:start;baseline-shift:baseline;color:#000000;fill:#ff0000;fill-opacity:1;stroke:none;stroke-width:1px;marker:none;visibility:visible;display:inline;overflow:visible;enable-background:accumulate;font-family:Sans;-inkscape-font-specification:Sans"
         d="m 19.90625,8.375 a 0.50005,0.50005 0 0 0 0,1 l 7.6875,1.40625 A 0.50005,0.50005 0 1 0 27.78125,9.8125 L 20.09375,8.375 a 0.50005,0.50005 0 0 0 -0.1875,0 z"
         id="path3796"
         inkscape:connector-curvature="0" />
      <path
         style="fill-rule:evenodd;stroke:#000000;stroke-width:0.2pt;marker-start:none"
         d="m 26.504248,10.079823 -1.166038,0.800222 3.623863,-0.342952 -3.258047,-1.6233076 0.800222,1.1660376 z"
         id="path4658"
         inkscape:connector-curvature="0" />
      <path
         style="fill-rule:evenodd;stroke:#000000;stroke-width:0.2pt;marker-start:none"
         d="M 21.183682,9.0899504 22.34972,8.2897283 18.725857,8.6326804 21.983904,10.255988 21.183682,9.0899504 z"
         id="path4660"
         inkscape:connector-curvature="0" />
    </g>
    <g
       id="g4642"
       transform="translate(0,-3.409934)">
      <path
         style="font-size:medium;font-style:normal;font-variant:normal;font-weight:normal;font-stretch:normal;text-indent:0;text-align:start;text-decoration:none;line-height:normal;letter-spacing:normal;word-spacing:normal;text-transform:none;direction:ltr;block-progression:tb;writing-mode:lr-tb;text-anchor:start;baseline-shift:baseline;color:#000000;fill:#ff0000;fill-opacity:1;fill-rule:nonzero;stroke:none;stroke-width:1px;marker:none;visibility:visible;display:inline;overflow:visible;enable-background:accumulate;font-family:Sans;-inkscape-font-specification:Sans"
         d="m 24.1875,4.34375 a 0.50005,0.50005 0 0 0 -0.40625,0.4375 l -1.25,9.1875 a 0.50606671,0.50606671 0 1 0 1,0.15625 l 1.25,-9.21875 A 0.50005,0.50005 0 0 0 24.1875,4.34375 z"
         id="path3794"
         inkscape:connector-curvature="0" />
      <path
         style="fill-rule:evenodd;stroke:#000000;stroke-width:0.2pt;marker-start:none"
         d="m 23.201857,12.860983 -0.856205,-1.125573 0.519495,3.602794 1.462282,-3.333426 -1.125572,0.856205 z"
         id="path4648"
         inkscape:connector-curvature="0" />
      <path
         style="fill-rule:evenodd;stroke:#000000;stroke-width:0.2pt;marker-start:none"
         d="M 24.12886,6.0408813 24.985065,7.1664538 24.46557,3.5636598 23.003288,6.8970861 24.12886,6.0408813 z"
         id="path4650"
         inkscape:connector-curvature="0" />
    </g>
    <g
       inkscape:label="Layer 1"
       id="layer1-7"
       transform="translate(0.07225797,-0.00910372)" />
  </g>
</svg>
